<svg xmlns="http://www.w3.org/2000/svg" xmlns:xlink="http://www.w3.org/1999/xlink" width="752.548" height="484.921" opacity=".5" xmlns:v="https://vecta.io/nano"><style><![CDATA[.B{fill:none}.C{clip-path:url(#I)}.D{clip-path:url(#J)}.E{fill:#fff}.F{stroke:#fffcab}.G{stroke-linecap:round}.H{stroke-width:2.45}.I{clip-path:url(#A)}.J{clip-path:url(#B)}.K{clip-path:url(#C)}.L{clip-path:url(#D)}]]></style><defs><clipPath id="A"><path d="M0,0H19.359V-22.732H0Z" class="B"/></clipPath><clipPath id="B"><path transform="translate(-17 -35.732)" d="M0 0h53.359v36.732H0z" class="B"/></clipPath><clipPath id="C"><path d="M0-7.742H12.766v-14.99H0Z" transform="translate(0 22.732)" class="B"/></clipPath><clipPath id="D"><path d="M0 0h35.185v24.222H0z" class="B"/></clipPath><clipPath id="E"><path d="M0-9.006H11.69V-22.732H0Z" transform="translate(0 22.732)" class="B"/></clipPath><clipPath id="F"><path d="M0 0h32.22v22.18H0z" class="B"/></clipPath><clipPath id="G"><path d="M0-5.5H14.679V-22.732H0Z" transform="translate(0 22.732)" class="B"/></clipPath><clipPath id="H"><path d="M0 0h40.46v27.853H0z" class="B"/></clipPath><clipPath id="I"><path d="M0,0H6.323V-6.323H0Z" class="B"/></clipPath><clipPath id="J"><path transform="translate(-9 -13.323)" d="M0 0h24.323v14.323H0z" class="B"/></clipPath><path id="K" d="M3.161 0a3.16 3.16 0 0 0 3.161-3.161c0-1.746-1.415-3.161-3.161-3.162S0-4.907 0-3.161A3.16 3.16 0 0 0 3.161 0"/></defs><g style="mix-blend-mode:overlay" class="B F G H"><g transform="translate(253.714 482.125)" class="I"><g style="mix-blend-mode:overlay"><g class="J"><path d="M9.679-21.507v20.282"/><path d="M18.133-11.366H1.225"/></g></g></g></g><g style="mix-blend-mode:overlay" class="B F G H"><g transform="translate(92.399 207.625)" class="K"><g style="mix-blend-mode:overlay"><g transform="translate(-11.21 -8.572)" class="L"><path d="M17.593 9.38v13.374"/><path d="M23.167 16.067H12.018"/></g></g></g></g><g style="mix-blend-mode:overlay" class="B F G H"><g transform="translate(739.782 448.766)" class="K"><g style="mix-blend-mode:overlay"><g transform="translate(-11.21 -8.572)" class="L"><path d="M17.593 9.38v13.374"/><path d="M23.167 16.067H12.018"/></g></g></g></g><g style="mix-blend-mode:overlay" class="B F G H"><g transform="translate(437.782 116.125)" class="K"><g style="mix-blend-mode:overlay"><g transform="translate(-11.21 -8.572)" class="L"><path d="M17.593 9.38v13.374"/><path d="M23.167 16.067H12.018"/></g></g></g></g><g style="mix-blend-mode:overlay" class="B F G H"><g transform="translate(263.393 239.98)" class="I"><g style="mix-blend-mode:overlay"><g class="J"><path d="M9.679-21.507v20.282"/><path d="M18.133-11.366H1.225"/></g></g></g></g><g style="mix-blend-mode:overlay" class="B F G H"><g transform="translate(0 257.491)" class="I"><g style="mix-blend-mode:overlay"><g class="J"><path d="M9.679-21.507v20.282"/><path d="M18.133-11.366H1.225"/></g></g></g></g><g style="mix-blend-mode:overlay" class="B F G H"><g transform="translate(582.575 335.125)" clip-path="url(#E)"><g style="mix-blend-mode:overlay"><g clip-path="url(#F)" transform="translate(-10.265 -7.85)"><path d="M16.11 8.59v12.247"/><path d="M21.213 14.713h-10.21"/></g></g></g></g><g style="mix-blend-mode:overlay" class="B F G H"><g transform="translate(587.575 474.659)" class="I"><g style="mix-blend-mode:overlay"><g class="J"><path d="M9.679-21.507v20.282"/><path d="M18.133-11.366H1.225"/></g></g></g></g><g style="mix-blend-mode:overlay" class="B F G H"><g transform="translate(572.896 35.32)" clip-path="url(#G)"><g style="mix-blend-mode:overlay"><g clip-path="url(#H)" transform="translate(-12.89 -9.857)"><path d="M20.23 10.786v15.379"/><path d="M26.641 18.476H13.82"/></g></g></g></g><g style="mix-blend-mode:overlay" class="B F G H"><g transform="translate(400.889 52.557)" class="I"><g style="mix-blend-mode:overlay"><g class="J"><path d="M9.679-21.507v20.282"/><path d="M18.133-11.366H1.225"/></g></g></g></g><g style="mix-blend-mode:overlay" class="B F G H"><g transform="translate(189.889 84.383)" class="I"><g style="mix-blend-mode:overlay"><g class="J"><path d="M9.679-21.507v20.282"/><path d="M18.133-11.366H1.225"/></g></g></g></g><g style="mix-blend-mode:overlay" class="E"><g transform="translate(314.165 440.771)" class="C"><g style="mix-blend-mode:overlay"><g class="D"><use xlink:href="#K"/></g></g></g></g><g style="mix-blend-mode:overlay" class="E"><g transform="translate(633.531 410.448)" class="C"><g style="mix-blend-mode:overlay"><g class="D"><use xlink:href="#K"/></g></g></g></g><g style="mix-blend-mode:overlay" class="E"><g transform="translate(649.854 32.986)" class="C"><g style="mix-blend-mode:overlay"><g class="D"><use xlink:href="#K"/></g></g></g></g><g style="mix-blend-mode:overlay" class="E"><g transform="translate(59.165 174.391)" class="C"><g style="mix-blend-mode:overlay"><g class="D"><use xlink:href="#K"/></g></g></g></g><g style="mix-blend-mode:overlay" class="E"><g transform="translate(41.564 455.089)" class="C"><g style="mix-blend-mode:overlay"><g class="D"><use xlink:href="#K"/></g></g></g></g><g style="mix-blend-mode:overlay" class="E"><g transform="translate(431.459 484.921)" class="C"><g style="mix-blend-mode:overlay"><g class="D"><use xlink:href="#K"/></g></g></g></g><g style="mix-blend-mode:overlay" class="E"><g transform="translate(139.889 23.628)" class="C"><g style="mix-blend-mode:overlay"><g class="D"><use xlink:href="#K"/></g></g></g></g><g style="mix-blend-mode:overlay" class="E"><g transform="translate(527.503 283.628)" class="C"><g style="mix-blend-mode:overlay"><g class="D"><use xlink:href="#K"/></g></g></g></g><g style="mix-blend-mode:overlay" class="E"><g transform="translate(375.889 6.323)" class="C"><g style="mix-blend-mode:overlay"><g class="D"><use xlink:href="#K"/></g></g></g></g><g style="mix-blend-mode:overlay" class="E"><g transform="translate(332.651 256.42)" class="C"><g style="mix-blend-mode:overlay"><g class="D"><use xlink:href="#K"/></g></g></g></g><g style="mix-blend-mode:overlay" class="E"><g transform="translate(626.517 299.921)" class="C"><g style="mix-blend-mode:overlay"><g class="D"><use xlink:href="#K"/></g></g></g></g><g style="mix-blend-mode:overlay" class="E"><g transform="translate(422.003 213.948)" class="C"><g style="mix-blend-mode:overlay"><g class="D"><use xlink:href="#K"/></g></g></g></g></svg>