<svg xmlns="http://www.w3.org/2000/svg" xmlns:xlink="http://www.w3.org/1999/xlink" width="728.55" height="470.838" xmlns:v="https://vecta.io/nano"><style><![CDATA[.B{opacity:.2}.C{fill:none}.D{stroke:#fffcab}.E{stroke-linecap:round}.F{stroke-width:2.45}.G{clip-path:url(#E)}.H{clip-path:url(#F)}.I{fill:#fff}.J{clip-path:url(#A)}.K{clip-path:url(#B)}.L{clip-path:url(#C)}.M{clip-path:url(#D)}]]></style><defs><clipPath id="A"><path d="M0,0H19.359V-22.732H0Z" class="C"/></clipPath><clipPath id="B"><path transform="translate(-17 -35.732)" d="M0 0h53.359v36.732H0z" class="C"/></clipPath><clipPath id="C"><path d="M0-7.742H12.766v-14.99H0Z" transform="translate(0 22.732)" class="C"/></clipPath><clipPath id="D"><path d="M0 0h35.185v24.222H0z" class="C"/></clipPath><clipPath id="E"><path d="M0,0H6.323V-6.323H0Z" class="C"/></clipPath><clipPath id="F"><path transform="translate(-9 -13.323)" d="M0 0h24.323v14.323H0z" class="C"/></clipPath><path id="G" d="M3.161 0a3.16 3.16 0 0 0 3.161-3.161c0-1.746-1.415-3.161-3.161-3.162S0-4.907 0-3.161A3.16 3.16 0 0 0 3.161 0"/></defs><g style="mix-blend-mode:soft-light" class="B C D E F"><g transform="translate(316.818 123.732)" class="J"><g style="mix-blend-mode:overlay"><g class="K"><path d="M9.679-21.507v20.282"/><path d="M18.133-11.366H1.225"/></g></g></g></g><g style="mix-blend-mode:soft-light" class="B C D E F"><g transform="translate(235.818 340.272)" class="J"><g style="mix-blend-mode:overlay"><g class="K"><path d="M9.679-21.507v20.282"/><path d="M18.133-11.366H1.225"/></g></g></g></g><g opacity=".821" class="C D E F"><g class="B"><g transform="translate(75.662 191.325)" class="L"><g style="mix-blend-mode:overlay"><g transform="translate(-11.21 -8.572)" class="M"><path d="M17.593 9.38v13.374"/><path d="M23.167 16.067H12.018"/></g></g></g></g><g class="B"><g transform="translate(440.662 449.526)" class="L"><g style="mix-blend-mode:overlay"><g transform="translate(-11.21 -8.572)" class="M"><path d="M17.593 9.38v13.374"/><path d="M23.167 16.067H12.018"/></g></g></g></g><g class="B"><g transform="translate(235.818 434.536)" class="L"><g style="mix-blend-mode:overlay"><g transform="translate(-11.21 -8.572)" class="M"><path d="M17.593 9.38v13.374"/><path d="M23.167 16.067H12.018"/></g></g></g></g><g class="B"><g transform="translate(715.785 27.13)" class="L"><g style="mix-blend-mode:overlay"><g transform="translate(-11.21 -8.572)" class="M"><path d="M17.593 9.38v13.374"/><path d="M23.167 16.067H12.018"/></g></g></g></g><g class="B"><g transform="translate(0 251.296)" class="J"><g style="mix-blend-mode:overlay"><g class="K"><path d="M9.679-21.507v20.282"/><path d="M18.133-11.366H1.225"/></g></g></g></g><g class="B"><g transform="translate(299 22.732)" class="J"><g style="mix-blend-mode:overlay"><g class="K"><path d="M9.679-21.507v20.282"/><path d="M18.133-11.366H1.225"/></g></g></g></g><g class="B"><g transform="translate(665.818 371.98)" class="J"><g style="mix-blend-mode:overlay"><g class="K"><path d="M9.679-21.507v20.282"/><path d="M18.133-11.366H1.225"/></g></g></g></g><g class="B"><g transform="translate(659.818 174.98)" class="J"><g style="mix-blend-mode:overlay"><g class="K"><path d="M9.679-21.507v20.282"/><path d="M18.133-11.366H1.225"/></g></g></g></g></g><g style="mix-blend-mode:color-dodge" class="B I"><g transform="translate(115.509 25.894)" class="G"><g style="mix-blend-mode:overlay"><g class="H"><use xlink:href="#G"/></g></g></g></g><g style="mix-blend-mode:color-dodge" class="B I"><g transform="translate(269.823 470.838)" class="G"><g style="mix-blend-mode:overlay"><g class="H"><use xlink:href="#G"/></g></g></g></g><g style="mix-blend-mode:color-dodge" class="B I"><g transform="translate(263.5 298.643)" class="G"><g style="mix-blend-mode:overlay"><g class="H"><use xlink:href="#G"/></g></g></g></g><g style="mix-blend-mode:color-dodge" class="B I"><g transform="translate(669.911 445.192)" class="G"><g style="mix-blend-mode:overlay"><g class="H"><use xlink:href="#G"/></g></g></g></g><g style="mix-blend-mode:color-dodge" class="B I"><g transform="translate(603.509 257.619)" class="G"><g style="mix-blend-mode:overlay"><g class="H"><use xlink:href="#G"/></g></g></g></g><g style="mix-blend-mode:color-dodge" class="B I"><g transform="translate(496.509 11.366)" class="G"><g style="mix-blend-mode:overlay"><g class="H"><use xlink:href="#G"/></g></g></g></g><g style="mix-blend-mode:color-dodge" class="B I"><g transform="translate(408.427 181.303)" class="G"><g style="mix-blend-mode:overlay"><g class="H"><use xlink:href="#G"/></g></g></g></g><g style="mix-blend-mode:color-dodge" class="B I"><g transform="translate(16.198 179.363)" class="G"><g style="mix-blend-mode:overlay"><g class="H"><use xlink:href="#G"/></g></g></g></g></svg>