<?xml version="1.0" encoding="utf-8"?>
<!-- Generator: Adobe Illustrator 27.9.0, SVG Export Plug-In . SVG Version: 6.00 Build 0)  -->
<svg version="1.1" xmlns="http://www.w3.org/2000/svg" xmlns:xlink="http://www.w3.org/1999/xlink" x="0px" y="0px"
	 viewBox="0 0 760.4 511" style="enable-background:new 0 0 760.4 511;" xml:space="preserve">
<style type="text/css">
	.st0{fill:none;stroke:#FFFCAB;stroke-width:2.45;stroke-linecap:round;}
	.st1{fill:#FFFFFF;}
    g g:nth-child(2) path {
        opacity: .88;
    }
    g g:nth-child(3) path {
        opacity: .9;
    }
    g g:nth-child(4) path {
        opacity: .95;
    }
    g g:nth-child(5) path {
        opacity: .85;
    }
    g g:nth-child(6) path {
        opacity: .9;
    }
    g g:nth-child(7) path {
        opacity: .20;
    }
    g g:nth-child(8) path {
        opacity: .24;
    }
    g g:nth-child(9) path {
        opacity: .28;
    }
    g g:nth-child(10) path {
        opacity: .32;
    }
    g g:nth-child(11) path {
        opacity: .36;
    }
    g g:nth-child(12) path {
        opacity: .36;
    }
    g g:nth-child(13) path {
        opacity: .40;
    }
    g g:nth-child(14) path {
        opacity: .44;
    }
    g g:nth-child(15) path {
        opacity: .48;
    }
    g g:nth-child(16) path {
        opacity: .92;
    }
    g g:nth-child(17) path {
        opacity: .56;
    }
    g g:nth-child(18) path {
        opacity: .60;
    }
    g g:nth-child(19) path {
        opacity: .64;
    }
    g g:nth-child(20) path {
        opacity: .68;
    }
    g g:nth-child(21) path {
        opacity: .72;
    }
    g g:nth-child(22) path {
        opacity: .76;
    }
    g g:nth-child(23) path {
        opacity: .80;
    }
    g g:nth-child(24) path {
        opacity: .84;
    }
    g g:nth-child(25) path {
        opacity: .88;
    }
    g g:nth-child(26) path {
        opacity: .92;
    }
</style>

<g id="cross-stars" xmlns:v="https://vecta.io/nano">
	<g>
		<path class="st0" d="M326.5,102.2v20.3"/>
		<path class="st0" d="M335,112.4H318"/>
	</g>
	<g>
		<path class="st0" d="M245.5,318.8V339"/>
		<path class="st0" d="M254,328.9H237"/>
	</g>
	<g>
		<path class="st0" d="M380.2,440.9v20.3"/>
		<path class="st0" d="M388.6,451.1h-16.9"/>
	</g>
	<g>
		<path class="st0" d="M82,192.1v13.4"/>
		<path class="st0" d="M87.6,198.8H76.5"/>
	</g>
	<g>
		<path class="st0" d="M473.2,470.4v13.4"/>
		<path class="st0" d="M478.8,477.1h-11.1"/>
	</g>
	<g>
		<path class="st0" d="M242.2,435.3v13.4"/>
		<path class="st0" d="M247.8,442h-11.1"/>
	</g>
	<g>
		<path class="st0" d="M408.4,353.9v13.4"/>
		<path class="st0" d="M414,360.6h-11.1"/>
	</g>
	<g>
		<path class="st0" d="M76.5,340.6V354"/>
		<path class="st0" d="M82,347.3H70.9"/>
	</g>
	<g>
		<path class="st0" d="M722.2,27.9v13.4"/>
		<path class="st0" d="M727.7,34.6h-11.1"/>
	</g>
	<g>
		<path class="st0" d="M236.6,185.4v13.4"/>
		<path class="st0" d="M242.2,192.1h-11.1"/>
	</g>
	<g>
		<path class="st0" d="M47.5,12.9v13.4"/>
		<path class="st0" d="M53,19.6H41.9"/>
	</g>
	<g>
		<path class="st0" d="M587.4,133.9v13.4"/>
		<path class="st0" d="M592.9,140.6h-11.1"/>
	</g>
	<g>
		<path class="st0" d="M58.6,463.7v13.4"/>
		<path class="st0" d="M64.2,470.4H53"/>
	</g>
	<g>
		<path class="st0" d="M520.5,288.8v13.4"/>
		<path class="st0" d="M526.1,295.5h-11.1"/>
	</g>
	<g>
		<path class="st0" d="M14.7,229.8v20.3"/>
		<path class="st0" d="M23.1,239.9H6.2"/>
	</g>
	<g>
		<path class="st0" d="M308.7,1.2v20.3"/>
		<path class="st0" d="M317.1,11.4h-16.9"/>
	</g>
	<g>
		<path class="st0" d="M675.5,350.5v20.3"/>
		<path class="st0" d="M684,360.6H667"/>
	</g>
	<g>
		<path class="st0" d="M669.5,153.5v20.3"/>
		<path class="st0" d="M678,163.6H661"/>
	</g>
	<g>
		<path class="st0" d="M563.5,17.8v20.3"/>
		<path class="st0" d="M572,27.9h-16.9"/>
	</g>
    </g>
    <g id="circle-stars">

	<g>
	    <path  class="st1" d="M737.6,463.7c1.7,0,3.2-1.4,3.2-3.2c0,0,0,0,0,0c0-1.7-1.4-3.2-3.2-3.2c-1.7,0-3.2,1.4-3.2,3.2
    		C734.4,462.3,735.8,463.7,737.6,463.7C737.6,463.7,737.6,463.7,737.6,463.7"/>
	</g>
	<g>
	    <path  class="st1" d="M115.5,44.5c1.7,0,3.2-1.4,3.2-3.2c0,0,0,0,0,0
    		c0-1.7-1.4-3.2-3.2-3.2c-1.7,0-3.2,1.4-3.2,3.2C112.3,43.1,113.8,44.5,115.5,44.5C115.5,44.5,115.5,44.5,115.5,44.5"/>
	</g>
	<g>
	    <path  class="st1" d="M343,400.8c1.7,0,3.2-1.4,3.2-3.2c0,0,0,0,0,0
    		c0-1.7-1.4-3.2-3.2-3.2s-3.2,1.4-3.2,3.2C339.8,399.4,341.2,400.8,343,400.8C343,400.8,343,400.8,343,400.8"/>
	</g>
	<g>
	    <path  class="st1" d="M532.4,457.4c1.7,0,3.2-1.4,3.2-3.2c0,0,0,0,0,0
    		c0-1.7-1.4-3.2-3.2-3.2c-1.7,0-3.2,1.4-3.2,3.2C529.3,456,530.7,457.4,532.4,457.4C532.4,457.4,532.4,457.4,532.4,457.4"/>
	</g>
	<g>
	    <path  class="st1" d="M502.8,353.6c1.7,0,3.2-1.4,3.2-3.2c0,0,0,0,0,0
    		c0-1.7-1.4-3.2-3.2-3.2c-1.7,0-3.2,1.4-3.2,3.2C499.7,352.2,501.1,353.6,502.8,353.6C502.8,353.6,502.8,353.6,502.8,353.6"/>
	</g>
	<g>
	    <path  class="st1" d="M438.1,208.7c1.7,0,3.2-1.4,3.2-3.2c0,0,0,0,0,0
    		c0-1.7-1.4-3.2-3.2-3.2c-1.7,0-3.2,1.4-3.2,3.2C435,207.3,436.4,208.7,438.1,208.7C438.1,208.7,438.1,208.7,438.1,208.7"/>
	</g>
	<g>
	    <path  class="st1" d="M380.2,332.1c1.7,0,3.2-1.4,3.2-3.2c0,0,0,0,0,0
    		c0-1.7-1.4-3.2-3.2-3.2s-3.2,1.4-3.2,3.2C377,330.7,378.4,332.1,380.2,332.1C380.2,332.1,380.2,332.1,380.2,332.1"/>
	</g>
	<g>
	    <path  class="st1" d="M266.7,298.6c1.7,0,3.2-1.4,3.2-3.2c0,0,0,0,0,0
    		c0-1.7-1.4-3.2-3.2-3.2s-3.2,1.4-3.2,3.2C263.5,297.2,264.9,298.6,266.7,298.6C266.7,298.6,266.7,298.6,266.7,298.6"/>
	</g>
	<g>
	    <path  class="st1" d="M96,460.5c1.7,0,3.2-1.4,3.2-3.2c0,0,0,0,0,0
    		c0-1.7-1.4-3.2-3.2-3.2c-1.7,0-3.2,1.4-3.2,3.2C92.8,459.1,94.2,460.5,96,460.5C96,460.5,96,460.5,96,460.5"/>
	</g>
	<g>
	    <path  class="st1" d="M318,229.8c1.7,0,3.2-1.4,3.2-3.2c0,0,0,0,0,0
    		c0-1.7-1.4-3.2-3.2-3.2c-1.7,0-3.2,1.4-3.2,3.2C314.9,228.4,316.3,229.8,318,229.8C318,229.8,318,229.8,318,229.8"/>
	</g>
	<g>
	    <path  class="st1" d="M292.5,133.9c1.7,0,3.2-1.4,3.2-3.2c0,0,0,0,0,0
    		c0-1.7-1.4-3.2-3.2-3.2c-1.7,0-3.2,1.4-3.2,3.2C289.3,132.5,290.7,133.9,292.5,133.9C292.5,133.9,292.5,133.9,292.5,133.9"/>
	</g>
	<g>
	    <path  class="st1" d="M156.1,166.8c1.7,0,3.2-1.4,3.2-3.2c0,0,0,0,0,0
    		c0-1.7-1.4-3.2-3.2-3.2c-1.7,0-3.2,1.4-3.2,3.2C153,165.4,154.4,166.8,156.1,166.8C156.1,166.8,156.1,166.8,156.1,166.8"/>
	</g>
	<g>
	    <path  class="st1" d="M153,279.5c1.7,0,3.2-1.4,3.2-3.2c0,0,0,0,0,0
    		c0-1.7-1.4-3.2-3.2-3.2s-3.2,1.4-3.2,3.2C149.8,278.1,151.2,279.5,153,279.5C153,279.5,153,279.5,153,279.5"/>
	</g>
	<g>
	    <path  class="st1" d="M411.6,31.1c1.7,0,3.2-1.4,3.2-3.2c0,0,0,0,0,0
    		c0-1.7-1.4-3.2-3.2-3.2c-1.7,0-3.2,1.4-3.2,3.2C408.4,29.7,409.8,31.1,411.6,31.1C411.6,31.1,411.6,31.1,411.6,31.1"/>
	</g>
	<g>
	    <path  class="st1" d="M179.8,68.1c1.7,0,3.2-1.4,3.2-3.2c0,0,0,0,0,0
    		c0-1.7-1.4-3.2-3.2-3.2s-3.2,1.4-3.2,3.2C176.6,66.6,178,68.1,179.8,68.1C179.8,68.1,179.8,68.1,179.8,68.1"/>
	</g>
	<g>
	    <path  class="st1" d="M99.1,342.2c1.7,0,3.2-1.4,3.2-3.2c0,0,0,0,0,0
    		c0-1.7-1.4-3.2-3.2-3.2c-1.7,0-3.2,1.4-3.2,3.2C96,340.8,97.4,342.2,99.1,342.2C99.1,342.2,99.1,342.2,99.1,342.2"/>
	</g>
	<g>
	    <path  class="st1" d="M625.9,438.5c1.7,0,3.2-1.4,3.2-3.2c0,0,0,0,0,0
    		c0-1.7-1.4-3.2-3.2-3.2c-1.7,0-3.2,1.4-3.2,3.2C622.7,437.1,624.1,438.5,625.9,438.5C625.9,438.5,625.9,438.5,625.9,438.5"/>
	</g>
	<g>
	    <path  class="st1" d="M606.7,257.6c1.7,0,3.2-1.4,3.2-3.2c0,0,0,0,0,0
    		c0-1.7-1.4-3.2-3.2-3.2c-1.7,0-3.2,1.4-3.2,3.2C603.5,256.2,604.9,257.6,606.7,257.6C606.7,257.6,606.7,257.6,606.7,257.6"/>
	</g>
	<g>
	    <path  class="st1" d="M713.4,301.8c1.7,0,3.2-1.4,3.2-3.2c0,0,0,0,0,0
    		c0-1.7-1.4-3.2-3.2-3.2c-1.7,0-3.2,1.4-3.2,3.2C710.3,300.4,711.7,301.8,713.4,301.8C713.4,301.8,713.4,301.8,713.4,301.8"/>
	</g>
	<g>
	    <path  class="st1" d="M743.9,102.2c1.7,0,3.2-1.4,3.2-3.2c0,0,0,0,0,0
    		c0-1.7-1.4-3.2-3.2-3.2c-1.7,0-3.2,1.4-3.2,3.2C740.8,100.8,742.2,102.2,743.9,102.2C743.9,102.2,743.9,102.2,743.9,102.2"/>
	</g>
	<g>
	    <path  class="st1" d="M204.7,490.1c1.7,0,3.2-1.4,3.2-3.2c0,0,0,0,0,0
    		c0-1.7-1.4-3.2-3.2-3.2c-1.7,0-3.2,1.4-3.2,3.2C201.5,488.7,202.9,490.1,204.7,490.1C204.7,490.1,204.7,490.1,204.7,490.1"/>
	</g>
	<g>
	    <path  class="st1" d="M684,44.5c1.7,0,3.2-1.4,3.2-3.2c0,0,0,0,0,0
    		c0-1.7-1.4-3.2-3.2-3.2c-1.7,0-3.2,1.4-3.2,3.2C680.8,43.1,682.2,44.5,684,44.5C683.9,44.5,684,44.5,684,44.5"/>
	</g>
	<g>
	    <path  class="st1" d="M499.7,11.4c1.7,0,3.2-1.4,3.2-3.2c0,0,0,0,0,0
    		c0-1.7-1.4-3.2-3.2-3.2s-3.2,1.4-3.2,3.2C496.5,10,497.9,11.4,499.7,11.4C499.7,11.4,499.7,11.4,499.7,11.4"/>
	</g>
	<g>
	    <path  class="st1" d="M411.6,181.3c1.7,0,3.2-1.4,3.2-3.2c0,0,0,0,0,0
    		c0-1.7-1.4-3.2-3.2-3.2c-1.7,0-3.2,1.4-3.2,3.2C408.4,179.9,409.8,181.3,411.6,181.3C411.6,181.3,411.6,181.3,411.6,181.3"/>
	</g>
	<g>
	    <path  class="st1" d="M529.3,122.5c1.7,0,3.2-1.4,3.2-3.2c0,0,0,0,0,0
    		c0-1.7-1.4-3.2-3.2-3.2c-1.7,0-3.2,1.4-3.2,3.2C526.1,121.1,527.5,122.5,529.3,122.5C529.3,122.5,529.3,122.5,529.3,122.5"/>
	</g>
	<g>
	    <path  class="st1" d="M19.4,179.4c1.7,0,3.2-1.4,3.2-3.2c0,0,0,0,0,0
    		c0-1.7-1.4-3.2-3.2-3.2c-1.7,0-3.2,1.4-3.2,3.2C16.2,177.9,17.6,179.4,19.4,179.4C19.4,179.4,19.4,179.4,19.4,179.4"/>
	</g>
        </g>

</svg>
