<?xml version="1.0" encoding="UTF-8"?><svg id="Layer_1" xmlns="http://www.w3.org/2000/svg" viewBox="0 0 1280 393.04"><path d="M226.02,201.92c0-19.71,.25-54.89,.25-75.64-.16-4.15-1.6-6.39-4.31-6.71-10.54-.32-32.43-.48-39.29-.48-1.28,0-2.16,.96-2.64,2.88-.32,1.28-.48,2.72-.48,4.31,.06,24.52-.51,58.77-.51,75.91-.11,1.66-.89,9.82-5.91,14.82,4.61,4.82,5.66,12.33,5.87,14.51-.04,18.3,.44,52.69,.31,75.01,0,4.79,1.6,7.35,4.79,7.67,12.94,1.12,34.5,1.12,38.34,0,2.55-.64,3.83-2.88,3.83-6.71,0-24.99-.25-58.9-.25-75.28,0,0,.32-9.55,5.93-15.14-5.44-5.68-5.93-15.14-5.93-15.14Z"/><path d="M164.39,222.12v-6.85c0-8.26-2.85-16.32-8.55-24.19-5.12-7.08-10.91-12.19-17.4-15.34,9.24-5.5,15.34-11.8,18.29-18.88,2.09-5.13,3.25-13.21,3.51-24.21h0l.31-30.28h-.02l.02-2.16c.2-11.6-4.02-21.78-12.65-30.53-8.63-8.75-18.83-13.13-25.32-13.13H46.22c-6.45,0-7.03,1.18-7.03,3.54v7.19c0,1.15,.75,1.64,.75,1.64l6.35,5.99c.81,.76,.8,2.16,.8,2.16v78.17s-.43,12.73-7.9,20.19c7.25,7.57,7.9,20.18,7.9,20.18v99.3c0,2.95,.98,4.42,2.95,4.42h46.76c24.58,0,36.82-1.97,47.24-5.9,13.57-4.91,20.35-14.35,20.35-28.32v-43Zm-66.08-69.11c0-26.15-.28-56.25-.28-66.09,0-.92,.71-1.01,1.76-1.09,.63-.05,2.31-.09,3.26,.04,1.58,.22,3.71,3.18,5.08,6.16,1.29,2.8,1.96,15.38,1.77,22.06l-.59,26.85c-.2,4.53-2.58,10.81-6.93,13.11-.79,.41-1.22,.67-2.08,.7-.86,.03-1.98,.16-1.98-1.73Zm3.29,114.71h1.14c-2.17,0-3.27,.11-3.25-1.2v-65.52c-.06-1.15,.7-1.25,2.07-1.07,6.41,.87,9.33,5.61,9.52,16.82l.3,22.67c.19,17.11,.44,28.3-9.78,28.3Z"/><path d="M543.55,269.53v-6.85c0-8.26-2.85-16.32-8.56-24.19-5.12-7.08-10.91-12.19-17.41-15.34,9.24-5.5,15.34-11.8,18.29-18.88,2.09-5.13,3.25-13.21,3.51-24.21h.01l.31-30.28h-.02l.02-2.16c.2-11.6-4.02-21.78-12.65-30.53-8.63-8.75-18.83-13.13-25.32-13.13h-76.37c-6.45,0-7.03,1.18-7.03,3.54v7.19c0,1.15,.75,1.64,.75,1.64l6.35,5.99c.81,.76,.81,2.16,.81,2.16v78.17s-.43,12.73-7.9,20.18c7.25,7.57,7.9,20.18,7.9,20.18v99.3c0,2.95,.98,4.42,2.95,4.42h46.76c24.58,0,36.82-1.97,47.24-5.9,13.57-4.91,20.35-14.35,20.35-28.32v-43.01Zm-66.08-71.46c0-26.15-.1-52.05-.3-61.89,0-1.77,.59-2.75,1.77-2.95,1.18-.19,1.78-.14,2.97-.07,1.96,.63,4,3.29,5.37,6.26,1.29,2.8,1.96,15.38,1.77,22.06l-.59,26.85c-.2,4.53-2.51,10.65-6.93,13.11l-2,.46c-1.38,0-2.07-1.28-2.07-3.84Zm3.29,117.05h1.14c-2.17,0-3.25-1.28-3.25-3.83v-60.71c0-2.16,.7-3.43,2.07-3.25,6.41,.87,9.33,5.61,9.52,16.82l.3,22.67c.19,17.11,.44,28.3-9.78,28.3Z"/><path d="M341.33,193.58c-16.51-.17-37.31-.26-46.62-.26-2.63,0-3.95,1.32-3.95,3.95v25.55c0,1.58,.79,2.37,2.37,2.37h3.69c1.4-.17,2.11,.88,2.11,3.16v13.43c0,6.15-.2,11.57-.1,16.09,.2,8.73-1.61,14.93-6.36,14.87-4.22-.05-5.37-6.89-5.37-13.97,0-4.56,.05-9.32,.05-10.91v-43.16c.25-3,.26-35.92,0-38.72v-23.54c0-13.84-.57-23.36,5.93-23.36,5.27,0,5.54,9.39,5.54,23.55,.35,10.14-.05,20.37,.31,30.68,.17,2.62,1.32,3.93,3.42,3.93,12.99,.35,33.09,.44,39.24,.26,2.28,0,3.43-1.49,3.43-4.46,.17-7.35,0-18.82-.53-34.4-.18-16.63-2.9-28.45-8.17-35.45-7.02-9.8-25.55-14.71-45.04-14.71-14.02,0-32.92,3.41-39.24,10.22-7.02,7.69-10.63,22.37-10.8,44.03l-.16,33.03h-.2s-.43,12.73-7.9,20.18c7.25,7.57,7.9,20.19,7.9,20.19h0l-.17,33.54c-.18,18.52,2.98,31.8,9.48,39.84,7.37,9.08,27.69,13.63,43.46,13.63,16.68,0,31.78-4.12,34.77-12.38,1.58,3.79,2.72,6.79,3.43,9.03,.7,2.23,1.84,3.35,3.42,3.35h7.37c1.75,0,2.63-2.37,2.63-7.09v-98.01c0-2.97-1.32-4.46-3.95-4.46Z"/><path d="M1104.19,173.33c-6.76-6.74-7.45-18.01-7.5-19.07v-44.39c0-19.8-4.3-33.63-12.89-41.48-6.73-6.17-24.88-9.25-39.45-9.25-13.64,0-31.33,3.55-38.05,10.65-8.22,8.6-12.33,23.08-12.33,43.44v41.03c-.05,1.06-.74,12.33-7.5,19.07,6.64,6.94,7.45,18.29,7.5,19.1v50.56c0,16.25,3.17,28.03,9.53,35.31,6.73,7.85,25.34,11.77,40.86,11.77,29.89,0,52.35-15.7,52.35-47.08v-50.56c.05-.81,.86-12.16,7.5-19.1Zm-58.87,81.34c-5.08,.05-5.62-5.73-5.76-14.01v-48.24c.05-.81-.05-14.05,5-19.1-5.28-5.29-4.95-18.01-5-19.07v-47.11c0-11.21,.39-16.81,6.19-16.81,5.23,0,5.35,5.51,5.35,16.54v47.39c-.05,1.06,.12,13.95-5,19.07,5.09,5.09,4.95,18.29,5,19.1v47.96c0,9.53-.54,14.23-5.77,14.29Z"/><path d="M794.11,160.05v-21.6c0-21.83-3.24-39.53-9.71-53.1-8.43-17.3-21.37-25.86-38.82-25.67-9.86-.08-74.44-.1-74.44-.1-1.18,0-1.76,1.18-1.76,3.54v7.19c0,1.15,.75,1.64,.75,1.64l6.35,5.99c.54,.51,.71,1.28,.77,1.75v80.52c-.2,2.63-1.37,13.08-7.86,19.56,6.39,6.67,7.66,17.25,7.86,19.67v97.12c0,3.34,1.37,5.02,4.13,5.02h60.23c35,0,52.51-27.63,52.51-82.9v-19.29c.19-2.54,1.33-13.1,7.87-19.62-6.46-6.75-7.68-17.47-7.87-19.73Zm-52.54-.45s.05,14.87-5.27,20.19c5.24,5.24,5.27,20.18,5.27,20.18v7.52c0,13.57,1.23,46.33-2.72,55.33-2.33,5.3-5.33,5.51-6.67,5.38-1.38,0-2.07-.31-2.07-1.79,0-15.43,.01-66.43,.01-66.43,0,0-.06-14.86,5.27-20.18-5.4-5.4-5.27-20.18-5.27-20.18,0,0-.08-66.02-.01-66.79,.11-1.26,.77-1.5,2.33-1.5,1.33,0,2.76-.8,5.21,3.16,4.51,7.29,3.92,31,3.92,39.26v25.87Z"/><path d="M979.16,236.32c0-3.34-1.48-5.02-4.43-5.02-7.28-.19-27.65-.29-40.04-.29-2.76,0-4.13,1.77-4.13,5.31,0,.59-.19,2.85,0,6.19v8.26c0,11.44,.12,22.13-.13,29.45-.21,6.13-2.4,9.14-5.82,9.14-4.33,0-5.35-3.25-5.8-6.35-.73-5.02-1.03-22-1.03-27.51v-35.21c.12-1.65,1.18-12.95,7.89-19.96-6.85-6.83-7.78-18.08-7.89-19.9v-8.71c0-16.19-.22-39.37-.17-45.05,.07-8.31,.57-15.39,6.06-15.36,6.45,.03,6.45,7.14,6.59,14.71v29.48c.19,3.35,2.07,5.01,5.61,5.01-.99,0,13.97,.2,23.81,.59,7.08,.2,11.99,.1,14.75-.29,2.75-.39,4.23-2.16,4.42-5.31,.19-3.14,.29-7.67,.29-13.57,.04-1.86,.15-53.2,.15-53.2,0-4.73-.88-7.1-2.63-7.1h-7.37c-1.58,0-2.72,1.12-3.42,3.35-.45,1.44-1.11,3.24-1.93,5.33-8.12-8.64-24.72-12.98-39.32-12.98-17.51,0-38.48,7.96-47.14,23.9-5.71,10.43-8.56,20.85-8.56,31.27v47.67h-.02s-.43,12.73-7.9,20.18c7.25,7.57,7.9,20.18,7.9,20.18h.02v25.84c0,23.41,2.55,40.81,7.67,52.21,7.47,16.52,28.75,24.78,48.02,24.78,16.52,0,34.37-6.58,43.03-19.76,7.67-11.6,11.5-26.45,11.5-44.54,.19-10.03,.19-17.6,0-22.72Z"/><path d="M655.76,226.13h0s-1.37-12.55,4.59-21.18c-8.57-6.17-10.86-18.67-10.86-18.67h0c-.22-1.39-.41-2.56-.54-3.33-7.16-43.82-11.54-65.8-13.16-65.94-3.44-.19-56.66-.37-56.66-.37-.89,0-1.32,.88-1.32,2.65v5.39c0,.86,.56,1.23,.56,1.23l4.76,4.5c.61,.57,.6,1.62,.6,1.62v.03c-2.4,10.92-5.61,27.75-9.64,50.6-.16,.89-.4,2.27-.68,3.92-.44,1.9-3.26,12.71-11.1,18.26,5.12,7.56,4.67,18.04,4.46,20.62-4.92,29.71-9.84,59.39-14.76,88.97-.49,1.97,.57,2.95,3.18,2.95h40.66c.82,0,1.55-.75,2.2-2.23,2.45-13.07,4.41-24.56,5.88-34.49,.33-1.16,1.06-1.74,2.21-1.74h9.55c1.63,0,2.53,.57,2.69,1.72,.82,5.72,2.04,12.58,3.67,20.57,2.28,10.62,1.53,15.92,3,15.92,4.57,0,23.13,.08,29.34,.24h12.74c1.63,0,2.37-.49,2.2-1.47-4.46-29.92-9.01-59.85-13.59-89.78Zm-42.01,23.15c-1.47,.17-3.06,.12-4.78-.12-1.72-.24-2.49-.61-2.33-1.1,.65-5.39,1.3-10.69,1.96-15.92,1.14-8,2.12-12,2.94-12,.65,0,2.2,9.31,4.65,27.92,0,.65-.82,1.06-2.45,1.22Z"/><g><path d="M1217.09,120.93c.01,.22,.04,.42,.04,.66-.01-.68-.03-.86-.04-.66Z"/><path d="M1216.99,203.73c.2-34.52-.01-81.32,.1-82.8-.2-3.08-1.82-4.72-4.88-4.88h-29.7c-3.13-.16-4.69,1.68-4.69,5.55,0,38.18,.31,64.08,.94,77.7,.31,5.21-.08,7.82-1.17,7.82-.79,0-1.8-2.26-3.05-6.79-3.13-11.74-8.6-38.48-16.41-79.07-.63-3.52-2.03-5.29-4.22-5.29-.63,0-17.97,.02-19.34,0l-27.16-.04c-.88,0-1.32,.88-1.32,2.65v5.39c0,.86,.56,1.23,.56,1.23l4.76,4.49c.61,.57,.6,1.62,.6,1.62v23.42h0c-.01,16.36,.06,35.35-.07,49.87-.24,2.53-1.31,9.68-5.86,14.22,5.44,5.68,5.93,15.14,5.93,15.14,0,0-.2,63.2,0,81.35,.04,4.02,1.79,5.94,4.92,5.77,.78,0,11.14,.08,16.76,.26,4.37,.17,7.89-.08,10.55-.75,3.9-.83,5.86-2.92,5.86-6.26,0-11.18,.08-26.77,.23-46.79v-35.54c0-3.5,.47-5.25,1.41-5.25,1.25,0,2.18,1.26,2.81,3.78,6.88,31.87,11.33,60.38,16.48,85.54,.78,3.02,2.54,5.03,5.39,5.28,8.77,.78,28.34,.71,36.9,0,2.54-.21,3.75-2.94,3.75-7.31,.13-27.54-.34-65.07-.26-80.2,0,0,.62-9.46,6.06-15.13-5.18-5.18-5.83-13.73-5.89-14.98Z"/></g></svg>