<svg xmlns="http://www.w3.org/2000/svg" viewBox="0 0 1353.33 290.2"><path d="M226,201.92c0-19.71.25-54.88.25-75.64-.16-4.15-1.6-6.38-4.31-6.71-10.55-.32-32.43-.48-39.3-.48-1.28,0-2.16,1-2.63,2.88a17.33,17.33,0,0,0-.48,4.31c.06,24.52-.51,58.77-.52,75.91-.11,1.66-.89,9.82-5.9,14.82,4.61,4.82,5.66,12.33,5.87,14.51,0,18.3.44,52.68.31,75q0,7.19,4.79,7.66c12.94,1.12,34.5,1.12,38.34,0,2.55-.64,3.83-2.87,3.83-6.71,0-25-.25-58.89-.25-75.28,0,0,.33-9.55,5.93-15.14C226.51,211.38,226,201.92,226,201.92Z" transform="translate(-39.19 -56.56)"/><path d="M164.39,222.12v-6.85q0-12.39-8.55-24.19-7.68-10.62-17.4-15.34,13.86-8.25,18.29-18.88c2.08-5.12,3.25-13.21,3.5-24.2h0l.32-30.28h0l0-2.16q.3-17.4-12.65-30.53c-8.63-8.75-18.82-13.13-25.32-13.13H46.22c-6.45,0-7,1.18-7,3.54v7.19a2,2,0,0,0,.75,1.64l6.35,6a3.31,3.31,0,0,1,.8,2.16v78.18s-.43,12.73-7.9,20.18c7.25,7.57,7.9,20.18,7.9,20.18v99.31c0,2.94,1,4.42,2.95,4.42H96.8c24.58,0,36.81-2,47.24-5.9q20.36-7.36,20.35-28.32v-43ZM98.31,153c0-26.15-.28-56.25-.28-66.09,0-.92.72-1,1.76-1.09a20,20,0,0,1,3.26,0c1.58.22,3.71,3.18,5.08,6.15,1.3,2.8,2,15.38,1.77,22.07l-.58,26.84c-.2,4.53-2.58,10.82-6.94,13.11a4.27,4.27,0,0,1-2.08.7C99.44,154.77,98.31,154.91,98.31,153Zm3.29,114.71h1.14c-2.17,0-3.26.11-3.25-1.2V201c-.06-1.15.7-1.25,2.07-1.07,6.41.87,9.33,5.61,9.53,16.82l.29,22.67C111.57,256.53,111.83,267.72,101.6,267.72Z" transform="translate(-39.19 -56.56)"/><path d="M543.55,269.53v-6.85q0-12.39-8.55-24.19-7.68-10.62-17.41-15.34,13.88-8.25,18.29-18.88c2.09-5.12,3.26-13.21,3.51-24.2h0l.31-30.28h0l0-2.16q.28-17.4-12.65-30.53c-8.63-8.75-18.82-13.13-25.32-13.13H425.38c-6.45,0-7,1.18-7,3.54v7.19a1.94,1.94,0,0,0,.74,1.63l6.36,6a3.31,3.31,0,0,1,.8,2.16v78.18s-.43,12.73-7.9,20.18c7.25,7.57,7.9,20.18,7.9,20.18v99.31c0,2.94,1,4.42,2.95,4.42H476c24.58,0,36.81-2,47.24-5.9q20.35-7.38,20.35-28.32v-43Zm-66.08-71.45c0-26.16-.1-52.05-.29-61.89,0-1.77.59-2.75,1.77-2.95a11.36,11.36,0,0,1,3-.07c2,.63,4,3.29,5.37,6.27,1.3,2.79,2,15.37,1.77,22.06l-.58,26.84c-.2,4.53-2.51,10.65-6.94,13.11l-2,.46C478.16,201.91,477.47,200.64,477.47,198.08Zm3.29,117h1.14q-3.25,0-3.25-3.83V250.59c0-2.16.7-3.43,2.07-3.25,6.41.87,9.33,5.61,9.52,16.82l.3,22.67C490.73,303.94,491,315.13,480.76,315.13Z" transform="translate(-39.19 -56.56)"/><path d="M341.33,193.58c-16.51-.17-37.31-.26-46.62-.26q-3.94,0-3.95,4v25.55a2.09,2.09,0,0,0,2.37,2.37h3.69c1.4-.17,2.11.88,2.11,3.16v13.44c0,6.15-.21,11.57-.1,16.08.2,8.73-1.62,14.93-6.36,14.87-4.22-.05-5.37-6.88-5.36-14,0-4.57,0-9.32,0-10.91V204.71c.25-3,.26-35.92,0-38.71V142.45c0-13.84-.57-23.36,5.93-23.36,5.27,0,5.54,9.39,5.54,23.55.35,10.14-.05,20.38.31,30.69.17,2.62,1.31,3.92,3.42,3.92,13,.36,33.1.44,39.24.27q3.44,0,3.43-4.47.25-11-.53-34.4-.27-24.95-8.16-35.45c-7-9.81-25.55-14.71-45-14.71-14,0-32.93,3.41-39.25,10.23q-10.53,11.52-10.8,44l-.16,33h-.2s-.43,12.73-7.9,20.18c7.25,7.57,7.9,20.19,7.9,20.19h0l-.16,33.54q-.27,27.78,9.48,39.83c7.38,9.09,27.69,13.63,43.46,13.63,16.68,0,31.78-4.12,34.76-12.38q2.38,5.69,3.43,9t3.42,3.35h7.38c1.75,0,2.63-2.37,2.63-7.09v-98C345.28,195.08,344,193.58,341.33,193.58Z" transform="translate(-39.19 -56.56)"/><path d="M794.11,160.05v-21.6q0-32.74-9.7-53.1Q771.77,59.4,745.59,59.68c-9.86-.08-74.45-.09-74.45-.09-1.18,0-1.76,1.18-1.76,3.54v7.18a2,2,0,0,0,.74,1.64l6.36,6a2.86,2.86,0,0,1,.76,1.75v80.52c-.2,2.63-1.37,13.09-7.86,19.57,6.39,6.67,7.66,17.24,7.86,19.66v97.12q0,5,4.13,5H741.6q52.51,0,52.51-82.9V199.4c.19-2.54,1.34-13.1,7.87-19.62C795.52,173,794.3,162.31,794.11,160.05Zm-52.53-.45s0,14.87-5.27,20.19c5.24,5.24,5.27,20.18,5.27,20.18v7.51c0,13.57,1.23,46.33-2.72,55.33-2.33,5.31-5.33,5.52-6.68,5.38s-2.06-.31-2.06-1.79c0-15.43,0-66.43,0-66.43s-.06-14.86,5.27-20.19c-5.4-5.4-5.27-20.18-5.27-20.18s-.08-66,0-66.79c.11-1.26.77-1.5,2.33-1.5,1.33,0,2.76-.8,5.21,3.16,4.51,7.29,3.92,31,3.92,39.26Z" transform="translate(-39.19 -56.56)"/><path d="M655.76,226.13h0s-1.37-12.55,4.59-21.18c-8.56-6.17-10.86-18.67-10.86-18.67h0c-.23-1.39-.42-2.56-.54-3.33Q638.22,117.22,635.8,117c-3.44-.19-56.66-.36-56.66-.36-.89,0-1.32.88-1.32,2.65v5.39a1.49,1.49,0,0,0,.55,1.23l4.77,4.49a2.5,2.5,0,0,1,.6,1.63v0c-2.4,10.92-5.61,27.75-9.64,50.6-.16.89-.4,2.26-.69,3.91-.44,1.9-3.26,12.71-11.1,18.26,5.12,7.56,4.67,18,4.47,20.62Q559.4,270,552,314.43q-.74,3,3.19,2.95h40.66c.82,0,1.55-.75,2.21-2.23q3.66-19.61,5.87-34.49a2.14,2.14,0,0,1,2.21-1.74h9.55c1.63,0,2.53.58,2.7,1.72q1.22,8.58,3.67,20.57c2.28,10.62,1.53,15.93,3,15.93,4.57,0,23.13.08,29.34.24h12.73c1.63,0,2.37-.49,2.21-1.47Q662.67,271,655.76,226.13Zm-42,23.16a18.87,18.87,0,0,1-4.77-.13c-1.72-.24-2.5-.61-2.33-1.1q1-8.09,2-15.92,1.71-12,2.94-12,1,0,4.65,27.92C616.2,248.72,615.38,249.13,613.75,249.29Z" transform="translate(-39.19 -56.56)"/><path d="M934.25,94.2H908.09c-24.13,0-36.89,13.19-36.89,38.14v131c0,24.78,12.85,37.87,37.17,37.87H934c24.32,0,37.17-13.09,37.17-37.87v-131C971.13,107.39,958.38,94.2,934.25,94.2Zm1.21,39.8V261.39c0,6.29-2.53,7.56-6.62,7.56H914.91c-5.86,0-8-2.05-8-7.56V134c0-5.5,2.1-7.55,7.76-7.55h12.79C933.28,126.45,935.46,128.5,935.46,134Z" transform="translate(-39.19 -56.56)"/><polygon points="998.63 109.74 976.66 37.64 942.05 37.64 942.05 244.64 977.72 244.64 977.72 136.93 998.63 201.58 998.63 244.64 1034.31 244.64 1034.31 37.64 998.63 37.64 998.63 109.74"/><polygon points="1081.51 37.64 1045.83 37.64 1045.83 244.64 1119.04 244.64 1119.04 212.38 1081.51 212.38 1081.51 37.64"/><rect x="1126.3" y="37.64" width="35.67" height="207"/><polygon points="1230.08 109.74 1208.11 37.64 1173.5 37.64 1173.5 244.64 1209.17 244.64 1209.17 136.92 1230.08 201.58 1230.08 244.64 1265.75 244.64 1265.75 37.64 1230.08 37.64 1230.08 109.74"/><polygon points="1353.33 69.89 1353.33 37.64 1277.28 37.64 1277.28 244.64 1353.33 244.64 1353.33 212.38 1312.95 212.38 1312.95 154.35 1348.78 154.35 1348.78 122.1 1312.95 122.1 1312.95 69.89 1353.33 69.89"/></svg>