<svg xmlns="http://www.w3.org/2000/svg" viewBox="0 0 789.94 568.16"><defs><style>.a{fill:#bde7fa;}.b{fill:#fbf06c;}.c{fill:#83a0ad;}.d{fill:#aca57e;}.e{fill:#849357;}.f{fill:#94a267;}.g{fill:#86815f;}.h{fill:#c4cfa0;}.i{fill:#e0e9c4;}</style></defs><rect class="a" x="59.25" y="1" width="710.55" height="563.41"/><ellipse class="b" cx="459.01" cy="264.99" rx="36.82" ry="35.56"/><path class="c" d="M766.84,357.57c-19.25-31.43-43.11-58.81-70.23-80.55-3-2.36-6.23-4.73-9.77-4.36-3.71.41-6.66,3.82-9.26,7q-16.22,19.86-32.39,39.71c-7.22,8.87-14.94,18.1-25,21.28-5,1.6-10.26,1.6-15.4,2.32-13.42,2-25.88,9-38.46,14.88-15.71,7.3-32,12.8-48.26,18q-6.42-3-12.81-6.18-22.5-10.94-44.76-22.16-71.6-36-141.12-74.42c-3.75-2.07-7.64-4.17-12.16-4.83C299,267.08,291,271.21,284.13,275c-24.32,13.34-50.42,25.62-79.49,30.54-13.67,2.32-27.71,2.94-41.65,3.55-34.21,1.54-68.59,3.07-102.68.33V485.17l710.55-10.7V363.6C769.73,361.46,768,359.48,766.84,357.57Z" transform="translate(-1.06 -18.53)"/><path class="d" d="M312.83,366q-2.71-77.82-5.39-155.63c-2.15.11-3.92,2.44-4.64,5.1a29,29,0,0,0-.55,8.34q1.2,35.5,2.36,71C306,338.41,304.15,382,306,425.55c.26,5.8.55,11.59.93,17.39a4.87,4.87,0,0,0,.89,3,2.45,2.45,0,0,0,1.81.51c2.49,0,5.31.37,7.71-.11,1.69-17.79-1.68-36.22-3.16-53.83C313.42,383.71,313.13,374.85,312.83,366Z" transform="translate(-1.06 -18.53)"/><path class="d" d="M294.08,366q-2.73-77.82-5.4-155.63c-2.15.11-3.92,2.44-4.63,5.1a28.61,28.61,0,0,0-.55,8.34q1.2,35.5,2.36,71c1.35,43.57-.51,87.18,1.35,130.71q.38,8.7.92,17.39a4.93,4.93,0,0,0,.89,3,2.45,2.45,0,0,0,1.81.51c2.49,0,5.31.37,7.71-.11,1.69-17.79-1.68-36.22-3.16-53.83C294.67,383.71,294.37,374.85,294.08,366Z" transform="translate(-1.06 -18.53)"/><path class="d" d="M410.49,210.77q-2.67,77.82-5.39,155.63c-.3,8.86-.59,17.72-1.31,26.55-.13,1.52-.27,3-.42,4.57l-.3-7.6q-.37-10-.76-19.94c-.63-15.8-1.22-31.57-1.51-47.37a1240,1240,0,0,1,4.08-127.72c-2.74.33-5.43.67-8.13,1-1.52,43.75-6.58,87.1-7.63,130.86-.46,19.34-.13,38.73.21,58.11q.59,35.65,1.22,71.26a122.15,122.15,0,0,1,16.44-1q-.44-4.06-.79-8.14c.73,0,1.45-.06,2.14-.06a2.46,2.46,0,0,0,1.81-.52,4.9,4.9,0,0,0,.89-3c.38-5.8.67-11.6.93-17.4,1.81-43.53-.05-87.13,1.34-130.7q1.17-35.53,2.37-71a29.29,29.29,0,0,0-.55-8.35C414.41,213.21,412.64,210.88,410.49,210.77Z" transform="translate(-1.06 -18.53)"/><path class="d" d="M520.87,359.09c-.71-16.69-1.43-33.38-1.81-50.11A1164.36,1164.36,0,0,1,524,173.92c-3.24.33-6.53.66-9.78,1-1.77,46.23-7.88,92.09-9.14,138.35-.55,20.5-.17,41,.25,61.48q.72,37.7,1.48,75.36a167.24,167.24,0,0,1,19.76-1c-2.78-22.82-3.75-45.9-4.76-68.94C521.46,373.15,521.17,366.11,520.87,359.09Z" transform="translate(-1.06 -18.53)"/><path class="d" d="M343.39,365.54Q338.08,286.29,332.73,207a10.87,10.87,0,0,0-9.15,5.16c-1.43,2.7-1.31,5.65-1.1,8.5q2.34,36.17,4.64,72.36c2.83,44.5-.84,88.92,2.78,133.3q.71,8.85,1.86,17.72a3.45,3.45,0,0,0,1.77,3.06,8.55,8.55,0,0,0,3.58.52c4.93,0,10.5.37,15.17-.11,3.38-18.13-3.33-36.89-6.28-54.87C344.61,383.6,344,374.59,343.39,365.54Z" transform="translate(-1.06 -18.53)"/><path class="d" d="M179.9,366q-2.72-77.82-5.4-155.63c-2.15.11-3.92,2.44-4.63,5.1a28.61,28.61,0,0,0-.55,8.34q1.2,35.5,2.36,71c1.39,43.57-.46,87.18,1.35,130.71q.38,8.7.93,17.39a4.93,4.93,0,0,0,.88,3,2.45,2.45,0,0,0,1.81.51c2.49,0,5.31.37,7.72-.11,1.68-17.79-1.69-36.22-3.17-53.83C180.49,383.71,180.19,374.85,179.9,366Z" transform="translate(-1.06 -18.53)"/><path class="d" d="M484.08,363.7q-5.31-79.31-10.66-158.62a10.86,10.86,0,0,0-9.15,5.17c-1.43,2.7-1.31,5.65-1.1,8.49q2.34,36.16,4.64,72.37c2.82,44.49-.84,88.95,2.78,133.33q.71,8.87,1.86,17.72a3.45,3.45,0,0,0,1.77,3.07,8.54,8.54,0,0,0,3.58.51c4.93,0,10.49.37,15.17-.11,3.37-18.13-3.33-36.88-6.28-54.87C485.3,381.75,484.71,372.75,484.08,363.7Z" transform="translate(-1.06 -18.53)"/><path class="d" d="M272.58,237a2.67,2.67,0,0,0-.84.8L261,255.67c-1-45.49-1.77-83.38-1.77-92.83l-10.32-4.43s-4.72,224.71-9.74,304.69c0,0,16.9,11.52,26.38,0V455s-2.36-99.47-4.21-182.8l14.84-34.34A2.65,2.65,0,0,0,272.58,237Z" transform="translate(-1.06 -18.53)"/><path class="d" d="M565.13,237a2.57,2.57,0,0,0-.84.8l-10.71,17.91c-1-45.49-1.77-83.37-1.77-92.83l-10.32-4.43s-4.73,224.71-9.74,304.69c0,0,16.9,11.52,26.38,0V455s-2.36-99.47-4.21-182.8l14.83-34.34A2.64,2.64,0,0,0,565.13,237Z" transform="translate(-1.06 -18.53)"/><path class="d" d="M159,202.68H147.28s2.15,162,9.61,255.32h13.86S154.74,260.61,159,202.68Z" transform="translate(-1.06 -18.53)"/><path class="d" d="M374.79,199.8H363s2.15,162,9.61,255.32h13.87S370.49,257.73,374.79,199.8Z" transform="translate(-1.06 -18.53)"/><path class="d" d="M458.07,366q-2.71-77.82-5.39-155.63c-2.15.11-3.92,2.44-4.64,5.1a29.32,29.32,0,0,0-.55,8.34q1.22,35.5,2.37,71c1.39,43.57-.47,87.18,1.34,130.71.26,5.8.55,11.59.93,17.39a4.93,4.93,0,0,0,.89,3,2.45,2.45,0,0,0,1.81.51c2.49,0,5.31.37,7.71-.11,1.69-17.79-1.68-36.22-3.16-53.83C458.66,383.71,458.37,374.85,458.07,366Z" transform="translate(-1.06 -18.53)"/><path class="d" d="M596.06,365.54q-5.29-79.31-10.66-158.61a10.85,10.85,0,0,0-9.14,5.17c-1.44,2.69-1.31,5.64-1.1,8.49q2.34,36.16,4.64,72.37c2.82,44.53-.8,89,2.78,133.33.46,5.9,1.1,11.81,1.85,17.72a3.47,3.47,0,0,0,1.77,3.06,8.62,8.62,0,0,0,3.59.52c4.93,0,10.49.37,15.17-.11,3.37-18.13-3.33-36.89-6.28-54.87C597.29,383.6,596.7,374.59,596.06,365.54Z" transform="translate(-1.06 -18.53)"/><path class="d" d="M666,389.92q-.37-10-.76-19.94c-.63-15.8-1.22-31.57-1.51-47.37a1240,1240,0,0,1,4.08-127.72c-2.69.33-5.44.67-8.13,1-1.52,43.75-6.58,87.1-7.63,130.86-.46,19.34-.13,38.73.21,58.11q.59,35.65,1.22,71.26a122.15,122.15,0,0,1,16.44-1C667.63,433.52,666.83,411.7,666,389.92Z" transform="translate(-1.06 -18.53)"/><path class="d" d="M637.71,199.8H626s2.15,162,9.61,255.32h13.87S633.41,257.73,637.71,199.8Z" transform="translate(-1.06 -18.53)"/><path class="d" d="M222.38,369.72c-.71-16.69-1.43-33.38-1.81-50.1a1164.54,1164.54,0,0,1,4.93-135.07c-3.28.34-6.53.67-9.78,1-1.77,46.22-7.88,92.08-9.14,138.35-.55,20.49-.17,41,.25,61.47q.72,37.71,1.48,75.36a169.4,169.4,0,0,1,19.76-1c-2.78-22.82-3.75-45.9-4.76-68.94C223,383.79,222.68,376.74,222.38,369.72Z" transform="translate(-1.06 -18.53)"/><path class="e" d="M764.14,254.49c-4.09-1.34-5.8,1.25-7.31-3-1.13,2.92-5.29-1.26-3.09-2.56-3.54-.11-3.57-1.69-3.48-4.82-6.89,3.93-4.64-5.08-11.33-1.67-1.53-4.31-7.67.05-8.38-4.14-5.95-3.56-13.69,1.45-18.2-2.73,1.1,10.22-8.27-7.06-9.92,16.86-1.59-5.66-11.87-18.25-11.21-5.93-.93-1.2-4.52,1.19-3.39,2a2.75,2.75,0,0,1-3.09-.68c1.34,4.72-5.15.27-6.88-.89.33,4.16,3.44,7.41,7,9.34-7-.13-10.45-8.19-17.14-3.45,3.16-2.8-4.81-5.4-5.75-4.36,2-2.93,2.22-4.57-1.77-5.08,8-4.6-4.69-4.23-8.33-4.69,2.79-.69,3.91-2.86,1.55-5.68-2.71,2.69-5.41,5.42-8.12,8.11-.06-3.54-.31-7.36,1.33-10.63-3.9-.72-7-.3-8.63.73-2.84-1.76-5.05-4.5-6.83-1.46a3.89,3.89,0,0,1-1.54-2.73c-1.81,1.63-5,2.86-9,3.55,2-6.52-1.79-4.78-6.14-4.83-.17,1.79-.3,3.59-.47,5.38-2.3-4.58-5.59-7.76-10.09-4.36-5.32-2.72-14.37,3.21-21,1.16,5.16-1.07,9.06-3,10.74-5.38-6.77,3.73-13.83-4.79-14.09,5.16-6.4-12.6-4.77-2.6-10,2.05-.25-2.75-1-9.59-4.43-5.72-1.69-.5-3.13-2.46-3.34-.21-4.28.15-9.41.23-12.2,3.24-1.92-1.93-4.82-1.19-6.92-2-.43,1.58-.86,3.2-1.28,4.78-2.73-5.55-5.07-5.23-6.23.94-1.49-7.63-6.56-5.05-12.5-3.12-1.18-3.38-4.08.91-6.1,1.41-2-2-10-2.36-9.75.89-3.86-.4-6.64-.55-10.65.69-.64,13.48-5.59,14.79-14.38,4.78C470.17,247,465.15,229.94,453,238.1c.32-3.75,2.31-7.14,4.68-10-4.08,1.24-8,.1-5-4.44-2.27,1.5-4,.48-3.73-2.09-3.17-6.75-15.9-1.71-22.21-1.66,3.87-1.71,7.18-3.89,8.38-6.75-5.94,1.08-10,1.42-14.52-3.07.6,2.26-1,4.35-3.35,6.06-1.05-12.15-9.39-4.38-14.43.86,2.93-12.83-8.93-5.06-14.3-3.54-4.56-.77-1,3.12,1.46,4.31-4,1.06-7.73,1.41-11.38,2.09,3.23,4.12,6.17,8.81,6.74,14.12-2.19-3.9-17.94-5.8-8.72-.12-1.76.47-3.56,1-5.32,1.62,5.7,3.62-2,3.61-5,2.43,2.13,2.75-2.82,5.47-4.76,6.19.38-1.68-.25-3.45-.26-5.12-2.29,3.51-6.58,5.15-10.65,5.16,4,.09,6.73-3.47,9-6.18a50.1,50.1,0,0,1-6.48-.39c.38-.85.81-1.75,1.2-2.6a9.9,9.9,0,0,1-8.37,1.11c7.57-6-2-5.77-6.92-4.79-1.45-7.79-6.49-3.51-8.72,1.62-1.06-16-8.19.56-15.84-4.18,4.79,3,2,9.47-2.49,11.19a14.87,14.87,0,0,0-.56-7.22c0,.86-.69,1.84-2.15,2.65-.68-6.06-2-2.53-5-3.76-1.37,1.67-2.79,3.59-1.59,5.47-3.61,0-1.6-4-1.12-6a12.16,12.16,0,0,1-8.15,1.92,37.91,37.91,0,0,1,5.92-3.5c-1.12-.06-2.24-.17-3.35-.34,1.07-.6-1.16-2.06-1.76-1.49.49-1.36-2.93-3-3.82-2,.42-2.68-1.58-2.36-3.22-1.07,1.79-6.92-6.59-1.86-5.71-7.47-.86,0-1.37.43-1.46.94-1.36-.7-2.81-2.12-2.1-3.76-2.28.68-3.48,2-3.65,3.16-1.52-1-3.4-1.92-4.21-3.63a6.16,6.16,0,0,0,.47,4.79c-7.93-8.36-9.29,2.25-10.82,9-.94-2.71-1.8-5.63-3.52-8,.87,4.17-5.36,4.71-2,8.28a18.13,18.13,0,0,1-3,.73c.61.64,1.16,1.24,1.68,1.88a21.57,21.57,0,0,1-5.24-1.45,15.81,15.81,0,0,1,3.69,4.69,31.62,31.62,0,0,1-2.7-2.47,3.56,3.56,0,0,0-.26,3.11,6.19,6.19,0,0,1-3.09-.68c1.63,2.93-3.22,2.15-2.53-.3-2.58,2-2.47-.4-1.64-2.48-2.76,2.83-5.34,2.54-2-.25a27.71,27.71,0,0,1-4.81,1.19,11,11,0,0,1,.56-2.26c-6.59,1.59.75-4.73-9.58-8.11.9-.64,1.8-1.33,2.66-2-6.69,1.63-14-8.55-21.39,3.88-.28-4.34,2.85-8.62,3.57-12.93-3.53.38-8.94,2.52-10,5.89-.89-2-3-.05-2.23.9-1-.1-3.77,1.85-2.28,2.43-1,.74-2.43,1.57-3.73,1.07,3.45,3.57,2.49,6.44,7.47,6.14-4.44,3.15-14.46,3.17-5,7.69-3.17-1-11.48.39-4.42,2.22a1.34,1.34,0,0,0,.17,2.68c-2.68.54-7.41-1.08-6.87,3.08a11,11,0,0,0-6.14-.64,12,12,0,0,1,.47,7c-1.06-2.22-1.54,2.9,1.2,5.55-5.84,0-9.6-1.69-11-6.7-7.45,6.72-5-1.27-10.05,1.87a3.51,3.51,0,0,1,1.5-2.6,15.78,15.78,0,0,1-10.31-.22c2.11-.74,9.9-4.57,3.23-5-.69-.09-1.59-.64-1.38-1.07l-6.91,3.67a25.62,25.62,0,0,1,4.64-5.59,10.19,10.19,0,0,0-7.31-1.24c-3-4.87-13.85,2.16-18.93,3.42,3-2.8,6.6-5.68,9.44-8.45-4.66,3.31-19.57,2.12-12.2,9.73-13.59-5.81-7.77-1.81-5.58,6.32-2.14-1.13-8.71-6.69-8.42-1.71-1.43.62-4.47-.23-2.7,1.63-3,2.62-6.73,4.73-7,8.57-2.63-.59-5,1.09-7.34,1.28a44.87,44.87,0,0,1,1,4.87c-4.61-3.61-7-3.64-6.58,2.86-3.44-7.06-7.7-2.73-13.27-.17-1.15-3.38-5.35,3.89-6.39,2.09-2.87-5-7.12-2.23-8.59-9.52,0,0-10.43-8.35-10.19-21.15.36-19.15,13.77-31.51,15.91-63.47C64.65,109,59,19.25,59,19.25l674.14,80.81c-.95,1.6,14,25.87,43.85,64.44,26.53,34.32,10.67,85.4-9.31,89.86C765.77,255.4,763.28,255.3,764.14,254.49Z" transform="translate(-1.06 -18.53)"/><path class="f" d="M783.88,96.88c0-49.58-26.82-71.3-26.82-71.3C756,9.12,66.17,112.69,45.58,126.94c-56.11,21.24-22.15,89,14.65,104.06,6.7,3.84,19.19,17.39,24.94,4.4,3.51.8,6.11,4.2,9.81,3.95-.47-1.22-.94-2.44-1.45-3.7a128,128,0,0,0,16.25,1.81c-4.61-1.69-7.72-3.87-9.56-6.2a62.3,62.3,0,0,0,9.73-1.07c-4.87.57-10.88-1.41-11.26-6.94,2.66,1.8,3.86-1.72,2.26-3.66a4.15,4.15,0,0,0,1.49-.07c-1.66-2.25-1.79-5.23-1.41-7.9q6.47,4.26,12.79,8.34a35,35,0,0,1-1.1-5.46,38.38,38.38,0,0,1,8.61,2.8,8.74,8.74,0,0,1-.43-6.13,22.92,22.92,0,0,1,4.18,2.29c-1.7-1.81-2.47-4.94-2.22-8.45a9.87,9.87,0,0,1,3.67.33c-.21-1.33-.51-2.7-.81-4l3,2.28c.17-2.21.21-4.43.3-6.64a7.9,7.9,0,0,1,3.45,2.47,34,34,0,0,0-1.88-10.33A17.36,17.36,0,0,1,141,193a19.28,19.28,0,0,0-2.51-9.53,10.44,10.44,0,0,0,7.55-1.29,20.56,20.56,0,0,1-5.33-9.63,10.55,10.55,0,0,0,2.94-.56c-.6-3.32-.43-6.83-1.37-9.63,7.67-.49,10.49,6.51,7.89,12.47a34.28,34.28,0,0,0,6.1-7.16c1.7,1.59,3.41,3.18,5.07,4.76a31.42,31.42,0,0,1-.47-8.16,16.64,16.64,0,0,1,4.43,7.87c.18-4.39,4.33-8.19,3.46-12.44,1.15,1.25,2.3,2.51,3.37,3.76,6.37-5.84,11.73.63,18.88,1.55a35.78,35.78,0,0,1-9.55-6.24c2.22.46,4.44,1,6.66,1.41a13,13,0,0,1-3.12-2,49.92,49.92,0,0,0,11.56,2.62c-5.44-1.82-9.18-5.64-6.18-4.91-3-1.26,1.29-4.13,6.22-5.54,1,2,1.45,4,.09,5.69,2.25-.33,5.16-1.81,4.69-4.5a40.23,40.23,0,0,0,5.46,2.25c-.24-1.44-1.89-3.17-1.45-4.54l1.92,2.65a18.33,18.33,0,0,1,.85-2.88c2.11,3.22,2.69,8.3-1.37,10.31a7.48,7.48,0,0,0,4.65-3.4c.6.26,1.15.56,1.75.81a9.75,9.75,0,0,1,.72-4.13,11.25,11.25,0,0,0,5.25,3.21,11.28,11.28,0,0,1-2.73-5.91c2.26,2.16,2.81-1.74,2.81-3.47a2.82,2.82,0,0,1,1.67,2.66,48.8,48.8,0,0,0,1.7-5.43l.9,1.78c1.25-4.39,4.42-4.47,7.07-1.11,2-3.85,4.55-2,6.61.63a20.35,20.35,0,0,1,2.3-3.62c1.82,1.3,3,4.18,5.33,4.43-.08-1.11-.17-2.22-.17-3.29a89.5,89.5,0,0,1,8.91,4.36c-2-2.33-3.24-4.58-3.54-6.65,2.17.72,4.35,1.57,6.48,2.4-2.93-1.36-6.58-4.64-3.92-7.9.95,2,3.91.35,3.92-.85a5.09,5.09,0,0,0,1.15.67c3.44-5.26,7.54,2.36,7.5,6.35a10.13,10.13,0,0,1,3.41-1.59,25,25,0,0,1,3.24,6c1.25-1.49,5.77-1.06,5.12,2.43,1.82-2.7,6.35-2.17,7.21,1.11.89-.18,1.79-.41,2.68-.59,0,.74,0,1.48,0,2.21a53.51,53.51,0,0,0,5.37,0,3.47,3.47,0,0,1,.17,2.59,13.54,13.54,0,0,0,6.74-2.22c2.17,2.47,3.54,5,3.67,7.42,2.2-.67,4.46-1.88,5.41-4.09a8.82,8.82,0,0,0,6.4,2.73c-.19-2.77.93-5.36,1.91-7.9,4.2,1.09,4.18-6.14,4.44-9.08,7.5-2.73,4.51,8.57,1.66,11.55,3.64-3,5.75-7.58,6.69-12.15,1.11.71,2.18,1.37,3.24,2-.21-3.76-.76-7.16-1.27-10.48,1.75.63,3.07,2.47,3.84,5.43-.45-6.23,0-11.9-1.92-16.91a28.53,28.53,0,0,1,2.56,1.36c.84-4.19,6.39-6.94,6.39-6.94a27.48,27.48,0,0,0,3.71-.67,16.11,16.11,0,0,1-6.18-2.21,28.15,28.15,0,0,0,8.19-.22,4.1,4.1,0,0,1-1.62-1.92c4.89,1,9.69,2.09,14.71,2.88-.43-2.11-2.95-4-6.57-4.84,3.5.52,7,1.07,10.49,1.66a17.78,17.78,0,0,0-5.54-4.28c1.62.18,3.28.4,4.9.59a13.68,13.68,0,0,0-2.56-2.81c4.94-2,9.6-.91,14.62,0a30.81,30.81,0,0,1-3.66,5.46c3.24-1.51,6.56-3,10-4.46a15.63,15.63,0,0,1-3.29,10.33c6.65-1.59,11.51-5.06,12.07-8.79,2.37,4.08,6.53,3.1,9.8.15,1.92,2.73,5.89,5.17,10.92,6.68a15.54,15.54,0,0,1,2.56-10.22c1.53,1.55,7.78,1.43,9.08-.41,2.75,4.69,7.72,1,11.77,3.47,3.16,5.28.85,21.56,10.53,14.33-1.46,3.92-.5,11,2.17,14.84a28,28,0,0,1,1.67-5.06c-1,3,1.3,3,3.23,1.52-.7,5.46,2.62,10.1,8.49,11.07a7.87,7.87,0,0,1-2.13-2.25c2.51-1.63,3.24-3.84,2.21-5.54,3.4,5.18.66,12.19-4.64,14.84,8.07-1.49,15.39-8,16.71-16.24,2.84.79,2.94,3,1.92,5.42.86-1,1.67-2,2.52-3.06,1,.52,1.92,1,2.9,1.55-1.74-2.39-1-4.49,1.15-6.24,2.5,7.1,9.91,8.47,16.12,11.45-3.69-4.31-5.73-10.68-1-14.84-2.2,1.84,0,4.47,1.84,5.53a35,35,0,0,1-3,2.26c5.84-1.75,13.51-1.66,19.06-2.44.21,2.44-.51,6.25,3.15,5.46-1.57.63-3.19,1.26-4.73,1.89,3.61,3.16,7.32,6.72,11.77,4.43-2.92,2.2-2.86,6.54-1.24,9.53,4.16-1.94,8.12-3.91,12.11-6.21a45.18,45.18,0,0,0,1.87,4.76,7.19,7.19,0,0,0,4.7-1.88c-.71,2.67,6,3.86,7.67,2.62a13.45,13.45,0,0,1-.47,9.9c5.67-.74,10.53-2.7,13.18-5.06,3.12,3.43,7.7,3.77,10.66.63-.17,3.54,4.43,7,11.21,9.45a12.82,12.82,0,0,1-1.11-10A100.11,100.11,0,0,1,594,162.84a28.23,28.23,0,0,1-3.8-10.78,108.55,108.55,0,0,1,11.68,2.69c3.93-3,8.11,5.7,12.67,5.84-3.28-.05-7.83.79-10.36,2.32,1.88.41,3.77,1,5.58,1.59a16.72,16.72,0,0,0-7.67,1.51,47,47,0,0,1,11.34,3.55c-3.92-1.48-7.38-.81-8.74.85a41.73,41.73,0,0,1,14,6.68,3.85,3.85,0,0,1-2.52.26c1.65,2.47,3.14,5.15,5.5,7a4.66,4.66,0,0,0-4.52,0,64.14,64.14,0,0,0,3.71,5.39c-.47.88-.94,1.77-1.41,2.69l2.9,1.22c-4.82,2-7.87,9.36-9.68,14.25,1.79-2.47,4-3.36,6.23-3.1a31.5,31.5,0,0,0-3.71,8.93c1.66-.33,3.33-.7,4.9-1.14,1.25,4.63,6.05,7,10.45,7.79-6.12-1.88-7.14-9.07,1.11-8.56,1.48,6.78,11.66,3.64,10.7,10.48,4.26-.63,7.54-1.66,9.46-2.88.6,1.37,2.43,2.84,5.42,4.06,3.32-5.42,8.82-5.89,14-.44a2.92,2.92,0,0,1,.76-1.29c2.73,2.17,9.81,2.88,9.81,2.88s.08,0,.17-.08c.84,10.75,10.09,1.29,15.43,6.5C763.7,202.2,778.34,183.54,783.88,96.88Z" transform="translate(-1.06 -18.53)"/><path class="g" d="M589.32,224.72c7.46,17.54,15.64,34.93,15.6,53.06,0,19.72-8.6,39-9.61,58.64-7.12-11.89-18.8-21.53-31.32-31.06-9.48-7.2-27.2-34.12-32-46.37-3.86-10-9.77-19.68-16-29.22q-9-13.9-18.71-27.4c-2.66-3.69-8.16-12.94-13.16-18.38-1.88-2-5.42-1.9-7-2.36,5.58,6.61,13.92,21.38,16.78,26,1.67,2.72,4.28,9.37,6.57,11.45a123.39,123.39,0,0,0-30.68-20.21c.1,1.49-.8,4.73-.74,6.18,20.46,10.55,42,27.37,51.23,48.36,5.65,12.95,22.58,50.53,31.31,58.81,13.57,12.92,27.39,26.14,33.84,41.35a84.84,84.84,0,0,1,4.72,16.32c7,34.43-3.58,108.66-3.58,108.66l41-1.68S618.76,423.68,616.3,402c-1.56-13.74-2.95-28.17,5.69-40.65,9.7-14,31.36-24.41,34.06-39.77a224.1,224.1,0,0,1-44.13,29.83c5-51.65,17.66-71,4.51-105.52-34.2-66.19-14-131.63.53-190.16H597.43c-.34,5.43-4.9,23.93-5.24,29.36-.42,6.72-11.92,49.58-13.61,64.39-1.56,13.88-2.57,28.5-.17,42.42C580.39,203.05,584.73,213.9,589.32,224.72Z" transform="translate(-1.06 -18.53)"/><path class="g" d="M165.27,105.8s7,6.76,16.67,15.79A116.15,116.15,0,0,0,165.27,105.8Z" transform="translate(-1.06 -18.53)"/><path class="g" d="M317.89,252.23c1.43-5.87,2.78-12,2.44-17.87-.38-6.27,1.23-11.07,5.57-16.24,10.49-12.44,26.93-19.76,42.78-26.62-1-1.78-4-1.26-6-.45l-22.89,8.86a43,43,0,0,1-11.23,3.21l6-3.25-1.52-12c-1.32,2.33-3.9,4.8-7.28,7.34q.13-8.62,1-17.23c.38-3.51,6.06-23.55,8.89-28.87s-10.07-3.4-12.6-.19c-5.14,6.57-6.82,17.28-7.42,25-.46,6.13,0,12.29-.08,18.42a87.62,87.62,0,0,1-.64,9.91c-11.6,6.86-26,14-35.94,20.62a122.55,122.55,0,0,0-10,7.36c-7.08-5.24-14.15-10.09-18.62-14.66,3.14-11.46,3.54-25.41,1.94-30.73-2.49-8.27,7-17.09,8.91-32.5C263.47,134,263,92.36,263,92.36l-14-.45s1.8,21.26,1.42,34.29,0,48.16-16.09,39.49c-10.25-5.53-35.42-28.29-52.37-44.1,6.53,7.71-7.5,4.17,3.06,15,16.65,17,52,48.62,52,48.62a36.75,36.75,0,0,1,5,20.94c-.88,12-23.05,33.19-34.77,47.77s-4.93,27.18-3.16,47,3.37,43-4.39,92.42,6.68,95.14,6.68,95.14l88.62-3.16S299.08,446.87,303,418c4.89-36,11.84-52.13,18.08-65.87s15.3-21.6,8.35-33.6S315.82,260.8,317.89,252.23Zm-75.48-21.71a21.76,21.76,0,0,0,5.68-8.36c4.57,3.38,10.86,8.13,16.08,12.48-8.13,8.1-12.9,17.47-14.05,31.47-1.69,21.05-17.75,69.23-17.75,69.23-14.28-19.93-10.62-60-12.35-71S232.37,238.68,242.41,230.52Zm3.26,227.73c-14.84-37.92-15.5-88.9-9.92-100.31,6.95-14.14,22.42-19.2,25.71-69.56,1.88-28.8,5.84-40.48,10.32-46.72a16.52,16.52,0,0,1,1.22,1.49c4.89,6.87,9.11,55.83,0,91.83s3.5,41.83,6.28,52.84C281.6,396.8,268.46,433.61,245.67,458.25ZM311.44,331.4a116.61,116.61,0,0,1-13.74,29.39c-3.75,5.91-5.27,3.88-6-2a137.16,137.16,0,0,1-.76-15c-.42-29.72,1.81-60.44-5.31-89.65-1.35-5.5-2.91-12.66-7.76-16.76l-1.07-.9a55.18,55.18,0,0,0,5.25-4.57c4-4.27,18.3-12.87,30.95-20.08a63.25,63.25,0,0,1-3.69,9.89c-4.51,9.68-2.06,22.49-4,32.79-.84,4.73.42,10.15,1,14.84,1.9,16,4.55,31.94,5.65,48C312.33,322,312.79,326.86,311.44,331.4Z" transform="translate(-1.06 -18.53)"/><path class="g" d="M660.86,505.19s4.79-54.61,2.77-79.75c-2.28-28.25-.25-56.31-4.38-84.56-3.88-26.54-11.42-62.69-29.34-82.26-19.3-21.08-44.13-36.66-66.72-52.91C539.67,188.8,516.83,170.3,497,148.22a249.25,249.25,0,0,1-27.19-36.15c-8.05-13.18-22.38-42-22.38-42L460.14,67s8,13.78,13.07,19.72c20.82,24.33,43.91,48,69.41,66.83,24.83,18.31,58.08,42,89.19,39.47,2.15-26.44-19.35-50.73-36-66.24A565.19,565.19,0,0,0,550.71,89c-8.34-6.27-29.29-23.88-29.29-23.88l21.38-2s15.38,14.16,27.94,22.94a294.67,294.67,0,0,1,61.11,40.24c-3-10.74-5.18-21.75-9.82-32.08-2-4.51-19.09-29.5-19.09-29.5l32.54-3.84s34,68.42,43.45,105.45c1.31-34,3.88-102.06,3.88-102.06l16.6.78s-.37,91.16-.33,100.13c0,34.75.63,69.49,2.91,104.13,2.19,33.37,7.84,66,11.33,99.1,3.46,32.75,8.52,65.72,16.78,97.4,3.4,13.26,12.47,39.1,12.47,39.1Z" transform="translate(-1.06 -18.53)"/><path class="g" d="M92.47,505.19s21.55-57.78,23.07-63.43a270.86,270.86,0,0,0,9-63.18c1.1-45.49-10.79-89-22.71-131.74C95.56,224.39,83,179.46,83,179.46l14.67.88s14,36,20.82,53.84c6,15.58,10.92,37.4,21.08,50.06,4.42,5.51,20.06-34.45,21.24-38.8,4.09-15,11.84-175.13,4-175,3,0,6-.11,9-.14,12.14-.23,11.51,95,11.8,101.94.89,21.6,8.35,42.79,6.12,64.28,23.05-18.46,47-38.84,58.12-70.12,12.22-34.41,11-77.87-.3-112.24-1.09-3.36-2.31-6.83-2.19-10.41s2.15-7.39,5.23-7.87c4.34-.66,7.16,5.13,8.51,10C279.79,111.48,267.74,184,236,241.12c-15.59,28-38.14,46.78-49.94,77.72a196.92,196.92,0,0,0-10.38,98c2.91,19.46,9.15,37.62,16.69,55.12,4.76,11.08,14.33,33.27,14.33,33.27Z" transform="translate(-1.06 -18.53)"/><path class="h" d="M740.54,19.53H588.34c-88.18,15-181.13,40.11-186.28,38.11-1.73,1-3.46,1.92-5.19,2.84,2.4,4.25,6.41,6.35,9.06,5.06-1.31,1.4-2.61,2.84-3.88,4.28a6.42,6.42,0,0,1,3.12.55,12.06,12.06,0,0,0-2,8.35,27.13,27.13,0,0,0,3.75-5.21,37.25,37.25,0,0,0,3.37,10,80.33,80.33,0,0,1,4-14.69c.7,2.13-.81,10.82,3,6.68-1.62,5,1.6,7,5.56,3.66-.43,2.72-.15,5.31,3.16,3.58a7.57,7.57,0,0,1-7.79,4.58c4.17,2.33,8.55,2.92,11.88,1.92a20.93,20.93,0,0,1-2.61,7.31,7.11,7.11,0,0,0,6.19-1.85,23.67,23.67,0,0,0,6.49,13.92c-2.91-4.65-3-9.41-1.35-13.1a35.82,35.82,0,0,0,9.4,10.11,19,19,0,0,1-4.84-12c2.44,2.1,5,4.24,7.37,6.42a50.5,50.5,0,0,0,2.82-4.54c2.24,3.32,3.17,7.12,1.69,10.33a11.11,11.11,0,0,0,5.1-2.17,25.65,25.65,0,0,1,.85,10.67,10.36,10.36,0,0,0,4.25-3.18c.64,2.59,1.35,5.21,2,7.79a17.33,17.33,0,0,0,3.62-4,16.43,16.43,0,0,0,1.39,5.94c1.39-1.58,2.78-3.13,4.13-4.76a9.78,9.78,0,0,0,2,4.21,19.65,19.65,0,0,1,4.25-7.38,11.33,11.33,0,0,0,2.95,3.91c0-3,2-5.32,4.77-6.72.12,1.51.29,3,.5,4.58,2.49-.48,5.06-.89,7.55-1.26a13.18,13.18,0,0,1-7.63,6.5,25.42,25.42,0,0,0,9-2.36c1.27,3.56-1.16,6.56-4.25,8.23a16.49,16.49,0,0,0,9.36-6.91c1,1.78,3.66,4.22,3.62,3.92a63.21,63.21,0,0,1,.93-6.35,13.56,13.56,0,0,0,9.14,4.17,7.87,7.87,0,0,1-2.61-2.36,8.25,8.25,0,0,0,3.41-2.92c.27,2.86,1.25,5,3.92,2.4a8.39,8.39,0,0,1-6.32,7A15.67,15.67,0,0,0,529,122.59a22.16,22.16,0,0,1-.67,7.86,7.86,7.86,0,0,0,5.48-3.8,21.65,21.65,0,0,0,9.73,11.22A13.3,13.3,0,0,1,539,125.73a32.17,32.17,0,0,0,11.55,6.64,17.73,17.73,0,0,1-7.71-10c2.86,1.22,5.85,2.44,8.68,3.73.59-1.73,1.14-3.51,1.6-5.28,3,2.48,4.8,5.8,4.21,9.38a12.11,12.11,0,0,0,4.34-3.76,25.19,25.19,0,0,1,3.55,10,11.86,11.86,0,0,0,3.28-4.43c1.27,2.29,2.62,4.54,3.92,6.79,4.18-6.2,4-12.44,1.18-16.8,1.64.59,5.32-.87,4.94,1.63,1.17-1,2.17-1.81,3.28-2.85a16.5,16.5,0,0,1,.34,4.8,21.29,21.29,0,0,0,4.17-6.72,40.89,40.89,0,0,1,2.83,12.82,14.41,14.41,0,0,0,3.41-7.46,13.84,13.84,0,0,0,4.34,6.68,31.51,31.51,0,0,1,1.86-11.26,9.31,9.31,0,0,0,1.76,2.1c1.19-3.06,2.7-5.9,3.25-9.26,4,4.76,3.84,12.64-1.05,16.72a8.83,8.83,0,0,0,7-3.32c.51,2.58,1,5.17,1.52,7.75.93-3.58,1.81-7.2,2.65-10.81a29.23,29.23,0,0,1,.64,11.48c2.36-6.11,5.09-12.56,4.63-19.23l1.65,4.87c.51-3.74,3.32-4,6.4-5-1.85,5-.71,11.11,4.68,16q1.26-3.81,2.4-7.64a10.52,10.52,0,0,0,4.13,3.44,25.81,25.81,0,0,1,1.35-10.64,11.72,11.72,0,0,0,5.06,2.51c-1.35-3.28-.21-7,2.15-10.22.8,1.58,1.73,3.17,2.66,4.72,2.52-2,5.14-4,7.71-5.94a18.61,18.61,0,0,1-5.44,11.74,35.14,35.14,0,0,0,9.91-9.49c1.47,3.8,1.18,8.53-1.94,13A23.25,23.25,0,0,0,667,109a7.4,7.4,0,0,0,6.16,2.26,22,22,0,0,1-2.32-7.5c3.33,1.22,7.8.92,12.05-1.14a7.88,7.88,0,0,1-7.67-5.06c3.25,1.92,3.6-.65,3.33-3.4,1.47,1.33,6.36-1,6.79-2.18,1.64.06,1.79,1.88,2.48,3.22a9.27,9.27,0,0,1,.64-6.76c1.67,3.21,1.76,7.33,2.44,10.92a36.46,36.46,0,0,0,3.88-9.74,53.32,53.32,0,0,0,3.5,5.46c.88-3.06-1.12-5.85-.67-8.75,2.91.91,4.17,5.93,5.57,8.71a13.09,13.09,0,0,0,1-7.2,10.56,10.56,0,0,0,5.23,4.1,26.76,26.76,0,0,1-1.18-9.82,6.84,6.84,0,0,0,2,1.18c.25-2.88.84-5.72.46-8.64a10.4,10.4,0,0,1,3.16,14.11,8.86,8.86,0,0,0,5-5c1,2,2.07,4,3.08,5.9-.08-3.24-.21-6.49-.38-9.71a23.64,23.64,0,0,1,3.25,9.27c.5-5.72,1.28-11.79-.68-17.31.85,1.18,1.69,2.32,2.49,3.5-.22-4.78,4.7-7.67,4.43-7.79C750.43,43.69,751.6,28.47,740.54,19.53Z" transform="translate(-1.06 -18.53)"/><path class="h" d="M204.12,19.53H49.44C15,33.32-12.18,56.26,7.92,92.43a6.26,6.26,0,0,1-.8.35c5.05,1.24,5,3.8,5,8.65.76-1.36,1.56-2.69,2.36-4.05-1.87,6.42-1.11,13.41-.64,20a31.34,31.34,0,0,1,3.07-10.7c-.16,3.71-.28,7.46-.36,11.21,1-2.26,1.95-4.56,2.91-6.82a9.51,9.51,0,0,0,4.7,5.71c-2.67-5-1.6-12.8,3-16.29-.36,3.37.2,6.65.44,10a6.48,6.48,0,0,0,1.87-1.37,37.55,37.55,0,0,1-1.11,11.35,10.6,10.6,0,0,0,4.94-4.74,18.27,18.27,0,0,0,.95,8.32c3.71-10.89,6-12.78,4.63,0a62.06,62.06,0,0,0,3.31-6.31A47.91,47.91,0,0,0,45.83,129c.66-4.18.7-8.78,2.31-12.62a12.9,12.9,0,0,1,.6,7.8,15.12,15.12,0,0,1,2.35-3.7,9.67,9.67,0,0,1,.32,4.18c.2-.42,4.54.13,6.1-1.66-.1,2.58-.39,6.31,3.15,3.92-1.1,3.55-4,6.06-7.26,5.85,4,2.39,8.26,2.73,11.41,1.32a30.05,30.05,0,0,1-2.2,8.66,6.39,6.39,0,0,0,5.82-2.6,29.28,29.28,0,0,0,6.78,15.56,18.87,18.87,0,0,1-1.83-15,37.22,37.22,0,0,0,9.37,11,23.81,23.81,0,0,1-5.15-13.56c2.43,2.26,4.91,4.56,7.3,6.86.87-1.79,1.75-3.62,2.51-5.45,2.23,3.66,3.31,8,2,11.81a10.57,10.57,0,0,0,4.79-2.9,35.67,35.67,0,0,1,1.27,12.28,10.65,10.65,0,0,0,3.91-4c.72,2.95,1.47,5.89,2.27,8.83A19.27,19.27,0,0,0,106.11,147c3.28,1.15,5.69,1.95,6,5.8l1.56-5.63c-.44,7.62,2.12,15.1,4.38,22.22a41.31,41.31,0,0,1,.6-13.27c.8,4.18,1.64,8.36,2.51,12.5l1.44-9a7.88,7.88,0,0,0,6.58,3.84c-4.69-4.79-4.69-13.9-1-19.32.52,3.88,2,7.17,3.07,10.7a10.26,10.26,0,0,0,1.67-2.43,43.67,43.67,0,0,1,1.76,13,16.52,16.52,0,0,0,4.1-7.72,18.51,18.51,0,0,0,3.23,8.62,56,56,0,0,1,2.67-14.8,26.19,26.19,0,0,0,4,7.76,22.79,22.79,0,0,1,.32-5.54,26.65,26.65,0,0,0,3.11,3.28c0-.51,3.15-1.71,4.66-1.88-2.67,5-2.83,12.24,1.12,19.41,1.23-2.6,2.51-5.21,3.71-7.85a13.69,13.69,0,0,0,3.11,5.12,33.17,33.17,0,0,1,3.35-11.52,12.54,12.54,0,0,0,4.1,4.35,12.94,12.94,0,0,1,4-10.83c.44,2.05,1,4.09,1.52,6.1,2.67-1.49,5.5-2.9,8.21-4.31a20.52,20.52,0,0,1-7.29,11.52,29.79,29.79,0,0,0,10.92-7.68,17.35,17.35,0,0,1-4.35,14,24.18,24.18,0,0,0,9.21-13,7.68,7.68,0,0,0,5.18,4.39,31.12,31.12,0,0,1-.63-9.09,12.6,12.6,0,0,0,11.2,2.39c-3.16-.88-5.53-4.21-6-8A4.11,4.11,0,0,0,207,151.8c.32-1.41.59-2.86.84-4.31a8.34,8.34,0,0,0,3.23,3.37,8.29,8.29,0,0,1-2.48,2.73,12,12,0,0,0,8.65-4.82,26.22,26.22,0,0,1,.64,7.5c.08,0,.16-.12.24-.17,0,.35,0,.64-.08,1a30.45,30.45,0,0,0,3.51-5.51,16.23,16.23,0,0,0,8.85,8c-3.05-1.93-5.21-5.72-4-9.51a20.62,20.62,0,0,0,8.49,2.73,13.55,13.55,0,0,1-7.21-7.51c2.35.43,4.78.9,7.13,1.45.2-1.79.36-3.54.48-5.29a9.18,9.18,0,0,1,4.51,7.77,13.25,13.25,0,0,0,2.79-4.52,24.36,24.36,0,0,1,4,8.52,12.52,12.52,0,0,0,1.92-4.86c1.27,1.88,2.59,3.67,3.9,5.5a22.27,22.27,0,0,0,1.32-6.86,19.59,19.59,0,0,0,3.43,4.65c.64-3,1.31-6,1.91-9a10.27,10.27,0,0,0,4,3.66,35.65,35.65,0,0,1,.8-12.32,9.76,9.76,0,0,0,4.82,2.52c-1.4-3.71-.52-8.11,1.59-11.94q1.23,2.7,2.67,5.24c2.27-2.51,4.67-5,7-7.42a24.83,24.83,0,0,1-4.58,13.9,39.52,39.52,0,0,0,8.89-11.68A19.06,19.06,0,0,1,283,139.73a30.4,30.4,0,0,0,6.14-16.08,6,6,0,0,0,5.86,2.13,27.55,27.55,0,0,1-2.47-8.44c3.15,1.15,7.29.47,11.24-2.22-3.14.46-6.21-1.83-7.38-5.29,3.61,2.13,3.21-1.59,3-4.13,4.48,4.41,6.6.56,5.26-4.23,3.75,4.65,2.11-5.59,2.84-7.72a109.49,109.49,0,0,1,3.74,17,49.62,49.62,0,0,0,3.19-11.52,32.24,32.24,0,0,0,3.55,6A16.29,16.29,0,0,0,316,95.59a5,5,0,0,1,3-.64c-1.19-1.67,7.51-43.64,7.51-43.64Z" transform="translate(-1.06 -18.53)"/><path class="i" d="M777.36,36.36c-1.83-3.12-3.48-7.88-2.35-12a43.6,43.6,0,0,1,2.47-5.85h-741c0,2.15.07,3.29.06,4.44,2.05,1.22,3.88-.06,5-1.34a14.73,14.73,0,0,0,0,8.22,18.34,18.34,0,0,0,11-2.67c-.17,1.94-.22,3.94-.22,5.94a11.21,11.21,0,0,0,6.41-.45c-.1.17-.27.39-.37.55-2.7,4.22-8.09,6.88-15.15,6.49,8.19,3.56,16.87,4.44,23.5,2.89a28.39,28.39,0,0,1-5.28,11.26c5.17.5,9.64-.66,12.28-2.88.71,6.93,4.69,14.59,12.72,21.36C80.77,65.18,80.66,57.86,84,52.2a62.76,62.76,0,0,0,18.48,15.48C96,61.85,93.11,55.25,93,49.2c4.85,3.22,9.8,6.49,14.54,9.82,2-2.27,3.94-4.6,5.66-7,4.37,5.1,6.15,10.93,3.24,15.87a27,27,0,0,0,10.13-3.38,31.86,31.86,0,0,1,1.61,16.42A20.29,20.29,0,0,0,136.54,76c1.24,4,2.59,8,4,12a31.69,31.69,0,0,0,7.16-6.21,20.51,20.51,0,0,0,2.7,9.15c2.75-2.44,5.5-4.88,8.19-7.32a14.65,14.65,0,0,0,3.93,6.49A29.32,29.32,0,0,1,171,78.72a18.31,18.31,0,0,0,5.82,6c.11-4.6,4-8.21,9.48-10.37.22,2.33.54,4.65,1,7,4.91-.77,10-1.38,14.93-2-2.85,4.32-7.92,8.1-15.19,10a61.16,61.16,0,0,0,17.78-3.72,15.75,15.75,0,0,0,1,4.49c-1.67,3.22-4.74,6.16-9.48,8.21,8.62-2,14.87-6,18.53-10.7.22.27.49.55.71.88a10,10,0,0,0,3.07,3.28c1.08,1,2.26,2.1,3.45,3.16-.06-.45-.06-.89-.11-1.33a4.35,4.35,0,0,0,.54.22,22.12,22.12,0,0,1,1.4-10c4,3.5,10.56,5.94,18,6.33a15.53,15.53,0,0,1-5.17-3.61,15.46,15.46,0,0,0,6.73-4.49c.49,1.89,1.08,3.83,1.72,5.77a10.45,10.45,0,0,0,6-2.05l-.17.61c-1.18,4.71-5.55,8.65-12.39,10.09,9,1.33,17.57,0,23.44-3.21a26.19,26.19,0,0,1-1.4,12.09c5.12-.89,9-3.11,10.83-5.88,2.91,6.43,9.21,12.76,19.13,17.2-7.81-5.38-10.29-12.37-9-18.64a69.44,69.44,0,0,0,22.8,10.09c-8.09-3.94-13-9.54-15.15-15.31,5.72,1.83,11.54,3.72,17.19,5.71,1.19-2.71,2.27-5.43,3.18-8.09,5.88,3.77,9.49,8.87,8.3,14.36a24.59,24.59,0,0,0,8.68-5.82,32.74,32.74,0,0,1,6.9,15.31,19.17,19.17,0,0,0,6.52-6.83c2.53,3.5,5.12,7,7.76,10.43,8.3-9.54,8-19.19,2.42-25.85,3.13.22,6.36.33,9.59.33.06.73.11,1.39.11,2.11l3.18-2.11h.38V92.2c1-.67,2-1.33,3-2a21.34,21.34,0,0,1,.65,7.38,33.06,33.06,0,0,0,8.3-10.38,50.73,50.73,0,0,1,5.49,19.64,20.25,20.25,0,0,0,6.85-11.48,21,21,0,0,0,8.51,10.21,39.24,39.24,0,0,1,3.77-17.31,16.22,16.22,0,0,0,3.45,3.22c2.37-4.72,5.45-9.1,6.52-14.26a16.9,16.9,0,0,1,5.45,13.42,15.94,15.94,0,0,1-7.71,12.26,19.71,19.71,0,0,0,13.74-5.16c1,4,1.94,7.94,2.91,11.93q2.74-8.33,5.34-16.64a34.54,34.54,0,0,1,1.13,17.64,101.67,101.67,0,0,0,7.49-17c1.4-4,2.48-8.38,1.83-12.65,1,2.5,2.1,5,3.18,7.49.92-1.72,1.72-3.44,2.48-5.21,3.5-.72,6.95-1.61,10.24-2.56-3.67,7.66-1.46,17.09,9.1,24.64,1.67-3.94,3.29-7.83,4.85-11.77a20.49,20.49,0,0,0,8.19,5.28c-.7-5.5.49-11,2.75-16.37a25.53,25.53,0,0,0,10,3.83c-2.64-5-.38-10.82,4.37-15.76,1.61,2.44,3.34,4.88,5.22,7.21,5-3.1,10.24-6.16,15.36-9.15-.54,6-3.93,12.54-10.83,18.08A65.33,65.33,0,0,0,524.8,72.06c2.91,5.82,2.27,13.15-3.93,20,8.51-6.44,13.1-13.92,14.28-20.8,2.53,2.33,7,3.66,12.18,3.38a27.84,27.84,0,0,1-4.53-11.49c6.57,1.83,15.41,1.34,23.88-1.88-7.12.05-12.4-2.83-14.82-7.16-.11-.17-.22-.39-.33-.55a11,11,0,0,0,6.42.72c.16-2,.21-4,.21-5.94a18,18,0,0,0,10.89,3.11,16.54,16.54,0,0,0,.7-2.66A21.61,21.61,0,0,1,571,50.59a8.12,8.12,0,0,1,.75-5.6,3.11,3.11,0,0,0,2.1.17c1,1.55,1.94,3.16,2.81,4.77a11.53,11.53,0,0,1,1.29-10.43,9.07,9.07,0,0,1,.81.72,105.63,105.63,0,0,1,3.88,16.09,49.84,49.84,0,0,0,7.7-15c.6.89,1.19,1.78,1.84,2.61.16.5.32,1,.48,1.44.11-.16.16-.33.27-.5a39.41,39.41,0,0,0,4.36,4.77,15.75,15.75,0,0,0-1.77-11c.21-.83.37-1.61.54-2.44a13,13,0,0,1,1.4-.17A49.1,49.1,0,0,1,607,49.48a16.29,16.29,0,0,0,2-11.09,20.5,20.5,0,0,0,10.29,6.27,33.71,33.71,0,0,1-1.28-3.87,35.45,35.45,0,0,0,12.65-6.32,13,13,0,0,1-2.65,5.19,16.06,16.06,0,0,0,8.84-6,10.11,10.11,0,0,0,1.42,1.18c1.08,1,2.26,2.1,3.45,3.16,0-.07,0-.13,0-.2.75,1.12,1.51,2.23,2.26,3.34q-.22-6.87-.59-13.73l.18-.5c.23.2.5.38.75.57a31.26,31.26,0,0,1,5.32,12.88,87.47,87.47,0,0,0,1-9.41,35.66,35.66,0,0,0,11,2.28,15.53,15.53,0,0,1-5.17-3.61,15.46,15.46,0,0,0,6.73-4.49c.49,1.89,1.08,3.83,1.72,5.77a10.38,10.38,0,0,0,6-2.05l-.17.61c-1.18,4.71-5.55,8.65-12.39,10.09,9,1.34,17.57-.05,23.44-3.21a26.17,26.17,0,0,1-1.4,12.09c5.12-.89,9-3.11,10.83-5.88,2.91,6.44,9.21,12.76,19.13,17.2-7.81-5.38-10.29-12.37-9-18.64a69.44,69.44,0,0,0,22.8,10.09C716,47.24,711.05,41.63,709,35.86c5.72,1.83,11.54,3.72,17.19,5.72,1.19-2.72,2.27-5.44,3.18-8.1,5.88,3.77,9.49,8.87,8.3,14.37A24.61,24.61,0,0,0,746.3,42a32.78,32.78,0,0,1,6.9,15.31,19.23,19.23,0,0,0,6.52-6.82c2.53,3.49,5.12,7,7.76,10.43,8.3-9.55,11-18.2,5.42-24.86C775,36.23,775.18,36.31,777.36,36.36ZM618,40.4a33.16,33.16,0,0,1-1-9.52l1.68-.41a13.82,13.82,0,0,0,2.27.87c.06-.53.12-1.05.2-1.57,1.11-.35,2.22-.71,3.32-1.12a15.75,15.75,0,0,0,1,4.49A17.67,17.67,0,0,1,618,40.4Z" transform="translate(-1.06 -18.53)"/><path class="f" d="M753,454.9c-2,1.14-3.25,4.34-4.32,7.39-1.2-14.55-2.23,20.52-12.53-19.75a57.86,57.86,0,0,1-.53,19.6c-2.27-7.15-3.24-10.69-7.93-2.29a36.13,36.13,0,0,0,.6-14.64,31.88,31.88,0,0,1-5.92,16,35.5,35.5,0,0,0-4.14-17.84c.74,6.19,1.56,14.5-2.83,18.91-1.72.53-2.13-3.89-3.73-4.8l-2.24,4.11a42.74,42.74,0,0,1,.47-11.35c-2.6,1.83-4.44,5.79-6,9.6-.77-8.84-4-16.77-8.63-21.5a39.56,39.56,0,0,1-.42,20,16.33,16.33,0,0,1-2-7.47,54.82,54.82,0,0,1-3,6.4c-1.42-13.15-4.14,2.32-6.15,4.57-2.26-5.22-4.54-7.42-6.09-.76a23.3,23.3,0,0,0-2.66-10.44,19,19,0,0,1-3.26,9.91,98.79,98.79,0,0,0-2.6-19.44,31.78,31.78,0,0,1-2.19,19.06l-2.66-7.24-2,4.72c.59-4.12.59-8.84-1.24-11.66a24.12,24.12,0,0,1-3.61,10.21L655,444.68a27.11,27.11,0,0,0-3.9,7.24,95.18,95.18,0,0,1,.17-17.46l-4.43,17.16a29.93,29.93,0,0,1-2.9-9.68,68.79,68.79,0,0,0-3.72,7.62c1.48-7.7.23-16.24-3.14-21.73l.3,15.78a10,10,0,0,0-1.66-4.5L635,450.17c-1.71-1.21-2-5.59-3.6-1.6-.15-14.77.4-13.69-2.84-.15a48.3,48.3,0,0,0-2.72-10.91,83.7,83.7,0,0,0-.65,11.52l-1.78-3.28c0,1.83-2.3,1.52-2-.23-1,2.06-3.48,0-2.83-2.44l-1.84,2.13a15.3,15.3,0,0,1,.12-4.87l-3.37,5c-.4-4.38-2.17-7.74-3.43-.84-.51-5.9-2.51-.79-2.6,3.28a21.36,21.36,0,0,1-1.12-7.93,30.55,30.55,0,0,0-2.6,9.23,65.42,65.42,0,0,1,.41-10.75,45.32,45.32,0,0,1-3.84,12.35c-.65-5.26-3.19-9.76-6.45-11.29a32.42,32.42,0,0,1,2.6,12.81l-1.77-3.73c-.51,4.53-2.27,1.42-2.54-1.38l-1.78,3.43L588.91,446c-.36,1.22-.71,2.51-1.13,3.73,0-2.44,0-4.88-.12-7.32l-1.06,7.09c-2.3-2.12-.14-9.6-4.14-4,1.69-5.77-2.23-4.69-2.54.61l-1.48-2.67L576,450.7a62,62,0,0,1,4.2-22.64,137.12,137.12,0,0,0-7.51,21l-1.3-7-2.25,3.05c-1-11.16-2.78,6.07-9.76-6.63l-1.18,5.18c.68-5.12-.1-11.51-3.61-3.73a90.5,90.5,0,0,0-8-23,127.65,127.65,0,0,1,1.18,27.76,17,17,0,0,1-4.56-8.92c.08,2.67-.91,4.53-1.3.38-2,2.45-2.77-5.45-4,1.22a14,14,0,0,0-1.48-5.41c-1.39,7.72-2.49,2-5.49,7.7a149.18,149.18,0,0,1,5-20.21c-2.72,1.68-4.91,5.64-5.56,10.07a20.33,20.33,0,0,1-3.07-9.84,63.16,63.16,0,0,1-1.36,11.13,8.62,8.62,0,0,1-1.13-6.1c-1.12,2.71-2.44-1.05-2.06-2.51-.82,1.17-.57,12.83-4,6.86a24.51,24.51,0,0,1-1.3,9.3c-1.42-3.66-3.37-6.79-4.85-10.45.65,4.27-.42,9.23-2.6,12.13l1.23-23.41c-3.82,6-3.79,32.43-8.39,15-2.32,2.66-3.35,7.15-4-.15a17.59,17.59,0,0,0-1.37,5.48A21.94,21.94,0,0,0,493,426c.09,1.9.22,16.77-2.9,9.53-.29-.68-1.06-1.07-1.3-.3l.42-12.28c-2,4.72-2,18.51-6.56,7.25-2.15,5.58-7.46-9.62-12.54-6.87,3.07,3.28,5.26,8.47,6,14.18-6.62-11.38-7.67,9.67-8-14.33l-2.48,13.88c-3.61-4-.54-14.64-3.61-19.67-.33,3,.05,20.81-2.78,12.65-1.32,1.77-1.63,4.84-2,.31-3.93,4.74-2.48-3.32-3.72-5l-2.37,3.73c-2.7-9.23.27-4.62-5.44-1.06l-1.3-10.68L442.92,429a81.85,81.85,0,0,1-2.54-12.89c-.92,6.41,2,17.32-7.1,9.68-.19,6.72-1.6,1-4-1.14-.06,4.4-5.46,8.79-6,2.06-2.93-.14-.85,7.09-4.85,2.67-3.76-3.24-9.9-26-21.81-28.05,7.27,2.82,12.06,15.85,10.11,27.06a67.07,67.07,0,0,1-8.46-12.51c-.68,17.13-8.11,5.63-7.51-5.94a197.69,197.69,0,0,0-4.25,20.89c-1.28-8.4-3.42-7.67-4.91,1-3.42-14.13.57,20.72-15.31-17.31a56.55,56.55,0,0,1,2.18,19.44c-3.29-6.83-4.72-10-8.22-1.06a36.39,36.39,0,0,0-1.41-14.56c.23,6.17-1.07,12.35-3.61,16.84-.83-6.55-3.19-12.73-6.62-16.92,1.65,6,3.6,14,0,19.21-1.66.84-2.66-3.51-4.38-4.12l-1.59,4.5a44.15,44.15,0,0,1-1.24-11.28c-2.31,2.29-3.49,6.56-4.5,10.6-2.07-8.54-6.44-15.79-11.88-19.52a39.72,39.72,0,0,1,2.84,19.75,15,15,0,0,1-3.14-6.94c-.53,2.36-1.18,4.65-1.89,6.86-3.69-12.93-3.6,3.41-5.21,5.71-3.18-4.78-5.68-6.25-6,.46a23.84,23.84,0,0,0-4.38-9.76,18.94,18.94,0,0,1-1.47,10.45,97.24,97.24,0,0,0-6-18.53,31.73,31.73,0,0,1,1.3,19.21l-3.9-6.48-1.12,5c-.18-4.2-1-8.77-3.31-11.14a25,25,0,0,1-1.66,10.83l-4.49-10.75a28.58,28.58,0,0,0-2.43,7.93A102,102,0,0,1,281,423.11l-1.12,17.76a27.88,27.88,0,0,1-4.67-8.77,61.38,61.38,0,0,0-2.13,8.31c-.12-7.85-3-15.93-7.39-20.43l3.43,15.33a9.29,9.29,0,0,0-2.54-4c3.09,18.45-.13,4.92-2.31,10.14-3.15-14.34-2.46-13.2-2.78.45a44.72,44.72,0,0,0-4.91-10,106.09,106.09,0,0,0,1.72,11.35L256,440.56c.36,1.75-1.89,2.06-2,.31-.53,2.28-3.37.83-3.25-1.61l-1.3,2.52a15.61,15.61,0,0,1-1-4.73l-2.19,5.65c-1.4-4.31-3.71-6.79-3.48.07-1.83-5.6-2.61.1-1.78,3.89a21.88,21.88,0,0,1-2.83-7.39,29.15,29.15,0,0,0-.48,9.68,63.88,63.88,0,0,1-1.95-10.52,47.14,47.14,0,0,1-.94,13c-1.84-4.95-5.27-8.54-8.75-9.15A31.84,31.84,0,0,1,231.49,454l-2.55-3.13c.54,4.48-1.81,2-2.77-.68l-.95,3.81-2.43-4q-.07,3-.35,5.95c-.59-2.74-1.3-5.49-2.07-8.16L221,455a9.29,9.29,0,0,1-2.9-5.87,8.79,8.79,0,0,0-1.95,3.2c.17-6.15-3.3-3.83-2.3,1.37l-2.07-2.13-.59,7.78a60.8,60.8,0,0,1-1.42-23,138.14,138.14,0,0,0-2.13,22.42l-3-6.41-1.42,3.59c-3.71-10.28.95,5.3-8.61-4.55l-2.15,6.53c-.74-5.29-3-10.93-4.43-2.51a81.93,81.93,0,0,0-13.72-19.6c3.66,7.08,13.83,37.06,1.72,19.14.77,2.39-5.24-3.37-4.55,3.35a14.47,14.47,0,0,0-2.9-4.72c.76,7.89-1.86,2.66-3.14,9.07a147.19,147.19,0,0,1-.65-20.89c-2.18,2.52-3.19,6.94-2.6,11.44a18.68,18.68,0,0,1-5.68-8.39,53.06,53.06,0,0,1,1.72,11.06c-1.42-1.07-5.31-5.61-5.38-7.17-.44,1.32,3,12.51-1.89,7.85a25.39,25.39,0,0,1,1.36,9.31c-2.37-3.05-5.15-5.27-7.57-8.31a17.13,17.13,0,0,1,1,12.35l-5.5-22.65c-2,6.77,5.82,32.16-3.73,17.15-1.45,3.68-1.07,7.7-3.78,1.22a16.46,16.46,0,0,0,.29,5.64,20.28,20.28,0,0,0-7.5-8.69c.64,1.76,5.2,15.74.11,10.06-.47-.53-1.36-.61-1.36.23L121,461.07c-.47,5,3.82,18.3-4,9.15-.23,6.06-6.38,4.2-3.84,9.3-9.84-8.15-4.07,12.1-12.06-10.36l2.07,13.95c-4.67-2.44-5.14-13.57-9.7-17.08.6,2.93,6.71,19.42,1.42,12.88-.66,2,0,5.23-1.77,1.07-2.17,6-3.31-2-5.15-3.2l-1,4.42c-5.37-7.48-1.53-4-5.44,1.3L76.7,473l2.42,11.44c-.94-1.3-1.83-2.59-2.66-4v95h680.6V452.15c-1.3,3.36-2.54,6.79-3.61,10.22Z" transform="translate(-1.06 -18.53)"/><path class="h" d="M770.86,424a13.72,13.72,0,0,1-1.32.81c1.31-3.26-3-2.38-4.79-1.76a2.9,2.9,0,0,1,2-2.77,34.92,34.92,0,0,0-6.62.36l1.35-1.72c-4.6.61-7.77-.84-6.51-5.94-4.58,1.07-6.83-.15-6.47-5-2,.86-4.07,1.81-6,2.72-1-4.61-2.33-9.49-5.27-2.45a96.36,96.36,0,0,0-8.86-5.17,10.78,10.78,0,0,1,1.15,7.89c-2.14-.63-4.33-1.31-6.52-1.95,5.12,2.32,4,5.95,1.41,9.25-.85-2.69-4,1-4.17,2a2.67,2.67,0,0,0-.94-.5c-.79,2.22-2.77,4.12-5.43,5.71-.2-3.76-.52-7.52-.93-11.29a24.93,24.93,0,0,1-3.6,3.59,24.62,24.62,0,0,1-3-6.31c-1.32,2.43-5.79,4.66-5.47-.41-1,3.14-5.65,7-7.51,2.54-.89.73-1.82,1.36-2.66,2.13l-.31-2.81c-2.67,1-6.82,4.72-6.1-.45a19.52,19.52,0,0,0-6.57,5.71c-2.82-2.13-4.85-4.62-5.58-7.48-2.87,2.09-4.59,4.4-4.95,6.49-2.12-1.85-5.11-2.21-7.82-2.23,2.89,8.14-7.52,8.14-7,16-8.11-.35-7-8.11-1.93-11.42a23.62,23.62,0,0,0-9.65,6.71l-4.06-3.9c-.47,3-.78,5.94-1.05,8.79a8.57,8.57,0,0,1-3.85-6.8c-1.46,4.68-3.94,11.28-1,15.64l-3.6-1.77a30.14,30.14,0,0,0-.89,6.94,12.37,12.37,0,0,0-7.45,3.17,13.21,13.21,0,0,1,7.19.09l-3.13,2.68a4.92,4.92,0,0,1,2.35,0,21.09,21.09,0,0,0-5.68,4.12,23.47,23.47,0,0,1,10-1.63,31.66,31.66,0,0,0-4.75,2.68A28.46,28.46,0,0,1,636.13,455a30.27,30.27,0,0,0-5.53,4.26,32,32,0,0,1,7.35-2.49l-1.77,1.54a9.93,9.93,0,0,1,2,.36c-1.11,2.19-3,.61-4.43-.22-.83,1.58-1.67,3.17-2.5,4.8-.73-.63-1.62-1.31-2.35-1.95-.46,1.32-.88,2.63-1.35,4a1.88,1.88,0,0,0-1.15-.5c0,.28,0,.55,0,.82-2.09-1.59-3.91-3.49-4.12-6.17-1.36,2.23-1.62,4.54-.78,6.17-1.62-.14-3.18-.23-4.8-.32.08.29,2.5,3.24,1.93,3.53l-2-1.85a7.35,7.35,0,0,1-.52,2.44c-2.09-2.43-2.84-6-.94-8.74-1.84,1-1.86,4.52-4.22,3.17a5.17,5.17,0,0,1-.26,3.13,12.34,12.34,0,0,0-4.9-2.36,7.4,7.4,0,0,1,2.6,4.3c-1.83-1.55-2.71.8-2.71,2.4a2.06,2.06,0,0,1-1.56-1.94,16.11,16.11,0,0,0-1.56,3.94l-.94-1.27c-1,3.56-3.55,3.78-6.41,1.95-.61,3.5-3,3.22-5.53,1.81l.16,3.95c-2.76-.85-7.26-3.46-3.29,1.36a16.91,16.91,0,0,1-5.58.22,20,20,0,0,1,4.38,4.17,22.09,22.09,0,0,1-3.7.86,4.74,4.74,0,0,1,4.75,5.31c-1.6-1.29-2.34,2-2.2,2.81-1.8,0-1,3.86-4.53,5.3-.89-2.63-1.72-5.26-2.45-7.93a8.44,8.44,0,0,1-2.46,2.76,10.07,10.07,0,0,1-1.92-4.67,4,4,0,0,1-3.34,1.68,8.65,8.65,0,0,1,.26-2.63c-.36,1.46-5.85,3.92-5.11,0-.84.18-1.67.36-2.5.5l1.09-1.81c-1.41-.09-2.82-.19-4.27-.32a3.87,3.87,0,0,1,1.25-2,22.68,22.68,0,0,0-6.52.63,9,9,0,0,1,1.46-6.25A11.15,11.15,0,0,0,549,481c.1-1.41-.73-3-2.3-4.53-3.8,5.38-8.89.57-13.5,4.35-3.33-4.57,1.75-6.76,6.57-6.26a20.62,20.62,0,0,0-8.87-1.45l.73-3.71c-2.18,1.13-4.32,2.31-6.36,3.53a6.18,6.18,0,0,1,2.71-5c-3.66,1.45-9.27,3.12-10.89,6.84-.21-.86-.42-1.68-.63-2.54-3,1.61-4.71,3.47-7.92,1.36v.27a10.27,10.27,0,0,0-2.92-.27,7.07,7.07,0,0,1,3.75,3.13,8.65,8.65,0,0,0-5.63-1.45,2.87,2.87,0,0,1,.78,1.72,37.94,37.94,0,0,0-10.37-2.86c.48,2.11,2.59,3.37,4.53,4a63.59,63.59,0,0,0-7.3-1.09,18.59,18.59,0,0,0,4,3.31c-.81-.1-2.43-.26-3.24-.31,7.19,8.56-1.3,2.87-6.88,3.62a15.48,15.48,0,0,1,1-5,34.29,34.29,0,0,0-4.9,5.39,11.82,11.82,0,0,1-1.25-8.89c-3.25,2-6.31,6.28-4.22,10.07-3.36-2-5.21-.34-4.9,3.31-2.61-1.05-6.26-.68-9.6.77a16.66,16.66,0,0,1,5.89,7.21c-1.75-.21-5.52,3.29-4.17,4.94-7.94-1.27-4.44,9.6-16.06-2-2.08,2.36-3.33,5.08-2.13,7.44-2.35-2.93-6.46-3.81-10-4.36.41,1.36.88,2.77,1.4,4.13-1.37-2.7-3.08-.34-4.43,1.09-1.67-3.36-5-6.57-8.76-9.57a15.76,15.76,0,0,1,.84,2.45c-2.4.64-3.91,2-3.6,3.77-.91-5,3.43-8.88,7.45-11-6.79.48-11.75,1.69-16.21,6.21-1-2.12.24-3.69,2-4.94l-2.87.91-.47-2.59a4.39,4.39,0,0,1-4,3.9c2.36-5.53,1.61-9.94-2.82-15.18a10.29,10.29,0,0,1-5.84,11.74c3.29-1.31.17-5.59,4.38-5.53-4.95-.95-9.7-.41-13,1.54.38-1.82.48-4.51-2-2.81,1.2-.95,2.4-1.9,3.65-2.81-3.55-1.63-7.82-1.31-9.75.59a6.09,6.09,0,0,0,.52-7.52c-3.13,2.17-6.21,4.21-9.33,6.34-.42-3.17-1.83-5.34-4.59-2.36.75-2-3.47-3.68-4.9-2.63a17.17,17.17,0,0,1,1-8.74c-3.85.27-7,1.58-8.76,3.62-1.8-2.9-4.17-4.31-6.57-1-.15-4.26-4.4-6.92-8.08-8.11a13.52,13.52,0,0,1,2,8.75c-2.2-1.36-4.44-2.77-6.83-4a20.67,20.67,0,0,1,3.85,8.84c-2.08-.23-4.22-.36-6.3-.5-1.12,3.34-4.62-2.44-7.15-.5a25.21,25.21,0,0,0,3.91-5.48c-1.1.23-2.19.45-3.28.72a15,15,0,0,0,3.39-3.8c-2.37.54-4.83,1.31-7.15,2,2.35-1,3.91-2.67,4-4.44a48.61,48.61,0,0,0-10,3.76,2.94,2.94,0,0,1,.68-1.76,8.49,8.49,0,0,0-5.9,2,4.76,4.76,0,0,0,.94-3.54c-2.44.35-4,3.61-6,1.27l-1.09,2.49c-.82-3.71-5.46-6.11-8.5-8.16A6.08,6.08,0,0,1,298,467c-1.56-1.54-3.23-3-4.85-4.53l-.42,3.81a19.86,19.86,0,0,0-8.44-.32c4.89.6,8.36,4,3.91,7.48-3.29-4.65-9.28-1-10.74-7.3a8.47,8.47,0,0,0-4,3.76,9.1,9.1,0,0,0-4.79-3,9,9,0,0,1-1.67,6.3,19.85,19.85,0,0,0-5.47-2.77,3.59,3.59,0,0,1,.05,2.31c-1.36-.36-2.66-.77-4-1.13l.06,2c-.68-.41-1.31-.86-2-1.31-1,3.29-4.62,1-5.05-1.45.05,3.46-3,2.17-3.65.22a13.84,13.84,0,0,1-3,4.26,10.39,10.39,0,0,1-1.88-2.9c-1.1,2.63-2.24,5.22-3.44,7.75-1.88-1.63-2.77-3.35-2.61-5a2.7,2.7,0,0,0-.89.13c.26-.79-.79-3.85-2.13-2.35-.46-2.9.71-5.36,4.22-5.71-1.46-.05-2.92-.19-4.38-.28a12.68,12.68,0,0,1,3.65-4.8,51.65,51.65,0,0,1-6.31,1c2.21-5.58-1.26-1.85-3.65-.36-.36-1.23-.68-2.45-.94-3.63-2.08,2-4,2.92-5.47-.18-2.25,2.25-4.91,2.61-6.36-.63l-.78,1.36a19.06,19.06,0,0,0-1.88-3.54,2.08,2.08,0,0,1-1.46,2c-.14-1.62-1.17-3.58-2.87-2a6.92,6.92,0,0,1,2.56-4.21c-2.52.4-6.37,4.5-5.16-.5-2.34,1.34-2.21-2-4-3a6.27,6.27,0,0,1,.68,4.71,4.43,4.43,0,0,0-1.15-.09,40.63,40.63,0,0,0-.1-6.71l-3.7,1.59c3.25-3.87,2.47-9.95,2.55-14.74a10.94,10.94,0,0,1-5.37,6c.47-2.76,1-5.53,1.52-8.29L189.73,434a19.33,19.33,0,0,0-6.42-7.84c3.72,5.68,1.12,11.18-5.73,10.34.36-2.62,1.89-9.32-2.71-8.34a13.25,13.25,0,0,1,2.4-8,12.2,12.2,0,0,0-7.88.09c.72-2.49-.18-5.07-1.51-7.2a17,17,0,0,1-8.24,5.25,16,16,0,0,0-3-7.16c-1.59,4.67-3.45.66-5.42-1.49l-1.67,2.44-1.2-2.76c-3.44,3.4-5.92-1.47-4.9-4.8-1.92,4.16-5,1.74-4.69-1.55a28.47,28.47,0,0,1-6,4.31,17.68,17.68,0,0,1-.93-4.49c-2.51,3.13-5,6.26-7.36,9.43a9.7,9.7,0,0,1-1.09-7.25,2.91,2.91,0,0,0-1.1,0c.55-1.15-.08-5.43-2.14-3.49,0-4.18,1.45-7.48,6.73-7.29-2.08-.41-4.17-.82-6.26-1.18a13.64,13.64,0,0,1,5.74-6.17c-3.42,0-6.73.31-10.12.5,2.3-7.92-2.36-3.16-5.58-.45-.93-1.68-1.87-3.36-2.92-5-2.47,3.68-5.07,4.46-8.34,1.09-2.08,4.35-5.38,4.78-9,1.76v2.09a24.45,24.45,0,0,0-5-3.54,2.56,2.56,0,0,1-.16,3.22c-1.22-1.63-4.11-3.95-5-.81a9.63,9.63,0,0,1-.83-6.62,13.11,13.11,0,0,0-3.34,6A8.32,8.32,0,0,1,73,381.89c-1.5,3.28-4.56-.81-7.41-.41,4.35,1.41,6.83,5.78,6.78,10.2a12,12,0,0,1-2.66-2.26l-.41,3.49a4.29,4.29,0,0,1-1.93-1.86,5.68,5.68,0,0,0-1.1,3,5.41,5.41,0,0,1-2.55-2,6.65,6.65,0,0,0-2.82,5.17c-.21-.14-.39-.3-1.58-.45V582.93H770.86Z" transform="translate(-1.06 -18.53)"/><path class="i" d="M769,407.88l-1.18-2.31a9.52,9.52,0,0,1-3.53,3.86,18.61,18.61,0,0,0-3.17-8.13,14.94,14.94,0,0,1-1.28,8.49c-.5-3.8-4-1.7-5.27.62a4.05,4.05,0,0,1-.1-4.22,28.8,28.8,0,0,0-5.42,4v-2.67c-4.39,4.14-7.71,2.06-9.78-2.93-3.88,4.55-6.46,2.22-9.06-2-1.07,2-2,4.17-2.91,6.23-3.66-3.78-9.07-10-6.14.05-3.63-.59-7.39-1.15-11.06-1.5a19.6,19.6,0,0,1,6.76,8.29c-2.25.25-4.45.57-6.76.93,5.35-.17,8,5.06,8,9.77l-1.44-1a5.94,5.94,0,0,0-.56,5.2,2.26,2.26,0,0,0-1.18-.15,12.7,12.7,0,0,1-.41,8.9c-3-4.17-5.93-8.34-9-12.45a30.4,30.4,0,0,1-.51,5.55,44.5,44.5,0,0,1-7.12-6,6.35,6.35,0,0,1-1.79,5.25,32.1,32.1,0,0,1-3.22-3.76c1.55,3.47-.71,10.06-5,5.36l-1,3.29-2.15-3.19c-1.17,1.5-2.3,3-3.37,4.58a8.31,8.31,0,0,1-2.56-3.44,17.23,17.23,0,0,0-2.66,8.23,24.89,24.89,0,0,1-9.78-7.51,10.85,10.85,0,0,0-1.12,8.39,14.56,14.56,0,0,0-9-1.44,17.9,17.9,0,0,1,3.17,9.88c-5.47-1.93-3.2,6.37-2.66,9.41-7.53.06-11.48-6.66-7.26-13.17a17.69,17.69,0,0,0-7.12,8.44l-6-4.32q1.14,5.16,2.45,10.18a16.09,16.09,0,0,1-6.91-7.77c.39,6,.32,13.41,4.71,18l-4.61-2.06a41.91,41.91,0,0,0,1.23,8c-2.71.65-2.17-3.84-1.58-5.56a8.46,8.46,0,0,0-2.05,4.17l-2-.51c2.6,6-2.86,1.16-5.93.87a11.77,11.77,0,0,1,4.3,4.89c-2.3-1.7-3,.74-2.56,2.73a3.39,3.39,0,0,1-2.41-2.22,16.32,16.32,0,0,0-.82,4.48l-1.43-1.49c-.49,4.69-3.88,3.78-7.06,2.11-.14,4.8-3.33,3.07-6.24,1.95l1.12,4.64c-3-.45-10.76-4.25-3.68,1.95-2.51.72-5,1.49-7.47,2.21a19.4,19.4,0,0,1,7.57,3.35c-1.38.82-2.71,1.65-4,2.47,3.58-1.52,7.1,1,8.85,4l-1.33-.25a4.62,4.62,0,0,0,1.43,3.65,1.77,1.77,0,0,0-.87.26,8.27,8.27,0,0,1,2.36,6.28l-10.08-6.08a14.86,14.86,0,0,1,1.17,4,30.15,30.15,0,0,1-6.6-2.58,4,4,0,0,1,0,4,18.38,18.38,0,0,1-3.07-2.11c2,2.25,1.19,7.25-2.56,4.38-.1.82-.25,1.65-.36,2.42L586,520.59c-.66,1.13-1.38,2.26-2.15,3.39a6,6,0,0,1-1.94-2.47,23.68,23.68,0,0,0-2.15,5.82,14.91,14.91,0,0,1-5.93-6.33,11.06,11.06,0,0,0-1.9,5.45,12.22,12.22,0,0,0-5.07-3.14,10.19,10.19,0,0,1-1.38,7.21c-2.74-2.82-4.9,2.91-6.5,4.68-5.2-3.16-2-8.6,2.2-10.4a17.54,17.54,0,0,0-7.57,1.75c-.16-1.64-.26-3.29-.36-4.89-1.49,2.06-3.07,4.12-4.76,6.08a10.92,10.92,0,0,1,1.69-7c-3.23,3.11-8.15,6-9.67,10.24l-.51-3.29a24.09,24.09,0,0,0-2,1.34,11.8,11.8,0,0,0-3.63-3.81,6.69,6.69,0,0,0-.31,4.58,7.68,7.68,0,0,0-5.22-3.81,4.16,4.16,0,0,1-.1,2.37,86.65,86.65,0,0,0-7.83-7.62,6.2,6.2,0,0,0,1.38,6.75c-2-1.65-3.94-3.35-5.83-4.94a13.45,13.45,0,0,0,1,5.81c-.92-.72-1.9-1.44-2.82-2.16a21.86,21.86,0,0,0,.82,8c-1.9-3.34-8.59,2.13-7.83-2.32-2.2-.82-4.35-1.59-6.5-2.31a39.61,39.61,0,0,1,9.62-8.5c-3.07.47-6.09,1-9.06,1.55a24.94,24.94,0,0,1,7.93-9.16c-5.47-.41-10.64,1.9-12.84,5.5.21-5.2-3.1-4.27-6.4-2.16a11.18,11.18,0,0,0-5.11-8.59,30.85,30.85,0,0,1-4.87,10.55c-.87-2.26-5.34-1.69-5.57.62a4.88,4.88,0,0,0-1.95-3.5,42.69,42.69,0,0,0-2.86,4.17,95.52,95.52,0,0,0-5.48-11.63,8.71,8.71,0,0,0-2.1,9.31c-1.34-3.49-5.5-5-8.95-4,1.12,1.49,2.2,3,3.17,4.53-2.37-3-2.19.8-1.94,2.67-3.3-3.67-8.44-5.13-13.26-4.63,4.52.53,1.76,5.37,5.33,7.31-5-3.49-8.67-9.06-7.32-15.18-5.09,5.06-4.88,12.79-.62,18.37-2.64-.36-4.49-2.36-5.57-4.68.1,1,.25,2,.41,3.08l-3.38-.92c2.12,1.31,4.28,2.93,4.19,5.66-6.06-4.66-12.33-6.19-20.41-4.07,6.3,1.06,12.29,5.13,14.43,10.65-.79-3.61-7-2.1-6.5-6.48a17.81,17.81,0,0,0-1.08,13.38c-1.38-.49-6-3.33-4.5.62l-2.4-5c-3.28,2.47-4.81,6.58-3.59,9.62-1.48-3-5-5.1-8.85-5.82a53.46,53.46,0,0,1,1.33,12.92c-3.27-1.64-7-3.84-6.4,1.7-1-2.11-6.39-1.34-6.95,1.08a24.81,24.81,0,0,1-6.66-9.83,14.07,14.07,0,0,0-4.76,8.8c-3.46-2.14-6.52-3.29-7.11,1.85-2.15-4.32-6.9-6.69-11.51-7.41a26.23,26.23,0,0,1,5.52,10.45c-3-1.13-5.83-2.11-8.7-3.3a57.68,57.68,0,0,1,4.25,5.25c-6,1.92-15.22,11.89-9.77-1.28-1.18.46-2.35.82-3.53,1.23a13.82,13.82,0,0,0,3.12-5.25c-2.45,1.08-4.91,2.06-7.42,3.09,2.51-1.39,3.94-3.7,3.79-6a110.46,110.46,0,0,0-10.29,4.94,4.2,4.2,0,0,1,.82-2.26,9.53,9.53,0,0,0-6,1.64,9.73,9.73,0,0,1,4-3.85,11.82,11.82,0,0,0-3,.2v-.36c-3.77,2.5-4.83-.19-7.47-2.88l-1.23,3.09c-.45-4.57-4.78-8.35-7.62-11.78a10.54,10.54,0,0,1,.51,7.15c-1.39-2.21-2.72-4.43-4.1-6.64l-1,4.84a16.92,16.92,0,0,0-8.34-2.16c5,2,7.43,7.22,2.51,10.44-1.32-1.75-4-7.68-6.55-4.63a12.88,12.88,0,0,1-2.82-7.1,9,9,0,0,0-4.81,3.91,9.83,9.83,0,0,0-4.29-4.84,14,14,0,0,1-3,7.77A19.43,19.43,0,0,0,279,549.2a5.47,5.47,0,0,1-.36,3c-1.33-.67-2.66-1.39-4-2.06l-.26,2.67-1.89-1.9c-1.43,4.49-5.22-.13-5.17-2.42a18.72,18.72,0,0,1-1,3.29,4.92,4.92,0,0,1-2.81-3.19,20.94,20.94,0,0,1-3.33,5.51,15.57,15.57,0,0,1-1.89-3.81l-3.38,10.24a9,9,0,0,1-2.76-6.28,1.42,1.42,0,0,0-.87.26,5,5,0,0,0-1.54-3.71l-.87.88c-.8-3.28.22-7.3,4-7.93l-4.81.16a15.25,15.25,0,0,1,3.53-6.69c-2.35.72-4.75,1.44-7.16,2.11,1.47-8.33-2-1.78-4.2.3-.67-1.49-1.38-2.88-2-4.37-1.8,2.83-3.37,5.08-6.09,1.39-1.72,3.42-4.26,5-7,1.49l-.36,1.9a19.1,19.1,0,0,0-3.17-3.55,3,3,0,0,1-.82,3c-.61-1.81-2.47-3.94-3.69-1.34A10.57,10.57,0,0,1,218.3,532a17,17,0,0,0-4.25,5,5.5,5.5,0,0,1-1.28-3.45l-1.53,1.24a10.13,10.13,0,0,0-3.69-3.09c2.89,2.73,2.81,7,1.59,10.55a7.89,7.89,0,0,1-1.38-2.63l-1.54,3c-.72-.13.94-4.6.92-4.94L202,539.93a8.36,8.36,0,0,0-2.36-7c.31,3.24-1.17,6.13-3.12,8.75a6.4,6.4,0,0,1-.25-1,2.52,2.52,0,0,0-1.18,1c-.87-1.44-1.69-2.93-2.46-4.42-.71,1-1.58,2-2.3,3.08-1.28-1.75-2.56-3.39-3.74-5.14-1.54,1.25-5.06-1-5.06-1a37,37,0,0,1,8.75,1.18,29.92,29.92,0,0,0-6.86-3.76,35.47,35.47,0,0,1,12.74-1.54,36.81,36.81,0,0,0-5.53-1.8,28.23,28.23,0,0,1,11.11-1.18,20.39,20.39,0,0,0-6.61-3,5.56,5.56,0,0,1,2.51-.72c-1.18-.72-2.35-1.49-3.48-2.21a15.53,15.53,0,0,1,7.58-2.27,10.55,10.55,0,0,0-7.94-1.49,54.51,54.51,0,0,0-.71-8l-3.89,3c3.09-5.31,1.66-12.31,1-18.16a16,16,0,0,1-5.17,8.74c.2-3.39.41-6.84.61-10.24l-5,5.2a17.75,17.75,0,0,0-8.19-7.15c5,5.69,2.48,13-5,13.94,0-3.08.9-11.53-4.2-8.95A17.51,17.51,0,0,1,165,485.59a14.36,14.36,0,0,0-8.7,2.37,11,11,0,0,0-2.2-8.23,24.16,24.16,0,0,1-8.8,8.33,19.38,19.38,0,0,0-3.74-8,8.22,8.22,0,0,1-2.2,3.65c-1.23-1.49-2.61-2.88-4-4.32l-1.78,3.34-1.39-3.24c-3.87,5.11-6.92-1.6-5.68-5.09a27.1,27.1,0,0,1-2.86,4,6.63,6.63,0,0,1-2.56-5.2,39.43,39.43,0,0,1-6.55,6.49,31.26,31.26,0,0,1-1.33-5.56c-2.61,4.37-5.12,8.75-7.62,13.17a13.19,13.19,0,0,1-1.69-8.85,2.11,2.11,0,0,0-1.18.26,6.08,6.08,0,0,0-1.33-5.15L100,474.63c-.44-4.93.66-9.71,6.85-10.39-2.4-.16-4.81-.26-7.21-.31a18.21,18.21,0,0,1,5.78-8.91c-3.89.67-7.73,1.5-11.46,2.42,1.34-10.13-3.19-3.66-6.45.57-1.33-2-2.71-3.91-4.25-5.87-2.1,4.95-4.67,6.79-9.31,3-1.31,5.7-4.86,7.38-9.88,4.16l.51,2.68a15.78,15.78,0,0,0-5.31-2.34v127H771.86V406.91A7.28,7.28,0,0,0,769,407.88Z" transform="translate(-1.06 -18.53)"/></svg>