<?xml version="1.0" encoding="utf-8"?>
<svg xmlns="http://www.w3.org/2000/svg">
<symbol id="add" viewBox="0 0 32 32">
<title>add</title>
<path d="M31 12h-11v-11c0-0.552-0.448-1-1-1h-6c-0.552 0-1 0.448-1 1v11h-11c-0.552 0-1 0.448-1 1v6c0 0.552 0.448 1 1 1h11v11c0 0.552 0.448 1 1 1h6c0.552 0 1-0.448 1-1v-11h11c0.552 0 1-0.448 1-1v-6c0-0.552-0.448-1-1-1z"/>

</symbol>
<symbol id="badge" viewBox="0 0 512 512"><title>badge</title><g><path d="m467 113h-156v-49c0-8.284-6.716-15-15-15h-80c-8.284 0-15 6.716-15 15v49h-156c-24.813 0-45 20.187-45 45v260c0 24.813 20.187 45 45 45h422c24.813 0 45-20.187 45-45v-260c0-24.813-20.187-45-45-45zm-236-34h50v82h-50zm251 339c0 8.271-6.729 15-15 15h-422c-8.271 0-15-6.729-15-15v-260c0-8.271 6.729-15 15-15h156v33c0 8.284 6.716 15 15 15h80c8.284 0 15-6.716 15-15v-33h156c8.271 0 15 6.729 15 15z"/><path d="m189.158 284.729c6.161-7.95 9.842-17.915 9.842-28.729 0-25.916-21.084-47-47-47s-47 21.084-47 47c0 10.814 3.681 20.779 9.842 28.729-24.992 18.093-33.842 52.712-33.842 83.271 0 8.284 6.716 15 15 15h112c8.284 0 15-6.716 15-15 0-30.583-8.863-65.187-33.842-83.271zm-54.158-28.729c0-9.374 7.626-17 17-17s17 7.626 17 17-7.626 17-17 17-17-7.626-17-17zm-23.122 97c1.517-12.57 4.963-23.689 10.068-32.187 7.201-11.986 17.033-17.813 30.054-17.813s22.853 5.827 30.054 17.813c5.105 8.497 8.552 19.616 10.068 32.187z"/><path d="m416 281h-120c-8.284 0-15 6.716-15 15s6.716 15 15 15h120c8.284 0 15-6.716 15-15s-6.716-15-15-15z"/><path d="m416 353h-144c-8.284 0-15 6.716-15 15s6.716 15 15 15h144c8.284 0 15-6.716 15-15s-6.716-15-15-15z"/></g>
</symbol>
<symbol id="book" viewBox="0 0 32 32">
<title>book</title>
<path d="M28 4v26h-21c-1.657 0-3-1.343-3-3s1.343-3 3-3h19v-24h-20c-2.2 0-4 1.8-4 4v24c0 2.2 1.8 4 4 4h24v-28h-2z"/>
<path d="M7.002 26v0c-0.001 0-0.001 0-0.002 0-0.552 0-1 0.448-1 1s0.448 1 1 1c0.001 0 0.001-0 0.002-0v0h18.997v-2h-18.997z"/>

</symbol>
<symbol id="calendar-clock" viewBox="0 0 512 512">
	<title>calendar</title>
		<g>
			<circle cx="386" cy="210" r="20"/>
			<path d="M432,40h-26V20c0-11.046-8.954-20-20-20c-11.046,0-20,8.954-20,20v20h-91V20c0-11.046-8.954-20-20-20
				c-11.046,0-20,8.954-20,20v20h-90V20c0-11.046-8.954-20-20-20s-20,8.954-20,20v20H80C35.888,40,0,75.888,0,120v312
				c0,44.112,35.888,80,80,80h153c11.046,0,20-8.954,20-20c0-11.046-8.954-20-20-20H80c-22.056,0-40-17.944-40-40V120
				c0-22.056,17.944-40,40-40h25v20c0,11.046,8.954,20,20,20s20-8.954,20-20V80h90v20c0,11.046,8.954,20,20,20s20-8.954,20-20V80h91
				v20c0,11.046,8.954,20,20,20c11.046,0,20-8.954,20-20V80h26c22.056,0,40,17.944,40,40v114c0,11.046,8.954,20,20,20
				c11.046,0,20-8.954,20-20V120C512,75.888,476.112,40,432,40z"/>
			<path d="M391,270c-66.72,0-121,54.28-121,121s54.28,121,121,121s121-54.28,121-121S457.72,270,391,270z M391,472
				c-44.663,0-81-36.336-81-81s36.337-81,81-81c44.663,0,81,36.336,81,81S435.663,472,391,472z"/>
			<path d="M420,371h-9v-21c0-11.046-8.954-20-20-20c-11.046,0-20,8.954-20,20v41c0,11.046,8.954,20,20,20h29
				c11.046,0,20-8.954,20-20C440,379.954,431.046,371,420,371z"/>
			<circle cx="299" cy="210" r="20"/>
			<circle cx="212" cy="297" r="20"/>
			<circle cx="125" cy="210" r="20"/>
			<circle cx="125" cy="297" r="20"/>
			<circle cx="125" cy="384" r="20"/>
			<circle cx="212" cy="384" r="20"/>
			<circle cx="212" cy="210" r="20"/>
		</g>



</symbol>
<symbol id="calendar-star" viewBox="0 0 427.056 427.056">
	<title>dice</title>
	<path d="M196.67,199.099V42.43c0-11.028-8.972-20-20-20H20c-11.028,0-20,8.972-20,20v156.669c0,11.028,8.972,20,20,20h156.67
		C187.698,219.099,196.67,210.128,196.67,199.099z M43.674,196.044c-11.369,0-20.618-9.249-20.618-20.617
		c0-11.369,9.249-20.618,20.618-20.618c11.368,0,20.617,9.249,20.617,20.618C64.291,186.795,55.042,196.044,43.674,196.044z
		 M43.674,86.721c-11.369,0-20.618-9.249-20.618-20.618c0-11.368,9.249-20.617,20.618-20.617c11.368,0,20.617,9.249,20.617,20.617
		C64.291,77.472,55.042,86.721,43.674,86.721z M99.705,139.835c-11.368,0-20.617-9.249-20.617-20.617S88.337,98.6,99.705,98.6
		c11.369,0,20.618,9.249,20.618,20.617S111.074,139.835,99.705,139.835z M152.996,196.044c-11.368,0-20.617-9.249-20.617-20.617
		c0-11.369,9.249-20.618,20.617-20.618s20.617,9.249,20.617,20.618C173.613,186.795,164.364,196.044,152.996,196.044z
		 M152.996,86.721c-11.368,0-20.617-9.249-20.617-20.618c0-11.368,9.249-20.617,20.617-20.617s20.617,9.249,20.617,20.617
		C173.613,77.472,164.364,86.721,152.996,86.721z"/>
	<path d="M426.504,246.651c-1.236-5.209-4.414-9.617-8.948-12.411l-133.371-82.201c-3.144-1.938-6.759-2.961-10.453-2.961
		c-7.022,0-13.402,3.549-17.067,9.494l-82.201,133.372c-5.785,9.388-2.854,21.733,6.533,27.52l133.372,82.201
		c3.143,1.938,6.758,2.961,10.452,2.961c7.023,0,13.403-3.549,17.067-9.494l82.201-133.371
		C426.883,257.226,427.741,251.86,426.504,246.651z M261.362,206.401c-1.271-5.358-0.381-10.892,2.51-15.58
		c3.782-6.138,10.35-9.802,17.566-9.802c3.811,0,7.546,1.061,10.802,3.067c9.678,5.965,12.699,18.691,6.734,28.369
		c-3.783,6.139-10.351,9.803-17.567,9.803c-3.811,0-7.546-1.061-10.802-3.067C265.917,216.301,262.635,211.759,261.362,206.401z
		 M281.194,281.015c-1.272-5.358-0.381-10.892,2.508-15.579c3.784-6.138,10.351-9.802,17.567-9.802
		c3.811,0,7.546,1.061,10.803,3.067c4.688,2.89,7.971,7.432,9.242,12.79c1.272,5.358,0.381,10.892-2.508,15.579
		c-3.783,6.138-10.35,9.802-17.566,9.802c-3.811,0-7.546-1.061-10.803-3.067C285.749,290.916,282.467,286.374,281.194,281.015z
		 M334.682,362.882c-3.783,6.139-10.351,9.803-17.567,9.803c-3.811,0-7.546-1.061-10.802-3.067c-4.688-2.89-7.971-7.432-9.243-12.79
		c-1.272-5.359-0.381-10.892,2.508-15.58c3.783-6.138,10.351-9.802,17.567-9.802c3.811,0,7.546,1.061,10.802,3.067
		C337.625,340.477,340.646,353.204,334.682,362.882z"/>



</symbol>
<symbol id="close" viewBox="0 0 32 32">
<title>close</title>
<path d="M31.708 25.708c-0-0-0-0-0-0l-9.708-9.708 9.708-9.708c0-0 0-0 0-0 0.105-0.105 0.18-0.227 0.229-0.357 0.133-0.356 0.057-0.771-0.229-1.057l-4.586-4.586c-0.286-0.286-0.702-0.361-1.057-0.229-0.13 0.048-0.252 0.124-0.357 0.228 0 0-0 0-0 0l-9.708 9.708-9.708-9.708c-0-0-0-0-0-0-0.105-0.104-0.227-0.18-0.357-0.228-0.356-0.133-0.771-0.057-1.057 0.229l-4.586 4.586c-0.286 0.286-0.361 0.702-0.229 1.057 0.049 0.13 0.124 0.252 0.229 0.357 0 0 0 0 0 0l9.708 9.708-9.708 9.708c-0 0-0 0-0 0-0.104 0.105-0.18 0.227-0.229 0.357-0.133 0.355-0.057 0.771 0.229 1.057l4.586 4.586c0.286 0.286 0.702 0.361 1.057 0.229 0.13-0.049 0.252-0.124 0.357-0.229 0-0 0-0 0-0l9.708-9.708 9.708 9.708c0 0 0 0 0 0 0.105 0.105 0.227 0.18 0.357 0.229 0.356 0.133 0.771 0.057 1.057-0.229l4.586-4.586c0.286-0.286 0.362-0.702 0.229-1.057-0.049-0.13-0.124-0.252-0.229-0.357z"/>

</symbol>
<symbol id="dice" viewBox="-27 -17 532 532.00081">
    <title>event</title>
    <path d="m477.34375 184.765625v-76.933594c-.035156-30.25-24.550781-54.765625-54.800781-54.800781h-14.429688v-8.652344c-.125-24.550781-20.0625-44.378906-44.609375-44.378906s-44.480468 19.828125-44.613281 44.378906v8.652344h-161.171875v-8.652344c-.125-24.550781-20.0625-44.378906-44.609375-44.378906s-44.480469 19.828125-44.613281 44.378906v8.652344h-14.433594c-30.246094.035156-54.761719 24.550781-54.796875 54.800781v336.117188c.035156 30.25 24.550781 54.765625 54.796875 54.800781h368.480469c30.25-.035156 54.765625-24.550781 54.800781-54.800781v-251.273438c.867188-2.566406.867188-5.34375 0-7.910156zm-113.839844-160.050781c10.851563.015625 19.644532 8.804687 19.65625 19.664062v26.273438c-.082031 10.792968-8.863281 19.5-19.664062 19.5-10.796875 0-19.574219-8.707032-19.660156-19.5v-26.273438c.011718-10.859375 8.808593-19.652344 19.667968-19.664062zm-270.0625 19.664062c.085938-10.800781 8.863282-19.507812 19.660156-19.507812 10.800782 0 19.574219 8.707031 19.664063 19.507812v26.273438c-.089844 10.792968-8.863281 19.5-19.664063 19.5-10.796874 0-19.574218-8.707032-19.660156-19.5zm-39.378906 33.601563h15.042969c3.585937 21.507812 22.191406 37.273437 43.996093 37.273437 21.808594 0 40.414063-15.765625 44-37.273437h162.402344c3.585938 21.507812 22.195313 37.273437 44 37.273437 21.804688 0 40.414063-15.765625 43.996094-37.273437h15.042969c16.480469.019531 29.832031 13.371093 29.851562 29.851562v68.410157h-428.179687v-68.40625c.015625-16.480469 13.375-29.835938 29.847656-29.855469zm368.480469 395.820312h-368.480469c-16.472656-.019531-29.828125-13.371093-29.847656-29.851562v-242.757813h428.179687v242.757813c-.019531 16.480469-13.371093 29.832031-29.851562 29.851562zm0 0"/>
    <path d="m314.304688 312.421875-44.851563-6.390625-20.007813-39.746094c-2.117187-4.210937-6.425781-6.867187-11.144531-6.867187-4.710937 0-9.019531 2.65625-11.136719 6.867187l-20.015624 39.746094-44.84375 6.390625c-4.730469.671875-8.660157 3.988281-10.121094 8.535156-1.457032 4.546875-.195313 9.53125 3.261718 12.832031l32.300782 30.871094-7.609375 43.519532c-.816407 4.667968 1.078125 9.394531 4.898437 12.199218 3.816406 2.808594 8.894532 3.207032 13.105469 1.039063l40.167969-20.699219 40.167968 20.699219c4.207032 2.167969 9.285157 1.765625 13.097657-1.042969 3.8125-2.800781 5.714843-7.527344 4.902343-12.191406l-7.613281-43.519532 32.304688-30.871093c3.453125-3.296875 4.71875-8.285157 3.257812-12.828125-1.460937-4.546875-5.390625-7.867188-10.121093-8.539063zm-47.5 38.796875c-3.011719 2.875-4.386719 7.066406-3.667969 11.167969l4.433593 25.339843-23.550781-12.136718c-3.582031-1.847656-7.839843-1.847656-11.429687 0l-23.550782 12.136718 4.429688-25.339843c.722656-4.101563-.65625-8.292969-3.667969-11.167969l-18.546875-17.71875 25.867188-3.683594c4.042968-.574218 7.546875-3.09375 9.382812-6.738281l11.796875-23.4375 11.804688 23.4375c1.835937 3.644531 5.339843 6.164063 9.378906 6.738281l25.871094 3.683594zm0 0"/>

</symbol>
<symbol id="faq" viewBox="0 0 512 512">
    <title>faq</title>
    <g>
        <path d="m489.977 387.681c14.423-26.426 22.023-56.21 22.023-86.492 0-97.659-77.879-177.459-174.793-180.583-31.268-54.044-89.716-90.486-156.517-90.486-99.633 0-180.69 81.058-180.69 180.691 0 30.281 7.6 60.065 22.023 86.491l-10.967 65.883c-.795 4.777.765 9.645 4.19 13.069 3.424 3.424 8.292 4.981 13.069 4.19l65.884-10.968c24.709 13.487 52.355 21.004 80.598 21.924 31.269 54.041 89.715 90.479 156.514 90.479 30.282 0 60.063-7.599 86.491-22.023l65.884 10.968c4.775.79 9.644-.766 13.069-4.19 3.425-3.425 4.985-8.292 4.189-13.069zm-393.01-48.871c-.821 0-1.645.067-2.463.203l-50.409 8.392 8.392-50.408c.577-3.466-.081-7.023-1.859-10.054-13.495-23.001-20.628-49.326-20.628-76.132 0-83.091 67.599-150.691 150.69-150.691 83.09 0 150.69 67.6 150.69 150.69s-67.6 150.69-150.69 150.69c-26.806 0-53.132-7.133-76.132-20.628-2.314-1.358-4.936-2.062-7.591-2.062zm362.546 48.565 8.393 50.409-50.409-8.391c-3.463-.579-7.023.079-10.054 1.858-23 13.495-49.326 20.628-76.132 20.628-50.237 0-94.804-24.717-122.199-62.622 12.411-1.969 24.403-5.21 35.843-9.578 2.338 1.505 5.115 2.389 8.102 2.389h156.588c8.284 0 15-6.716 15-15s-6.716-15-15-15h-116.42c12.951-10.339 24.455-22.416 34.154-35.879h82.266c8.284 0 15-6.716 15-15s-6.716-15-15-15h-64.759c5.243-11.375 9.337-23.384 12.134-35.878h52.626c8.284 0 15-6.716 15-15s-6.716-15-15-15h-48.516c.164-3.147.249-6.314.249-9.501 0-20.635-3.486-40.469-9.885-58.955 73.582 9.895 130.506 73.087 130.506 149.334 0 26.807-7.133 53.132-20.628 76.132-1.778 3.031-2.435 6.588-1.859 10.054z"/>
        <path d="m157.953 163.709c0-12.537 10.2-22.737 22.737-22.737s22.737 10.2 22.737 22.737-10.2 22.737-22.737 22.737c-8.284 0-15 6.716-15 15v44.2c0 8.284 6.716 15 15 15s15-6.716 15-15v-31.373c21.795-6.477 37.737-26.694 37.737-50.564 0-29.079-23.658-52.737-52.737-52.737s-52.737 23.658-52.737 52.737c0 8.284 6.716 15 15 15s15-6.716 15-15z"/>
        <path d="m180.69 280.649c-7.846 0-15.363 6.899-15 15 .364 8.127 6.591 15 15 15 7.846 0 15.363-6.899 15-15-.364-8.127-6.591-15-15-15z"/>
    </g>

</symbol>
<symbol id="hotel" viewBox="0 0 512 512">
    <title>hotel</title>

            <g>
                <path id="XMLID_806_" d="m502 444h-20v-388c0-5.523-4.478-10-10-10h-73.667v-36c0-5.523-4.478-10-10-10h-264.666c-5.522 0-10 4.477-10 10v36h-73.667c-5.522 0-10 4.477-10 10v388h-20c-5.523 0-10 4.477-10 10v48c0 5.523 4.477 10 10 10h201.004c5.522 0 10-4.477 10-10s-4.478-10-10-10h-191.004v-28h472v28h-191.002c-5.522 0-10 4.477-10 10s4.478 10 10 10h201.002c5.522 0 10-4.477 10-10v-48c0-5.523-4.478-10-10-10zm-368.333-424h244.666v26h-244.666zm112.333 424h-52v-60c0-30.782 22.553-56.385 52-61.182zm20 0v-121.182c29.447 4.797 52 30.4 52 61.182v60zm72 0v-60c0-45.215-36.785-82-82-82s-82 36.785-82 82v60h-124v-378h412v378z"/>
                <path id="XMLID_825_" d="m136 110h-48c-5.522 0-10 4.477-10 10v48c0 5.523 4.478 10 10 10h48c5.523 0 10-4.477 10-10v-48c0-5.523-4.477-10-10-10zm-10 48h-28v-28h28z"/>
                <path id="XMLID_828_" d="m232 110h-48c-5.523 0-10 4.477-10 10v48c0 5.523 4.477 10 10 10h48c5.523 0 10-4.477 10-10v-48c0-5.523-4.477-10-10-10zm-10 48h-28v-28h28z"/>
                <path id="XMLID_831_" d="m328 110h-48c-5.522 0-10 4.477-10 10v48c0 5.523 4.478 10 10 10h48c5.522 0 10-4.477 10-10v-48c0-5.523-4.478-10-10-10zm-10 48h-28v-28h28z"/>
                <path id="XMLID_834_" d="m424 110h-48c-5.522 0-10 4.477-10 10v48c0 5.523 4.478 10 10 10h48c5.522 0 10-4.477 10-10v-48c0-5.523-4.478-10-10-10zm-10 48h-28v-28h28z"/>
                <path id="XMLID_1471_" d="m136 206h-48c-5.522 0-10 4.477-10 10v48c0 5.523 4.478 10 10 10h48c5.523 0 10-4.477 10-10v-48c0-5.523-4.477-10-10-10zm-10 48h-28v-28h28z"/>
                <path id="XMLID_1482_" d="m232 206h-48c-5.523 0-10 4.477-10 10v48c0 5.523 4.477 10 10 10h48c5.523 0 10-4.477 10-10v-48c0-5.523-4.477-10-10-10zm-10 48h-28v-28h28z"/>
                <path id="XMLID_1487_" d="m328 206h-48c-5.522 0-10 4.477-10 10v48c0 5.523 4.478 10 10 10h48c5.522 0 10-4.477 10-10v-48c0-5.523-4.478-10-10-10zm-10 48h-28v-28h28z"/>
                <path id="XMLID_1490_" d="m424 206h-48c-5.522 0-10 4.477-10 10v48c0 5.523 4.478 10 10 10h48c5.522 0 10-4.477 10-10v-48c0-5.523-4.478-10-10-10zm-10 48h-28v-28h28z"/>
                <path id="XMLID_632_" d="m136 302h-48c-5.522 0-10 4.477-10 10v48c0 5.523 4.478 10 10 10h48c5.523 0 10-4.477 10-10v-48c0-5.523-4.477-10-10-10zm-10 48h-28v-28h28z"/>
                <path id="XMLID_1513_" d="m424 302h-48c-5.522 0-10 4.477-10 10v48c0 5.523 4.478 10 10 10h48c5.522 0 10-4.477 10-10v-48c0-5.523-4.478-10-10-10zm-10 48h-28v-28h28z"/>
                <path id="XMLID_1522_" d="m256 492c-2.63 0-5.21 1.07-7.07 2.93s-2.93 4.44-2.93 7.07 1.069 5.21 2.93 7.07c1.86 1.86 4.44 2.93 7.07 2.93s5.21-1.07 7.069-2.93c1.86-1.86 2.931-4.44 2.931-7.07s-1.07-5.21-2.931-7.07c-1.859-1.86-4.439-2.93-7.069-2.93z"/>
            </g>


</symbol>
<symbol id="list" viewBox="0 0 32 32">
<title>list</title>
<path d="M12 2h20v4h-20v-4zM12 14h20v4h-20v-4zM12 26h20v4h-20v-4zM0 4c0-2.209 1.791-4 4-4s4 1.791 4 4c0 2.209-1.791 4-4 4s-4-1.791-4-4zM0 16c0-2.209 1.791-4 4-4s4 1.791 4 4c0 2.209-1.791 4-4 4s-4-1.791-4-4zM0 28c0-2.209 1.791-4 4-4s4 1.791 4 4c0 2.209-1.791 4-4 4s-4-1.791-4-4z"/>

</symbol>
<symbol id="menu" viewBox="0 0 32 32">
<title>menu</title>
<path d="M2 6h28v6h-28zM2 14h28v6h-28zM2 22h28v6h-28z"/>

</symbol>
<symbol id="parachute" viewBox="0 0 297.666 297.666">
	 <title>parachute</title>
<g>
	<path d="M276.783,119.911c1.685-1.725,2.427-4.017,2.246-6.245h0.09C270.389,49.563,215.295,0,148.834,0
		C82.575,0,27.615,49.26,18.629,113.079c-0.014,0.099-0.032,0.197-0.042,0.297c-0.013,0.097-0.027,0.193-0.04,0.29h0.023
		c-0.141,2.188,0.606,4.423,2.26,6.112l71.586,73.066c2.338-0.762,4.829-1.179,7.417-1.179h8.357c-0.017-1-0.024-1.207-0.024-1.688
		c0-1.261,0.066-2.506,0.18-3.739l-73.77-75.294c6.241-12.513,19.158-21.112,34.094-21.112c13.01,0,24.49,6.527,31.359,16.481
		l17.594,57.565c3.68-4.43,8.27-8.077,13.48-10.636l-14.121-46.197c6.806-10.364,18.525-17.213,31.852-17.213
		c13.073,0,24.605,6.59,31.462,16.626l-13.95,46.695c5.225,2.538,9.829,6.176,13.532,10.6l1.221-4.088l15.986-53.512
		c6.882-9.863,18.306-16.321,31.245-16.321c15.137,0,28.207,8.828,34.349,21.616l-73.353,75.026c0.109,1.218,0.174,2.446,0.174,3.69
		c0,0.418-0.006,0.5-0.019,1.5h7.352c2.93,0,5.737,0.529,8.335,1.495L276.783,119.911z"/>
	<path d="M204.833,215.666c0-4.418-3.582-8-8-8h-30.137c4.213-5,6.804-10.908,6.804-17.5c0-13.622-11.045-25.041-24.666-25.041
		c-13.623,0-24.668,11.032-24.668,24.654c0,6.327,2.385,12.366,6.303,16.732c-0.029,0.051-0.058,0.154-0.086,0.154h-0.005
		c-0.068,0-0.136,0-0.201,1H99.833c-4.418,0-8,3.582-8,8s3.582,8,8,8H126.5v66c0,4.418,3.582,8,8,8s8-3.582,8-8v-25.512
		c2,0.326,2.952,0.512,4.5,0.512s3.5-0.185,4.5-0.512v25.512c0,4.418,3.582,8,8,8s8-3.582,8-8v-66h29.333
		C201.251,223.666,204.833,220.084,204.833,215.666z"/>
</g>


</symbol>
<symbol id="paw" viewBox="0 0 512 512">
<title>paw</title>
    <path d="M71.162 156.863c-5.684-6.328-16.641-6.328-22.324 0C40.679 165.945 0 212.761 0 241.883c0 33.091 26.909 60 60 60s60-26.909 60-60c0-29.122-40.679-75.938-48.838-85.02zm120-152c-5.684-6.328-16.641-6.328-22.324 0C160.679 13.945 120 62.762 120 91.883c0 33.091 26.909 60 60 60s60-26.909 60-60c0-29.122-40.679-77.938-48.838-87.02zm152 0c-5.683-6.328-16.641-6.328-22.324 0C312.679 13.945 272 62.762 272 91.883c0 33.091 26.909 60 60 60s60-26.909 60-60c0-29.122-40.679-77.938-48.838-87.02zm120 152c-5.684-6.328-16.641-6.328-22.324 0-8.159 9.082-48.838 55.898-48.838 85.02 0 33.091 26.909 60 60 60s60-26.909 60-60c0-29.122-40.679-75.938-48.838-85.02zm-12.905 230.655c-7.09-39.434-37.998-72.539-76.934-82.397-6.665-1.685-11.323-7.646-11.323-14.517v-3.721c0-57.891-48.109-105-106-105s-106 47.109-106 105v3.721c0 6.87-4.658 12.832-11.323 14.517-38.936 9.857-69.844 42.962-76.934 82.396-5.61 31.143 2.651 62.739 22.676 86.675 35.083 41.938 101.558 49.16 144.741 15.806 13.77-10.635 39.91-10.635 53.68 0 18.53 14.312 40.708 21.885 64.16 21.885 31.187 0 60.557-13.74 80.581-37.69 20.024-23.935 28.286-55.532 22.676-86.675z"/>

</symbol>
<symbol id="price-tag" viewBox="0 0 32 32">
<title>price-tag</title>
<path d="M30.5 0h-12c-0.825 0-1.977 0.477-2.561 1.061l-14.879 14.879c-0.583 0.583-0.583 1.538 0 2.121l12.879 12.879c0.583 0.583 1.538 0.583 2.121 0l14.879-14.879c0.583-0.583 1.061-1.736 1.061-2.561v-12c0-0.825-0.675-1.5-1.5-1.5zM23 12c-1.657 0-3-1.343-3-3s1.343-3 3-3 3 1.343 3 3-1.343 3-3 3z"/>

</symbol>
<symbol id="scroll" viewBox="0 0 48 48">
<title>scroll</title>
    <path d="M 15.5 5 C 11.928062 5 9 7.9280619 9 11.5 L 9 34 L 5.5 34 C 4.1364058 34 3 35.136406 3 36.5 L 3 38.5 C 3 40.967501 5.0324991 43 7.5 43 L 34.5 43 C 36.967501 43 39 40.967501 39 38.5 L 39 14 L 42.5 14 C 43.863594 14 45 12.863594 45 11.5 L 45 9.5 C 45 7.1132596 43.09387 5.1504737 40.736328 5.0234375 A 1.50015 1.50015 0 0 0 40.5 5 L 15.5 5 z M 15.5 8 L 36.306641 8 C 36.134564 8.4744795 36 8.9694092 36 9.5 L 36 12.253906 A 1.50015 1.50015 0 0 0 36 12.740234 L 36 38.5 C 36 39.346499 35.346499 40 34.5 40 C 33.653501 40 33 39.346499 33 38.5 L 33 36.5 C 33 35.136406 31.863594 34 30.5 34 L 12 34 L 12 11.5 C 12 9.5499381 13.549938 8 15.5 8 z M 40.5 8 C 41.346499 8 42 8.6535009 42 9.5 L 42 11 L 39 11 L 39 9.5 C 39 8.6535009 39.653501 8 40.5 8 z M 17.5 13 A 1.50015 1.50015 0 1 0 17.5 16 L 30.5 16 A 1.50015 1.50015 0 1 0 30.5 13 L 17.5 13 z M 17.5 20 A 1.50015 1.50015 0 1 0 17.5 23 L 30.5 23 A 1.50015 1.50015 0 1 0 30.5 20 L 17.5 20 z M 17.5 27 A 1.50015 1.50015 0 1 0 17.5 30 L 28.5 30 A 1.50015 1.50015 0 1 0 28.5 27 L 17.5 27 z M 6 37 L 10.253906 37 A 1.50015 1.50015 0 0 0 10.740234 37 L 30 37 L 30 38.5 C 30 39.030591 30.134564 39.52552 30.306641 40 L 7.5 40 C 6.6535009 40 6 39.346499 6 38.5 L 6 37 z"/>
    
</symbol>
<symbol id="settings" viewBox="0 0 32 32">
<title>settings</title>
<path d="M29.181 19.070c-1.679-2.908-0.669-6.634 2.255-8.328l-3.145-5.447c-0.898 0.527-1.943 0.829-3.058 0.829-3.361 0-6.085-2.742-6.085-6.125h-6.289c0.008 1.044-0.252 2.103-0.811 3.070-1.679 2.908-5.411 3.897-8.339 2.211l-3.144 5.447c0.905 0.515 1.689 1.268 2.246 2.234 1.676 2.903 0.672 6.623-2.241 8.319l3.145 5.447c0.895-0.522 1.935-0.82 3.044-0.82 3.35 0 6.067 2.725 6.084 6.092h6.289c-0.003-1.034 0.259-2.080 0.811-3.038 1.676-2.903 5.399-3.894 8.325-2.219l3.145-5.447c-0.899-0.515-1.678-1.266-2.232-2.226zM16 22.479c-3.578 0-6.479-2.901-6.479-6.479s2.901-6.479 6.479-6.479c3.578 0 6.479 2.901 6.479 6.479s-2.901 6.479-6.479 6.479z"/>

</symbol>
<symbol id="star" viewBox="0 0 32 32">
<title>star</title>
<path d="M32 12.408l-11.056-1.607-4.944-10.018-4.944 10.018-11.056 1.607 8 7.798-1.889 11.011 9.889-5.199 9.889 5.199-1.889-11.011 8-7.798z"/>

</symbol>
<symbol id="trophy" viewBox="0 0 512 512">
<title>trophy</title>
	<g>
		<path d="M486.4,25.6h-76.8V0H102.4v25.6H25.6C10.24,25.6,0,35.84,0,51.2v61.44c0,58.88,43.52,107.52,102.4,115.2v2.56
			c0,74.24,51.2,135.68,120.32,151.04L204.8,435.2h-58.88c-10.24,0-20.48,7.68-23.04,17.92L102.4,512h307.2l-20.48-58.88
			c-2.56-10.24-12.8-17.92-23.04-17.92H307.2l-17.92-53.76c69.12-15.36,120.32-76.8,120.32-151.04v-2.56
			c58.88-7.68,102.4-56.32,102.4-115.2V51.2C512,35.84,501.76,25.6,486.4,25.6z M102.4,176.64c-28.16-7.68-51.2-33.28-51.2-64V76.8
			h51.2V176.64z M307.2,256L256,227.84L204.8,256l12.8-51.2l-38.4-51.2h53.76L256,102.4l23.04,51.2h53.76l-38.4,51.2L307.2,256z
			 M460.8,112.64c0,30.72-23.04,58.88-51.2,64V76.8h51.2V112.64z"/>
	</g>



</symbol>
<symbol id="twitter" viewBox="0 0 32 32">
<title>twitter</title>
<path d="M32 7.075c-1.175 0.525-2.444 0.875-3.769 1.031 1.356-0.813 2.394-2.1 2.887-3.631-1.269 0.75-2.675 1.3-4.169 1.594-1.2-1.275-2.906-2.069-4.794-2.069-3.625 0-6.563 2.938-6.563 6.563 0 0.512 0.056 1.012 0.169 1.494-5.456-0.275-10.294-2.888-13.531-6.862-0.563 0.969-0.887 2.1-0.887 3.3 0 2.275 1.156 4.287 2.919 5.463-1.075-0.031-2.087-0.331-2.975-0.819 0 0.025 0 0.056 0 0.081 0 3.181 2.263 5.838 5.269 6.437-0.55 0.15-1.131 0.231-1.731 0.231-0.425 0-0.831-0.044-1.237-0.119 0.838 2.606 3.263 4.506 6.131 4.563-2.25 1.762-5.075 2.813-8.156 2.813-0.531 0-1.050-0.031-1.569-0.094 2.913 1.869 6.362 2.95 10.069 2.95 12.075 0 18.681-10.006 18.681-18.681 0-0.287-0.006-0.569-0.019-0.85 1.281-0.919 2.394-2.075 3.275-3.394z"/>

</symbol>
<symbol id="wolf" viewBox="0 0 512 512">
    <title>wolf</title>
    <path d="m69.505 0c-38.325 0-69.505 31.18-69.505 69.505s31.18 69.506 69.505 69.506 69.506-31.181 69.506-69.506-31.181-69.505-69.506-69.505z"/>
    <g>
        <path d="m438.533 494.473c0 4.693 1.83 9.101 5.155 12.413 3.31 3.298 7.701 5.112 12.37 5.112h.063c9.63-.033 17.466-7.895 17.466-17.525v-126.009c-10.428 7.205-22.095 12.942-35.053 17.239v108.77z"/>
        <path d="m369.804 395.387v98.579c0 4.693 1.83 9.102 5.155 12.413 3.31 3.298 7.701 5.112 12.37 5.112h.063c10.081-.034 18.282-7.668 18.282-17.018v-101.32c-10.868 1.484-22.424 2.234-34.713 2.234z"/>
        <path d="m512 28.976c0-3.753-2.224-7.15-5.664-8.651l-26.583-11.601c-.94-.412-1.742-.2-2.251.048-.508.249-1.168.753-1.422 1.747l-4.126 16.129c-3.265 12.758-13.24 22.616-26.035 25.728l-23.038 5.604c-2.074.505-3.974 1.511-5.668 2.81-.008.006-.015.012-.023.018l-33.688 25.711c-.936.714-.331 2.207.838 2.068l23.591-2.806c5.619-.662 11.187 1.602 14.736 6.009 3.549 4.406 4.581 10.329 2.732 15.677l-22.064 63.795c-7.419 21.453-22.52 38.683-42.52 48.517l-.636.31c-10.426 5.036-21.896 7.763-34.068 8.092l-57.55 1.556c-21.807.59-42.388 5.161-61.168 13.584-38.863 17.428-56.963 44.031-56.963 83.72v166.921c0 9.554 7.818 17.691 17.37 17.532 9.286-.155 16.793-7.757 16.793-17.079v-86.303c0-9.074 7.356-16.43 16.43-16.43h6.813c33.236 0 60.178-26.943 60.178-60.178v-11.533c0-9.209 7.536-17.03 16.744-16.858 8.929.167 16.116 7.458 16.116 16.427v11.964c0 10.875-1.892 21.313-5.337 31.022h75.422c84.658 0 141.04-34.04 141.04-200.167v-133.383z"/>
        <path d="m117.571 327.041c0-23.542 5.139-44.191 15.324-61.87l-121.946 67.192c-5.152 2.839-5.891 9.945-1.435 13.784 33.434 23.259 77.202 21.161 108.056-2.689v-16.417z"/>
        <path d="m251.89 494.791v-81.382c-10.449 5.643-22.082 9.365-34.436 10.64v70.366c0 .083-.006.165-.006.248 0 .042.006.083.006.125 0 9.491 7.728 17.212 17.227 17.212 9.49 0 17.209-7.72 17.209-17.209z"/>
    </g>

</symbol></svg>