<?xml version="1.0" encoding="utf-8"?>
<svg xmlns="http://www.w3.org/2000/svg">
<symbol id="add" viewBox="0 0 32 32">
<title>add</title>
<path d="M31 12h-11v-11c0-0.552-0.448-1-1-1h-6c-0.552 0-1 0.448-1 1v11h-11c-0.552 0-1 0.448-1 1v6c0 0.552 0.448 1 1 1h11v11c0 0.552 0.448 1 1 1h6c0.552 0 1-0.448 1-1v-11h11c0.552 0 1-0.448 1-1v-6c0-0.552-0.448-1-1-1z"/>

</symbol>
<symbol id="art" viewBox="0 0 24 24"><g data-name="Layer 2"><g data-name="color-palette"><rect width="24" height="24" opacity="0"/><path d="M19.54 5.08A10.61 10.61 0 0 0 11.91 2a10 10 0 0 0-.05 20 2.58 2.58 0 0 0 2.53-1.89 2.52 2.52 0 0 0-.57-2.28.5.5 0 0 1 .37-.83h1.65A6.15 6.15 0 0 0 22 11.33a8.48 8.48 0 0 0-2.46-6.25zm-12.7 9.66a1.5 1.5 0 1 1 .4-2.08 1.49 1.49 0 0 1-.4 2.08zM8.3 9.25a1.5 1.5 0 1 1-.55-2 1.5 1.5 0 0 1 .55 2zM11 7a1.5 1.5 0 1 1 1.5-1.5A1.5 1.5 0 0 1 11 7zm5.75.8a1.5 1.5 0 1 1 .55-2 1.5 1.5 0 0 1-.55 2z"/></g></g>
</symbol>
<symbol id="badge" viewBox="0 0 24 24">
<title>badge</title>
<path d="M18 13.5v-1.5h-3.984v1.5h3.984zM18 16.5v-1.5h-3.984v1.5h3.984zM12.984 9v-5.016h-1.969v5.016h1.969zM12 18v-0.75q0-0.656-1.031-1.078t-1.969-0.422-1.969 0.422-1.031 1.078v0.75h6zM9 12q-0.656 0-1.078 0.422t-0.422 1.078 0.422 1.078 1.078 0.422 1.078-0.422 0.422-1.078-0.422-1.078-1.078-0.422zM20.016 6.984q0.797 0 1.383 0.609t0.586 1.406v11.016q0 0.797-0.586 1.383t-1.383 0.586h-16.031q-0.797 0-1.383-0.586t-0.586-1.383v-11.016q0-0.797 0.586-1.406t1.383-0.609h5.016v-3q0-0.797 0.609-1.383t1.406-0.586h1.969q0.797 0 1.406 0.586t0.609 1.383v3h5.016z"/>

</symbol>
<symbol id="book" viewBox="0 0 32 32">
<title>book</title>
<path d="M28 4v26h-21c-1.657 0-3-1.343-3-3s1.343-3 3-3h19v-24h-20c-2.2 0-4 1.8-4 4v24c0 2.2 1.8 4 4 4h24v-28h-2z"/>
<path d="M7.002 26v0c-0.001 0-0.001 0-0.002 0-0.552 0-1 0.448-1 1s0.448 1 1 1c0.001 0 0.001-0 0.002-0v0h18.997v-2h-18.997z"/>

</symbol>
<symbol id="booth" viewBox="0 0 270.61 278.74"><path d="M265.11,162.01H5.5c-3.04,0-5.5,2.46-5.5,5.5v22.58c0,3.04,2.46,5.5,5.5,5.5h15.8v83.15H249.31v-83.15h15.8c3.04,0,5.5-2.46,5.5-5.5v-22.58c0-3.04-2.46-5.5-5.5-5.5Z"/><circle cx="135.3" cy="32.53" r="32.53"/><path d="M201.59,144.31c-7-36.31-34.01-63.38-66.29-63.38s-59.29,27.07-66.29,63.38H201.59Z"/>
</symbol>
<symbol id="bullhorn" viewBox="0 0 320 320">
<path d="M313.7,102.4C300.7,41.6,272.3-4,250.2,0.3c0.1,0,0.2,0,0.3-0.1l-25.2,5.4c0,0-49.6,56.9-131,92.5c0.3,14.3,2.2,31,6.2,49.8
	c4,18.9,9.2,34.8,14.7,48c88.8-0.8,157.3,31,157.3,31l25.2-5.4c-0.1,0-0.2,0-0.3,0C319.4,216.5,326.7,163.3,313.7,102.4z
	 M285.5,206.7c-2.8,0.6-6.6-1.7-8.5-3.1c-4.7-3.4-9.8-9.3-14.8-16.9c-11-17-20.2-41.1-25.9-67.7c-5.7-26.6-7.1-52.3-4-72.4
	c1.4-9,3.7-16.4,6.6-21.5c1.2-2.1,3.7-5.7,6.5-6.3s6.6,1.7,8.5,3.1c4.7,3.4,9.8,9.3,14.8,16.9c11,17,20.2,41.1,25.9,67.7
	c5.7,26.6,7.1,52.3,4,72.4c-1.4,9-3.7,16.4-6.6,21.5C290.8,202.5,288.3,206.1,285.5,206.7z M79.5,152.4c-3.4-15.7-5.5-31.3-6.3-45.9
	c-13.9,5.1-26.3,8.9-41.9,12.2c-20.3,4.3-20.3,4.3-20.3,4.3L0.2,155.4L6,182.1l22.9,25.1c0,0,0,0,20.3-4.3c15.6-3.3,28.4-4.9,43.2-6
	C87.3,183.2,82.8,168.2,79.5,152.4L79.5,152.4z M128.6,209.4l-40.4,0.9l45.6,92.1c2.4,4.8,7.9,6.2,12.3,3.3l32.9-22.1
	c4.4-3,5.2-8.7,1.8-12.8L128.6,209.4z M273.2,148.9c-1.1,0.2-2.5-0.6-3.3-1.2c-1.8-1.3-3.8-3.6-5.7-6.5c-4.2-6.6-7.8-15.8-10-26.1
	s-2.7-20.2-1.5-27.9c0.5-3.5,1.4-6.3,2.5-8.3c0.5-0.8,1.4-2.2,2.5-2.4c1.1-0.2,2.5,0.6,3.3,1.2c1.8,1.3,3.8,3.6,5.7,6.5
	c4.2,6.6,7.8,15.8,10,26.1c2.2,10.3,2.7,20.2,1.5,27.9c-0.5,3.5-1.4,6.3-2.5,8.3C275.2,147.3,274.3,148.7,273.2,148.9z"/>

</symbol>
<symbol id="calendar-clock" viewBox="0 0 512 512">
<path d="M251,456.9h-6.1c-7,0-12.7-5.7-12.7-12.7v-31.9c0-3.9,1.8-7.4,4.5-9.7c-0.3-3.8-0.4-7.7-0.4-11.5c0-12,1.4-23.6,3.9-34.8
	c-4.7-1.9-8-6.5-8-11.8v-31.9c0-7,5.7-12.7,12.7-12.7h21.2c14.9-20.3,34.5-36.8,57.3-47.9c-1.4-2.1-2.3-4.5-2.3-7.2v-31.9
	c0-7,5.7-12.7,12.7-12.7h31.9c7,0,12.7,5.7,12.7,12.7v24.1c4.1-0.3,8.2-0.5,12.4-0.5c6.5,0,12.9,0.4,19.2,1.2v-24.8
	c0-7,5.7-12.7,12.7-12.7h31.9c7,0,12.7,5.7,12.7,12.7v31.9c0,3.8-1.7,7.3-4.4,9.6c18.9,10,35.5,23.8,48.8,40.4V120
	c0-44.1-35.9-80-80-80h-26V20c0-11-9-20-20-20c-11,0-20,9-20,20v20h-91V20c0-11-9-20-20-20s-20,9-20,20v20h-90V20c0-11-9-20-20-20
	s-20,9-20,20v20H80C35.9,40,0,75.9,0,120v312c0,44.1,35.9,80,80,80h214.6C276.1,497.3,261.2,478.5,251,456.9z M410.2,112.8
	c0-7,5.7-12.7,12.7-12.7h31.9c7,0,12.7,5.7,12.7,12.7v31.9c0,7-5.7,12.7-12.7,12.7H423c-7,0-12.7-5.7-12.7-12.7V112.8z M321.2,112.8
	c0-7,5.7-12.7,12.7-12.7h31.9c7,0,12.7,5.7,12.7,12.7v31.9c0,7-5.7,12.7-12.7,12.7h-31.9c-7,0-12.7-5.7-12.7-12.7V112.8z
	 M232.1,112.8c0-7,5.7-12.7,12.7-12.7h31.9c7,0,12.7,5.7,12.7,12.7v31.9c0,7-5.7,12.7-12.7,12.7h-31.9c-7,0-12.7-5.7-12.7-12.7
	V112.8z M232.1,212.6c0-7,5.7-12.7,12.7-12.7h31.9c7,0,12.7,5.7,12.7,12.7v31.9c0,7-5.7,12.7-12.7,12.7h-31.9
	c-7,0-12.7-5.7-12.7-12.7V212.6z M111.4,444.2c0,7-5.7,12.7-12.7,12.7H66.7c-7,0-12.7-5.7-12.7-12.7v-31.9c0-7,5.7-12.7,12.7-12.7
	h31.9c7,0,12.7,5.7,12.7,12.7V444.2z M111.4,344.4c0,7-5.7,12.7-12.7,12.7H66.7c-7,0-12.7-5.7-12.7-12.7v-31.9
	c0-7,5.7-12.7,12.7-12.7h31.9c7,0,12.7,5.7,12.7,12.7V344.4z M111.4,244.5c0,7-5.7,12.7-12.7,12.7H66.7c-7,0-12.7-5.7-12.7-12.7
	v-31.9c0-7,5.7-12.7,12.7-12.7h31.9c7,0,12.7,5.7,12.7,12.7V244.5z M111.4,144.7c0,7-5.7,12.7-12.7,12.7H66.7
	c-7,0-12.7-5.7-12.7-12.7v-31.9c0-7,5.7-12.7,12.7-12.7h31.9c7,0,12.7,5.7,12.7,12.7V144.7z M200.5,444.2c0,7-5.7,12.7-12.7,12.7
	h-31.9c-7,0-12.7-5.7-12.7-12.7v-31.9c0-7,5.7-12.7,12.7-12.7h31.9c7,0,12.7,5.7,12.7,12.7V444.2z M200.5,344.4
	c0,7-5.7,12.7-12.7,12.7h-31.9c-7,0-12.7-5.7-12.7-12.7v-31.9c0-7,5.7-12.7,12.7-12.7h31.9c7,0,12.7,5.7,12.7,12.7V344.4z
	 M200.5,244.5c0,7-5.7,12.7-12.7,12.7h-31.9c-7,0-12.7-5.7-12.7-12.7v-31.9c0-7,5.7-12.7,12.7-12.7h31.9c7,0,12.7,5.7,12.7,12.7
	V244.5z M200.5,144.7c0,7-5.7,12.7-12.7,12.7h-31.9c-7,0-12.7-5.7-12.7-12.7v-31.9c0-7,5.7-12.7,12.7-12.7h31.9
	c7,0,12.7,5.7,12.7,12.7V144.7z"/>
<path d="M391,270c-66.7,0-121,54.3-121,121s54.3,121,121,121s121-54.3,121-121S457.7,270,391,270z M391,472c-44.7,0-81-36.3-81-81
	s36.3-81,81-81s81,36.3,81,81S435.7,472,391,472z"/>
<path d="M420,371h-9v-21c0-11-9-20-20-20s-20,9-20,20v41c0,11,9,20,20,20h29c11,0,20-9,20-20S431,371,420,371z"/>

</symbol>
<symbol id="calendar-star" viewBox="0 0 532 532">
<path d="M504.3,201.8v-76.9c0-30.2-24.6-54.8-54.8-54.8h-14.4v-8.7C435,36.8,415.1,17,390.5,17S346,36.8,345.9,61.4V70H184.7v-8.7
	c-0.1-24.5-20-44.3-44.6-44.3S95.6,36.8,95.5,61.4V70H81.1c-30.2,0-54.8,24.6-54.8,54.8v336.1c0,30.2,24.6,54.8,54.8,54.8h368.5
	c30.2,0,54.8-24.6,54.8-54.8V209.7C505.2,207.1,505.2,204.3,504.3,201.8z M390.5,41.7c10.9,0,19.6,8.8,19.7,19.7v26.3
	c-0.1,10.8-8.9,19.5-19.7,19.5c-10.8,0-19.6-8.7-19.7-19.5V61.4C370.8,50.5,379.6,41.7,390.5,41.7z M120.4,61.4
	c0.1-10.8,8.9-19.5,19.7-19.5s19.6,8.7,19.7,19.5v26.3c-0.1,10.8-8.9,19.5-19.7,19.5s-19.6-8.7-19.7-19.5
	C120.4,87.7,120.4,61.4,120.4,61.4z M429.5,470.8H101.1c-16.5,0-29.8-13.4-29.8-29.9V218.2h388.2V441
	C459.4,457.4,446,470.8,429.5,470.8z"/>
<path d="M341.3,310.4l-44.9-6.4l-20-39.7c-2.1-4.2-6.4-6.9-11.1-6.9s-9,2.7-11.1,6.9l-20,39.7l-44.8,6.4c-4.7,0.7-8.7,4-10.1,8.5
	c-1.5,4.5-0.2,9.5,3.3,12.8l32.3,30.9l-7.6,43.5c-0.8,4.7,1.1,9.4,4.9,12.2c3.8,2.8,8.9,3.2,13.1,1l40.2-20.7l40.2,20.7
	c4.2,2.2,9.3,1.8,13.1-1c3.8-2.8,5.7-7.5,4.9-12.2l-7.6-43.5l32.3-30.9c3.5-3.3,4.7-8.3,3.3-12.8C350,314.4,346,311.1,341.3,310.4
	L341.3,310.4z"/>

</symbol>
<symbol id="close" viewBox="0 0 32 32">
<title>close</title>
<path d="M31.708 25.708c-0-0-0-0-0-0l-9.708-9.708 9.708-9.708c0-0 0-0 0-0 0.105-0.105 0.18-0.227 0.229-0.357 0.133-0.356 0.057-0.771-0.229-1.057l-4.586-4.586c-0.286-0.286-0.702-0.361-1.057-0.229-0.13 0.048-0.252 0.124-0.357 0.228 0 0-0 0-0 0l-9.708 9.708-9.708-9.708c-0-0-0-0-0-0-0.105-0.104-0.227-0.18-0.357-0.228-0.356-0.133-0.771-0.057-1.057 0.229l-4.586 4.586c-0.286 0.286-0.361 0.702-0.229 1.057 0.049 0.13 0.124 0.252 0.229 0.357 0 0 0 0 0 0l9.708 9.708-9.708 9.708c-0 0-0 0-0 0-0.104 0.105-0.18 0.227-0.229 0.357-0.133 0.355-0.057 0.771 0.229 1.057l4.586 4.586c0.286 0.286 0.702 0.361 1.057 0.229 0.13-0.049 0.252-0.124 0.357-0.229 0-0 0-0 0-0l9.708-9.708 9.708 9.708c0 0 0 0 0 0 0.105 0.105 0.227 0.18 0.357 0.229 0.356 0.133 0.771 0.057 1.057-0.229l4.586-4.586c0.286-0.286 0.362-0.702 0.229-1.057-0.049-0.13-0.124-0.252-0.229-0.357z"/>

</symbol>
<symbol id="dice" viewBox="0 0 512 512"><g id="Layer_1" focusable="false"><path d="M464,192h-38.87l21.15,36.11c9.2,15.71,11.74,34.04,7.15,51.62-4.59,17.58-15.77,32.32-31.48,41.53l-36.63,21.46c.82,2.96,1.27,6.07,1.27,9.28,0,19.1-15.5,34.6-34.6,34.6-9.51,0-18.13-3.85-24.39-10.07l-119.06,69.76c-5.21,3.05-10.78,5.39-16.55,6.96v10.75c0,26.5,21.5,48,48,48h224c26.5,0,48-21.5,48-48V240c0-26.5-21.5-48-48-48Zm-31.78,274.82c-19.1,0-34.6-15.5-34.6-34.6s15.5-34.6,34.6-34.6,34.6,15.5,34.6,34.6-15.5,34.6-34.6,34.6Z"/><path d="M429.89,237.71L304.86,24.3C291.13,.87,261.14-6.97,237.71,6.76L24.3,131.79C.87,145.52-6.97,175.51,6.76,198.94l125.03,213.42c13.73,23.43,43.72,31.26,67.15,17.54l213.42-125.03c23.43-13.73,31.26-43.72,17.54-67.15Zm-292.26-40.46c-4.83,18.48-23.74,29.56-42.22,24.74-18.48-4.83-29.56-23.74-24.74-42.22s23.74-29.56,42.22-24.74c18.48,4.83,29.56,23.74,24.74,42.22Zm84.36,143.99c-4.83,18.48-23.74,29.56-42.22,24.74s-29.56-23.74-24.74-42.22c4.83-18.48,23.74-29.56,42.22-24.74s29.56,23.74,24.74,42.22Zm29.81-114.17c-4.83,18.48-23.74,29.56-42.22,24.74s-29.56-23.74-24.74-42.22c4.83-18.48,23.74-29.56,42.22-24.74,18.48,4.83,29.56,23.74,24.74,42.22Zm29.81-114.17c-4.83,18.48-23.74,29.56-42.22,24.74s-29.56-23.74-24.74-42.22c4.83-18.48,23.74-29.56,42.22-24.74s29.56,23.74,24.74,42.22Zm84.36,143.99c-4.83,18.48-23.74,29.56-42.22,24.74-18.48-4.83-29.56-23.74-24.74-42.22s23.74-29.56,42.22-24.74c18.48,4.83,29.56,23.74,24.74,42.22Z"/></g>
</symbol>
<symbol id="discord" viewBox="0 0 448 512">
<path d="M297.216 243.2c0 15.616-11.52 28.416-26.112 28.416-14.336 0-26.112-12.8-26.112-28.416s11.52-28.416 26.112-28.416c14.592 0 26.112 12.8 26.112 28.416zm-119.552-28.416c-14.592 0-26.112 12.8-26.112 28.416s11.776 28.416 26.112 28.416c14.592 0 26.112-12.8 26.112-28.416.256-15.616-11.52-28.416-26.112-28.416zM448 52.736V512c-64.494-56.994-43.868-38.128-118.784-107.776l13.568 47.36H52.48C23.552 451.584 0 428.032 0 398.848V52.736C0 23.552 23.552 0 52.48 0h343.04C424.448 0 448 23.552 448 52.736zm-72.96 242.688c0-82.432-36.864-149.248-36.864-149.248-36.864-27.648-71.936-26.88-71.936-26.88l-3.584 4.096c43.52 13.312 63.744 32.512 63.744 32.512-60.811-33.329-132.244-33.335-191.232-7.424-9.472 4.352-15.104 7.424-15.104 7.424s21.248-20.224 67.328-33.536l-2.56-3.072s-35.072-.768-71.936 26.88c0 0-36.864 66.816-36.864 149.248 0 0 21.504 37.12 78.08 38.912 0 0 9.472-11.52 17.152-21.248-32.512-9.728-44.8-30.208-44.8-30.208 3.766 2.636 9.976 6.053 10.496 6.4 43.21 24.198 104.588 32.126 159.744 8.96 8.96-3.328 18.944-8.192 29.44-15.104 0 0-12.8 20.992-46.336 30.464 7.68 9.728 16.896 20.736 16.896 20.736 56.576-1.792 78.336-38.912 78.336-38.912z"/>
</symbol>
<symbol id="envelope" viewBox="0 0 20 20">
<title>envelope</title>
<path d="M18 2c1.105 0 2 0.895 2 2v0 12c0 1.105-0.895 2-2 2v0h-16c-1.105 0-2-0.895-2-2v0-12c0-1.1 0.9-2 2-2h16zM13.63 11.1l6.37 4.9v-2l-5.12-3.9 5.12-4.1v-2l-10 8-10-8v2l5.12 4.1-5.12 3.9v2l6.37-4.9 3.63 2.9 3.63-2.9z"/>

</symbol>
<symbol id="faq" viewBox="0 0 512 512">
<path d="M490,387.7c14.4-26.4,22-56.2,22-86.5c0-97.7-77.9-177.5-174.8-180.6c-31.3-54-89.7-90.5-156.5-90.5
	C81.1,30.1,0,111.2,0,210.8c0,30.3,7.6,60.1,22,86.5l-11,65.9c-0.8,4.8,0.8,9.6,4.2,13.1c3.4,3.4,8.3,5,13.1,4.2l65.9-11
	c24.7,13.5,52.4,21,80.6,21.9c31.3,54,89.7,90.5,156.5,90.5c30.3,0,60.1-7.6,86.5-22l65.9,11c4.8,0.8,9.6-0.8,13.1-4.2
	c3.4-3.4,5-8.3,4.2-13.1L490,387.7z M180.7,310.6c-8.4,0-14.6-6.9-15-15c-0.4-8.1,7.2-15,15-15c8.4,0,14.6,6.9,15,15
	C196.1,303.8,188.5,310.6,180.7,310.6z M195.7,214.3v31.4c0,8.3-6.7,15-15,15s-15-6.7-15-15v-44.2c0-8.3,6.7-15,15-15
	c12.5,0,22.7-10.2,22.7-22.7S193.2,141,180.7,141S158,151.2,158,163.7c0,8.3-6.7,15-15,15s-15-6.7-15-15c0-29.1,23.7-52.7,52.7-52.7
	s52.7,23.7,52.7,52.7C233.4,187.6,217.5,207.8,195.7,214.3z M452.3,386.6l7.3,46.8l-43.6-7.8c-3-0.5-6.1,0.1-8.7,1.7
	c-19.9,12.5-42.6,18.4-65.8,19.2c-93.4,3-127.1-57.8-125.4-58.1c10.6-2,18.9-4.9,28.8-8.7c2.3,1.5,5.1,2.4,8.1,2.4h156.6
	c8.3,0,15-6.7,15-15s-6.7-15-15-15H293.2c13-10.3,24.5-22.4,34.2-35.9h82.3c8.3,0,15-6.7,15-15s-6.7-15-15-15h-64.8
	c5.2-11.4,9.3-23.4,12.1-35.9h52.6c8.3,0,15-6.7,15-15s-6.7-15-15-15h-48.5c0.2-3.1,0.2-6.3,0.2-9.5c0-18.5-2.8-34.4-8-51.3
	c-0.6-1.9,123.2,30.5,118.4,147c-1,24.9-6.2,49.3-17.8,70.7C452.4,380.1,452.3,386.6,452.3,386.6z"/>

</symbol>
<symbol id="games-on-demand" viewBox="0 0 256 256"><path d="M238.66,211.05c-2.26-8.12-10.6-13.31-19.17-11.51l-64.97,14.89c-.45,3.16-1.8,6.54-3.84,9.25-3.84,5.87-9.7,10.15-16.47,11.96-6.77,1.58-13.99,.45-19.85-3.61l-55.95-35.64c-2.71-1.58-3.16-4.74-1.58-7.22,1.58-2.48,4.74-3.16,6.99-1.58l56.17,35.64c7.44,4.51,17.15,2.48,21.88-4.74,4.74-7.22,2.48-17.15-4.74-21.88l-69.93-44.22c-11.51-7.22-24.82-12.86-37.45-6.54L-.12,162.83v60.69l13.42-9.31c6.54-1.58,13.76-.23,19.85,3.61l48.73,30.68c11.96,7.44,26.62,9.25,39.25,5.87l105.58-24.14c8.35-1.8,13.99-10.15,11.96-19.18Z"/><path d="M126.26,74.19l-36.6,54.06c-1.07,1.73,.03,3.99,2.06,4.21l72.22,7.65-37.67-65.92h0Zm-34.45,34.8l26.11-42.43-26.58-15.94c-.93-.55-2.1,.11-2.1,1.19v56.46c0,1.4,1.83,1.92,2.57,.72Zm3.76,37.51l67.41,30.4c1.84,.85,3.94-.5,3.94-2.52v-22.77l-70.58-7.73c-1.54-.17-2.16,1.94-.76,2.62h0Zm28.16-89.39L151.45,7.55c1.5-2.45-1.24-5.29-3.74-3.86l-52.29,34.19c-.86,.56-.83,1.82,.05,2.35l28.27,16.88h0Zm48.73,3.53h37.87L177.19,2.26c-1.09-1.76-2.91-2.64-4.73-2.64s-3.64,.88-4.73,2.64l-33.14,58.39h37.87Zm81.12-10.02l-26.58,15.95,26.11,42.43c.73,1.19,2.57,.67,2.57-.73V51.82c0-1.08-1.18-1.74-2.1-1.19Zm-32.39,6.49l28.27-16.89c.88-.53,.9-1.79,.05-2.35L197.22,3.69c-2.49-1.43-5.24,1.41-3.74,3.86l27.72,49.57Zm27.4,86.76l-70.58,7.73v22.77c0,2.03,2.1,3.37,3.94,2.52l67.41-30.4c1.4-.68,.78-2.79-.76-2.62h0Zm-29.93-69.69l-37.67,65.92,72.22-7.65c2.02-.23,3.12-2.48,2.06-4.21l-36.6-54.06h0Zm-46.21-2.45h-34.83l34.83,60.94,34.83-60.94h-34.83Z"/>
</symbol>
<symbol id="gift" viewBox="0 0 199.5 199.5">
<path d="M180.9,41.5h-15.9c3.6-2.7,6.4-6.4,8-10.7c2.3-6.3,1.7-13.3-1.6-19.2C167.4,4.4,159.7,0,151.5,0C145,0,139,2.7,134.6,7.5
	L115,28.9c-3-3.4-7.3-5.6-12.2-5.6h-6.1c-4.9,0-9.2,2.2-12.2,5.6L65,7.5C60.6,2.7,54.6,0,48,0c-8.2,0-15.9,4.4-20,11.6
	c-3.3,5.8-3.9,12.8-1.6,19.2c1.6,4.3,4.4,8,8,10.7H18.6c-4.1,0-7.5,3.4-7.5,7.5v40.7c0,4,3.1,7.2,7,7.5v0.2H31
	c-0.1,0.9-0.1,1.8-0.1,2.7c0,3.2,0.3,6.4,1,9.5H18.1V192c0,4.1,3.4,7.5,7.5,7.5h50.5h47.3h50.5c4.1,0,7.5-3.4,7.5-7.5v-82.4h-13.8
	c0.7-3.1,1-6.3,1-9.5c0-0.9,0-1.8-0.1-2.7h12.9v-0.2c3.9-0.3,7-3.5,7-7.5V49C188.4,44.8,185.1,41.5,180.9,41.5z M40.6,25.7
	c-0.8-2.2-0.6-4.6,0.6-6.6c1.4-2.5,4-4,6.9-4c2.2,0,4.3,0.9,5.8,2.6l21.8,23.9h-1L45.2,30.4C43,29.6,41.4,27.9,40.6,25.7z
	 M143.9,122.6c-16.3,16.3-44.1,35.7-44.1,35.7s-27.5-19.2-44-35.7c-6-5.7-9.8-13.7-9.8-22.6c0-17.1,13.9-31,31-31
	c9,0,17.1,3.9,22.8,10c5.7-6.2,13.8-10,22.8-10c17.1,0,31,13.9,31,31C153.6,108.9,149.8,117,143.9,122.6z M159,25.7
	c-0.8,2.2-2.5,3.9-4.7,4.7l-29.5,11.1h-1l21.8-23.9c1.5-1.7,3.6-2.6,5.8-2.6c2.9,0,5.5,1.5,6.9,4C159.6,21.1,159.8,23.4,159,25.7z"/>

</symbol>
<symbol id="hotel" viewBox="0 0 576 512">
    <path d="M560 64c8.84 0 16-7.16 16-16V16c0-8.84-7.16-16-16-16H16C7.16 0 0 7.16 0 16v32c0 8.84 7.16 16 16 16h15.98v384H16c-8.84 0-16 7.16-16 16v32c0 8.84 7.16 16 16 16h240v-80c0-8.8 7.2-16 16-16h32c8.8 0 16 7.2 16 16v80h240c8.84 0 16-7.16 16-16v-32c0-8.84-7.16-16-16-16h-16V64h16zm-304 44.8c0-6.4 6.4-12.8 12.8-12.8h38.4c6.4 0 12.8 6.4 12.8 12.8v38.4c0 6.4-6.4 12.8-12.8 12.8h-38.4c-6.4 0-12.8-6.4-12.8-12.8v-38.4zm0 96c0-6.4 6.4-12.8 12.8-12.8h38.4c6.4 0 12.8 6.4 12.8 12.8v38.4c0 6.4-6.4 12.8-12.8 12.8h-38.4c-6.4 0-12.8-6.4-12.8-12.8v-38.4zm-128-96c0-6.4 6.4-12.8 12.8-12.8h38.4c6.4 0 12.8 6.4 12.8 12.8v38.4c0 6.4-6.4 12.8-12.8 12.8h-38.4c-6.4 0-12.8-6.4-12.8-12.8v-38.4zM179.2 256h-38.4c-6.4 0-12.8-6.4-12.8-12.8v-38.4c0-6.4 6.4-12.8 12.8-12.8h38.4c6.4 0 12.8 6.4 12.8 12.8v38.4c0 6.4-6.4 12.8-12.8 12.8zM192 384c0-53.02 42.98-96 96-96s96 42.98 96 96H192zm256-140.8c0 6.4-6.4 12.8-12.8 12.8h-38.4c-6.4 0-12.8-6.4-12.8-12.8v-38.4c0-6.4 6.4-12.8 12.8-12.8h38.4c6.4 0 12.8 6.4 12.8 12.8v38.4zm0-96c0 6.4-6.4 12.8-12.8 12.8h-38.4c-6.4 0-12.8-6.4-12.8-12.8v-38.4c0-6.4 6.4-12.8 12.8-12.8h38.4c6.4 0 12.8 6.4 12.8 12.8v38.4z">
    </path>

</symbol>
<symbol id="image" viewBox="0 0 32 32">
<title>image</title>
<path d="M29.996 4c0.001 0.001 0.003 0.002 0.004 0.004v23.993c-0.001 0.001-0.002 0.003-0.004 0.004h-27.993c-0.001-0.001-0.003-0.002-0.004-0.004v-23.993c0.001-0.001 0.002-0.003 0.004-0.004h27.993zM30 2h-28c-1.1 0-2 0.9-2 2v24c0 1.1 0.9 2 2 2h28c1.1 0 2-0.9 2-2v-24c0-1.1-0.9-2-2-2v0z"/>
<path d="M26 9c0 1.657-1.343 3-3 3s-3-1.343-3-3 1.343-3 3-3 3 1.343 3 3z"/>
<path d="M28 26h-24v-4l7-12 8 10h2l7-6z"/>

</symbol>
<symbol id="itch-io" viewBox="0 0 300 300">
<path d="M150,13.1c-41.8,0-98.9,0.7-110.4,1.7c-13,7.7-38.7,34.4-38.9,42.1v12.8c0,16.2,15.2,30.5,28.9,30.5
	c16.5,0,30.3-13.7,30.3-30c0,16.3,13.3,30,29.8,30s29.4-13.7,29.4-30c0,16.3,14.1,30,30.7,30h0.3c16.5,0,30.7-13.7,30.7-30
	c0,16.3,12.9,30,29.4,30c16.5,0,29.8-13.7,29.8-30c0,16.3,13.8,30,30.3,30c13.7,0,28.9-14.2,28.9-30.5V56.9
	c-0.2-7.7-25.9-34.4-38.9-42.1C219.9,13.4,191.8,13.1,150,13.1z M118.7,108.2c-1.6,2.7-3.5,5.3-5.8,7.5c-6.2,6.1-14.8,9.9-24.2,9.9
	c-9.1,0-17.8-3.5-24.3-9.9c-2.3-2.2-4-4.6-5.5-7.3c-1.6,2.8-3.8,5.1-6.1,7.3c-6.5,6.3-15.2,9.9-24.3,9.9c-1.1,0-2.3-0.3-3.3-0.7
	c-1.3,13.8-1.6,19.4-1.8,29.1v0c0,4.9,0,8.9-0.1,14.5c0.3,29-2.9,94.1,12.8,110.1c24.3,5.6,69,8.2,113.9,8.2
	c44.9,0,89.6-2.6,113.9-8.3c15.7-16,12.5-81.1,12.8-110.1c0-5.6,0-9.6-0.1-14.5v0c-0.2-9.6-1-15.2-2.4-29.1c-1,0.3-2.1,0.6-3.3,0.6
	c-9.1,0-17.8-3.5-24.3-9.9c-2.3-2.2-4.4-4.6-6-7.3h0c-1.6,2.8-3.3,5.1-5.5,7.3c-6.5,6.3-15.2,9.9-24.3,9.9c-9.4,0-18-3.8-24.2-9.9
	c-2.3-2.2-4.2-4.7-5.8-7.5c-1.6,2.7-3.5,5.3-5.8,7.5c-6.5,6.3-15.2,9.9-24.3,9.9c-0.3,0-0.7,0-1,0c-0.3,0-0.7,0-1,0
	c-9.1,0-17.8-3.5-24.3-9.9C122.2,113.4,120.3,110.9,118.7,108.2z M99.8,145.6L99.8,145.6c8.9,0,16.7,0,26.5,10.7
	c7.7-0.8,15.7-1.2,23.7-1.2h0c8,0,16,0.4,23.7,1.2c9.8-10.6,17.6-10.6,26.5-10.6h0v0c4.2,0,20.9,0,32.6,32.8l12.5,45
	c9.3,33.4-3,34.2-18.3,34.3c-22.7-0.8-35.2-17.3-35.2-33.8c-12.6,2.1-27.2,3.1-41.8,3.1c-14.6,0-29.3-1-41.8-3.1
	c0,16.5-12.5,32.9-35.2,33.8c-15.3,0-27.6-0.8-18.3-34.3l12.5-45C78.9,145.6,95.6,145.6,99.8,145.6z M150,170.3
	c0,0-20.2,18.6-23.8,25.2l13.2-0.5v11.5c0,0.5,5.3,0.3,10.6,0.1c5.3,0.2,10.6,0.4,10.6-0.1V195l13.2,0.5
	C170.2,188.9,150,170.3,150,170.3z"/>

</symbol>
<symbol id="kickstarter" viewBox="0 0 384 512"><path d="M147.3 114.4c0-56.2-32.5-82.4-73.4-82.4C26.2 32 0 68.2 0 113.4v283c0 47.3 25.3 83.4 74.9 83.4 39.8 0 72.4-25.6 72.4-83.4v-76.5l112.1 138.3c22.7 27.2 72.1 30.7 103.2 0 27-27.6 27.3-67.4 7.4-92.2l-90.8-114.8 74.9-107.4c17.4-24.7 17.5-63.1-10.4-89.8-30.3-29-82.4-31.6-113.6 12.8L147.3 185v-70.6z"/>
</symbol>
<symbol id="library" viewBox="0 0 32 32">
<path d="M30.9,29.1H1.1c-0.6,0-1.1,0.5-1.1,1.1V32h32v-1.8C32,29.6,31.5,29.1,30.9,29.1z"/>
<path d="M8.1,16.4c0.6,0,1.1-0.4,1.1-0.9v-0.7c0-0.5-0.5-1-1.1-1H3.3c-0.6,0-1.1,0.4-1.1,1v0.7c0,0.5,0.5,0.9,1.1,0.9h0.6v8.5H3.3
	c-0.6,0-1.1,0.4-1.1,0.9v0.7c0,0.5,0.5,1,1.1,1h4.8c0.6,0,1.1-0.4,1.1-1v-0.7c0-0.5-0.5-0.9-1.1-0.9H7.6v-8.5H8.1z"/>
<path d="M18.2,16.4c0.6,0,1.1-0.4,1.1-0.9v-0.7c0-0.5-0.5-1-1.1-1h-4.8c-0.6,0-1.1,0.4-1.1,1v0.7c0,0.5,0.5,0.9,1.1,0.9H14v8.5h-0.6
	c-0.6,0-1.1,0.4-1.1,0.9v0.7c0,0.5,0.5,1,1.1,1h4.8c0.6,0,1.1-0.4,1.1-1v-0.7c0-0.5-0.5-0.9-1.1-0.9h-0.5v-8.5H18.2z"/>
<path d="M28.3,16.4c0.6,0,1.1-0.4,1.1-0.9v-0.7c0-0.5-0.5-1-1.1-1h-4.8c-0.6,0-1.1,0.4-1.1,1v0.7c0,0.5,0.5,0.9,1.1,0.9H24v8.5h-0.6
	c-0.6,0-1.1,0.4-1.1,0.9v0.7c0,0.5,0.5,1,1.1,1h4.8c0.6,0,1.1-0.4,1.1-1v-0.7c0-0.5-0.5-0.9-1.1-0.9h-0.5v-8.5H28.3z"/>
<path d="M30.7,8.7c-0.6-0.4-9.8-5.6-13-7.9C17.2,0.4,16.7,0,16,0c-0.6,0-1.5,0.5-2,0.9C10.9,3.1,1.9,8.3,1.2,8.7
	c-1.6,0.9-1.1,3.5,0.5,3.5c0,0,28.6,0,28.6,0C31.9,12.2,32.3,9.6,30.7,8.7z M18.3,7.3l-1.1,1.8c-0.6,1-1.9,1-2.5,0l-1.1-1.8
	c-0.3-0.5-0.3-1,0-1.5L14.7,4c0.6-1,1.9-1,2.5,0l1.1,1.8C18.6,6.2,18.6,6.8,18.3,7.3z"/>

</symbol>
<symbol id="light-bulb" viewBox="0 0 486 486"><path d="M298.4 424.7v14.2c0 11.3-8.3 20.7-19.1 22.3l-3.5 12.9c-1.9 7-8.2 11.9-15.5 11.9h-34.7c-7.3 0-13.6-4.9-15.5-11.9l-3.4-12.9c-10.9-1.7-19.2-11-19.2-22.4v-14.2c0-7.6 6.1-13.7 13.7-13.7h83.5c7.6.1 13.7 6.2 13.7 13.8zm64.3-191.4c0 32.3-12.8 61.6-33.6 83.1-15.8 16.4-26 37.3-29.4 59.6-1.5 9.6-9.8 16.7-19.6 16.7h-74.3c-9.7 0-18.1-7-19.5-16.6-3.5-22.3-13.8-43.5-29.6-59.8-20.4-21.2-33.1-50-33.4-81.7-.7-66.6 52.3-120.5 118.9-121 66.5-.5 120.5 53.3 120.5 119.7zm-106.2-72.5c0-7.4-6-13.5-13.5-13.5-47.6 0-86.4 38.7-86.4 86.4 0 7.4 6 13.5 13.5 13.5 7.4 0 13.5-6 13.5-13.5 0-32.8 26.7-59.4 59.4-59.4 7.5 0 13.5-6 13.5-13.5zM243 74.3c7.4 0 13.5-6 13.5-13.5V13.5c0-7.4-6-13.5-13.5-13.5s-13.5 6-13.5 13.5v47.3c0 7.5 6.1 13.5 13.5 13.5zM84.1 233.2c0-7.4-6-13.5-13.5-13.5H23.3c-7.4 0-13.5 6-13.5 13.5 0 7.4 6 13.5 13.5 13.5h47.3c7.5 0 13.5-6 13.5-13.5zm378.6-13.5h-47.3c-7.4 0-13.5 6-13.5 13.5 0 7.4 6 13.5 13.5 13.5h47.3c7.4 0 13.5-6 13.5-13.5 0-7.4-6-13.5-13.5-13.5zM111.6 345.6l-33.5 33.5a13.46 13.46 0 0 0 0 19.1c2.6 2.6 6.1 3.9 9.5 3.9s6.9-1.3 9.5-3.9l33.5-33.5a13.46 13.46 0 0 0 0-19.1c-5.2-5.3-13.8-5.3-19 0zm253.3-220.8c3.4 0 6.9-1.3 9.5-3.9l33.5-33.5a13.46 13.46 0 1 0-19.1-19.1l-33.5 33.5a13.46 13.46 0 0 0 0 19.1c2.7 2.6 6.1 3.9 9.6 3.9zm-253.3-4c2.6 2.6 6.1 3.9 9.5 3.9s6.9-1.3 9.5-3.9a13.46 13.46 0 0 0 0-19.1L97.1 68.2A13.46 13.46 0 1 0 78 87.3l33.6 33.5zm262.8 224.8a13.46 13.46 0 1 0-19.1 19.1l33.5 33.5c2.6 2.6 6.1 3.9 9.5 3.9s6.9-1.3 9.5-3.9a13.46 13.46 0 0 0 0-19.1l-33.4-33.5z"/>
</symbol>
<symbol id="list" viewBox="0 0 32 32">
<title>list</title>
<path d="M12 2h20v4h-20v-4zM12 14h20v4h-20v-4zM12 26h20v4h-20v-4zM0 4c0-2.209 1.791-4 4-4s4 1.791 4 4c0 2.209-1.791 4-4 4s-4-1.791-4-4zM0 16c0-2.209 1.791-4 4-4s4 1.791 4 4c0 2.209-1.791 4-4 4s-4-1.791-4-4zM0 28c0-2.209 1.791-4 4-4s4 1.791 4 4c0 2.209-1.791 4-4 4s-4-1.791-4-4z"/>

</symbol>
<symbol id="menu" viewBox="0 0 32 32">
<title>menu</title>
<path d="M2 6h28v6h-28zM2 14h28v6h-28zM2 22h28v6h-28z"/>

</symbol>
<symbol id="moon" viewBox="0 0 512 512"><path d="M283.211 512c78.962 0 151.079-35.925 198.857-94.792 7.068-8.708-.639-21.43-11.562-19.35-124.203 23.654-238.262-71.576-238.262-196.954 0-72.222 38.662-138.635 101.498-174.394 9.686-5.512 7.25-20.197-3.756-22.23A258.156 258.156 0 0 0 283.211 0c-141.309 0-256 114.511-256 256 0 141.309 114.511 256 256 256z"/>
</symbol>
<symbol id="parachute" viewBox="0 0 297.666 297.666">
	 <title>parachute</title>
<g>
	<path d="M276.783,119.911c1.685-1.725,2.427-4.017,2.246-6.245h0.09C270.389,49.563,215.295,0,148.834,0
		C82.575,0,27.615,49.26,18.629,113.079c-0.014,0.099-0.032,0.197-0.042,0.297c-0.013,0.097-0.027,0.193-0.04,0.29h0.023
		c-0.141,2.188,0.606,4.423,2.26,6.112l71.586,73.066c2.338-0.762,4.829-1.179,7.417-1.179h8.357c-0.017-1-0.024-1.207-0.024-1.688
		c0-1.261,0.066-2.506,0.18-3.739l-73.77-75.294c6.241-12.513,19.158-21.112,34.094-21.112c13.01,0,24.49,6.527,31.359,16.481
		l17.594,57.565c3.68-4.43,8.27-8.077,13.48-10.636l-14.121-46.197c6.806-10.364,18.525-17.213,31.852-17.213
		c13.073,0,24.605,6.59,31.462,16.626l-13.95,46.695c5.225,2.538,9.829,6.176,13.532,10.6l1.221-4.088l15.986-53.512
		c6.882-9.863,18.306-16.321,31.245-16.321c15.137,0,28.207,8.828,34.349,21.616l-73.353,75.026c0.109,1.218,0.174,2.446,0.174,3.69
		c0,0.418-0.006,0.5-0.019,1.5h7.352c2.93,0,5.737,0.529,8.335,1.495L276.783,119.911z"/>
	<path d="M204.833,215.666c0-4.418-3.582-8-8-8h-30.137c4.213-5,6.804-10.908,6.804-17.5c0-13.622-11.045-25.041-24.666-25.041
		c-13.623,0-24.668,11.032-24.668,24.654c0,6.327,2.385,12.366,6.303,16.732c-0.029,0.051-0.058,0.154-0.086,0.154h-0.005
		c-0.068,0-0.136,0-0.201,1H99.833c-4.418,0-8,3.582-8,8s3.582,8,8,8H126.5v66c0,4.418,3.582,8,8,8s8-3.582,8-8v-25.512
		c2,0.326,2.952,0.512,4.5,0.512s3.5-0.185,4.5-0.512v25.512c0,4.418,3.582,8,8,8s8-3.582,8-8v-66h29.333
		C201.251,223.666,204.833,220.084,204.833,215.666z"/>
</g>


</symbol>
<symbol id="party" viewBox="0 0 461.55 453.65"><path d="M329.43,326.64c0,7.13-3.88,12.19-9.68,14.46-105.4,41.16-169.9,70.47-275.9,110.06-30.9,11.54-50.86-19.4-41.55-43.05,40.99-104.1,69.52-160.66,110.54-264.75,5.22-14.51,11.02-16.39,27.1-13.63,71.35,12.26,189.48,134.21,189.48,196.91Zm-21.85-8.61c12.77-46.84-132.89-187.46-172.7-169.86-57.65,25.49,158.91,220.44,172.7,169.86Z"/><path d="M371.15,104.92c.28-.06,.56-.1,.87-.11,9.67-.38,8.88-12.43,2.11-16.75-43.51-1.89-66.39,6.25-44.7,53.84,13.5,44.46-45.22,3.14-64.01,27.58-5.87,7.64,4.49,18.86,11.17,11.99,10.44-10.65,22.6,.61,42.01-1.18,41.48-3.66,26.48-36.74,19.41-62.8-4.55-16.77,13.84-13.52,33.14-12.57Z"/><path d="M445.09,85.19c-30.17-8.91-29.72,37.23-45.76,15.07-3.37-7.02-2.93-17.45-10.76-21.26-24.02-5.15-29.33-16.1-5.66-28.95,8.36-4.99,2.3-15.68,4.29-23.34,5.38-23.48,23.2,6.71,34.43,3.15,7.18-2.51,16.93-8.15,23.89-3.2,6.61,8.3-4.65,19.81-3.26,28.09,3.18,8.42,25.05,29.89,2.81,30.44Z"/><path d="M208.09,81.56c-22.31,.96-.81-23.32-6.28-33.55-4.16-6.79-13.8-13.96-10.8-22.69,5.29-7.14,16.5-4.01,24.26-4.88,11.21-2.27,19-33.82,30.89-13.83,5.18,18.19,7.05,20,25.32,24.7,18.74,9.85-7.23,20.24-12.38,28.31-2.93,8.7,4.49,35.16-14.37,26.49-13.38-11.54-20.93-12.27-36.64-4.54Z"/><path d="M387.32,265.54c-22.29-1.41,1.66-23.28-2.69-34.03-3.42-7.19-12.24-15.35-8.34-23.71,6.02-6.54,16.83-2.24,24.64-2.29,11.39-1.07,22.48-31.61,32.18-10.49,3.23,18.63,4.89,20.64,22.56,27.25,17.6,11.78-9.34,19.36-15.3,26.84-3.83,8.34,.74,35.44-17.1,24.82-12.08-12.89-19.52-14.42-35.96-8.39Z"/><path d="M368.04,232.26c-2.31-3.9-6.93-2.66-12.25-1.9-5.32,.75-39.68,12.79-36.25,25.51,1.07,3.96,6.17,4.36,10.43,1.83,11.52-6.83,30.93-12.72,36.96-13.7s3.43-7.84,1.12-11.74Z"/><path d="M222.18,88.91c19.96-4.84-7,66.84-19.46,56.19-3.05-1.93-3.99-5.7-1.85-9.11,11.13-11.57,12.17-44.52,21.3-47.08Z"/>
</symbol>
<symbol id="paw" viewBox="0 0 512 512">
<title>paw</title>
    <path d="M71.162 156.863c-5.684-6.328-16.641-6.328-22.324 0C40.679 165.945 0 212.761 0 241.883c0 33.091 26.909 60 60 60s60-26.909 60-60c0-29.122-40.679-75.938-48.838-85.02zm120-152c-5.684-6.328-16.641-6.328-22.324 0C160.679 13.945 120 62.762 120 91.883c0 33.091 26.909 60 60 60s60-26.909 60-60c0-29.122-40.679-77.938-48.838-87.02zm152 0c-5.683-6.328-16.641-6.328-22.324 0C312.679 13.945 272 62.762 272 91.883c0 33.091 26.909 60 60 60s60-26.909 60-60c0-29.122-40.679-77.938-48.838-87.02zm120 152c-5.684-6.328-16.641-6.328-22.324 0-8.159 9.082-48.838 55.898-48.838 85.02 0 33.091 26.909 60 60 60s60-26.909 60-60c0-29.122-40.679-75.938-48.838-85.02zm-12.905 230.655c-7.09-39.434-37.998-72.539-76.934-82.397-6.665-1.685-11.323-7.646-11.323-14.517v-3.721c0-57.891-48.109-105-106-105s-106 47.109-106 105v3.721c0 6.87-4.658 12.832-11.323 14.517-38.936 9.857-69.844 42.962-76.934 82.396-5.61 31.143 2.651 62.739 22.676 86.675 35.083 41.938 101.558 49.16 144.741 15.806 13.77-10.635 39.91-10.635 53.68 0 18.53 14.312 40.708 21.885 64.16 21.885 31.187 0 60.557-13.74 80.581-37.69 20.024-23.935 28.286-55.532 22.676-86.675z"/>

</symbol>
<symbol id="pencil-square" viewBox="0 0 24 28">
<title>pencil-square</title>
<path d="M6.312 17.313l2.375 2.375-0.812 0.812h-0.875v-1.5h-1.5v-0.875zM12.781 11.219c0.125 0.109 0.094 0.328-0.047 0.469l-4.547 4.547c-0.141 0.141-0.359 0.172-0.469 0.047-0.125-0.109-0.094-0.328 0.047-0.469l4.547-4.547c0.141-0.141 0.359-0.172 0.469-0.047zM8.5 22l8.5-8.5-4.5-4.5-8.5 8.5v4.5h4.5zM18 12.5l1.437-1.437c0.578-0.578 0.578-1.547 0-2.125l-2.375-2.375c-0.578-0.578-1.547-0.578-2.125 0l-1.437 1.437zM24 6.5v15c0 2.484-2.016 4.5-4.5 4.5h-15c-2.484 0-4.5-2.016-4.5-4.5v-15c0-2.484 2.016-4.5 4.5-4.5h15c2.484 0 4.5 2.016 4.5 4.5z"/>

</symbol>
<symbol id="pig" viewBox="0 0 32 32">
<title>pig</title>
<path d="M24.674 21.909c0 0 3.33-2.278 3.33-6.771 0-6.688-7.088-9.161-10.899-9.095-3.812 0.067-4.948 1.070-4.948 1.070s-1.297-0.943-2.672-1.733c-1.052-0.41-1.296-0.469-2.027-0.234-0.585 0-0.217 0.974 0.018 1.325 0.233 0.351 1.366 2.29 1.366 2.29s-2.378 2.449-2.554 4.059c0-0.029-1.12-0.009-1.734-0.009s-0.556 0.669-0.556 0.669l0.017 4.714c0 0-0.038 0.669 0.519 0.669 0.556 0 1.738 0.013 1.738 0.013s1.663 2.415 2.717 2.854c0 0.029-0.911 2.503-0.911 2.503s-0.439 0.761 0.351 1.054c0.79 0.292 2.851 1.157 3.729 1.421s1.003-0.334 1.003-0.334l0.869-1.877 5.685 0.009 0.869 1.935c0 0 0.167 0.898 1.337 0.401 1.171-0.497 2.449-1.087 3.415-1.584 0.965-0.497 0.33-1.426 0.33-1.426l-0.992-1.923zM9.322 13.764c-0.533 0-0.965-0.433-0.965-0.966s0.432-0.965 0.965-0.965 0.966 0.432 0.966 0.965-0.433 0.966-0.966 0.966zM22.925 10.756c-0.308 0.365-0.509 0.096-0.757 0.023 0 0-1.051-0.975-2.595-1.43-1.599-0.47-3.282-0.243-3.282-0.243-0.248-0.073-0.549-0.081-0.551-0.464 0.013-0.473 0.587-0.477 0.58-0.493 0 0 1.894-0.175 3.479 0.291 1.559 0.458 2.75 1.454 2.75 1.454s0.637 0.439 0.376 0.862z"/>

</symbol>
<symbol id="price-tags" viewBox="0 0 40 32">
<title>price-tags</title>
<path d="M38.5 0h-12c-0.825 0-1.977 0.477-2.561 1.061l-14.879 14.879c-0.583 0.583-0.583 1.538 0 2.121l12.879 12.879c0.583 0.583 1.538 0.583 2.121 0l14.879-14.879c0.583-0.583 1.061-1.736 1.061-2.561v-12c0-0.825-0.675-1.5-1.5-1.5zM31 12c-1.657 0-3-1.343-3-3s1.343-3 3-3 3 1.343 3 3-1.343 3-3 3z"/>
<path d="M4 17l17-17h-2.5c-0.825 0-1.977 0.477-2.561 1.061l-14.879 14.879c-0.583 0.583-0.583 1.538 0 2.121l12.879 12.879c0.583 0.583 1.538 0.583 2.121 0l0.939-0.939-13-13z"/>

</symbol>
<symbol id="scholar" viewBox="15 15 70 70">
    <path d="M79.6,30.3l-28-12a4.4,4.4,0,0,0-3.2,0l-28,12A3.9,3.9,0,0,0,18,34a4,4,0,0,0,2.4,3.7L31,42.2a4.5,4.5,0,0,1,1.4-1l16-6.9a4,4,0,0,1,5.3,2.1,4.2,4.2,0,0,1-2.1,5.3L40.7,46.3l7.7,3.4a4.4,4.4,0,0,0,3.2,0l28-12A4,4,0,0,0,82,34,3.9,3.9,0,0,0,79.6,30.3Z"/>
    <path d="M23.2,47.6A44.2,44.2,0,0,0,22,58c0,1.6.1,3.1.2,4.6a4,4,0,0,0,3.6,3.6l4.2.7V50.5Z"/>
    <path d="M54.7,57a11.8,11.8,0,0,1-9.4,0L38,53.9V69.8a34.9,34.9,0,0,1,9.2,6.5,4,4,0,0,0,5.6,0A36.4,36.4,0,0,1,74.2,66.2a4,4,0,0,0,3.6-3.6c.1-1.5.2-3,.2-4.6a44.2,44.2,0,0,0-1.2-10.4Z"/>
    <path d="M30,78a4,4,0,0,0,8,0V69.8a31.9,31.9,0,0,0-8-2.9Z"/>


</symbol>
<symbol id="scroll" viewBox="0 0 640 512">
    <path d="M48 0C21.53 0 0 21.53 0 48v64c0 8.84 7.16 16 16 16h80V48C96 21.53 74.47 0 48 0zm208 412.57V352h288V96c0-52.94-43.06-96-96-96H111.59C121.74 13.41 128 29.92 128 48v368c0 38.87 34.65 69.65 74.75 63.12C234.22 474 256 444.46 256 412.57zM288 384v32c0 52.93-43.06 96-96 96h336c61.86 0 112-50.14 112-112 0-8.84-7.16-16-16-16H288z">
    </path>

</symbol>
<symbol id="settings" viewBox="0 0 32 32">
<title>settings</title>
<path d="M29.181 19.070c-1.679-2.908-0.669-6.634 2.255-8.328l-3.145-5.447c-0.898 0.527-1.943 0.829-3.058 0.829-3.361 0-6.085-2.742-6.085-6.125h-6.289c0.008 1.044-0.252 2.103-0.811 3.070-1.679 2.908-5.411 3.897-8.339 2.211l-3.144 5.447c0.905 0.515 1.689 1.268 2.246 2.234 1.676 2.903 0.672 6.623-2.241 8.319l3.145 5.447c0.895-0.522 1.935-0.82 3.044-0.82 3.35 0 6.067 2.725 6.084 6.092h6.289c-0.003-1.034 0.259-2.080 0.811-3.038 1.676-2.903 5.399-3.894 8.325-2.219l3.145-5.447c-0.899-0.515-1.678-1.266-2.232-2.226zM16 22.479c-3.578 0-6.479-2.901-6.479-6.479s2.901-6.479 6.479-6.479c3.578 0 6.479 2.901 6.479 6.479s-2.901 6.479-6.479 6.479z"/>

</symbol>
<symbol id="shield" viewBox="0 0 512 512"><path d="M466.5 83.7l-192-80a48.15 48.15 0 0 0-36.9 0l-192 80C27.7 91.1 16 108.6 16 128c0 198.5 114.5 335.7 221.5 380.3 11.8 4.9 25.1 4.9 36.9 0C360.1 472.6 496 349.3 496 128c0-19.4-11.7-36.9-29.5-44.3zM256.1 446.3l-.1-381 175.9 73.3c-3.3 151.4-82.1 261.1-175.8 307.7z"/>
</symbol>
<symbol id="square-check" viewBox="0 0 24 28">
<title>check-square</title>
<path d="M10.703 20.297l9.594-9.594c0.391-0.391 0.391-1.016 0-1.406l-1.594-1.594c-0.391-0.391-1.016-0.391-1.406 0l-7.297 7.297-3.297-3.297c-0.391-0.391-1.016-0.391-1.406 0l-1.594 1.594c-0.391 0.391-0.391 1.016 0 1.406l5.594 5.594c0.391 0.391 1.016 0.391 1.406 0zM24 6.5v15c0 2.484-2.016 4.5-4.5 4.5h-15c-2.484 0-4.5-2.016-4.5-4.5v-15c0-2.484 2.016-4.5 4.5-4.5h15c2.484 0 4.5 2.016 4.5 4.5z"/>

</symbol>
<symbol id="square-full" viewBox="0 0 24 28">
<title>square</title>
<path d="M24 6.5v15c0 2.484-2.016 4.5-4.5 4.5h-15c-2.484 0-4.5-2.016-4.5-4.5v-15c0-2.484 2.016-4.5 4.5-4.5h15c2.484 0 4.5 2.016 4.5 4.5z"/>

</symbol>
<symbol id="square-open" viewBox="0 0 22 28">
<title>square-o</title>
<path d="M17.5 4h-13c-1.375 0-2.5 1.125-2.5 2.5v13c0 1.375 1.125 2.5 2.5 2.5h13c1.375 0 2.5-1.125 2.5-2.5v-13c0-1.375-1.125-2.5-2.5-2.5zM22 6.5v13c0 2.484-2.016 4.5-4.5 4.5h-13c-2.484 0-4.5-2.016-4.5-4.5v-13c0-2.484 2.016-4.5 4.5-4.5h13c2.484 0 4.5 2.016 4.5 4.5z"/>

</symbol>
<symbol id="star" viewBox="0 0 32 32">
<title>star</title>
<path d="M32 12.408l-11.056-1.607-4.944-10.018-4.944 10.018-11.056 1.607 8 7.798-1.889 11.011 9.889-5.199 9.889 5.199-1.889-11.011 8-7.798z"/>

</symbol>
<symbol id="sun" viewBox="0 0 512 512"><path d="M256 160c-52.9 0-96 43.1-96 96s43.1 96 96 96 96-43.1 96-96-43.1-96-96-96zm246.4 80.5l-94.7-47.3 33.5-100.4c4.5-13.6-8.4-26.5-21.9-21.9l-100.4 33.5-47.4-94.8c-6.4-12.8-24.6-12.8-31 0l-47.3 94.7L92.7 70.8c-13.6-4.5-26.5 8.4-21.9 21.9l33.5 100.4-94.7 47.4c-12.8 6.4-12.8 24.6 0 31l94.7 47.3-33.5 100.5c-4.5 13.6 8.4 26.5 21.9 21.9l100.4-33.5 47.3 94.7c6.4 12.8 24.6 12.8 31 0l47.3-94.7 100.4 33.5c13.6 4.5 26.5-8.4 21.9-21.9l-33.5-100.4 94.7-47.3c13-6.5 13-24.7.2-31.1zm-155.9 106c-49.9 49.9-131.1 49.9-181 0-49.9-49.9-49.9-131.1 0-181 49.9-49.9 131.1-49.9 181 0 49.9 49.9 49.9 131.1 0 181z"/>
</symbol>
<symbol id="trophy" viewBox="0 0 512 512">
<title>trophy</title>
	<g>
		<path d="M486.4,25.6h-76.8V0H102.4v25.6H25.6C10.24,25.6,0,35.84,0,51.2v61.44c0,58.88,43.52,107.52,102.4,115.2v2.56
			c0,74.24,51.2,135.68,120.32,151.04L204.8,435.2h-58.88c-10.24,0-20.48,7.68-23.04,17.92L102.4,512h307.2l-20.48-58.88
			c-2.56-10.24-12.8-17.92-23.04-17.92H307.2l-17.92-53.76c69.12-15.36,120.32-76.8,120.32-151.04v-2.56
			c58.88-7.68,102.4-56.32,102.4-115.2V51.2C512,35.84,501.76,25.6,486.4,25.6z M102.4,176.64c-28.16-7.68-51.2-33.28-51.2-64V76.8
			h51.2V176.64z M307.2,256L256,227.84L204.8,256l12.8-51.2l-38.4-51.2h53.76L256,102.4l23.04,51.2h53.76l-38.4,51.2L307.2,256z
			 M460.8,112.64c0,30.72-23.04,58.88-51.2,64V76.8h51.2V112.64z"/>
	</g>

</symbol>
<symbol id="twitch" viewBox="0 0 32 32">
<title>twitch</title>
<path d="M3 0l-3 5v23h8v4h4l4-4h5l9-9v-19h-27zM26 17l-5 5h-5l-4 4v-4h-6v-18h20v13z"/>
<path d="M19 8h3v8h-3v-8z"/>
<path d="M13 8h3v8h-3v-8z"/>

</symbol>
<symbol id="twitter" viewBox="0 0 32 32">
<title>twitter</title>
<path d="M32 7.075c-1.175 0.525-2.444 0.875-3.769 1.031 1.356-0.813 2.394-2.1 2.887-3.631-1.269 0.75-2.675 1.3-4.169 1.594-1.2-1.275-2.906-2.069-4.794-2.069-3.625 0-6.563 2.938-6.563 6.563 0 0.512 0.056 1.012 0.169 1.494-5.456-0.275-10.294-2.888-13.531-6.862-0.563 0.969-0.887 2.1-0.887 3.3 0 2.275 1.156 4.287 2.919 5.463-1.075-0.031-2.087-0.331-2.975-0.819 0 0.025 0 0.056 0 0.081 0 3.181 2.263 5.838 5.269 6.437-0.55 0.15-1.131 0.231-1.731 0.231-0.425 0-0.831-0.044-1.237-0.119 0.838 2.606 3.263 4.506 6.131 4.563-2.25 1.762-5.075 2.813-8.156 2.813-0.531 0-1.050-0.031-1.569-0.094 2.913 1.869 6.362 2.95 10.069 2.95 12.075 0 18.681-10.006 18.681-18.681 0-0.287-0.006-0.569-0.019-0.85 1.281-0.919 2.394-2.075 3.275-3.394z"/>

</symbol>
<symbol id="website" viewBox="0 0 32 32">
<title>website</title>
<path d="M15 2c-8.284 0-15 6.716-15 15s6.716 15 15 15c8.284 0 15-6.716 15-15s-6.716-15-15-15zM23.487 22c0.268-1.264 0.437-2.606 0.492-4h3.983c-0.104 1.381-0.426 2.722-0.959 4h-3.516zM6.513 12c-0.268 1.264-0.437 2.606-0.492 4h-3.983c0.104-1.381 0.426-2.722 0.959-4h3.516zM21.439 12c0.3 1.28 0.481 2.62 0.54 4h-5.979v-4h5.439zM16 10v-5.854c0.456 0.133 0.908 0.355 1.351 0.668 0.831 0.586 1.625 1.488 2.298 2.609 0.465 0.775 0.867 1.638 1.203 2.578h-4.852zM10.351 7.422c0.673-1.121 1.467-2.023 2.298-2.609 0.443-0.313 0.895-0.535 1.351-0.668v5.854h-4.852c0.336-0.94 0.738-1.803 1.203-2.578zM14 12v4h-5.979c0.059-1.38 0.24-2.72 0.54-4h5.439zM2.997 22c-0.533-1.278-0.854-2.619-0.959-4h3.983c0.055 1.394 0.224 2.736 0.492 4h-3.516zM8.021 18h5.979v4h-5.439c-0.3-1.28-0.481-2.62-0.54-4zM14 24v5.854c-0.456-0.133-0.908-0.355-1.351-0.668-0.831-0.586-1.625-1.488-2.298-2.609-0.465-0.775-0.867-1.638-1.203-2.578h4.852zM19.649 26.578c-0.673 1.121-1.467 2.023-2.298 2.609-0.443 0.312-0.895 0.535-1.351 0.668v-5.854h4.852c-0.336 0.94-0.738 1.802-1.203 2.578zM16 22v-4h5.979c-0.059 1.38-0.24 2.72-0.54 4h-5.439zM23.98 16c-0.055-1.394-0.224-2.736-0.492-4h3.516c0.533 1.278 0.855 2.619 0.959 4h-3.983zM25.958 10h-2.997c-0.582-1.836-1.387-3.447-2.354-4.732 1.329 0.636 2.533 1.488 3.585 2.54 0.671 0.671 1.261 1.404 1.766 2.192zM5.808 7.808c1.052-1.052 2.256-1.904 3.585-2.54-0.967 1.285-1.771 2.896-2.354 4.732h-2.997c0.504-0.788 1.094-1.521 1.766-2.192zM4.042 24h2.997c0.583 1.836 1.387 3.447 2.354 4.732-1.329-0.636-2.533-1.488-3.585-2.54-0.671-0.671-1.261-1.404-1.766-2.192zM24.192 26.192c-1.052 1.052-2.256 1.904-3.585 2.54 0.967-1.285 1.771-2.896 2.354-4.732h2.997c-0.504 0.788-1.094 1.521-1.766 2.192z"/>

</symbol>
<symbol id="wolf" viewBox="0 0 512 512">
    <title>wolf</title>
    <path d="m69.505 0c-38.325 0-69.505 31.18-69.505 69.505s31.18 69.506 69.505 69.506 69.506-31.181 69.506-69.506-31.181-69.505-69.506-69.505z"/>
    <g>
        <path d="m438.533 494.473c0 4.693 1.83 9.101 5.155 12.413 3.31 3.298 7.701 5.112 12.37 5.112h.063c9.63-.033 17.466-7.895 17.466-17.525v-126.009c-10.428 7.205-22.095 12.942-35.053 17.239v108.77z"/>
        <path d="m369.804 395.387v98.579c0 4.693 1.83 9.102 5.155 12.413 3.31 3.298 7.701 5.112 12.37 5.112h.063c10.081-.034 18.282-7.668 18.282-17.018v-101.32c-10.868 1.484-22.424 2.234-34.713 2.234z"/>
        <path d="m512 28.976c0-3.753-2.224-7.15-5.664-8.651l-26.583-11.601c-.94-.412-1.742-.2-2.251.048-.508.249-1.168.753-1.422 1.747l-4.126 16.129c-3.265 12.758-13.24 22.616-26.035 25.728l-23.038 5.604c-2.074.505-3.974 1.511-5.668 2.81-.008.006-.015.012-.023.018l-33.688 25.711c-.936.714-.331 2.207.838 2.068l23.591-2.806c5.619-.662 11.187 1.602 14.736 6.009 3.549 4.406 4.581 10.329 2.732 15.677l-22.064 63.795c-7.419 21.453-22.52 38.683-42.52 48.517l-.636.31c-10.426 5.036-21.896 7.763-34.068 8.092l-57.55 1.556c-21.807.59-42.388 5.161-61.168 13.584-38.863 17.428-56.963 44.031-56.963 83.72v166.921c0 9.554 7.818 17.691 17.37 17.532 9.286-.155 16.793-7.757 16.793-17.079v-86.303c0-9.074 7.356-16.43 16.43-16.43h6.813c33.236 0 60.178-26.943 60.178-60.178v-11.533c0-9.209 7.536-17.03 16.744-16.858 8.929.167 16.116 7.458 16.116 16.427v11.964c0 10.875-1.892 21.313-5.337 31.022h75.422c84.658 0 141.04-34.04 141.04-200.167v-133.383z"/>
        <path d="m117.571 327.041c0-23.542 5.139-44.191 15.324-61.87l-121.946 67.192c-5.152 2.839-5.891 9.945-1.435 13.784 33.434 23.259 77.202 21.161 108.056-2.689v-16.417z"/>
        <path d="m251.89 494.791v-81.382c-10.449 5.643-22.082 9.365-34.436 10.64v70.366c0 .083-.006.165-.006.248 0 .042.006.083.006.125 0 9.491 7.728 17.212 17.227 17.212 9.49 0 17.209-7.72 17.209-17.209z"/>
    </g>

</symbol>
<symbol id="youtube" viewBox="0 0 28 28">
<title>youtube-play</title>
<path d="M11.109 17.625l7.562-3.906-7.562-3.953v7.859zM14 4.156c5.891 0 9.797 0.281 9.797 0.281 0.547 0.063 1.75 0.063 2.812 1.188 0 0 0.859 0.844 1.109 2.781 0.297 2.266 0.281 4.531 0.281 4.531v2.125s0.016 2.266-0.281 4.531c-0.25 1.922-1.109 2.781-1.109 2.781-1.062 1.109-2.266 1.109-2.812 1.172 0 0-3.906 0.297-9.797 0.297v0c-7.281-0.063-9.516-0.281-9.516-0.281-0.625-0.109-2.031-0.078-3.094-1.188 0 0-0.859-0.859-1.109-2.781-0.297-2.266-0.281-4.531-0.281-4.531v-2.125s-0.016-2.266 0.281-4.531c0.25-1.937 1.109-2.781 1.109-2.781 1.062-1.125 2.266-1.125 2.812-1.188 0 0 3.906-0.281 9.797-0.281v0z"/>

</symbol></svg>