<?xml version="1.0" encoding="utf-8"?>
<svg xmlns="http://www.w3.org/2000/svg">
<symbol id="add" viewBox="0 0 32 32">
<title>add</title>
<path d="M31 12h-11v-11c0-0.552-0.448-1-1-1h-6c-0.552 0-1 0.448-1 1v11h-11c-0.552 0-1 0.448-1 1v6c0 0.552 0.448 1 1 1h11v11c0 0.552 0.448 1 1 1h6c0.552 0 1-0.448 1-1v-11h11c0.552 0 1-0.448 1-1v-6c0-0.552-0.448-1-1-1z"/>

</symbol>
<symbol id="badge" viewBox="0 0 24 24">
<title>badge</title>
<path d="M18 13.5v-1.5h-3.984v1.5h3.984zM18 16.5v-1.5h-3.984v1.5h3.984zM12.984 9v-5.016h-1.969v5.016h1.969zM12 18v-0.75q0-0.656-1.031-1.078t-1.969-0.422-1.969 0.422-1.031 1.078v0.75h6zM9 12q-0.656 0-1.078 0.422t-0.422 1.078 0.422 1.078 1.078 0.422 1.078-0.422 0.422-1.078-0.422-1.078-1.078-0.422zM20.016 6.984q0.797 0 1.383 0.609t0.586 1.406v11.016q0 0.797-0.586 1.383t-1.383 0.586h-16.031q-0.797 0-1.383-0.586t-0.586-1.383v-11.016q0-0.797 0.586-1.406t1.383-0.609h5.016v-3q0-0.797 0.609-1.383t1.406-0.586h1.969q0.797 0 1.406 0.586t0.609 1.383v3h5.016z"/>

</symbol>
<symbol id="book" viewBox="0 0 32 32">
<title>book</title>
<path d="M28 4v26h-21c-1.657 0-3-1.343-3-3s1.343-3 3-3h19v-24h-20c-2.2 0-4 1.8-4 4v24c0 2.2 1.8 4 4 4h24v-28h-2z"/>
<path d="M7.002 26v0c-0.001 0-0.001 0-0.002 0-0.552 0-1 0.448-1 1s0.448 1 1 1c0.001 0 0.001-0 0.002-0v0h18.997v-2h-18.997z"/>

</symbol>
<symbol id="calendar-clock" viewBox="0 0 512 512">
<path d="M251,456.9h-6.1c-7,0-12.7-5.7-12.7-12.7v-31.9c0-3.9,1.8-7.4,4.5-9.7c-0.3-3.8-0.4-7.7-0.4-11.5c0-12,1.4-23.6,3.9-34.8
	c-4.7-1.9-8-6.5-8-11.8v-31.9c0-7,5.7-12.7,12.7-12.7h21.2c14.9-20.3,34.5-36.8,57.3-47.9c-1.4-2.1-2.3-4.5-2.3-7.2v-31.9
	c0-7,5.7-12.7,12.7-12.7h31.9c7,0,12.7,5.7,12.7,12.7v24.1c4.1-0.3,8.2-0.5,12.4-0.5c6.5,0,12.9,0.4,19.2,1.2v-24.8
	c0-7,5.7-12.7,12.7-12.7h31.9c7,0,12.7,5.7,12.7,12.7v31.9c0,3.8-1.7,7.3-4.4,9.6c18.9,10,35.5,23.8,48.8,40.4V120
	c0-44.1-35.9-80-80-80h-26V20c0-11-9-20-20-20c-11,0-20,9-20,20v20h-91V20c0-11-9-20-20-20s-20,9-20,20v20h-90V20c0-11-9-20-20-20
	s-20,9-20,20v20H80C35.9,40,0,75.9,0,120v312c0,44.1,35.9,80,80,80h214.6C276.1,497.3,261.2,478.5,251,456.9z M410.2,112.8
	c0-7,5.7-12.7,12.7-12.7h31.9c7,0,12.7,5.7,12.7,12.7v31.9c0,7-5.7,12.7-12.7,12.7H423c-7,0-12.7-5.7-12.7-12.7V112.8z M321.2,112.8
	c0-7,5.7-12.7,12.7-12.7h31.9c7,0,12.7,5.7,12.7,12.7v31.9c0,7-5.7,12.7-12.7,12.7h-31.9c-7,0-12.7-5.7-12.7-12.7V112.8z
	 M232.1,112.8c0-7,5.7-12.7,12.7-12.7h31.9c7,0,12.7,5.7,12.7,12.7v31.9c0,7-5.7,12.7-12.7,12.7h-31.9c-7,0-12.7-5.7-12.7-12.7
	V112.8z M232.1,212.6c0-7,5.7-12.7,12.7-12.7h31.9c7,0,12.7,5.7,12.7,12.7v31.9c0,7-5.7,12.7-12.7,12.7h-31.9
	c-7,0-12.7-5.7-12.7-12.7V212.6z M111.4,444.2c0,7-5.7,12.7-12.7,12.7H66.7c-7,0-12.7-5.7-12.7-12.7v-31.9c0-7,5.7-12.7,12.7-12.7
	h31.9c7,0,12.7,5.7,12.7,12.7V444.2z M111.4,344.4c0,7-5.7,12.7-12.7,12.7H66.7c-7,0-12.7-5.7-12.7-12.7v-31.9
	c0-7,5.7-12.7,12.7-12.7h31.9c7,0,12.7,5.7,12.7,12.7V344.4z M111.4,244.5c0,7-5.7,12.7-12.7,12.7H66.7c-7,0-12.7-5.7-12.7-12.7
	v-31.9c0-7,5.7-12.7,12.7-12.7h31.9c7,0,12.7,5.7,12.7,12.7V244.5z M111.4,144.7c0,7-5.7,12.7-12.7,12.7H66.7
	c-7,0-12.7-5.7-12.7-12.7v-31.9c0-7,5.7-12.7,12.7-12.7h31.9c7,0,12.7,5.7,12.7,12.7V144.7z M200.5,444.2c0,7-5.7,12.7-12.7,12.7
	h-31.9c-7,0-12.7-5.7-12.7-12.7v-31.9c0-7,5.7-12.7,12.7-12.7h31.9c7,0,12.7,5.7,12.7,12.7V444.2z M200.5,344.4
	c0,7-5.7,12.7-12.7,12.7h-31.9c-7,0-12.7-5.7-12.7-12.7v-31.9c0-7,5.7-12.7,12.7-12.7h31.9c7,0,12.7,5.7,12.7,12.7V344.4z
	 M200.5,244.5c0,7-5.7,12.7-12.7,12.7h-31.9c-7,0-12.7-5.7-12.7-12.7v-31.9c0-7,5.7-12.7,12.7-12.7h31.9c7,0,12.7,5.7,12.7,12.7
	V244.5z M200.5,144.7c0,7-5.7,12.7-12.7,12.7h-31.9c-7,0-12.7-5.7-12.7-12.7v-31.9c0-7,5.7-12.7,12.7-12.7h31.9
	c7,0,12.7,5.7,12.7,12.7V144.7z"/>
<path d="M391,270c-66.7,0-121,54.3-121,121s54.3,121,121,121s121-54.3,121-121S457.7,270,391,270z M391,472c-44.7,0-81-36.3-81-81
	s36.3-81,81-81s81,36.3,81,81S435.7,472,391,472z"/>
<path d="M420,371h-9v-21c0-11-9-20-20-20s-20,9-20,20v41c0,11,9,20,20,20h29c11,0,20-9,20-20S431,371,420,371z"/>

</symbol>
<symbol id="calendar-star" viewBox="0 0 532 532">
<path d="M504.3,201.8v-76.9c0-30.2-24.6-54.8-54.8-54.8h-14.4v-8.7C435,36.8,415.1,17,390.5,17S346,36.8,345.9,61.4V70H184.7v-8.7
	c-0.1-24.5-20-44.3-44.6-44.3S95.6,36.8,95.5,61.4V70H81.1c-30.2,0-54.8,24.6-54.8,54.8v336.1c0,30.2,24.6,54.8,54.8,54.8h368.5
	c30.2,0,54.8-24.6,54.8-54.8V209.7C505.2,207.1,505.2,204.3,504.3,201.8z M390.5,41.7c10.9,0,19.6,8.8,19.7,19.7v26.3
	c-0.1,10.8-8.9,19.5-19.7,19.5c-10.8,0-19.6-8.7-19.7-19.5V61.4C370.8,50.5,379.6,41.7,390.5,41.7z M120.4,61.4
	c0.1-10.8,8.9-19.5,19.7-19.5s19.6,8.7,19.7,19.5v26.3c-0.1,10.8-8.9,19.5-19.7,19.5s-19.6-8.7-19.7-19.5
	C120.4,87.7,120.4,61.4,120.4,61.4z M429.5,470.8H101.1c-16.5,0-29.8-13.4-29.8-29.9V218.2h388.2V441
	C459.4,457.4,446,470.8,429.5,470.8z"/>
<path d="M341.3,310.4l-44.9-6.4l-20-39.7c-2.1-4.2-6.4-6.9-11.1-6.9s-9,2.7-11.1,6.9l-20,39.7l-44.8,6.4c-4.7,0.7-8.7,4-10.1,8.5
	c-1.5,4.5-0.2,9.5,3.3,12.8l32.3,30.9l-7.6,43.5c-0.8,4.7,1.1,9.4,4.9,12.2c3.8,2.8,8.9,3.2,13.1,1l40.2-20.7l40.2,20.7
	c4.2,2.2,9.3,1.8,13.1-1c3.8-2.8,5.7-7.5,4.9-12.2l-7.6-43.5l32.3-30.9c3.5-3.3,4.7-8.3,3.3-12.8C350,314.4,346,311.1,341.3,310.4
	L341.3,310.4z"/>

</symbol>
<symbol id="close" viewBox="0 0 32 32">
<title>close</title>
<path d="M31.708 25.708c-0-0-0-0-0-0l-9.708-9.708 9.708-9.708c0-0 0-0 0-0 0.105-0.105 0.18-0.227 0.229-0.357 0.133-0.356 0.057-0.771-0.229-1.057l-4.586-4.586c-0.286-0.286-0.702-0.361-1.057-0.229-0.13 0.048-0.252 0.124-0.357 0.228 0 0-0 0-0 0l-9.708 9.708-9.708-9.708c-0-0-0-0-0-0-0.105-0.104-0.227-0.18-0.357-0.228-0.356-0.133-0.771-0.057-1.057 0.229l-4.586 4.586c-0.286 0.286-0.361 0.702-0.229 1.057 0.049 0.13 0.124 0.252 0.229 0.357 0 0 0 0 0 0l9.708 9.708-9.708 9.708c-0 0-0 0-0 0-0.104 0.105-0.18 0.227-0.229 0.357-0.133 0.355-0.057 0.771 0.229 1.057l4.586 4.586c0.286 0.286 0.702 0.361 1.057 0.229 0.13-0.049 0.252-0.124 0.357-0.229 0-0 0-0 0-0l9.708-9.708 9.708 9.708c0 0 0 0 0 0 0.105 0.105 0.227 0.18 0.357 0.229 0.356 0.133 0.771 0.057 1.057-0.229l4.586-4.586c0.286-0.286 0.362-0.702 0.229-1.057-0.049-0.13-0.124-0.252-0.229-0.357z"/>

</symbol>
<symbol id="dice" viewBox="0 0 640 512">
<path d="M592,192H473.3c12.7,29.6,7.1,65.2-17,89.3L320,417.6V464c0,26.5,21.5,48,48,48h224c26.5,0,48-21.5,48-48V240
	C640,213.5,618.5,192,592,192z M480,386.6c-19.1,0-34.6-15.5-34.6-34.6c0-19.1,15.5-34.6,34.6-34.6s34.6,15.5,34.6,34.6
	C514.6,371.1,499.1,386.6,480,386.6z M433.6,189.3L258.7,14.4c-19.2-19.2-50.2-19.2-69.4,0L14.4,189.3c-19.2,19.2-19.2,50.2,0,69.4
	l174.9,174.9c19.2,19.2,50.2,19.2,69.4,0l174.9-174.9C452.8,239.5,452.8,208.5,433.6,189.3L433.6,189.3z M106,258.6
	c-19.1,0-34.6-15.5-34.6-34.6c0-19.1,15.5-34.6,34.6-34.6s34.6,15.5,34.6,34.6C140.6,243.1,125.1,258.6,106,258.6z M224,376.6
	c-19.1,0-34.6-15.5-34.6-34.6c0-19.1,15.5-34.6,34.6-34.6s34.6,15.5,34.6,34.6C258.6,361.1,243.1,376.6,224,376.6z M224,258.6
	c-19.1,0-34.6-15.5-34.6-34.6c0-19.1,15.5-34.6,34.6-34.6s34.6,15.5,34.6,34.6C258.6,243.1,243.1,258.6,224,258.6z M224,140.6
	c-19.1,0-34.6-15.5-34.6-34.6c0-19.1,15.5-34.6,34.6-34.6s34.6,15.5,34.6,34.6C258.6,125.1,243.1,140.6,224,140.6z M342,258.6
	c-19.1,0-34.6-15.5-34.6-34.6c0-19.1,15.5-34.6,34.6-34.6s34.6,15.5,34.6,34.6C376.6,243.1,361.1,258.6,342,258.6z"/>

</symbol>
<symbol id="discord" viewBox="0 0 448 512">
<path d="M297.216 243.2c0 15.616-11.52 28.416-26.112 28.416-14.336 0-26.112-12.8-26.112-28.416s11.52-28.416 26.112-28.416c14.592 0 26.112 12.8 26.112 28.416zm-119.552-28.416c-14.592 0-26.112 12.8-26.112 28.416s11.776 28.416 26.112 28.416c14.592 0 26.112-12.8 26.112-28.416.256-15.616-11.52-28.416-26.112-28.416zM448 52.736V512c-64.494-56.994-43.868-38.128-118.784-107.776l13.568 47.36H52.48C23.552 451.584 0 428.032 0 398.848V52.736C0 23.552 23.552 0 52.48 0h343.04C424.448 0 448 23.552 448 52.736zm-72.96 242.688c0-82.432-36.864-149.248-36.864-149.248-36.864-27.648-71.936-26.88-71.936-26.88l-3.584 4.096c43.52 13.312 63.744 32.512 63.744 32.512-60.811-33.329-132.244-33.335-191.232-7.424-9.472 4.352-15.104 7.424-15.104 7.424s21.248-20.224 67.328-33.536l-2.56-3.072s-35.072-.768-71.936 26.88c0 0-36.864 66.816-36.864 149.248 0 0 21.504 37.12 78.08 38.912 0 0 9.472-11.52 17.152-21.248-32.512-9.728-44.8-30.208-44.8-30.208 3.766 2.636 9.976 6.053 10.496 6.4 43.21 24.198 104.588 32.126 159.744 8.96 8.96-3.328 18.944-8.192 29.44-15.104 0 0-12.8 20.992-46.336 30.464 7.68 9.728 16.896 20.736 16.896 20.736 56.576-1.792 78.336-38.912 78.336-38.912z"/>
</symbol>
<symbol id="envelope" viewBox="0 0 20 20">
<title>envelope</title>
<path d="M18 2c1.105 0 2 0.895 2 2v0 12c0 1.105-0.895 2-2 2v0h-16c-1.105 0-2-0.895-2-2v0-12c0-1.1 0.9-2 2-2h16zM13.63 11.1l6.37 4.9v-2l-5.12-3.9 5.12-4.1v-2l-10 8-10-8v2l5.12 4.1-5.12 3.9v2l6.37-4.9 3.63 2.9 3.63-2.9z"/>

</symbol>
<symbol id="faq" viewBox="0 0 512 512">
<path d="M490,387.7c14.4-26.4,22-56.2,22-86.5c0-97.7-77.9-177.5-174.8-180.6c-31.3-54-89.7-90.5-156.5-90.5
	C81.1,30.1,0,111.2,0,210.8c0,30.3,7.6,60.1,22,86.5l-11,65.9c-0.8,4.8,0.8,9.6,4.2,13.1c3.4,3.4,8.3,5,13.1,4.2l65.9-11
	c24.7,13.5,52.4,21,80.6,21.9c31.3,54,89.7,90.5,156.5,90.5c30.3,0,60.1-7.6,86.5-22l65.9,11c4.8,0.8,9.6-0.8,13.1-4.2
	c3.4-3.4,5-8.3,4.2-13.1L490,387.7z M180.7,310.6c-8.4,0-14.6-6.9-15-15c-0.4-8.1,7.2-15,15-15c8.4,0,14.6,6.9,15,15
	C196.1,303.8,188.5,310.6,180.7,310.6z M195.7,214.3v31.4c0,8.3-6.7,15-15,15s-15-6.7-15-15v-44.2c0-8.3,6.7-15,15-15
	c12.5,0,22.7-10.2,22.7-22.7S193.2,141,180.7,141S158,151.2,158,163.7c0,8.3-6.7,15-15,15s-15-6.7-15-15c0-29.1,23.7-52.7,52.7-52.7
	s52.7,23.7,52.7,52.7C233.4,187.6,217.5,207.8,195.7,214.3z M452.3,386.6l7.3,46.8l-43.6-7.8c-3-0.5-6.1,0.1-8.7,1.7
	c-19.9,12.5-42.6,18.4-65.8,19.2c-93.4,3-127.1-57.8-125.4-58.1c10.6-2,18.9-4.9,28.8-8.7c2.3,1.5,5.1,2.4,8.1,2.4h156.6
	c8.3,0,15-6.7,15-15s-6.7-15-15-15H293.2c13-10.3,24.5-22.4,34.2-35.9h82.3c8.3,0,15-6.7,15-15s-6.7-15-15-15h-64.8
	c5.2-11.4,9.3-23.4,12.1-35.9h52.6c8.3,0,15-6.7,15-15s-6.7-15-15-15h-48.5c0.2-3.1,0.2-6.3,0.2-9.5c0-18.5-2.8-34.4-8-51.3
	c-0.6-1.9,123.2,30.5,118.4,147c-1,24.9-6.2,49.3-17.8,70.7C452.4,380.1,452.3,386.6,452.3,386.6z"/>

</symbol>
<symbol id="hotel" viewBox="0 0 576 512">
    <path d="M560 64c8.84 0 16-7.16 16-16V16c0-8.84-7.16-16-16-16H16C7.16 0 0 7.16 0 16v32c0 8.84 7.16 16 16 16h15.98v384H16c-8.84 0-16 7.16-16 16v32c0 8.84 7.16 16 16 16h240v-80c0-8.8 7.2-16 16-16h32c8.8 0 16 7.2 16 16v80h240c8.84 0 16-7.16 16-16v-32c0-8.84-7.16-16-16-16h-16V64h16zm-304 44.8c0-6.4 6.4-12.8 12.8-12.8h38.4c6.4 0 12.8 6.4 12.8 12.8v38.4c0 6.4-6.4 12.8-12.8 12.8h-38.4c-6.4 0-12.8-6.4-12.8-12.8v-38.4zm0 96c0-6.4 6.4-12.8 12.8-12.8h38.4c6.4 0 12.8 6.4 12.8 12.8v38.4c0 6.4-6.4 12.8-12.8 12.8h-38.4c-6.4 0-12.8-6.4-12.8-12.8v-38.4zm-128-96c0-6.4 6.4-12.8 12.8-12.8h38.4c6.4 0 12.8 6.4 12.8 12.8v38.4c0 6.4-6.4 12.8-12.8 12.8h-38.4c-6.4 0-12.8-6.4-12.8-12.8v-38.4zM179.2 256h-38.4c-6.4 0-12.8-6.4-12.8-12.8v-38.4c0-6.4 6.4-12.8 12.8-12.8h38.4c6.4 0 12.8 6.4 12.8 12.8v38.4c0 6.4-6.4 12.8-12.8 12.8zM192 384c0-53.02 42.98-96 96-96s96 42.98 96 96H192zm256-140.8c0 6.4-6.4 12.8-12.8 12.8h-38.4c-6.4 0-12.8-6.4-12.8-12.8v-38.4c0-6.4 6.4-12.8 12.8-12.8h38.4c6.4 0 12.8 6.4 12.8 12.8v38.4zm0-96c0 6.4-6.4 12.8-12.8 12.8h-38.4c-6.4 0-12.8-6.4-12.8-12.8v-38.4c0-6.4 6.4-12.8 12.8-12.8h38.4c6.4 0 12.8 6.4 12.8 12.8v38.4z">
    </path>

</symbol>
<symbol id="kickstarter" viewBox="0 0 384 512"><path d="M147.3 114.4c0-56.2-32.5-82.4-73.4-82.4C26.2 32 0 68.2 0 113.4v283c0 47.3 25.3 83.4 74.9 83.4 39.8 0 72.4-25.6 72.4-83.4v-76.5l112.1 138.3c22.7 27.2 72.1 30.7 103.2 0 27-27.6 27.3-67.4 7.4-92.2l-90.8-114.8 74.9-107.4c17.4-24.7 17.5-63.1-10.4-89.8-30.3-29-82.4-31.6-113.6 12.8L147.3 185v-70.6z"/>
</symbol>
<symbol id="light-bulb" viewBox="0 0 486 486"><path d="M298.4 424.7v14.2c0 11.3-8.3 20.7-19.1 22.3l-3.5 12.9c-1.9 7-8.2 11.9-15.5 11.9h-34.7c-7.3 0-13.6-4.9-15.5-11.9l-3.4-12.9c-10.9-1.7-19.2-11-19.2-22.4v-14.2c0-7.6 6.1-13.7 13.7-13.7h83.5c7.6.1 13.7 6.2 13.7 13.8zm64.3-191.4c0 32.3-12.8 61.6-33.6 83.1-15.8 16.4-26 37.3-29.4 59.6-1.5 9.6-9.8 16.7-19.6 16.7h-74.3c-9.7 0-18.1-7-19.5-16.6-3.5-22.3-13.8-43.5-29.6-59.8-20.4-21.2-33.1-50-33.4-81.7-.7-66.6 52.3-120.5 118.9-121 66.5-.5 120.5 53.3 120.5 119.7zm-106.2-72.5c0-7.4-6-13.5-13.5-13.5-47.6 0-86.4 38.7-86.4 86.4 0 7.4 6 13.5 13.5 13.5 7.4 0 13.5-6 13.5-13.5 0-32.8 26.7-59.4 59.4-59.4 7.5 0 13.5-6 13.5-13.5zM243 74.3c7.4 0 13.5-6 13.5-13.5V13.5c0-7.4-6-13.5-13.5-13.5s-13.5 6-13.5 13.5v47.3c0 7.5 6.1 13.5 13.5 13.5zM84.1 233.2c0-7.4-6-13.5-13.5-13.5H23.3c-7.4 0-13.5 6-13.5 13.5 0 7.4 6 13.5 13.5 13.5h47.3c7.5 0 13.5-6 13.5-13.5zm378.6-13.5h-47.3c-7.4 0-13.5 6-13.5 13.5 0 7.4 6 13.5 13.5 13.5h47.3c7.4 0 13.5-6 13.5-13.5 0-7.4-6-13.5-13.5-13.5zM111.6 345.6l-33.5 33.5a13.46 13.46 0 0 0 0 19.1c2.6 2.6 6.1 3.9 9.5 3.9s6.9-1.3 9.5-3.9l33.5-33.5a13.46 13.46 0 0 0 0-19.1c-5.2-5.3-13.8-5.3-19 0zm253.3-220.8c3.4 0 6.9-1.3 9.5-3.9l33.5-33.5a13.46 13.46 0 1 0-19.1-19.1l-33.5 33.5a13.46 13.46 0 0 0 0 19.1c2.7 2.6 6.1 3.9 9.6 3.9zm-253.3-4c2.6 2.6 6.1 3.9 9.5 3.9s6.9-1.3 9.5-3.9a13.46 13.46 0 0 0 0-19.1L97.1 68.2A13.46 13.46 0 1 0 78 87.3l33.6 33.5zm262.8 224.8a13.46 13.46 0 1 0-19.1 19.1l33.5 33.5c2.6 2.6 6.1 3.9 9.5 3.9s6.9-1.3 9.5-3.9a13.46 13.46 0 0 0 0-19.1l-33.4-33.5z"/>
</symbol>
<symbol id="list" viewBox="0 0 32 32">
<title>list</title>
<path d="M12 2h20v4h-20v-4zM12 14h20v4h-20v-4zM12 26h20v4h-20v-4zM0 4c0-2.209 1.791-4 4-4s4 1.791 4 4c0 2.209-1.791 4-4 4s-4-1.791-4-4zM0 16c0-2.209 1.791-4 4-4s4 1.791 4 4c0 2.209-1.791 4-4 4s-4-1.791-4-4zM0 28c0-2.209 1.791-4 4-4s4 1.791 4 4c0 2.209-1.791 4-4 4s-4-1.791-4-4z"/>

</symbol>
<symbol id="menu" viewBox="0 0 32 32">
<title>menu</title>
<path d="M2 6h28v6h-28zM2 14h28v6h-28zM2 22h28v6h-28z"/>

</symbol>
<symbol id="moon" viewBox="0 0 512 512"><path d="M283.211 512c78.962 0 151.079-35.925 198.857-94.792 7.068-8.708-.639-21.43-11.562-19.35-124.203 23.654-238.262-71.576-238.262-196.954 0-72.222 38.662-138.635 101.498-174.394 9.686-5.512 7.25-20.197-3.756-22.23A258.156 258.156 0 0 0 283.211 0c-141.309 0-256 114.511-256 256 0 141.309 114.511 256 256 256z"/>
</symbol>
<symbol id="parachute" viewBox="0 0 297.666 297.666">
	 <title>parachute</title>
<g>
	<path d="M276.783,119.911c1.685-1.725,2.427-4.017,2.246-6.245h0.09C270.389,49.563,215.295,0,148.834,0
		C82.575,0,27.615,49.26,18.629,113.079c-0.014,0.099-0.032,0.197-0.042,0.297c-0.013,0.097-0.027,0.193-0.04,0.29h0.023
		c-0.141,2.188,0.606,4.423,2.26,6.112l71.586,73.066c2.338-0.762,4.829-1.179,7.417-1.179h8.357c-0.017-1-0.024-1.207-0.024-1.688
		c0-1.261,0.066-2.506,0.18-3.739l-73.77-75.294c6.241-12.513,19.158-21.112,34.094-21.112c13.01,0,24.49,6.527,31.359,16.481
		l17.594,57.565c3.68-4.43,8.27-8.077,13.48-10.636l-14.121-46.197c6.806-10.364,18.525-17.213,31.852-17.213
		c13.073,0,24.605,6.59,31.462,16.626l-13.95,46.695c5.225,2.538,9.829,6.176,13.532,10.6l1.221-4.088l15.986-53.512
		c6.882-9.863,18.306-16.321,31.245-16.321c15.137,0,28.207,8.828,34.349,21.616l-73.353,75.026c0.109,1.218,0.174,2.446,0.174,3.69
		c0,0.418-0.006,0.5-0.019,1.5h7.352c2.93,0,5.737,0.529,8.335,1.495L276.783,119.911z"/>
	<path d="M204.833,215.666c0-4.418-3.582-8-8-8h-30.137c4.213-5,6.804-10.908,6.804-17.5c0-13.622-11.045-25.041-24.666-25.041
		c-13.623,0-24.668,11.032-24.668,24.654c0,6.327,2.385,12.366,6.303,16.732c-0.029,0.051-0.058,0.154-0.086,0.154h-0.005
		c-0.068,0-0.136,0-0.201,1H99.833c-4.418,0-8,3.582-8,8s3.582,8,8,8H126.5v66c0,4.418,3.582,8,8,8s8-3.582,8-8v-25.512
		c2,0.326,2.952,0.512,4.5,0.512s3.5-0.185,4.5-0.512v25.512c0,4.418,3.582,8,8,8s8-3.582,8-8v-66h29.333
		C201.251,223.666,204.833,220.084,204.833,215.666z"/>
</g>


</symbol>
<symbol id="paw" viewBox="0 0 512 512">
<title>paw</title>
    <path d="M71.162 156.863c-5.684-6.328-16.641-6.328-22.324 0C40.679 165.945 0 212.761 0 241.883c0 33.091 26.909 60 60 60s60-26.909 60-60c0-29.122-40.679-75.938-48.838-85.02zm120-152c-5.684-6.328-16.641-6.328-22.324 0C160.679 13.945 120 62.762 120 91.883c0 33.091 26.909 60 60 60s60-26.909 60-60c0-29.122-40.679-77.938-48.838-87.02zm152 0c-5.683-6.328-16.641-6.328-22.324 0C312.679 13.945 272 62.762 272 91.883c0 33.091 26.909 60 60 60s60-26.909 60-60c0-29.122-40.679-77.938-48.838-87.02zm120 152c-5.684-6.328-16.641-6.328-22.324 0-8.159 9.082-48.838 55.898-48.838 85.02 0 33.091 26.909 60 60 60s60-26.909 60-60c0-29.122-40.679-75.938-48.838-85.02zm-12.905 230.655c-7.09-39.434-37.998-72.539-76.934-82.397-6.665-1.685-11.323-7.646-11.323-14.517v-3.721c0-57.891-48.109-105-106-105s-106 47.109-106 105v3.721c0 6.87-4.658 12.832-11.323 14.517-38.936 9.857-69.844 42.962-76.934 82.396-5.61 31.143 2.651 62.739 22.676 86.675 35.083 41.938 101.558 49.16 144.741 15.806 13.77-10.635 39.91-10.635 53.68 0 18.53 14.312 40.708 21.885 64.16 21.885 31.187 0 60.557-13.74 80.581-37.69 20.024-23.935 28.286-55.532 22.676-86.675z"/>

</symbol>
<symbol id="price-tags" viewBox="0 0 40 32">
<title>price-tags</title>
<path d="M38.5 0h-12c-0.825 0-1.977 0.477-2.561 1.061l-14.879 14.879c-0.583 0.583-0.583 1.538 0 2.121l12.879 12.879c0.583 0.583 1.538 0.583 2.121 0l14.879-14.879c0.583-0.583 1.061-1.736 1.061-2.561v-12c0-0.825-0.675-1.5-1.5-1.5zM31 12c-1.657 0-3-1.343-3-3s1.343-3 3-3 3 1.343 3 3-1.343 3-3 3z"/>
<path d="M4 17l17-17h-2.5c-0.825 0-1.977 0.477-2.561 1.061l-14.879 14.879c-0.583 0.583-0.583 1.538 0 2.121l12.879 12.879c0.583 0.583 1.538 0.583 2.121 0l0.939-0.939-13-13z"/>

</symbol>
<symbol id="scroll" viewBox="0 0 640 512">
    <path d="M48 0C21.53 0 0 21.53 0 48v64c0 8.84 7.16 16 16 16h80V48C96 21.53 74.47 0 48 0zm208 412.57V352h288V96c0-52.94-43.06-96-96-96H111.59C121.74 13.41 128 29.92 128 48v368c0 38.87 34.65 69.65 74.75 63.12C234.22 474 256 444.46 256 412.57zM288 384v32c0 52.93-43.06 96-96 96h336c61.86 0 112-50.14 112-112 0-8.84-7.16-16-16-16H288z">
    </path>

</symbol>
<symbol id="settings" viewBox="0 0 32 32">
<title>settings</title>
<path d="M29.181 19.070c-1.679-2.908-0.669-6.634 2.255-8.328l-3.145-5.447c-0.898 0.527-1.943 0.829-3.058 0.829-3.361 0-6.085-2.742-6.085-6.125h-6.289c0.008 1.044-0.252 2.103-0.811 3.070-1.679 2.908-5.411 3.897-8.339 2.211l-3.144 5.447c0.905 0.515 1.689 1.268 2.246 2.234 1.676 2.903 0.672 6.623-2.241 8.319l3.145 5.447c0.895-0.522 1.935-0.82 3.044-0.82 3.35 0 6.067 2.725 6.084 6.092h6.289c-0.003-1.034 0.259-2.080 0.811-3.038 1.676-2.903 5.399-3.894 8.325-2.219l3.145-5.447c-0.899-0.515-1.678-1.266-2.232-2.226zM16 22.479c-3.578 0-6.479-2.901-6.479-6.479s2.901-6.479 6.479-6.479c3.578 0 6.479 2.901 6.479 6.479s-2.901 6.479-6.479 6.479z"/>

</symbol>
<symbol id="shield" viewBox="0 0 512 512"><path d="M466.5 83.7l-192-80a48.15 48.15 0 0 0-36.9 0l-192 80C27.7 91.1 16 108.6 16 128c0 198.5 114.5 335.7 221.5 380.3 11.8 4.9 25.1 4.9 36.9 0C360.1 472.6 496 349.3 496 128c0-19.4-11.7-36.9-29.5-44.3zM256.1 446.3l-.1-381 175.9 73.3c-3.3 151.4-82.1 261.1-175.8 307.7z"/>
</symbol>
<symbol id="star" viewBox="0 0 32 32">
<title>star</title>
<path d="M32 12.408l-11.056-1.607-4.944-10.018-4.944 10.018-11.056 1.607 8 7.798-1.889 11.011 9.889-5.199 9.889 5.199-1.889-11.011 8-7.798z"/>

</symbol>
<symbol id="sun" viewBox="0 0 512 512"><path d="M256 160c-52.9 0-96 43.1-96 96s43.1 96 96 96 96-43.1 96-96-43.1-96-96-96zm246.4 80.5l-94.7-47.3 33.5-100.4c4.5-13.6-8.4-26.5-21.9-21.9l-100.4 33.5-47.4-94.8c-6.4-12.8-24.6-12.8-31 0l-47.3 94.7L92.7 70.8c-13.6-4.5-26.5 8.4-21.9 21.9l33.5 100.4-94.7 47.4c-12.8 6.4-12.8 24.6 0 31l94.7 47.3-33.5 100.5c-4.5 13.6 8.4 26.5 21.9 21.9l100.4-33.5 47.3 94.7c6.4 12.8 24.6 12.8 31 0l47.3-94.7 100.4 33.5c13.6 4.5 26.5-8.4 21.9-21.9l-33.5-100.4 94.7-47.3c13-6.5 13-24.7.2-31.1zm-155.9 106c-49.9 49.9-131.1 49.9-181 0-49.9-49.9-49.9-131.1 0-181 49.9-49.9 131.1-49.9 181 0 49.9 49.9 49.9 131.1 0 181z"/>
</symbol>
<symbol id="trophy" viewBox="0 0 512 512">
<title>trophy</title>
	<g>
		<path d="M486.4,25.6h-76.8V0H102.4v25.6H25.6C10.24,25.6,0,35.84,0,51.2v61.44c0,58.88,43.52,107.52,102.4,115.2v2.56
			c0,74.24,51.2,135.68,120.32,151.04L204.8,435.2h-58.88c-10.24,0-20.48,7.68-23.04,17.92L102.4,512h307.2l-20.48-58.88
			c-2.56-10.24-12.8-17.92-23.04-17.92H307.2l-17.92-53.76c69.12-15.36,120.32-76.8,120.32-151.04v-2.56
			c58.88-7.68,102.4-56.32,102.4-115.2V51.2C512,35.84,501.76,25.6,486.4,25.6z M102.4,176.64c-28.16-7.68-51.2-33.28-51.2-64V76.8
			h51.2V176.64z M307.2,256L256,227.84L204.8,256l12.8-51.2l-38.4-51.2h53.76L256,102.4l23.04,51.2h53.76l-38.4,51.2L307.2,256z
			 M460.8,112.64c0,30.72-23.04,58.88-51.2,64V76.8h51.2V112.64z"/>
	</g>



</symbol>
<symbol id="twitter" viewBox="0 0 32 32">
<title>twitter</title>
<path d="M32 7.075c-1.175 0.525-2.444 0.875-3.769 1.031 1.356-0.813 2.394-2.1 2.887-3.631-1.269 0.75-2.675 1.3-4.169 1.594-1.2-1.275-2.906-2.069-4.794-2.069-3.625 0-6.563 2.938-6.563 6.563 0 0.512 0.056 1.012 0.169 1.494-5.456-0.275-10.294-2.888-13.531-6.862-0.563 0.969-0.887 2.1-0.887 3.3 0 2.275 1.156 4.287 2.919 5.463-1.075-0.031-2.087-0.331-2.975-0.819 0 0.025 0 0.056 0 0.081 0 3.181 2.263 5.838 5.269 6.437-0.55 0.15-1.131 0.231-1.731 0.231-0.425 0-0.831-0.044-1.237-0.119 0.838 2.606 3.263 4.506 6.131 4.563-2.25 1.762-5.075 2.813-8.156 2.813-0.531 0-1.050-0.031-1.569-0.094 2.913 1.869 6.362 2.95 10.069 2.95 12.075 0 18.681-10.006 18.681-18.681 0-0.287-0.006-0.569-0.019-0.85 1.281-0.919 2.394-2.075 3.275-3.394z"/>

</symbol>
<symbol id="website" viewBox="0 0 32 32">
<title>website</title>
<path d="M15 2c-8.284 0-15 6.716-15 15s6.716 15 15 15c8.284 0 15-6.716 15-15s-6.716-15-15-15zM23.487 22c0.268-1.264 0.437-2.606 0.492-4h3.983c-0.104 1.381-0.426 2.722-0.959 4h-3.516zM6.513 12c-0.268 1.264-0.437 2.606-0.492 4h-3.983c0.104-1.381 0.426-2.722 0.959-4h3.516zM21.439 12c0.3 1.28 0.481 2.62 0.54 4h-5.979v-4h5.439zM16 10v-5.854c0.456 0.133 0.908 0.355 1.351 0.668 0.831 0.586 1.625 1.488 2.298 2.609 0.465 0.775 0.867 1.638 1.203 2.578h-4.852zM10.351 7.422c0.673-1.121 1.467-2.023 2.298-2.609 0.443-0.313 0.895-0.535 1.351-0.668v5.854h-4.852c0.336-0.94 0.738-1.803 1.203-2.578zM14 12v4h-5.979c0.059-1.38 0.24-2.72 0.54-4h5.439zM2.997 22c-0.533-1.278-0.854-2.619-0.959-4h3.983c0.055 1.394 0.224 2.736 0.492 4h-3.516zM8.021 18h5.979v4h-5.439c-0.3-1.28-0.481-2.62-0.54-4zM14 24v5.854c-0.456-0.133-0.908-0.355-1.351-0.668-0.831-0.586-1.625-1.488-2.298-2.609-0.465-0.775-0.867-1.638-1.203-2.578h4.852zM19.649 26.578c-0.673 1.121-1.467 2.023-2.298 2.609-0.443 0.312-0.895 0.535-1.351 0.668v-5.854h4.852c-0.336 0.94-0.738 1.802-1.203 2.578zM16 22v-4h5.979c-0.059 1.38-0.24 2.72-0.54 4h-5.439zM23.98 16c-0.055-1.394-0.224-2.736-0.492-4h3.516c0.533 1.278 0.855 2.619 0.959 4h-3.983zM25.958 10h-2.997c-0.582-1.836-1.387-3.447-2.354-4.732 1.329 0.636 2.533 1.488 3.585 2.54 0.671 0.671 1.261 1.404 1.766 2.192zM5.808 7.808c1.052-1.052 2.256-1.904 3.585-2.54-0.967 1.285-1.771 2.896-2.354 4.732h-2.997c0.504-0.788 1.094-1.521 1.766-2.192zM4.042 24h2.997c0.583 1.836 1.387 3.447 2.354 4.732-1.329-0.636-2.533-1.488-3.585-2.54-0.671-0.671-1.261-1.404-1.766-2.192zM24.192 26.192c-1.052 1.052-2.256 1.904-3.585 2.54 0.967-1.285 1.771-2.896 2.354-4.732h2.997c-0.504 0.788-1.094 1.521-1.766 2.192z"/>

</symbol>
<symbol id="wolf" viewBox="0 0 512 512">
    <title>wolf</title>
    <path d="m69.505 0c-38.325 0-69.505 31.18-69.505 69.505s31.18 69.506 69.505 69.506 69.506-31.181 69.506-69.506-31.181-69.505-69.506-69.505z"/>
    <g>
        <path d="m438.533 494.473c0 4.693 1.83 9.101 5.155 12.413 3.31 3.298 7.701 5.112 12.37 5.112h.063c9.63-.033 17.466-7.895 17.466-17.525v-126.009c-10.428 7.205-22.095 12.942-35.053 17.239v108.77z"/>
        <path d="m369.804 395.387v98.579c0 4.693 1.83 9.102 5.155 12.413 3.31 3.298 7.701 5.112 12.37 5.112h.063c10.081-.034 18.282-7.668 18.282-17.018v-101.32c-10.868 1.484-22.424 2.234-34.713 2.234z"/>
        <path d="m512 28.976c0-3.753-2.224-7.15-5.664-8.651l-26.583-11.601c-.94-.412-1.742-.2-2.251.048-.508.249-1.168.753-1.422 1.747l-4.126 16.129c-3.265 12.758-13.24 22.616-26.035 25.728l-23.038 5.604c-2.074.505-3.974 1.511-5.668 2.81-.008.006-.015.012-.023.018l-33.688 25.711c-.936.714-.331 2.207.838 2.068l23.591-2.806c5.619-.662 11.187 1.602 14.736 6.009 3.549 4.406 4.581 10.329 2.732 15.677l-22.064 63.795c-7.419 21.453-22.52 38.683-42.52 48.517l-.636.31c-10.426 5.036-21.896 7.763-34.068 8.092l-57.55 1.556c-21.807.59-42.388 5.161-61.168 13.584-38.863 17.428-56.963 44.031-56.963 83.72v166.921c0 9.554 7.818 17.691 17.37 17.532 9.286-.155 16.793-7.757 16.793-17.079v-86.303c0-9.074 7.356-16.43 16.43-16.43h6.813c33.236 0 60.178-26.943 60.178-60.178v-11.533c0-9.209 7.536-17.03 16.744-16.858 8.929.167 16.116 7.458 16.116 16.427v11.964c0 10.875-1.892 21.313-5.337 31.022h75.422c84.658 0 141.04-34.04 141.04-200.167v-133.383z"/>
        <path d="m117.571 327.041c0-23.542 5.139-44.191 15.324-61.87l-121.946 67.192c-5.152 2.839-5.891 9.945-1.435 13.784 33.434 23.259 77.202 21.161 108.056-2.689v-16.417z"/>
        <path d="m251.89 494.791v-81.382c-10.449 5.643-22.082 9.365-34.436 10.64v70.366c0 .083-.006.165-.006.248 0 .042.006.083.006.125 0 9.491 7.728 17.212 17.227 17.212 9.49 0 17.209-7.72 17.209-17.209z"/>
    </g>

</symbol></svg>