<svg xmlns="http://www.w3.org/2000/svg" width="447.898" height="43.004" viewBox="0 0 447.898 43.004"><defs><style>.a{fill:#4b552a;}</style></defs><path class="a" d="M-144.348,25.175s-.078,5.449,0,5.742A35.161,35.161,0,0,0-133.935,28.4c1.939,4.044,2.714,8.17,1.661,12.214a23.494,23.494,0,0,0,8.641-3.672c1.274,2.971,2.659,5.942,4.1,8.913a31.77,31.77,0,0,0,7.367-4.621,12.33,12.33,0,0,0,2.769,6.808c2.825-1.816,5.65-3.631,8.419-5.447a10.868,10.868,0,0,0,4.044,4.828c1.717-3.219,4.819-5.983,8.752-8.459A17.005,17.005,0,0,0-82.2,43.42c.111-3.425,4.154-6.107,9.749-7.716a45.231,45.231,0,0,0,1,5.24c5.041-.578,10.247-1.032,15.343-1.485-2.936,3.219-8.143,6.024-15.62,7.469a83.944,83.944,0,0,0,18.279-2.765A9.145,9.145,0,0,0-52.4,47.5c-1.717,2.393-4.874,4.58-9.749,6.107,8.863-1.527,15.288-4.5,19.054-7.964.222.206.5.413.72.66a9.285,9.285,0,0,0,3.157,2.435c1.108.784,2.327,1.568,3.545,2.352-.055-.33-.055-.66-.111-.99.166.041.332.124.554.165a12.329,12.329,0,0,1,1.44-7.427c4.154,2.6,10.857,4.415,18.5,4.7a17.06,17.06,0,0,1-5.318-2.682,17.255,17.255,0,0,0,6.924-3.342c.5,1.4,1.108,2.847,1.772,4.291A13.44,13.44,0,0,0-5.76,44.286c-.055.165-.111.289-.166.454-1.219,3.507-5.705,6.437-12.74,7.51,9.25.99,18.057-.041,24.1-2.393a14.528,14.528,0,0,1-1.44,9c5.262-.66,9.25-2.311,11.134-4.374,2.991,4.787,9.472,9.491,19.664,12.792-8.032-4-10.58-9.2-9.25-13.864a86.68,86.68,0,0,0,23.43,7.51c-8.309-2.93-13.4-7.1-15.565-11.389,5.872,1.362,11.854,2.765,17.67,4.25,1.219-2.022,2.326-4.044,3.268-6.024,6.038,2.806,9.749,6.6,8.53,10.687a27.355,27.355,0,0,0,8.918-4.333c3.711,3.507,6.315,7.3,7.09,11.389a17.591,17.591,0,0,0,6.7-5.075c2.6,2.6,5.262,5.2,7.976,7.757,8.53-7.1,8.2-14.277,2.493-19.229,3.213.165,6.536.248,9.86.248a14.921,14.921,0,0,1,.111,1.568c1.108-.536,2.16-1.032,3.268-1.568h.388V48.99c1-.5,2.05-.99,3.047-1.485a11.678,11.678,0,0,1,.665,5.488,28.086,28.086,0,0,0,8.53-7.716,30.26,30.26,0,0,1,5.65,14.607c3.656-2.228,6.148-5.282,7.035-8.541,1.606,3.095,4.764,5.777,8.752,7.592A22.671,22.671,0,0,1,147.23,46.06a15.654,15.654,0,0,0,3.545,2.393c2.437-3.507,5.594-6.767,6.7-10.6,3.822,2.558,5.982,6.313,5.594,9.986s-3.379,7.139-7.921,9.119a25.2,25.2,0,0,0,14.125-3.837c1,2.971,1.994,5.9,2.991,8.872q2.825-6.189,5.484-12.379a18.939,18.939,0,0,1,1.163,13.122,66.985,66.985,0,0,0,7.7-12.668c1.44-3.012,2.548-6.231,1.883-9.408,1.052,1.857,2.16,3.714,3.268,5.571a44.458,44.458,0,0,0,2.548-3.879c3.6-.536,7.145-1.2,10.524-1.9-3.767,5.694-1.5,12.709,9.361,18.321,1.717-2.93,3.379-5.818,4.985-8.748a23.019,23.019,0,0,0,8.419,3.92c-.72-4.085.5-8.17,2.825-12.173a32.6,32.6,0,0,0,10.247,2.847c-2.714-3.755-.388-8.046,4.487-11.719a75.642,75.642,0,0,0,5.373,5.364c5.151-2.311,10.524-4.58,15.786-6.808-.554,4.5-4.044,9.326-11.134,13.452A69.924,69.924,0,0,0,275.46,34.011c2.991,4.333,2.326,9.779-4.044,14.9,8.752-4.787,13.46-10.357,14.679-15.474,2.6,1.733,7.145,2.723,12.518,2.517a17.9,17.9,0,0,1-4.653-8.541c6.758,1.362,6.988,3.793,9.481,3.5.166-1.485,0-5.74,0-5.74Z" transform="translate(144.383 -25.173)"/></svg>