<svg width="4000" height="39.6" xmlns="http://www.w3.org/2000/svg">
<style type="text/css">
	.wave-stroke {fill:var(--wave-stroke,#ffffff);}
    .wave-top {fill:var(--header-bg,#000000);} 
</style>
  <defs>
    <pattern id="wave-pattern" x="0" y="0" width=".01791" height="1">
	<path d="M71.6,30.4V0H0v30.4c9.9,9.7,29.3,9.7,39.1,0C47.2,22.5,63.5,22.5,71.6,30.4z" class="wave-top"/>
	<path d="M71.6,27.8c-9.2-7.5-25.4-7.1-33.8,1.2c-9.2,9-27.2,9-36.3,0L0,27.6v5.5c5.2,4.4,12.4,6.5,19.6,6.5 c7.8,0,15.7-2.6,21-7.8c7.2-7.1,22.4-7.1,29.6,0l1.4,1.4V27.8z" class="wave-stroke" />
    </pattern>
  </defs>

  <rect fill="url(#wave-pattern)" stroke="transparent" width="4000" height="39.6" />
</svg>