<?xml version="1.0" encoding="utf-8"?>
<!-- Generator: Adobe Illustrator 26.3.1, SVG Export Plug-In . SVG Version: 6.00 Build 0)  -->
<svg version="1.1" id="Layer_1" xmlns="http://www.w3.org/2000/svg" xmlns:xlink="http://www.w3.org/1999/xlink" x="0px" y="0px"
	 viewBox="0 0 320 320" style="enable-background:new 0 0 320 320;" xml:space="preserve">
<path d="M313.7,102.4C300.7,41.6,272.3-4,250.2,0.3c0.1,0,0.2,0,0.3-0.1l-25.2,5.4c0,0-49.6,56.9-131,92.5c0.3,14.3,2.2,31,6.2,49.8
	c4,18.9,9.2,34.8,14.7,48c88.8-0.8,157.3,31,157.3,31l25.2-5.4c-0.1,0-0.2,0-0.3,0C319.4,216.5,326.7,163.3,313.7,102.4z
	 M285.5,206.7c-2.8,0.6-6.6-1.7-8.5-3.1c-4.7-3.4-9.8-9.3-14.8-16.9c-11-17-20.2-41.1-25.9-67.7c-5.7-26.6-7.1-52.3-4-72.4
	c1.4-9,3.7-16.4,6.6-21.5c1.2-2.1,3.7-5.7,6.5-6.3s6.6,1.7,8.5,3.1c4.7,3.4,9.8,9.3,14.8,16.9c11,17,20.2,41.1,25.9,67.7
	c5.7,26.6,7.1,52.3,4,72.4c-1.4,9-3.7,16.4-6.6,21.5C290.8,202.5,288.3,206.1,285.5,206.7z M79.5,152.4c-3.4-15.7-5.5-31.3-6.3-45.9
	c-13.9,5.1-26.3,8.9-41.9,12.2c-20.3,4.3-20.3,4.3-20.3,4.3L0.2,155.4L6,182.1l22.9,25.1c0,0,0,0,20.3-4.3c15.6-3.3,28.4-4.9,43.2-6
	C87.3,183.2,82.8,168.2,79.5,152.4L79.5,152.4z M128.6,209.4l-40.4,0.9l45.6,92.1c2.4,4.8,7.9,6.2,12.3,3.3l32.9-22.1
	c4.4-3,5.2-8.7,1.8-12.8L128.6,209.4z M273.2,148.9c-1.1,0.2-2.5-0.6-3.3-1.2c-1.8-1.3-3.8-3.6-5.7-6.5c-4.2-6.6-7.8-15.8-10-26.1
	s-2.7-20.2-1.5-27.9c0.5-3.5,1.4-6.3,2.5-8.3c0.5-0.8,1.4-2.2,2.5-2.4c1.1-0.2,2.5,0.6,3.3,1.2c1.8,1.3,3.8,3.6,5.7,6.5
	c4.2,6.6,7.8,15.8,10,26.1c2.2,10.3,2.7,20.2,1.5,27.9c-0.5,3.5-1.4,6.3-2.5,8.3C275.2,147.3,274.3,148.7,273.2,148.9z"/>
</svg>
