<?xml version="1.0" encoding="utf-8"?>
<!-- Generator: Adobe Illustrator 25.2.1, SVG Export Plug-In . SVG Version: 6.00 Build 0)  -->
<svg version="1.1" id="Layer_1" xmlns="http://www.w3.org/2000/svg" xmlns:xlink="http://www.w3.org/1999/xlink" x="0px" y="0px"
	 viewBox="0 0 532 532" style="enable-background:new 0 0 532 532;" xml:space="preserve">
<path d="M504.3,201.8v-76.9c0-30.2-24.6-54.8-54.8-54.8h-14.4v-8.7C435,36.8,415.1,17,390.5,17S346,36.8,345.9,61.4V70H184.7v-8.7
	C184.6,36.8,164.7,17,140.1,17S95.6,36.8,95.5,61.4V70H81.1c-30.2,0-54.8,24.6-54.8,54.8v336.1c0,30.2,24.6,54.8,54.8,54.8h368.5
	c30.2,0,54.8-24.6,54.8-54.8V209.7C505.2,207.1,505.2,204.3,504.3,201.8z M390.5,41.7c10.9,0,19.6,8.8,19.7,19.7v26.3
	c-0.1,10.8-8.9,19.5-19.7,19.5c-10.8,0-19.6-8.7-19.7-19.5V61.4C370.8,50.5,379.6,41.7,390.5,41.7z M120.4,61.4
	c0.1-10.8,8.9-19.5,19.7-19.5c10.8,0,19.6,8.7,19.7,19.5v26.3c-0.1,10.8-8.9,19.5-19.7,19.5c-10.8,0-19.6-8.7-19.7-19.5V61.4z
	 M81.1,95h15c3.6,21.5,22.2,37.3,44,37.3c21.8,0,40.4-15.8,44-37.3h162.4c3.6,21.5,22.2,37.3,44,37.3s40.4-15.8,44-37.3h15
	c16.5,0,29.8,13.4,29.9,29.9v68.4H51.2v-68.4C51.2,108.4,64.6,95,81.1,95z M449.5,490.8H81.1c-16.5,0-29.8-13.4-29.8-29.9V218.2
	h428.2v242.8C479.4,477.4,466,490.8,449.5,490.8z"/>
<path d="M341.3,329.4l-44.9-6.4l-20-39.7c-2.1-4.2-6.4-6.9-11.1-6.9c-4.7,0-9,2.7-11.1,6.9l-20,39.7l-44.8,6.4
	c-4.7,0.7-8.7,4-10.1,8.5c-1.5,4.5-0.2,9.5,3.3,12.8l32.3,30.9l-7.6,43.5c-0.8,4.7,1.1,9.4,4.9,12.2c3.8,2.8,8.9,3.2,13.1,1
	l40.2-20.7l40.2,20.7c4.2,2.2,9.3,1.8,13.1-1c3.8-2.8,5.7-7.5,4.9-12.2l-7.6-43.5l32.3-30.9c3.5-3.3,4.7-8.3,3.3-12.8
	C350,333.4,346,330.1,341.3,329.4L341.3,329.4z"/>
</svg>
