<?xml version="1.0" encoding="UTF-8" standalone="no"?>
<!DOCTYPE svg PUBLIC "-//W3C//DTD SVG 1.1//EN" "http://www.w3.org/Graphics/SVG/1.1/DTD/svg11.dtd">
<svg width="100%" height="100%" viewBox="0 0 24 28" version="1.1" xmlns="http://www.w3.org/2000/svg" xmlns:xlink="http://www.w3.org/1999/xlink" xml:space="preserve" xmlns:serif="http://www.serif.com/" style="fill-rule:evenodd;clip-rule:evenodd;stroke-linejoin:round;stroke-miterlimit:2;">
    <g transform="matrix(1.49457,0,0,1.49457,-0.00527009,2.25033)">
        <path d="M16,8C16,12.389 12.389,16 8,16C3.611,16 0,12.389 0,8C-0,3.611 3.611,0 8,0C12.389,-0 16,3.611 16,8ZM12.03,4.97C11.889,4.83 11.699,4.751 11.501,4.751C11.292,4.751 11.092,4.839 10.95,4.992L7.477,9.417L5.384,7.323C5.245,7.194 5.062,7.122 4.873,7.122C4.461,7.122 4.123,7.46 4.123,7.872C4.123,8.061 4.195,8.244 4.324,8.383L6.97,11.03C7.111,11.17 7.301,11.249 7.5,11.249C7.708,11.249 7.907,11.162 8.049,11.01L12.041,6.02C12.322,5.728 12.318,5.257 12.031,4.97L12.03,4.97Z" style="fill-rule:nonzero;"/>
    </g>
</svg>
