<?xml version="1.0" encoding="utf-8"?>
<!-- Generator: Adobe Illustrator 25.2.1, SVG Export Plug-In . SVG Version: 6.00 Build 0)  -->
<svg version="1.1" id="Layer_1" focusable="false" xmlns="http://www.w3.org/2000/svg" xmlns:xlink="http://www.w3.org/1999/xlink"
	 x="0px" y="0px" viewBox="0 0 640 512" style="enable-background:new 0 0 640 512;" xml:space="preserve">
<path d="M592,192H473.3c12.7,29.6,7.1,65.2-17,89.3L320,417.6V464c0,26.5,21.5,48,48,48h224c26.5,0,48-21.5,48-48V240
	C640,213.5,618.5,192,592,192z M480,386.6c-19.1,0-34.6-15.5-34.6-34.6c0-19.1,15.5-34.6,34.6-34.6s34.6,15.5,34.6,34.6
	C514.6,371.1,499.1,386.6,480,386.6z M433.6,189.3L258.7,14.4c-19.2-19.2-50.2-19.2-69.4,0L14.4,189.3c-19.2,19.2-19.2,50.2,0,69.4
	l174.9,174.9c19.2,19.2,50.2,19.2,69.4,0l174.9-174.9C452.8,239.5,452.8,208.5,433.6,189.3L433.6,189.3z M106,258.6
	c-19.1,0-34.6-15.5-34.6-34.6c0-19.1,15.5-34.6,34.6-34.6s34.6,15.5,34.6,34.6C140.6,243.1,125.1,258.6,106,258.6z M224,376.6
	c-19.1,0-34.6-15.5-34.6-34.6c0-19.1,15.5-34.6,34.6-34.6s34.6,15.5,34.6,34.6C258.6,361.1,243.1,376.6,224,376.6z M224,258.6
	c-19.1,0-34.6-15.5-34.6-34.6c0-19.1,15.5-34.6,34.6-34.6s34.6,15.5,34.6,34.6C258.6,243.1,243.1,258.6,224,258.6z M224,140.6
	c-19.1,0-34.6-15.5-34.6-34.6c0-19.1,15.5-34.6,34.6-34.6s34.6,15.5,34.6,34.6C258.6,125.1,243.1,140.6,224,140.6z M342,258.6
	c-19.1,0-34.6-15.5-34.6-34.6c0-19.1,15.5-34.6,34.6-34.6s34.6,15.5,34.6,34.6C376.6,243.1,361.1,258.6,342,258.6z"/>
</svg>
