<?xml version="1.0" encoding="UTF-8" standalone="no"?>
<!DOCTYPE svg PUBLIC "-//W3C//DTD SVG 1.1//EN" "http://www.w3.org/Graphics/SVG/1.1/DTD/svg11.dtd">
<svg width="100%" height="100%" viewBox="0 0 512 512" version="1.1" xmlns="http://www.w3.org/2000/svg" xmlns:xlink="http://www.w3.org/1999/xlink" xml:space="preserve" xmlns:serif="http://www.serif.com/" style="fill-rule:evenodd;clip-rule:evenodd;stroke-linejoin:round;stroke-miterlimit:2;">
    <g transform="matrix(1.01603,-0.586607,0.586607,1.01603,-155.308,138.908)">
        <path d="M256,92.3C202.8,92.3 153.2,107.1 113.8,129.7L128,152.1L112.8,161.7L98.57,139.2C96.4,140.6 94.27,142.1 92.18,143.6C53.43,171.5 29.06,207.3 25.48,240.8C28.46,247.5 33.6,258.3 40.22,269.6C50.95,287.9 66.44,306.2 77.41,309.4C95.33,306.9 111.4,287.3 127.7,290.1C152.8,295.2 165.8,318.5 178,338.1C187.3,352.6 199.1,372.8 216.1,374.6C222.3,375.3 227.7,373.4 233.8,369.4C239.9,365.3 246.3,359 253,352.1C266.2,338.4 280.7,321.2 302.5,318.5C317.8,316.5 330.1,324.7 340.6,330.9C351,337 359.3,341.1 366.1,339.5L366.2,339.5C377.3,334.1 383,324.7 388.3,316.3L352.7,290.9L363.1,276.3L399,301.9C404.1,296.4 410.4,291.9 418.7,290.1C430.2,287.6 439.1,293.9 445.8,298.1C452.4,302.3 457,304.4 459.6,303.9C462.7,303.3 471.4,296.9 477.7,290.1C479.7,287.9 481.6,285.7 483.1,283.8C485.7,272.9 487,261.4 487,249.3C487,247.8 486.9,246.3 486.9,244.9L449.3,263.6L441.3,247.4L483.7,226.2C475.7,197.2 453,167.5 419.8,143.6C377.8,113.3 319.5,92.3 256,92.3ZM325.1,106.5L331.1,123.5L280.8,141.6L274.8,124.6L325.1,106.5ZM184.9,117.5L218.3,127.1L213.3,144.3L179.9,134.8L184.9,117.5ZM369.3,140.5L409,168.1L398.8,182.9L359.1,155.3L369.3,140.5ZM321.7,153.3L332.5,167.7L299.5,192.2L288.7,177.8L321.7,153.3ZM164.7,187.3L167.3,205.1L121.7,212L119.1,194.2L164.7,187.3ZM256,190.9C273.8,190.9 290,194.1 302.5,200C315,205.8 325.4,215 325.4,228C325.4,241 315,250.2 302.5,256C290,261.9 273.8,265.1 256,265.1C238.2,265.1 222,261.9 209.5,256C197,250.2 186.6,241 186.6,228C186.6,215 197,205.8 209.5,200C222,194.1 238.2,190.9 256,190.9ZM402.2,196.5L406.8,213.9L359.6,226.1L355,208.7L402.2,196.5ZM256,208.9C240.4,208.9 226.4,211.9 217.1,216.3C207.7,220.6 204.6,225.5 204.6,228C204.6,230.5 207.7,235.4 217.1,239.7C226.4,244.1 240.4,247.1 256,247.1C271.6,247.1 285.6,244.1 294.9,239.7C304.3,235.4 307.4,230.5 307.4,228C307.4,225.5 304.3,220.6 294.9,216.3C285.6,211.9 271.6,208.9 256,208.9ZM61.56,226.9L101.3,242.3L94.8,259.1L55.06,243.7L61.56,226.9ZM29.56,286.8C38.62,322.4 60.75,351.5 92.11,373.7C133.8,403.1 192.1,419.7 256,419.7C319.9,419.7 378.2,403.1 419.9,373.7C441,358.8 458,340.7 469.5,319.5C467.5,320.4 465.4,321.1 463.2,321.5C451.7,323.9 442.8,317.5 436.2,313.3C429.5,309.2 425,307.1 422.5,307.7C415.3,309.3 409.1,317.4 401.9,328.5C394.6,339.5 386.3,353.5 370.1,357.1C354.9,360.5 342.1,352.7 331.4,346.4C320.8,340.1 311.9,335.4 304.8,336.3C288,341.3 275.6,354.6 265.9,364.6C259.1,371.7 252.1,378.9 243.8,384.4C235.5,389.9 225.5,393.6 214.3,392.6C187.5,387.7 175.1,367.7 162.7,347.6C150.4,327.9 139.2,310.8 124.1,307.7C105.4,310.7 92.48,332.1 72.36,326.6C53.93,321.2 40.35,304.1 29.56,286.8ZM253.2,289.6L255.8,307.4L205.4,314.8L202.8,297L253.2,289.6Z" style="fill-rule:nonzero;"/>
    </g>
</svg>
