<?xml version="1.0" encoding="UTF-8" standalone="no"?>
<!DOCTYPE svg PUBLIC "-//W3C//DTD SVG 1.1//EN" "http://www.w3.org/Graphics/SVG/1.1/DTD/svg11.dtd">
<svg width="100%" height="100%" viewBox="0 0 24 28" version="1.1" xmlns="http://www.w3.org/2000/svg" xmlns:xlink="http://www.w3.org/1999/xlink" xml:space="preserve" xmlns:serif="http://www.serif.com/" style="fill-rule:evenodd;clip-rule:evenodd;stroke-linejoin:round;stroke-miterlimit:2;">
    <g transform="matrix(0.128394,0,0,0.128394,-5.82364,5.73887)">
        <g id="g250">
            <path id="path181" d="M133.621,-25.497C127.652,-24.713 121.776,-24.335 115.894,-22.864C99.778,-18.835 84.879,-10.221 73.035,1.389C65.105,9.162 58.404,18.954 54.021,29.16C35.947,71.239 50.417,120.85 89.435,145.562C97.559,150.707 106.57,154.497 115.894,156.828C127.551,159.742 139.724,160.333 151.612,158.731C198.382,152.431 233.295,109.655 231.242,62.762C229.44,21.625 199.236,-14.457 159.021,-23.34C151.003,-25.111 141.835,-26.575 133.621,-25.497M111.131,86.31C115.787,92.085 121.241,96.567 128.329,98.989C141.934,103.637 158.735,98.135 166.429,85.781C176.084,87.081 186.097,89.953 195.533,92.395C195.054,95.083 193.176,97.763 191.775,100.068C187.555,107.015 181.754,113.108 175.16,117.832C142.64,141.135 93.746,127.281 80.093,88.956C67.474,53.531 88.555,12.75 126.477,5.681C133.96,4.286 141.717,4.103 149.231,5.369C156.855,6.653 164.3,9.428 170.927,13.404C184.856,21.761 194.796,35.216 199.013,50.856C199.957,54.359 200.521,57.837 200.87,61.439C200.969,62.465 201.523,64.308 200.817,65.215C199.855,66.452 195.961,66.677 194.475,66.995C188.996,68.169 183.508,69.445 178.071,70.798C155.881,76.318 133.14,80.111 111.131,86.31M105.575,61.439L123.037,57.505L150.554,51.213L165.9,47.681C164.2,42.638 157.441,38.719 152.935,36.504C134.308,27.346 107.318,39.534 105.575,61.439L105.575,61.439Z" style="fill-rule:nonzero;"/>
        </g>
    </g>
</svg>
