<svg id="Layer_1" enable-background="new 0 0 512 512" height="512" viewBox="0 0 512 512" width="512"
    xmlns="http://www.w3.org/2000/svg">
    <title>faq</title>
    <g>
        <path
            d="m489.977 387.681c14.423-26.426 22.023-56.21 22.023-86.492 0-97.659-77.879-177.459-174.793-180.583-31.268-54.044-89.716-90.486-156.517-90.486-99.633 0-180.69 81.058-180.69 180.691 0 30.281 7.6 60.065 22.023 86.491l-10.967 65.883c-.795 4.777.765 9.645 4.19 13.069 3.424 3.424 8.292 4.981 13.069 4.19l65.884-10.968c24.709 13.487 52.355 21.004 80.598 21.924 31.269 54.041 89.715 90.479 156.514 90.479 30.282 0 60.063-7.599 86.491-22.023l65.884 10.968c4.775.79 9.644-.766 13.069-4.19 3.425-3.425 4.985-8.292 4.189-13.069zm-393.01-48.871c-.821 0-1.645.067-2.463.203l-50.409 8.392 8.392-50.408c.577-3.466-.081-7.023-1.859-10.054-13.495-23.001-20.628-49.326-20.628-76.132 0-83.091 67.599-150.691 150.69-150.691 83.09 0 150.69 67.6 150.69 150.69s-67.6 150.69-150.69 150.69c-26.806 0-53.132-7.133-76.132-20.628-2.314-1.358-4.936-2.062-7.591-2.062zm362.546 48.565 8.393 50.409-50.409-8.391c-3.463-.579-7.023.079-10.054 1.858-23 13.495-49.326 20.628-76.132 20.628-50.237 0-94.804-24.717-122.199-62.622 12.411-1.969 24.403-5.21 35.843-9.578 2.338 1.505 5.115 2.389 8.102 2.389h156.588c8.284 0 15-6.716 15-15s-6.716-15-15-15h-116.42c12.951-10.339 24.455-22.416 34.154-35.879h82.266c8.284 0 15-6.716 15-15s-6.716-15-15-15h-64.759c5.243-11.375 9.337-23.384 12.134-35.878h52.626c8.284 0 15-6.716 15-15s-6.716-15-15-15h-48.516c.164-3.147.249-6.314.249-9.501 0-20.635-3.486-40.469-9.885-58.955 73.582 9.895 130.506 73.087 130.506 149.334 0 26.807-7.133 53.132-20.628 76.132-1.778 3.031-2.435 6.588-1.859 10.054z" />
        <path
            d="m157.953 163.709c0-12.537 10.2-22.737 22.737-22.737s22.737 10.2 22.737 22.737-10.2 22.737-22.737 22.737c-8.284 0-15 6.716-15 15v44.2c0 8.284 6.716 15 15 15s15-6.716 15-15v-31.373c21.795-6.477 37.737-26.694 37.737-50.564 0-29.079-23.658-52.737-52.737-52.737s-52.737 23.658-52.737 52.737c0 8.284 6.716 15 15 15s15-6.716 15-15z" />
        <path
            d="m180.69 280.649c-7.846 0-15.363 6.899-15 15 .364 8.127 6.591 15 15 15 7.846 0 15.363-6.899 15-15-.364-8.127-6.591-15-15-15z" />
    </g>
</svg>