<?xml version="1.0" encoding="UTF-8"?><svg id="earth" xmlns="http://www.w3.org/2000/svg" viewBox="0 0 256 256"><path d="M238.66,211.05c-2.26-8.12-10.6-13.31-19.17-11.51l-64.97,14.89c-.45,3.16-1.8,6.54-3.84,9.25-3.84,5.87-9.7,10.15-16.47,11.96-6.77,1.58-13.99,.45-19.85-3.61l-55.95-35.64c-2.71-1.58-3.16-4.74-1.58-7.22,1.58-2.48,4.74-3.16,6.99-1.58l56.17,35.64c7.44,4.51,17.15,2.48,21.88-4.74,4.74-7.22,2.48-17.15-4.74-21.88l-69.93-44.22c-11.51-7.22-24.82-12.86-37.45-6.54L-.12,162.83v60.69l13.42-9.31c6.54-1.58,13.76-.23,19.85,3.61l48.73,30.68c11.96,7.44,26.62,9.25,39.25,5.87l105.58-24.14c8.35-1.8,13.99-10.15,11.96-19.18Z"/><path d="M126.26,74.19l-36.6,54.06c-1.07,1.73,.03,3.99,2.06,4.21l72.22,7.65-37.67-65.92h0Zm-34.45,34.8l26.11-42.43-26.58-15.94c-.93-.55-2.1,.11-2.1,1.19v56.46c0,1.4,1.83,1.92,2.57,.72Zm3.76,37.51l67.41,30.4c1.84,.85,3.94-.5,3.94-2.52v-22.77l-70.58-7.73c-1.54-.17-2.16,1.94-.76,2.62h0Zm28.16-89.39L151.45,7.55c1.5-2.45-1.24-5.29-3.74-3.86l-52.29,34.19c-.86,.56-.83,1.82,.05,2.35l28.27,16.88h0Zm48.73,3.53h37.87L177.19,2.26c-1.09-1.76-2.91-2.64-4.73-2.64s-3.64,.88-4.73,2.64l-33.14,58.39h37.87Zm81.12-10.02l-26.58,15.95,26.11,42.43c.73,1.19,2.57,.67,2.57-.73V51.82c0-1.08-1.18-1.74-2.1-1.19Zm-32.39,6.49l28.27-16.89c.88-.53,.9-1.79,.05-2.35L197.22,3.69c-2.49-1.43-5.24,1.41-3.74,3.86l27.72,49.57Zm27.4,86.76l-70.58,7.73v22.77c0,2.03,2.1,3.37,3.94,2.52l67.41-30.4c1.4-.68,.78-2.79-.76-2.62h0Zm-29.93-69.69l-37.67,65.92,72.22-7.65c2.02-.23,3.12-2.48,2.06-4.21l-36.6-54.06h0Zm-46.21-2.45h-34.83l34.83,60.94,34.83-60.94h-34.83Z"/></svg>