<?xml version="1.0" encoding="utf-8"?>
<!-- Generator: Adobe Illustrator 26.3.1, SVG Export Plug-In . SVG Version: 6.00 Build 0)  -->
<svg version="1.1" id="Layer_1" xmlns="http://www.w3.org/2000/svg" xmlns:xlink="http://www.w3.org/1999/xlink" x="0px" y="0px"
	 viewBox="0 0 300 300" style="enable-background:new 0 0 300 300;" xml:space="preserve">
<path d="M150,13.1c-41.8,0-98.9,0.7-110.4,1.7c-13,7.7-38.7,34.4-38.9,42.1v12.8c0,16.2,15.2,30.5,28.9,30.5
	c16.5,0,30.3-13.7,30.3-30c0,16.3,13.3,30,29.8,30s29.4-13.7,29.4-30c0,16.3,14.1,30,30.7,30h0.3c16.5,0,30.7-13.7,30.7-30
	c0,16.3,12.9,30,29.4,30c16.5,0,29.8-13.7,29.8-30c0,16.3,13.8,30,30.3,30c13.7,0,28.9-14.2,28.9-30.5V56.9
	c-0.2-7.7-25.9-34.4-38.9-42.1C219.9,13.4,191.8,13.1,150,13.1z M118.7,108.2c-1.6,2.7-3.5,5.3-5.8,7.5c-6.2,6.1-14.8,9.9-24.2,9.9
	c-9.1,0-17.8-3.5-24.3-9.9c-2.3-2.2-4-4.6-5.5-7.3c-1.6,2.8-3.8,5.1-6.1,7.3c-6.5,6.3-15.2,9.9-24.3,9.9c-1.1,0-2.3-0.3-3.3-0.7
	c-1.3,13.8-1.6,19.4-1.8,29.1v0c0,4.9,0,8.9-0.1,14.5c0.3,29-2.9,94.1,12.8,110.1c24.3,5.6,69,8.2,113.9,8.2
	c44.9,0,89.6-2.6,113.9-8.3c15.7-16,12.5-81.1,12.8-110.1c0-5.6,0-9.6-0.1-14.5v0c-0.2-9.6-1-15.2-2.4-29.1c-1,0.3-2.1,0.6-3.3,0.6
	c-9.1,0-17.8-3.5-24.3-9.9c-2.3-2.2-4.4-4.6-6-7.3h0c-1.6,2.8-3.3,5.1-5.5,7.3c-6.5,6.3-15.2,9.9-24.3,9.9c-9.4,0-18-3.8-24.2-9.9
	c-2.3-2.2-4.2-4.7-5.8-7.5c-1.6,2.7-3.5,5.3-5.8,7.5c-6.5,6.3-15.2,9.9-24.3,9.9c-0.3,0-0.7,0-1,0c-0.3,0-0.7,0-1,0
	c-9.1,0-17.8-3.5-24.3-9.9C122.2,113.4,120.3,110.9,118.7,108.2z M99.8,145.6L99.8,145.6c8.9,0,16.7,0,26.5,10.7
	c7.7-0.8,15.7-1.2,23.7-1.2h0c8,0,16,0.4,23.7,1.2c9.8-10.6,17.6-10.6,26.5-10.6h0v0c4.2,0,20.9,0,32.6,32.8l12.5,45
	c9.3,33.4-3,34.2-18.3,34.3c-22.7-0.8-35.2-17.3-35.2-33.8c-12.6,2.1-27.2,3.1-41.8,3.1c-14.6,0-29.3-1-41.8-3.1
	c0,16.5-12.5,32.9-35.2,33.8c-15.3,0-27.6-0.8-18.3-34.3l12.5-45C78.9,145.6,95.6,145.6,99.8,145.6z M150,170.3
	c0,0-20.2,18.6-23.8,25.2l13.2-0.5v11.5c0,0.5,5.3,0.3,10.6,0.1c5.3,0.2,10.6,0.4,10.6-0.1V195l13.2,0.5
	C170.2,188.9,150,170.3,150,170.3z"/>
</svg>
