<?xml version="1.0" encoding="utf-8"?>
<!-- Generator: Adobe Illustrator 26.1.0, SVG Export Plug-In . SVG Version: 6.00 Build 0)  -->
<svg version="1.1" id="Layer_1" xmlns="http://www.w3.org/2000/svg" xmlns:xlink="http://www.w3.org/1999/xlink" x="0px" y="0px"
	 viewBox="0 0 32 32" style="enable-background:new 0 0 32 32;" xml:space="preserve">
<path d="M30.9,29.1H1.1c-0.6,0-1.1,0.5-1.1,1.1V32h32v-1.8C32,29.6,31.5,29.1,30.9,29.1z"/>
<path d="M8.1,16.4c0.6,0,1.1-0.4,1.1-0.9v-0.7c0-0.5-0.5-1-1.1-1H3.3c-0.6,0-1.1,0.4-1.1,1v0.7c0,0.5,0.5,0.9,1.1,0.9h0.6v8.5H3.3
	c-0.6,0-1.1,0.4-1.1,0.9v0.7c0,0.5,0.5,1,1.1,1h4.8c0.6,0,1.1-0.4,1.1-1v-0.7c0-0.5-0.5-0.9-1.1-0.9H7.6v-8.5H8.1z"/>
<path d="M18.2,16.4c0.6,0,1.1-0.4,1.1-0.9v-0.7c0-0.5-0.5-1-1.1-1h-4.8c-0.6,0-1.1,0.4-1.1,1v0.7c0,0.5,0.5,0.9,1.1,0.9H14v8.5h-0.6
	c-0.6,0-1.1,0.4-1.1,0.9v0.7c0,0.5,0.5,1,1.1,1h4.8c0.6,0,1.1-0.4,1.1-1v-0.7c0-0.5-0.5-0.9-1.1-0.9h-0.5v-8.5H18.2z"/>
<path d="M28.3,16.4c0.6,0,1.1-0.4,1.1-0.9v-0.7c0-0.5-0.5-1-1.1-1h-4.8c-0.6,0-1.1,0.4-1.1,1v0.7c0,0.5,0.5,0.9,1.1,0.9H24v8.5h-0.6
	c-0.6,0-1.1,0.4-1.1,0.9v0.7c0,0.5,0.5,1,1.1,1h4.8c0.6,0,1.1-0.4,1.1-1v-0.7c0-0.5-0.5-0.9-1.1-0.9h-0.5v-8.5H28.3z"/>
<path d="M30.7,8.7c-0.6-0.4-9.8-5.6-13-7.9C17.2,0.4,16.7,0,16,0c-0.6,0-1.5,0.5-2,0.9C10.9,3.1,1.9,8.3,1.2,8.7
	c-1.6,0.9-1.1,3.5,0.5,3.5c0,0,28.6,0,28.6,0C31.9,12.2,32.3,9.6,30.7,8.7z M18.3,7.3l-1.1,1.8c-0.6,1-1.9,1-2.5,0l-1.1-1.8
	c-0.3-0.5-0.3-1,0-1.5L14.7,4c0.6-1,1.9-1,2.5,0l1.1,1.8C18.6,6.2,18.6,6.8,18.3,7.3z"/>
</svg>
