<?xml version="1.0" encoding="UTF-8"?><svg id="Layer_1" xmlns="http://www.w3.org/2000/svg" viewBox="0 0 461.55 453.65"><path d="M329.43,326.64c0,7.13-3.88,12.19-9.68,14.46-105.4,41.16-169.9,70.47-275.9,110.06-30.9,11.54-50.86-19.4-41.55-43.05,40.99-104.1,69.52-160.66,110.54-264.75,5.22-14.51,11.02-16.39,27.1-13.63,71.35,12.26,189.48,134.21,189.48,196.91Zm-21.85-8.61c12.77-46.84-132.89-187.46-172.7-169.86-57.65,25.49,158.91,220.44,172.7,169.86Z"/><path d="M371.15,104.92c.28-.06,.56-.1,.87-.11,9.67-.38,8.88-12.43,2.11-16.75-43.51-1.89-66.39,6.25-44.7,53.84,13.5,44.46-45.22,3.14-64.01,27.58-5.87,7.64,4.49,18.86,11.17,11.99,10.44-10.65,22.6,.61,42.01-1.18,41.48-3.66,26.48-36.74,19.41-62.8-4.55-16.77,13.84-13.52,33.14-12.57Z"/><path d="M445.09,85.19c-30.17-8.91-29.72,37.23-45.76,15.07-3.37-7.02-2.93-17.45-10.76-21.26-24.02-5.15-29.33-16.1-5.66-28.95,8.36-4.99,2.3-15.68,4.29-23.34,5.38-23.48,23.2,6.71,34.43,3.15,7.18-2.51,16.93-8.15,23.89-3.2,6.61,8.3-4.65,19.81-3.26,28.09,3.18,8.42,25.05,29.89,2.81,30.44Z"/><path d="M208.09,81.56c-22.31,.96-.81-23.32-6.28-33.55-4.16-6.79-13.8-13.96-10.8-22.69,5.29-7.14,16.5-4.01,24.26-4.88,11.21-2.27,19-33.82,30.89-13.83,5.18,18.19,7.05,20,25.32,24.7,18.74,9.85-7.23,20.24-12.38,28.31-2.93,8.7,4.49,35.16-14.37,26.49-13.38-11.54-20.93-12.27-36.64-4.54Z"/><path d="M387.32,265.54c-22.29-1.41,1.66-23.28-2.69-34.03-3.42-7.19-12.24-15.35-8.34-23.71,6.02-6.54,16.83-2.24,24.64-2.29,11.39-1.07,22.48-31.61,32.18-10.49,3.23,18.63,4.89,20.64,22.56,27.25,17.6,11.78-9.34,19.36-15.3,26.84-3.83,8.34,.74,35.44-17.1,24.82-12.08-12.89-19.52-14.42-35.96-8.39Z"/><path d="M368.04,232.26c-2.31-3.9-6.93-2.66-12.25-1.9-5.32,.75-39.68,12.79-36.25,25.51,1.07,3.96,6.17,4.36,10.43,1.83,11.52-6.83,30.93-12.72,36.96-13.7s3.43-7.84,1.12-11.74Z"/><path d="M222.18,88.91c19.96-4.84-7,66.84-19.46,56.19-3.05-1.93-3.99-5.7-1.85-9.11,11.13-11.57,12.17-44.52,21.3-47.08Z"/></svg>