<svg xmlns="http://www.w3.org/2000/svg" viewBox="0 0 512 512" xmlns:v="https://vecta.io/nano">
<title>paw</title>
    <path
        d="M71.162 156.863c-5.684-6.328-16.641-6.328-22.324 0C40.679 165.945 0 212.761 0 241.883c0 33.091 26.909 60 60 60s60-26.909 60-60c0-29.122-40.679-75.938-48.838-85.02zm120-152c-5.684-6.328-16.641-6.328-22.324 0C160.679 13.945 120 62.762 120 91.883c0 33.091 26.909 60 60 60s60-26.909 60-60c0-29.122-40.679-77.938-48.838-87.02zm152 0c-5.683-6.328-16.641-6.328-22.324 0C312.679 13.945 272 62.762 272 91.883c0 33.091 26.909 60 60 60s60-26.909 60-60c0-29.122-40.679-77.938-48.838-87.02zm120 152c-5.684-6.328-16.641-6.328-22.324 0-8.159 9.082-48.838 55.898-48.838 85.02 0 33.091 26.909 60 60 60s60-26.909 60-60c0-29.122-40.679-75.938-48.838-85.02zm-12.905 230.655c-7.09-39.434-37.998-72.539-76.934-82.397-6.665-1.685-11.323-7.646-11.323-14.517v-3.721c0-57.891-48.109-105-106-105s-106 47.109-106 105v3.721c0 6.87-4.658 12.832-11.323 14.517-38.936 9.857-69.844 42.962-76.934 82.396-5.61 31.143 2.651 62.739 22.676 86.675 35.083 41.938 101.558 49.16 144.741 15.806 13.77-10.635 39.91-10.635 53.68 0 18.53 14.312 40.708 21.885 64.16 21.885 31.187 0 60.557-13.74 80.581-37.69 20.024-23.935 28.286-55.532 22.676-86.675z" />
</svg>