<svg version="1.1" xmlns="http://www.w3.org/2000/svg" viewBox="0 0 512 512">
<path d="M259,117.4c-32.1,0-58.1-26.3-58.1-58.7S226.8,0,259,0s58.1,26.3,58.1,58.7C317.1,91.1,291.1,117.4,259,117.4z"/>
<path d="M441.7,107.8l-0.5,0.1l0,0l-0.4,0.1c-1,0.3-2.1,0.6-3.1,0.9c-19.3,5.7-113.1,32.4-179.2,32.4c-61.4,0-146.7-23.1-174-30.9
	c-2.7-1.1-5.5-2-8.3-2.7c-19.7-5.2-33.2,15-33.2,33.5c0,18.3,16.3,27,32.8,33.3v0.3l98.9,31.2c10.1,3.9,12.8,7.9,14.1,11.4
	c4.3,11.1,0.9,28-0.4,35.6l-6,44.1L149,475.8c-0.1,0.5-0.2,1-0.3,1.5l-0.2,1.3l0,0c-2.4,16.9,9.9,33.4,33.2,33.4
	c20.3,0,29.3-14.2,33.2-33.5l0,0c0,0,29.1-159.1,43.6-159.1c14.5,0,44.5,159.1,44.5,159.1l0,0c3.9,19.3,12.9,33.5,33.2,33.5
	c23.4,0,35.7-16.5,33.2-33.5c-0.2-1.4-0.5-2.9-0.8-4.3l-33.9-177.1l-6-44.1c-4.4-27.5-0.9-31.4,0.3-33.6c0-0.1,0.1-0.1,0.1-0.2
	c1.1-2.1,6.2-6.8,18.1-11.3l92.7-32.7c0.6-0.2,1.1-0.3,1.7-0.5c16.6-6.3,33.2-15,33.2-33.5S461.4,102.6,441.7,107.8z"/>
</svg>
