<?xml version="1.0" encoding="utf-8"?>
<!-- Generator: Adobe Illustrator 28.0.0, SVG Export Plug-In . SVG Version: 6.00 Build 0)  -->
<svg version="1.1" id="Layer_1" xmlns="http://www.w3.org/2000/svg" xmlns:xlink="http://www.w3.org/1999/xlink" x="0px" y="0px"
	 viewBox="0 0 63.5 63.5" style="enable-background:new 0 0 63.5 63.5;" xml:space="preserve">
<path d="M51.5,0H12C5.4,0,0,5.4,0,12v39.5c0,6.6,5.4,12,12,12h39.5c6.6,0,12-5.4,12-12V12C63.5,5.4,58.1,0,51.5,0z M21,35.7
	l-4.4,1.9L12.5,35l-6.1,0.2l5.6-3.8l4.3,2.1l5.4-1l6.2,4.1L21,35.7z M33.8,27.1l-7.2-4.7l-7.9,1.1l9.6-4.9l6.1,3.6l6-3.2l14.4,9.6
	l-14.4-4.7L33.8,27.1z M51.8,40l-2.4,1.6l-3.2-1.7l-4,1.7l4-4.5l2.8,2l2.5-1.6l3.9,2.8L51.8,40z"/>
</svg>
