
<svg version="1.1" id="Layer_1" xmlns="http://www.w3.org/2000/svg" xmlns:xlink="http://www.w3.org/1999/xlink" x="0px" y="0px"
	 viewBox="0 0 28 28"  xml:space="preserve">
<path d="M26,9.3L26,9.3v-7C26,1.1,25.1,0,24,0c-3,2.9-8,7-14,7H2.5C1.1,7,0,8.3,0,9.9v3.5c0,1.6,1.1,2.9,2.5,2.9h1.9
	c-1.1,4.1,0.2,7.3,1.2,10.6C7,28.5,11,28.4,12,26.2c-1.7-1.5-3.1-3-2-5.1c-1.2-1.5-0.6-4,1.3-4.7c5.4,0.5,9.9,4.2,12.7,6.9
	c1.1,0,2-1.1,2-2.3v-7c1.1,0,2-1,2-2.3S27.1,9.3,26,9.3z M19.1,16.7c-2.4-1.4-4.7-2.3-7.1-2.6V9.2c2.4-0.3,4.7-1.2,7.1-2.6V16.7z
	 M24,20.3c-0.7-0.6-1.4-1.2-2-1.7v-14c0.7-0.5,1.4-1.1,2-1.7V20.3z M26,12.6v-1.9c0.4,0,0.8,0.4,0.8,0.9
	C26.8,12.2,26.4,12.6,26,12.6z"/>
</svg>
