<svg version="1.1" xmlns="http://www.w3.org/2000/svg" viewBox="0 0 532 532">
<path d="M504.3,201.8v-76.9c0-30.2-24.6-54.8-54.8-54.8h-14.4v-8.7C435,36.8,415.1,17,390.5,17S346,36.8,345.9,61.4V70H184.7v-8.7
	c-0.1-24.5-20-44.3-44.6-44.3S95.6,36.8,95.5,61.4V70H81.1c-30.2,0-54.8,24.6-54.8,54.8v336.1c0,30.2,24.6,54.8,54.8,54.8h368.5
	c30.2,0,54.8-24.6,54.8-54.8V209.7C505.2,207.1,505.2,204.3,504.3,201.8z M390.5,41.7c10.9,0,19.6,8.8,19.7,19.7v26.3
	c-0.1,10.8-8.9,19.5-19.7,19.5c-10.8,0-19.6-8.7-19.7-19.5V61.4C370.8,50.5,379.6,41.7,390.5,41.7z M120.4,61.4
	c0.1-10.8,8.9-19.5,19.7-19.5s19.6,8.7,19.7,19.5v26.3c-0.1,10.8-8.9,19.5-19.7,19.5s-19.6-8.7-19.7-19.5
	C120.4,87.7,120.4,61.4,120.4,61.4z M429.5,470.8H101.1c-16.5,0-29.8-13.4-29.8-29.9V218.2h388.2V441
	C459.4,457.4,446,470.8,429.5,470.8z"/>
<path d="M341.3,310.4l-44.9-6.4l-20-39.7c-2.1-4.2-6.4-6.9-11.1-6.9s-9,2.7-11.1,6.9l-20,39.7l-44.8,6.4c-4.7,0.7-8.7,4-10.1,8.5
	c-1.5,4.5-0.2,9.5,3.3,12.8l32.3,30.9l-7.6,43.5c-0.8,4.7,1.1,9.4,4.9,12.2c3.8,2.8,8.9,3.2,13.1,1l40.2-20.7l40.2,20.7
	c4.2,2.2,9.3,1.8,13.1-1c3.8-2.8,5.7-7.5,4.9-12.2l-7.6-43.5l32.3-30.9c3.5-3.3,4.7-8.3,3.3-12.8C350,314.4,346,311.1,341.3,310.4
	L341.3,310.4z"/>
</svg>
