<svg version="1.1" xmlns="http://www.w3.org/2000/svg" viewBox="0 0 512 512">
<path d="M251,456.9h-6.1c-7,0-12.7-5.7-12.7-12.7v-31.9c0-3.9,1.8-7.4,4.5-9.7c-0.3-3.8-0.4-7.7-0.4-11.5c0-12,1.4-23.6,3.9-34.8
	c-4.7-1.9-8-6.5-8-11.8v-31.9c0-7,5.7-12.7,12.7-12.7h21.2c14.9-20.3,34.5-36.8,57.3-47.9c-1.4-2.1-2.3-4.5-2.3-7.2v-31.9
	c0-7,5.7-12.7,12.7-12.7h31.9c7,0,12.7,5.7,12.7,12.7v24.1c4.1-0.3,8.2-0.5,12.4-0.5c6.5,0,12.9,0.4,19.2,1.2v-24.8
	c0-7,5.7-12.7,12.7-12.7h31.9c7,0,12.7,5.7,12.7,12.7v31.9c0,3.8-1.7,7.3-4.4,9.6c18.9,10,35.5,23.8,48.8,40.4V120
	c0-44.1-35.9-80-80-80h-26V20c0-11-9-20-20-20c-11,0-20,9-20,20v20h-91V20c0-11-9-20-20-20s-20,9-20,20v20h-90V20c0-11-9-20-20-20
	s-20,9-20,20v20H80C35.9,40,0,75.9,0,120v312c0,44.1,35.9,80,80,80h214.6C276.1,497.3,261.2,478.5,251,456.9z M410.2,112.8
	c0-7,5.7-12.7,12.7-12.7h31.9c7,0,12.7,5.7,12.7,12.7v31.9c0,7-5.7,12.7-12.7,12.7H423c-7,0-12.7-5.7-12.7-12.7V112.8z M321.2,112.8
	c0-7,5.7-12.7,12.7-12.7h31.9c7,0,12.7,5.7,12.7,12.7v31.9c0,7-5.7,12.7-12.7,12.7h-31.9c-7,0-12.7-5.7-12.7-12.7V112.8z
	 M232.1,112.8c0-7,5.7-12.7,12.7-12.7h31.9c7,0,12.7,5.7,12.7,12.7v31.9c0,7-5.7,12.7-12.7,12.7h-31.9c-7,0-12.7-5.7-12.7-12.7
	V112.8z M232.1,212.6c0-7,5.7-12.7,12.7-12.7h31.9c7,0,12.7,5.7,12.7,12.7v31.9c0,7-5.7,12.7-12.7,12.7h-31.9
	c-7,0-12.7-5.7-12.7-12.7V212.6z M111.4,444.2c0,7-5.7,12.7-12.7,12.7H66.7c-7,0-12.7-5.7-12.7-12.7v-31.9c0-7,5.7-12.7,12.7-12.7
	h31.9c7,0,12.7,5.7,12.7,12.7V444.2z M111.4,344.4c0,7-5.7,12.7-12.7,12.7H66.7c-7,0-12.7-5.7-12.7-12.7v-31.9
	c0-7,5.7-12.7,12.7-12.7h31.9c7,0,12.7,5.7,12.7,12.7V344.4z M111.4,244.5c0,7-5.7,12.7-12.7,12.7H66.7c-7,0-12.7-5.7-12.7-12.7
	v-31.9c0-7,5.7-12.7,12.7-12.7h31.9c7,0,12.7,5.7,12.7,12.7V244.5z M111.4,144.7c0,7-5.7,12.7-12.7,12.7H66.7
	c-7,0-12.7-5.7-12.7-12.7v-31.9c0-7,5.7-12.7,12.7-12.7h31.9c7,0,12.7,5.7,12.7,12.7V144.7z M200.5,444.2c0,7-5.7,12.7-12.7,12.7
	h-31.9c-7,0-12.7-5.7-12.7-12.7v-31.9c0-7,5.7-12.7,12.7-12.7h31.9c7,0,12.7,5.7,12.7,12.7V444.2z M200.5,344.4
	c0,7-5.7,12.7-12.7,12.7h-31.9c-7,0-12.7-5.7-12.7-12.7v-31.9c0-7,5.7-12.7,12.7-12.7h31.9c7,0,12.7,5.7,12.7,12.7V344.4z
	 M200.5,244.5c0,7-5.7,12.7-12.7,12.7h-31.9c-7,0-12.7-5.7-12.7-12.7v-31.9c0-7,5.7-12.7,12.7-12.7h31.9c7,0,12.7,5.7,12.7,12.7
	V244.5z M200.5,144.7c0,7-5.7,12.7-12.7,12.7h-31.9c-7,0-12.7-5.7-12.7-12.7v-31.9c0-7,5.7-12.7,12.7-12.7h31.9
	c7,0,12.7,5.7,12.7,12.7V144.7z"/>
<path d="M391,270c-66.7,0-121,54.3-121,121s54.3,121,121,121s121-54.3,121-121S457.7,270,391,270z M391,472c-44.7,0-81-36.3-81-81
	s36.3-81,81-81s81,36.3,81,81S435.7,472,391,472z"/>
<path d="M420,371h-9v-21c0-11-9-20-20-20s-20,9-20,20v41c0,11,9,20,20,20h29c11,0,20-9,20-20S431,371,420,371z"/>
</svg>
