<?xml version="1.0" encoding="UTF-8"?><svg xmlns="http://www.w3.org/2000/svg" viewBox="0 0 512 512"><g id="Layer_1" focusable="false"><path d="M464,192h-38.87l21.15,36.11c9.2,15.71,11.74,34.04,7.15,51.62-4.59,17.58-15.77,32.32-31.48,41.53l-36.63,21.46c.82,2.96,1.27,6.07,1.27,9.28,0,19.1-15.5,34.6-34.6,34.6-9.51,0-18.13-3.85-24.39-10.07l-119.06,69.76c-5.21,3.05-10.78,5.39-16.55,6.96v10.75c0,26.5,21.5,48,48,48h224c26.5,0,48-21.5,48-48V240c0-26.5-21.5-48-48-48Zm-31.78,274.82c-19.1,0-34.6-15.5-34.6-34.6s15.5-34.6,34.6-34.6,34.6,15.5,34.6,34.6-15.5,34.6-34.6,34.6Z"/><path d="M429.89,237.71L304.86,24.3C291.13,.87,261.14-6.97,237.71,6.76L24.3,131.79C.87,145.52-6.97,175.51,6.76,198.94l125.03,213.42c13.73,23.43,43.72,31.26,67.15,17.54l213.42-125.03c23.43-13.73,31.26-43.72,17.54-67.15Zm-292.26-40.46c-4.83,18.48-23.74,29.56-42.22,24.74-18.48-4.83-29.56-23.74-24.74-42.22s23.74-29.56,42.22-24.74c18.48,4.83,29.56,23.74,24.74,42.22Zm84.36,143.99c-4.83,18.48-23.74,29.56-42.22,24.74s-29.56-23.74-24.74-42.22c4.83-18.48,23.74-29.56,42.22-24.74s29.56,23.74,24.74,42.22Zm29.81-114.17c-4.83,18.48-23.74,29.56-42.22,24.74s-29.56-23.74-24.74-42.22c4.83-18.48,23.74-29.56,42.22-24.74,18.48,4.83,29.56,23.74,24.74,42.22Zm29.81-114.17c-4.83,18.48-23.74,29.56-42.22,24.74s-29.56-23.74-24.74-42.22c4.83-18.48,23.74-29.56,42.22-24.74s29.56,23.74,24.74,42.22Zm84.36,143.99c-4.83,18.48-23.74,29.56-42.22,24.74-18.48-4.83-29.56-23.74-24.74-42.22s23.74-29.56,42.22-24.74c18.48,4.83,29.56,23.74,24.74,42.22Z"/></g></svg>