<svg version="1.1" id="Layer_1" xmlns="http://www.w3.org/2000/svg" viewBox="0 0 512 512" >
<path d="M490,387.7c14.4-26.4,22-56.2,22-86.5c0-97.7-77.9-177.5-174.8-180.6c-31.3-54-89.7-90.5-156.5-90.5
	C81.1,30.1,0,111.2,0,210.8c0,30.3,7.6,60.1,22,86.5l-11,65.9c-0.8,4.8,0.8,9.6,4.2,13.1c3.4,3.4,8.3,5,13.1,4.2l65.9-11
	c24.7,13.5,52.4,21,80.6,21.9c31.3,54,89.7,90.5,156.5,90.5c30.3,0,60.1-7.6,86.5-22l65.9,11c4.8,0.8,9.6-0.8,13.1-4.2
	c3.4-3.4,5-8.3,4.2-13.1L490,387.7z M180.7,310.6c-8.4,0-14.6-6.9-15-15c-0.4-8.1,7.2-15,15-15c8.4,0,14.6,6.9,15,15
	C196.1,303.8,188.5,310.6,180.7,310.6z M195.7,214.3v31.4c0,8.3-6.7,15-15,15s-15-6.7-15-15v-44.2c0-8.3,6.7-15,15-15
	c12.5,0,22.7-10.2,22.7-22.7S193.2,141,180.7,141S158,151.2,158,163.7c0,8.3-6.7,15-15,15s-15-6.7-15-15c0-29.1,23.7-52.7,52.7-52.7
	s52.7,23.7,52.7,52.7C233.4,187.6,217.5,207.8,195.7,214.3z M452.3,386.6l7.3,46.8l-43.6-7.8c-3-0.5-6.1,0.1-8.7,1.7
	c-19.9,12.5-42.6,18.4-65.8,19.2c-93.4,3-127.1-57.8-125.4-58.1c10.6-2,18.9-4.9,28.8-8.7c2.3,1.5,5.1,2.4,8.1,2.4h156.6
	c8.3,0,15-6.7,15-15s-6.7-15-15-15H293.2c13-10.3,24.5-22.4,34.2-35.9h82.3c8.3,0,15-6.7,15-15s-6.7-15-15-15h-64.8
	c5.2-11.4,9.3-23.4,12.1-35.9h52.6c8.3,0,15-6.7,15-15s-6.7-15-15-15h-48.5c0.2-3.1,0.2-6.3,0.2-9.5c0-18.5-2.8-34.4-8-51.3
	c-0.6-1.9,123.2,30.5,118.4,147c-1,24.9-6.2,49.3-17.8,70.7C452.4,380.1,452.3,386.6,452.3,386.6z"/>
</svg>
