<?xml version="1.0" encoding="utf-8"?>
<!-- Generator: Adobe Illustrator 26.5.0, SVG Export Plug-In . SVG Version: 6.00 Build 0)  -->
<svg version="1.1" id="Layer_1" xmlns="http://www.w3.org/2000/svg" xmlns:xlink="http://www.w3.org/1999/xlink" x="0px" y="0px"
	 viewBox="0 0 329.9 329.9" style="enable-background:new 0 0 329.9 329.9;" xml:space="preserve">
<g id="XMLID_481_">
	<path id="XMLID_482_" d="M115.6,278.4c5.9,5.2,12.1,10.6,18.4,16.2c0,0,0.1,0.1,0.1,0.1l21,18.2c2.8,2.4,6.3,3.6,9.8,3.6
		s7-1.2,9.8-3.6l21-18.2c0,0,0.1-0.1,0.1-0.1c41.6-36.8,72.8-65,95.4-92.4c26.4-32.1,38.6-61.1,38.6-91.3
		c0-54.6-42.8-97.5-97.4-97.5c-24.6,0-48.8,9.2-67.5,25.3c-18.7-16-43-25.3-67.5-25.3C42.8,13.4,0,56.2,0,110.9
		C0,176.9,46,217.3,115.6,278.4z M95.4,131.8h46.4V85.4h46.4v46.4h46.4v46.4h-46.4v46.4h-46.4v-46.4H95.4L95.4,131.8L95.4,131.8z"/>
</g>
</svg>
