<svg xmlns="http://www.w3.org/2000/svg" viewBox="0 0 173.1 185.6" ><title>Mastodon</title>
    <path
        d="M173.1 60.9c0-40.3-26.4-52.1-26.4-52.1-13.3-6-36.1-8.6-59.8-8.8h-.6C62.6.2 39.7 2.8 26.4 8.9 26.4 8.9 0 20.7 0 61c0 9.2-.2 20.2.1 31.9 1 39.4 7.2 78.2 43.6 87.8 16.8 4.4 31.2 5.4 42.8 4.7 21-1.2 32.9-7.5 32.9-7.5l-.7-15.3s-15 4.7-31.9 4.2c-16.7-.6-34.4-1.8-37.1-22.4-.2-1.8-.4-3.7-.4-5.8 0 0 16.4 4 37.3 5 12.7.6 24.7-.7 36.8-2.2 23.3-2.8 43.5-17.1 46-30.2 4.1-20.6 3.7-50.3 3.7-50.3zM142 112.8h-19.3V65.5c0-10-4.2-15-12.6-15-9.3 0-13.9 6-13.9 17.9v25.9H77v-26c0-11.9-4.7-17.9-13.9-17.9-8.4 0-12.6 5.1-12.6 15v47.3H31.1V64.1c0-10 2.5-17.9 7.6-23.7 5.3-5.9 12.1-8.9 20.7-8.9 9.9 0 17.4 3.8 22.3 11.4l4.8 8.1 4.8-8.1c4.9-7.6 12.4-11.4 22.3-11.4 8.5 0 15.4 3 20.7 8.9 5.1 5.9 7.6 13.8 7.6 23.7v48.7z"
    ></path>
</svg>