<?xml version="1.0" encoding="UTF-8"?><svg id="Layer_2" xmlns="http://www.w3.org/2000/svg" viewBox="0 0 164.51 164.52"><path d="M147.37,31.31h-14.17v-14.17c0-9.45-7.69-17.15-17.15-17.15H17.15C7.69,0,0,7.69,0,17.15V116.06c0,9.45,7.69,17.15,17.15,17.15h14.17v14.17c0,9.45,7.69,17.15,17.15,17.15h98.91c9.45,0,17.15-7.69,17.15-17.15V48.46c0-9.45-7.69-17.15-17.15-17.15Zm-27.17,66.54l-22.35,22.35h-13.51l35.86-35.86v13.51Zm0,17.13v1.08c0,2.29-1.86,4.15-4.15,4.15h-1.08l5.22-5.22Zm0-47.76l-52.98,52.98h-13.51L120.2,53.71v13.51Zm-75.89,1.11l24.01-24.01h13.51l-37.52,37.52v-13.51Zm0-17.13v-2.74c0-2.29,1.86-4.15,4.15-4.15h2.74l-6.89,6.89Zm0,47.76l54.65-54.65h13.51L44.31,112.47v-13.51Zm-27.17,21.24c-2.29,0-4.15-1.86-4.15-4.15V17.15c0-2.29,1.86-4.15,4.15-4.15H116.06c2.29,0,4.15,1.86,4.15,4.15v14.17H48.46c-9.45,0-17.15,7.69-17.15,17.15V120.2h-14.17Zm134.37,27.17c0,2.29-1.86,4.15-4.15,4.15H48.46c-2.29,0-4.15-1.86-4.15-4.15v-14.17H116.06c9.45,0,17.15-7.69,17.15-17.15V44.31h14.17c2.29,0,4.15,1.86,4.15,4.15v98.91Z"/></svg>