<svg id="Layer_1" enable-background="new 0 0 512 512" viewBox="0 0 512 512"
    xmlns="http://www.w3.org/2000/svg">
    <title>wolf</title>
    <path
        d="m69.505 0c-38.325 0-69.505 31.18-69.505 69.505s31.18 69.506 69.505 69.506 69.506-31.181 69.506-69.506-31.181-69.505-69.506-69.505z" />
    <g>
        <path
            d="m438.533 494.473c0 4.693 1.83 9.101 5.155 12.413 3.31 3.298 7.701 5.112 12.37 5.112h.063c9.63-.033 17.466-7.895 17.466-17.525v-126.009c-10.428 7.205-22.095 12.942-35.053 17.239v108.77z" />
        <path
            d="m369.804 395.387v98.579c0 4.693 1.83 9.102 5.155 12.413 3.31 3.298 7.701 5.112 12.37 5.112h.063c10.081-.034 18.282-7.668 18.282-17.018v-101.32c-10.868 1.484-22.424 2.234-34.713 2.234z" />
        <path
            d="m512 28.976c0-3.753-2.224-7.15-5.664-8.651l-26.583-11.601c-.94-.412-1.742-.2-2.251.048-.508.249-1.168.753-1.422 1.747l-4.126 16.129c-3.265 12.758-13.24 22.616-26.035 25.728l-23.038 5.604c-2.074.505-3.974 1.511-5.668 2.81-.008.006-.015.012-.023.018l-33.688 25.711c-.936.714-.331 2.207.838 2.068l23.591-2.806c5.619-.662 11.187 1.602 14.736 6.009 3.549 4.406 4.581 10.329 2.732 15.677l-22.064 63.795c-7.419 21.453-22.52 38.683-42.52 48.517l-.636.31c-10.426 5.036-21.896 7.763-34.068 8.092l-57.55 1.556c-21.807.59-42.388 5.161-61.168 13.584-38.863 17.428-56.963 44.031-56.963 83.72v166.921c0 9.554 7.818 17.691 17.37 17.532 9.286-.155 16.793-7.757 16.793-17.079v-86.303c0-9.074 7.356-16.43 16.43-16.43h6.813c33.236 0 60.178-26.943 60.178-60.178v-11.533c0-9.209 7.536-17.03 16.744-16.858 8.929.167 16.116 7.458 16.116 16.427v11.964c0 10.875-1.892 21.313-5.337 31.022h75.422c84.658 0 141.04-34.04 141.04-200.167v-133.383z" />
        <path
            d="m117.571 327.041c0-23.542 5.139-44.191 15.324-61.87l-121.946 67.192c-5.152 2.839-5.891 9.945-1.435 13.784 33.434 23.259 77.202 21.161 108.056-2.689v-16.417z" />
        <path
            d="m251.89 494.791v-81.382c-10.449 5.643-22.082 9.365-34.436 10.64v70.366c0 .083-.006.165-.006.248 0 .042.006.083.006.125 0 9.491 7.728 17.212 17.227 17.212 9.49 0 17.209-7.72 17.209-17.209z" />
    </g>
</svg>