<svg xmlns="http://www.w3.org/2000/svg" viewBox="0 0 312.95 262.1"><g id="Layer_2" data-name="Layer 2"><path d="M136,129s19,36.67,40.33,37c0,0-4,12,2.34,21.67C178.67,187.67,123.33,180,136,129Z" transform="translate(-26.4 -32.1)"/><path d="M228,129s-19,36.67-40.33,37c0,0,4,12-2.34,21.67C185.33,187.67,240.67,180,228,129Z" transform="translate(-26.4 -32.1)"/><path d="M186.15,175.31c0,3.2-1.78,5.79-4,5.79s-4-2.59-4-5.79,1.77-5.79,4-5.79S186.15,172.11,186.15,175.31Z" transform="translate(-26.4 -32.1)"/><path d="M187.75,150.25s24.5-28.5,27-43.5c0,0,1.12-9.22,1.63-13.25.42-3.39,14.18.75,11.31,10.81-3,10.38-16.23,41.11-31.44,48.69C187.59,157.31,187.26,151.55,187.75,150.25Z" transform="translate(-26.4 -32.1)"/><path d="M176.49,150.25s-24.5-28.5-27-43.5c0,0-1.12-9.22-1.63-13.25-.42-3.39-14.19.75-11.31,10.81,3,10.38,16.22,41.11,31.44,48.69C176.64,157.31,177,151.55,176.49,150.25Z" transform="translate(-26.4 -32.1)"/></g><g id="Layer_3" data-name="Layer 3"><path d="M213,53.83c-1.12-10.4-14.41-11.35-13.88-8,.64,4,.46,13.36.46,13.36,1.25,10.57-5.2,30.39-9.19,41.35,0,0,2.69-43.85,1.45-55.1s-9.26-13.25-9.26-13.25l-.46-.11-.54.11s-8.24,2-9.5,13.25,1.45,55.1,1.45,55.1c-4-11-10.44-30.78-9.19-41.35,0,0-.18-9.34.46-13.36.53-3.37-12.75-2.42-13.88,8-1.46,13.5,6.79,45.88,15.21,57.84,4,5.73,5.62,11.84,15.45,11.42l.54,0,.46,0c9.84.42,11.18-5.69,15.21-11.42C206.25,99.71,214.5,67.33,213,53.83Zm-30.92.92c-2.21,0-4-2.13-4-4.75s1.8-4.75,4-4.75,4,2.13,4,4.75S184.34,54.75,182.12,54.75Z" transform="translate(-26.4 -32.1)"/></g><g id="Layer_4" data-name="Layer 4"><path d="M74.84,237.7c-1.73,0-3.44,0-5.12.05s-3.38,0-5.08-.1a.61.61,0,0,1-.47-.18.34.34,0,0,1-.08-.42,4.87,4.87,0,0,0,.23-1.27c0-.42,0-.85,0-1.28,0-2.4-.11-4.92-.35-7.58s-.5-5.17-.8-7.57c-.1-.73-.18-1.38-.25-1.95s-.13-1.12-.2-1.68-.13-1.1-.2-1.67-.13-1.22-.2-2q-2.25,4.35-4.35,8.75t-4.2,8.85c-.6,1.27-1.2,2.54-1.8,3.83s-1.22,2.57-1.85,3.87a.48.48,0,0,1-.45.25.89.89,0,0,1-.55-.2,57.15,57.15,0,0,1-5.32-8.7q-2.24-4.5-4.33-9.15c-.37-.77-.67-1.44-.92-2s-.5-1.15-.73-1.68-.48-1.08-.75-1.65-.6-1.22-1-1.95c-.07.93-.16,1.87-.27,2.8s-.25,1.85-.38,2.75q-.49,3.45-.9,7a62.23,62.23,0,0,0-.4,7v1.45c0,.57,0,1,0,1.3a1.62,1.62,0,0,0,.15.7.89.89,0,0,0,.37.4,5.53,5.53,0,0,0,.75.35h0l.88.35,1.12.5c.27.1.38.26.33.47s-.24.33-.58.33c-1.7,0-3.41,0-5.12.05s-3.43,0-5.13-.1c-.27,0-.42-.14-.47-.32a.42.42,0,0,1,.17-.48s.18,0,.53-.05l.77-.15a8.93,8.93,0,0,0,1-.23,1.28,1.28,0,0,0,.72-.77,12.76,12.76,0,0,0,.43-1.92c.18-1.06.37-2.38.57-4s.42-3.39.65-5.38.46-4,.68-6.07.43-4.11.65-6.13.41-3.87.57-5.57c.17-1.5.31-2.81.43-3.93s.2-1.92.27-2.42a.5.5,0,0,1,.35-.4.59.59,0,0,1,.6.15,8.37,8.37,0,0,1,1.3,1.78c.53.88,1.14,1.94,1.8,3.17s1.38,2.62,2.15,4.15,1.55,3.12,2.35,4.75l2.4,4.9q1.2,2.44,2.25,4.65c.84,1.73,1.48,3.11,2,4.13s.89,1.85,1.25,2.52q1.3-2.65,2.5-5.2t2.4-5.2q1-2.25,2-4.45t2.1-4.5l1-2.2q1-2.1,2.05-4.25a38.38,38.38,0,0,1,2.4-4.2.72.72,0,0,1,.63-.2.43.43,0,0,1,.42.4q.4,3.3.78,6.62t.72,6.63c0,.37.08.86.13,1.48s.1,1.29.17,2c.07,1,.15,2,.25,3.17s.22,2.32.35,3.5.27,2.36.4,3.5.29,2.22.45,3.2.34,1.85.53,2.58a6.14,6.14,0,0,0,.57,1.6,2.83,2.83,0,0,0,1.33,1.28,9.18,9.18,0,0,0,1.52.42l1,.23a5.45,5.45,0,0,1,1.07.37Z" transform="translate(-26.4 -32.1)"/><path d="M93.44,234.6l-.4.2a4.14,4.14,0,0,1-1.15.1l-1.82,0-1.85,0-1.23,0c-.53,0-1.07,0-1.6,0l-1.6,0-3.6,0c-1.2,0-2.38,0-3.55-.08a.4.4,0,0,1-.42-.47c0-.29.17-.43.47-.43a2,2,0,0,0,1.85-.87,4.59,4.59,0,0,0,.45-2.18v-20.5a1.22,1.22,0,0,0-.47-1.13,3.34,3.34,0,0,0-1-.37l-.82-.2a2.72,2.72,0,0,1-.83-.35c-.26-.13-.35-.3-.25-.5a.6.6,0,0,1,.6-.3l1.18,0,1.62,0c1,0,2,.06,3.15.07s2.28,0,3.45,0c1.67,0,3.18,0,4.55-.1a11.4,11.4,0,0,0,2.75-.35.72.72,0,0,1,.6.05.34.34,0,0,1,.2.4,13.82,13.82,0,0,1-.3,1.75c-.13.53-.27,1.07-.4,1.6a6.59,6.59,0,0,0-.15.65,3.29,3.29,0,0,1-.15.6c-.07.23-.27.35-.6.35s-.51-.13-.55-.4a2.48,2.48,0,0,0-.4-1.35,2.32,2.32,0,0,0-.9-.77A3.9,3.9,0,0,0,89,209.7a9.42,9.42,0,0,0-1.4-.1l-.77,0q-.37,0-.78,0l-.75,0c-.27,0-.53,0-.8,0h-.9v9.55h6a1.79,1.79,0,0,0,.65-.17c.27-.12.55-.23.85-.33h0a2.55,2.55,0,0,0,.73-.55,1.59,1.59,0,0,1,.62-.45.61.61,0,0,1,.58.08.4.4,0,0,1,.17.42c-.06.43-.12.95-.17,1.55s-.11,1.12-.18,1.55-.13.8-.2,1.2-.13.83-.2,1.3a.46.46,0,0,1-.35.35.55.55,0,0,1-.55-.1q-.6-.34-.57-.48a1.37,1.37,0,0,0,0-.37c-.1-.3-.21-.58-.32-.85a1.24,1.24,0,0,0-.33-.5,2.34,2.34,0,0,0-1-.32,13.15,13.15,0,0,0-1.67-.18c-.62,0-1.23-.05-1.83-.05H83.59v9.7a4.52,4.52,0,0,0,2.25,1.6,8.58,8.58,0,0,0,2.75.5,5.88,5.88,0,0,0,3-.77,3.87,3.87,0,0,0,1.8-2.53.41.41,0,0,1,.25-.23.93.93,0,0,1,.4,0,.8.8,0,0,1,.38.14.26.26,0,0,1,.12.28Z" transform="translate(-26.4 -32.1)"/><path d="M122.39,212.6c-.06.23-.27.35-.6.35a.5.5,0,0,1-.55-.35,2.67,2.67,0,0,0-1.62-2.22,8.13,8.13,0,0,0-2.88-.48h-.8c-.26,0-.55,0-.85,0a9.41,9.41,0,0,1-1,.05h-1a1.29,1.29,0,0,0-.47.05s-.19,0-.43-.05v20.7a4.55,4.55,0,0,0,.08.58c.05.28.1.58.15.89s.11.61.17.86.13.39.2.42h0a1.8,1.8,0,0,0,.63.15l.72.1a7.72,7.72,0,0,1,1,.15.92.92,0,0,1,.67.5.37.37,0,0,1,0,.45.65.65,0,0,1-.55.2c-1.7,0-3.39,0-5.07-.05s-3.38-.08-5.08-.15c-.3,0-.46-.13-.47-.4s.12-.43.42-.5a10.59,10.59,0,0,0,1.25-.23,1.37,1.37,0,0,0,.75-.42,1.67,1.67,0,0,0,.35-.83,7.55,7.55,0,0,0,.1-1.42V210h-6.35a3.24,3.24,0,0,0-2,.7,5.35,5.35,0,0,0-1.48,1.7.58.58,0,0,1-.6.25.54.54,0,0,1-.5-.35,2.79,2.79,0,0,1,0-.65,5.71,5.71,0,0,1,.25-1.5c.17-.57.34-1.1.5-1.6a3.94,3.94,0,0,0,.18-.55c.05-.2.11-.4.17-.6a.53.53,0,0,1,.35-.32.66.66,0,0,1,.5,0,2.27,2.27,0,0,0,.68.28l1,.22c.34.07.66.12,1,.17a4.09,4.09,0,0,0,.77.08h17.85a2.57,2.57,0,0,0,.65-.1l.8-.2h-.05a.79.79,0,0,1,.4-.12l.55-.08c.43-.07.65.08.65.45v.8A18.35,18.35,0,0,1,122.39,212.6Z" transform="translate(-26.4 -32.1)"/><path d="M150,234.85c-.8,0-1.61.05-2.45.05l-1.75,0L144,234.8a.52.52,0,0,1-.52-.25c-.09-.17,0-.33.17-.5l.45-.55q-1-2.35-1.95-4.5t-2-4.5h-8.05c-.26.53-.56,1.22-.9,2.05s-.66,1.67-1,2.5-.61,1.61-.82,2.33a6,6,0,0,0-.33,1.52c0,.37.22.61.65.72s.82.21,1.15.28.49.19.48.48-.19.42-.53.42l-8.8-.15.2-.9a1.65,1.65,0,0,0,1.05-.05,3.34,3.34,0,0,0,1-.62,6.68,6.68,0,0,0,.93-1,7.92,7.92,0,0,0,.67-1q1-2.4,2.08-4.93c.71-1.68,1.41-3.32,2.07-4.92,1-2.37,1.94-4.72,2.93-7.05s2-4.67,3-7c.13-.23.39-.3.75-.2a1.74,1.74,0,0,1,.7.65,10.53,10.53,0,0,1,.7,1.13,11.57,11.57,0,0,1,.65,1.32c.2.47.39.88.55,1.25v0c.1.23.19.44.25.62a2.55,2.55,0,0,0,.2.43v0l2.2,5.15c1,2.4,2.08,4.83,3.13,7.27s2.21,4.83,3.47,7.13a2.86,2.86,0,0,0,1.65,1.5,9.91,9.91,0,0,0,2.15.45v.9Q151.19,234.81,150,234.85ZM136.09,214c-.56,1.47-1.07,2.86-1.52,4.17s-1,2.73-1.63,4.23h6.35Z" transform="translate(-26.4 -32.1)"/><path d="M175.42,229.92a1.27,1.27,0,0,0,0,.28c-.07.67-.13,1.33-.2,2a4.93,4.93,0,0,1-.6,1.88.44.44,0,0,0,.2,0s.1,0,.2,0l-.15.9c-.77-.07-1.54-.11-2.32-.12l-2.33,0h-2.4c-.77,0-1.55,0-2.35.05l-2.05,0-2,0c-1.73,0-3.42,0-5.05-.15-.33,0-.49-.19-.47-.47s.19-.43.52-.43a1.92,1.92,0,0,0,1.8-.9,4.57,4.57,0,0,0,.45-2.15v-20.3c0-.77-.17-1.24-.52-1.43a2.86,2.86,0,0,0-1.08-.32,6.5,6.5,0,0,1-1-.18.94.94,0,0,1-.68-.42.35.35,0,0,1,0-.45.66.66,0,0,1,.52-.2h2.8l1.48,0q.72,0,1.47,0c.73,0,1.48,0,2.23.05a9.19,9.19,0,0,1,2.17.35.4.4,0,0,1,.35.48c0,.24-.2.37-.5.37h-.6a2,2,0,0,0-1.47.37,1.63,1.63,0,0,0-.63,1.38v18.65a3.41,3.41,0,0,0,.43,1.75,3.9,3.9,0,0,0,1.1,1.25,4.86,4.86,0,0,0,1.55.75,6.26,6.26,0,0,0,1.77.25,7.38,7.38,0,0,0,3.58-1,6.55,6.55,0,0,0,2.67-2.7.68.68,0,0,1,.7-.22q.45.08.45.42A1.8,1.8,0,0,1,175.42,229.92Z" transform="translate(-26.4 -32.1)"/><path d="M240.44,201.8a2.41,2.41,0,0,0-.6,0l-.55,0a1.35,1.35,0,0,0-.87.25,2.71,2.71,0,0,0-.63.75,18.05,18.05,0,0,0-1.37,3.23q-.73,2.11-1.45,4.67c-.49,1.7-.95,3.42-1.4,5.18s-.85,3.32-1.18,4.72c-.13.5-.24,1-.32,1.43s-.18.85-.28,1.22q-1,3.65-2.07,7.37a69.33,69.33,0,0,1-2.63,7.43.46.46,0,0,1-.5.3.58.58,0,0,1-.55-.25,76,76,0,0,1-4.1-9.25q-1.84-5-3.45-9.85c-.57-1.63-1.06-3.12-1.47-4.45s-.93-2.8-1.53-4.4c-.83,2-1.67,4.07-2.5,6.23s-1.63,4.24-2.4,6.27c-.4,1.1-.86,2.32-1.37,3.65s-1.05,2.7-1.58,4.1-1.07,2.77-1.6,4.1-1,2.53-1.5,3.6a.5.5,0,0,1-.52.28.77.77,0,0,1-.58-.28q-1.59-5.1-2.77-9.32t-2-8.38q-.8-4.05-1.65-8.07a52.82,52.82,0,0,0-2.15-7.53,1.66,1.66,0,0,0-.1-.33c-.07-.18-.15-.39-.25-.62l-.3-.68-.2-.42.1.05a2.43,2.43,0,0,0-.85-.58,7.69,7.69,0,0,0-.9-.27,4.23,4.23,0,0,1-1.85-.7c-.27-.13-.35-.29-.25-.47a.61.61,0,0,1,.6-.28c2,0,4.07,0,6.1.05s4.07.08,6.1.15c.33,0,.52.17.55.4s-.1.38-.4.45a4.64,4.64,0,0,1-.62.2l-.48.1c-.26.07-.52.14-.77.23a2,2,0,0,0-.68.37c.17,1.5.4,3.19.7,5.08s.61,3.8.93,5.75.64,3.84,1,5.69.64,3.5.93,4.95.59,3.06.92,4.83c.74-1.9,1.39-3.62,2-5.15l2-5.27c.75-2,1.52-4,2.32-6.05l2.35-6.06q1.16-3,2.05-5.27a.52.52,0,0,1,.5-.3.66.66,0,0,1,.55.25,90.24,90.24,0,0,1,4,9.65q1.85,5.25,3.6,10.5c.27.8.5,1.53.7,2.17s.4,1.28.6,1.88.41,1.2.63,1.8.46,1.27.72,2q.86-2.75,1.83-6.18t1.8-7c.55-2.38,1-4.69,1.37-6.92a36.81,36.81,0,0,0,.55-6A.78.78,0,0,0,232,202a12.49,12.49,0,0,0-1.38-.28,1.75,1.75,0,0,0-.4-.05.62.62,0,0,1-.25,0q-.45-.1-.42-.48c0-.25.17-.39.47-.42a14.05,14.05,0,0,1,2.9,0,28.31,28.31,0,0,0,2.9.15,15.85,15.85,0,0,0,2.48-.2,4.77,4.77,0,0,1,2.37.2Z" transform="translate(-26.4 -32.1)"/><path d="M259.39,234.6l-.4.2a4.14,4.14,0,0,1-1.15.1l-1.82,0-1.85,0-1.23,0-1.6,0-1.6,0-3.6,0c-1.2,0-2.38,0-3.55-.08a.4.4,0,0,1-.42-.47c0-.29.17-.43.47-.43a2,2,0,0,0,1.85-.87,4.59,4.59,0,0,0,.45-2.18v-20.5a1.22,1.22,0,0,0-.47-1.13,3.34,3.34,0,0,0-1-.37l-.82-.2a2.72,2.72,0,0,1-.83-.35c-.26-.13-.35-.3-.25-.5a.6.6,0,0,1,.6-.3l1.18,0,1.62,0c1,0,2,.06,3.15.07s2.29,0,3.45,0c1.67,0,3.18,0,4.55-.1a11.32,11.32,0,0,0,2.75-.35.72.72,0,0,1,.6.05.36.36,0,0,1,.2.4,13.82,13.82,0,0,1-.3,1.75l-.4,1.6a6.59,6.59,0,0,0-.15.65,3.29,3.29,0,0,1-.15.6c-.07.23-.26.35-.6.35s-.51-.13-.55-.4a2.57,2.57,0,0,0-.4-1.35,2.32,2.32,0,0,0-.9-.77,4,4,0,0,0-1.25-.38,9.42,9.42,0,0,0-1.4-.1l-.77,0q-.37,0-.78,0l-.75,0c-.27,0-.53,0-.8,0h-.9v9.55h6a1.83,1.83,0,0,0,.65-.17c.27-.12.55-.23.85-.33H257a2.55,2.55,0,0,0,.73-.55,1.59,1.59,0,0,1,.62-.45.61.61,0,0,1,.58.08.4.4,0,0,1,.17.42c-.06.43-.12.95-.17,1.55s-.11,1.12-.18,1.55-.13.8-.2,1.2-.13.83-.2,1.3a.46.46,0,0,1-.35.35.55.55,0,0,1-.55-.1q-.6-.34-.57-.48a1,1,0,0,0,0-.37c-.1-.3-.21-.58-.32-.85a1.24,1.24,0,0,0-.33-.5,2.34,2.34,0,0,0-1-.32,13.15,13.15,0,0,0-1.67-.18c-.62,0-1.23-.05-1.83-.05h-2.15v9.7a4.48,4.48,0,0,0,2.25,1.6,8.53,8.53,0,0,0,2.75.5,5.88,5.88,0,0,0,3-.77,3.87,3.87,0,0,0,1.8-2.53.39.39,0,0,1,.25-.23.91.91,0,0,1,.4,0,.8.8,0,0,1,.38.14.26.26,0,0,1,.12.28Z" transform="translate(-26.4 -32.1)"/><path d="M291.34,234.85c-.8,0-1.62.05-2.45.05l-1.75,0-1.75-.08c-.27,0-.44-.08-.52-.25s0-.33.17-.5l.45-.55q-1-2.35-1.95-4.5t-2-4.5h-8.05c-.27.53-.57,1.22-.9,2.05l-1,2.5c-.33.83-.61,1.61-.82,2.33a6,6,0,0,0-.33,1.52c0,.37.22.61.65.72s.82.21,1.15.28.49.19.48.48-.2.42-.53.42l-8.8-.15.2-.9a1.66,1.66,0,0,0,1.05-.05,3.34,3.34,0,0,0,1.05-.62,7.25,7.25,0,0,0,.93-1,9.17,9.17,0,0,0,.67-1q1-2.4,2.08-4.93l2.07-4.92c1-2.37,1.94-4.72,2.93-7.05s2-4.67,3-7c.13-.23.38-.3.75-.2a1.81,1.81,0,0,1,.7.65,12.41,12.41,0,0,1,.7,1.13,13.51,13.51,0,0,1,.65,1.32c.2.47.38.88.55,1.25v0c.1.23.19.44.25.62a2,2,0,0,0,.2.43v0l2.2,5.15c1,2.4,2.08,4.83,3.13,7.27s2.2,4.83,3.47,7.13a2.86,2.86,0,0,0,1.65,1.5,9.91,9.91,0,0,0,2.15.45v.9Q292.54,234.81,291.34,234.85ZM277.44,214c-.56,1.47-1.07,2.86-1.52,4.17s-1,2.73-1.63,4.23h6.35Z" transform="translate(-26.4 -32.1)"/><path d="M317.22,208.67l-.43.08a5.8,5.8,0,0,0-1,.28,2,2,0,0,0-.75.47,10.51,10.51,0,0,0-.75,1.15c-.27.47-.54,1-.82,1.5s-.56,1.09-.83,1.68l-.75,1.62q-.26.56-.45,1.05a5.4,5.4,0,0,1-.45.9c-.27.57-.57,1.18-.9,1.85s-.63,1.3-.9,1.9c-1.13,2.4-2.27,4.77-3.42,7.13s-2.35,4.7-3.58,7.07a.83.83,0,0,1-.52.23.68.68,0,0,1-.53-.18,51.75,51.75,0,0,1-3.87-7c-1.19-2.54-2.31-5.07-3.38-7.57-.5-1.13-1-2.27-1.47-3.43s-1-2.22-1.48-3.22H291a4.48,4.48,0,0,1-.35-.65c-.1-.23-.22-.48-.35-.75q-.4-.75-.72-1.47a7.62,7.62,0,0,0-.68-1.23,1.52,1.52,0,0,0-.82-.8A10.74,10.74,0,0,0,287,209l-.82-.2a2.72,2.72,0,0,1-.83-.35c-.27-.1-.35-.26-.25-.48a.6.6,0,0,1,.6-.32c.57,0,1.11,0,1.63,0l1.62,0h1.85c.9,0,1.73,0,2.5-.07s1.72-.08,2.85-.08c.3,0,.43.15.38.45a.43.43,0,0,1-.53.4,1.29,1.29,0,0,0-.85.3,7,7,0,0,1-.8.5,56.15,56.15,0,0,0,2.68,7.62q1.62,3.78,3.32,7.43c.2.47.39.88.58,1.25s.35.72.5,1.07.3.71.47,1.08.35.8.55,1.3l1.15-2.3q1.05-2.1,2.28-4.65t2.3-5c.71-1.66,1.31-3.18,1.8-4.58a11,11,0,0,0,.72-3.3c0-.07-.18-.13-.55-.2s-.68-.12-.95-.15a.69.69,0,0,1-.2,0l-.15,0c-.33,0-.5-.13-.5-.4s.17-.45.5-.45l2.13-.08,2.17,0,2.15,0,2.2.08.1.85A3,3,0,0,1,317.22,208.67Z" transform="translate(-26.4 -32.1)"/><path d="M338.29,234.6l-.4.2a4.14,4.14,0,0,1-1.15.1l-1.82,0-1.85,0-1.23,0c-.53,0-1.07,0-1.6,0l-1.6,0-3.6,0c-1.2,0-2.38,0-3.55-.08a.4.4,0,0,1-.42-.47c0-.29.17-.43.47-.43a2,2,0,0,0,1.85-.87,4.59,4.59,0,0,0,.45-2.18v-20.5a1.22,1.22,0,0,0-.47-1.13,3.34,3.34,0,0,0-1-.37l-.82-.2a2.72,2.72,0,0,1-.83-.35c-.27-.13-.35-.3-.25-.5a.6.6,0,0,1,.6-.3l1.18,0,1.62,0c1,0,2,.06,3.15.07s2.28,0,3.45,0c1.67,0,3.18,0,4.55-.1a11.4,11.4,0,0,0,2.75-.35.72.72,0,0,1,.6.05.36.36,0,0,1,.2.4,12.23,12.23,0,0,1-.3,1.75c-.13.53-.27,1.07-.4,1.6a4.6,4.6,0,0,0-.15.65,3.29,3.29,0,0,1-.15.6c-.07.23-.27.35-.6.35s-.52-.13-.55-.4a2.57,2.57,0,0,0-.4-1.35,2.32,2.32,0,0,0-.9-.77,4,4,0,0,0-1.25-.38,9.32,9.32,0,0,0-1.4-.1l-.77,0q-.37,0-.78,0l-.75,0c-.26,0-.53,0-.8,0h-.9v9.55h6a1.83,1.83,0,0,0,.65-.17c.27-.12.55-.23.85-.33h-.05a2.55,2.55,0,0,0,.73-.55,1.59,1.59,0,0,1,.62-.45.61.61,0,0,1,.58.08.4.4,0,0,1,.17.42c-.07.43-.12.95-.17,1.55s-.11,1.12-.18,1.55-.13.8-.2,1.2-.13.83-.2,1.3a.46.46,0,0,1-.35.35.55.55,0,0,1-.55-.1q-.6-.34-.57-.48a1.37,1.37,0,0,0,0-.37c-.1-.3-.21-.58-.32-.85a1.24,1.24,0,0,0-.33-.5,2.4,2.4,0,0,0-1-.32,13.15,13.15,0,0,0-1.67-.18c-.62,0-1.23-.05-1.83-.05h-2.15v9.7a4.48,4.48,0,0,0,2.25,1.6,8.53,8.53,0,0,0,2.75.5,5.88,5.88,0,0,0,2.95-.77,3.87,3.87,0,0,0,1.8-2.53.39.39,0,0,1,.25-.23.91.91,0,0,1,.4,0,.8.8,0,0,1,.38.14c.11.09.16.18.12.28Z" transform="translate(-26.4 -32.1)"/><path d="M146.24,276.38a3.62,3.62,0,0,0-1,.45,1.93,1.93,0,0,0-.67.72,2.31,2.31,0,0,0-.25,1.15v12.45a.36.36,0,0,1-.25.35,10,10,0,0,1-2.63,1.42,18.08,18.08,0,0,1-3,.83,20.63,20.63,0,0,1-3.1.37c-1,.05-2,.08-2.95.08-1.5,0-3-.05-4.4-.15A17.06,17.06,0,0,1,121,292a19,19,0,0,1-5.48-4.5,19.88,19.88,0,0,1-3.5-6.17,21.11,21.11,0,0,1-1.22-7.15,18.17,18.17,0,0,1,1.62-7.87,16.66,16.66,0,0,1,4.4-5.75,18.61,18.61,0,0,1,6.5-3.5,26,26,0,0,1,7.93-1.18,40.54,40.54,0,0,1,4.52.25c1.52.17,3,.35,4.43.55l1.92.3c.62.1,1.26.18,1.93.25a.55.55,0,0,1,.4.15.43.43,0,0,1,.15.3v.65c0,.53,0,1.23,0,2.08s-.1,1.68-.2,2.5a15.6,15.6,0,0,1-.43,2.2,1.85,1.85,0,0,1-.67,1.17.88.88,0,0,1-.55,0,.41.41,0,0,1-.3-.33,9.31,9.31,0,0,0-1.35-3.6,9,9,0,0,0-2.45-2.47,10,10,0,0,0-3.25-1.43,15.41,15.41,0,0,0-3.75-.45,17.36,17.36,0,0,0-6.23,1.1,15,15,0,0,0-5,3.12,14.39,14.39,0,0,0-3.32,4.86,15.71,15.71,0,0,0-1.2,6.22,16.23,16.23,0,0,0,.65,4.6,21.33,21.33,0,0,0,1.77,4.32,19.75,19.75,0,0,0,2.7,3.83,20.1,20.1,0,0,0,3.43,3.05,8.48,8.48,0,0,0,2,1,18,18,0,0,0,2.33.71,24.47,24.47,0,0,0,2.42.42,18.53,18.53,0,0,0,2.23.15,15.35,15.35,0,0,0,3.05-.32,5.32,5.32,0,0,0,2.7-1.48V278.55a1.53,1.53,0,0,0-.63-1.4,6.74,6.74,0,0,0-1.32-.65l-1-.28a3.8,3.8,0,0,1-.9-.37c-.27-.13-.36-.31-.28-.52a.55.55,0,0,1,.58-.33c2,0,3.92,0,5.87.05s3.91.1,5.88.2l.05.85A7.47,7.47,0,0,0,146.24,276.38Z" transform="translate(-26.4 -32.1)"/><path d="M177.82,290.85c-.8,0-1.62,0-2.45,0l-1.75,0-1.75-.08c-.27,0-.45-.08-.53-.25s0-.33.18-.5l.45-.55q-1-2.36-1.95-4.5c-.64-1.43-1.3-2.93-2-4.5H160c-.27.53-.57,1.22-.9,2.05s-.67,1.67-1,2.5-.61,1.61-.83,2.33a5.89,5.89,0,0,0-.32,1.52c0,.37.21.61.65.72s.81.21,1.15.28.49.19.47.48-.19.42-.52.42l-8.8-.15.2-.9a1.66,1.66,0,0,0,1.05-.05,3.58,3.58,0,0,0,1-.62,6.62,6.62,0,0,0,.92-1,9.4,9.4,0,0,0,.68-1q1-2.4,2.07-4.93t2.08-4.92c1-2.37,1.94-4.72,2.92-7.05s2-4.67,3-7c.13-.23.38-.3.75-.2a1.88,1.88,0,0,1,.7.65c.23.33.46.71.7,1.13a13.51,13.51,0,0,1,.65,1.32c.2.47.38.88.55,1.25v-.05c.1.23.18.44.25.62a1.58,1.58,0,0,0,.2.43v-.05l2.2,5.15,3.12,7.27q1.58,3.67,3.48,7.13a2.86,2.86,0,0,0,1.65,1.5,9.79,9.79,0,0,0,2.15.45v.9Q179,290.8,177.82,290.85ZM163.92,270q-.85,2.21-1.53,4.17t-1.62,4.23h6.35Z" transform="translate(-26.4 -32.1)"/><path d="M223.92,291q-4.3,0-8.55-.3a.55.55,0,0,1-.45-.18.37.37,0,0,1,0-.42,4.45,4.45,0,0,0,.12-.83c0-.31,0-.64,0-1a50.18,50.18,0,0,0-.3-5.45c-.2-1.83-.42-3.67-.65-5.5-.07-.57-.14-1-.2-1.42s-.13-.76-.18-1.1l-.15-1.08c0-.37-.09-.83-.12-1.4q-1.9,3.1-3.58,6.28L206.47,285q-.75,1.46-1.5,2.85c-.5.93-1,1.87-1.55,2.8a.55.55,0,0,1-.43.28.75.75,0,0,1-.52-.18,32.83,32.83,0,0,1-2.38-3.12c-.75-1.12-1.47-2.26-2.17-3.43s-1.36-2.34-2-3.53-1.21-2.32-1.77-3.42c-.27-.53-.5-1-.68-1.35L193,274.8c-.17-.33-.35-.68-.53-1.05s-.42-.8-.72-1.3c-.07.67-.15,1.3-.25,1.9s-.2,1.22-.3,1.85c-.27,1.73-.51,3.47-.73,5.2a40.8,40.8,0,0,0-.32,5.15v.8c0,.47,0,.83,0,1.1a2.29,2.29,0,0,0,.1.6.46.46,0,0,0,.25.28l.48.17a3.24,3.24,0,0,0,.57.17,7.11,7.11,0,0,1,1.18.48c.26.1.36.27.3.5a.5.5,0,0,1-.55.35c-1.44,0-2.86,0-4.28-.05s-2.84-.08-4.27-.15c-.3,0-.46-.18-.48-.42s.13-.41.43-.48a3.08,3.08,0,0,1,.8-.1c.3,0,.58-.08.85-.13a.83.83,0,0,0,.6-.47,9.35,9.35,0,0,0,.4-1.75c.16-1,.35-2.15.55-3.55s.4-3,.62-4.68.43-3.42.63-5.12.38-3.32.55-4.85.31-2.83.45-3.9c.06-.43.11-.82.15-1.18s.06-.62.1-.82a.48.48,0,0,1,.37-.4.71.71,0,0,1,.63.1,11.47,11.47,0,0,1,1.77,2.35q1.17,1.85,2.63,4.38t3,5.37q1.54,2.85,2.9,5.25c.7,1.27,1.21,2.23,1.55,2.9s.65,1.25,1,1.75q1.14-2.1,2.22-4.15l2.18-4.15c.5-1,1-1.92,1.52-2.87s1-1.91,1.53-2.88l.55-1,.55-1c.5-1,1-1.94,1.6-2.92s1.18-2,1.85-2.93A.63.63,0,0,1,216,263a.49.49,0,0,1,.43.38q.75,4.9,1.35,9.75c0,.27,0,.57.07.9s.06.73.13,1.2c.1,1,.2,2.22.32,3.58s.27,2.67.45,4,.38,2.48.6,3.55a5.9,5.9,0,0,0,.78,2.2,2,2,0,0,0,1.07.9,10,10,0,0,0,1.23.3,2.16,2.16,0,0,0,.67.08,2.54,2.54,0,0,1,1,.32Z" transform="translate(-26.4 -32.1)"/><path d="M244.82,290.6l-.4.2a4.24,4.24,0,0,1-1.15.1l-1.83,0-1.85-.05-1.22,0c-.54,0-1.07,0-1.6,0l-1.6,0c-1.21,0-2.4,0-3.6,0s-2.39,0-3.55-.08c-.31,0-.45-.19-.43-.47a.42.42,0,0,1,.48-.43,2,2,0,0,0,1.85-.87,4.71,4.71,0,0,0,.45-2.18v-20.5a1.2,1.2,0,0,0-.48-1.13,3.37,3.37,0,0,0-1-.37l-.83-.2a2.83,2.83,0,0,1-.83-.35c-.26-.13-.34-.3-.25-.5a.63.63,0,0,1,.61-.3l1.17,0,1.63,0c1,0,2,.06,3.15.07s2.28,0,3.44,0c1.67,0,3.19,0,4.56-.1a11.48,11.48,0,0,0,2.75-.35.72.72,0,0,1,.6.05.37.37,0,0,1,.2.4,13.82,13.82,0,0,1-.3,1.75c-.14.53-.27,1.07-.4,1.6-.07.23-.12.45-.16.65a4.34,4.34,0,0,1-.14.6c-.07.23-.27.35-.61.35s-.51-.13-.54-.4a2.66,2.66,0,0,0-.4-1.35,2.47,2.47,0,0,0-.9-.77,4.06,4.06,0,0,0-1.25-.38,9.55,9.55,0,0,0-1.41-.1l-.77,0c-.25,0-.51,0-.77,0l-.75,0-.8,0H235v9.55h6a1.88,1.88,0,0,0,.66-.17c.26-.12.55-.23.84-.33h0a2.66,2.66,0,0,0,.72-.55,1.69,1.69,0,0,1,.63-.45.59.59,0,0,1,.57.08.4.4,0,0,1,.18.42c-.07.43-.13.95-.18,1.55s-.11,1.12-.17,1.55l-.21,1.2c-.06.4-.13.83-.19,1.3a.48.48,0,0,1-.35.35.54.54,0,0,1-.55-.1c-.41-.23-.6-.39-.58-.48a1,1,0,0,0,0-.37c-.1-.3-.21-.58-.33-.85a1.36,1.36,0,0,0-.32-.5,2.4,2.4,0,0,0-1-.32,13.12,13.12,0,0,0-1.68-.18c-.62,0-1.23,0-1.82,0H235v9.7a4.57,4.57,0,0,0,2.25,1.6,8.58,8.58,0,0,0,2.75.5,5.91,5.91,0,0,0,3-.77,3.82,3.82,0,0,0,1.79-2.53.41.41,0,0,1,.25-.23,1,1,0,0,1,.41,0,.77.77,0,0,1,.37.14c.12.09.16.18.13.28Z" transform="translate(-26.4 -32.1)"/><path d="M263.62,287a10.17,10.17,0,0,1-2.86,2.45,14.35,14.35,0,0,1-3.67,1.52,13.67,13.67,0,0,1-3.58.53,11.38,11.38,0,0,1-1.75-.15,6.19,6.19,0,0,1-1.77-.55,4.28,4.28,0,0,1-1.4-1.08A2.56,2.56,0,0,1,248,288a4.76,4.76,0,0,1,.13-1,9.86,9.86,0,0,1,.32-1.07,3.83,3.83,0,0,0,.3-1.4.3.3,0,0,1,.2-.28,1.18,1.18,0,0,1,.41-.07.71.71,0,0,1,.37.1.33.33,0,0,1,.18.3v.6a2.81,2.81,0,0,0,.37,1.82,4.28,4.28,0,0,0,1.27,1.31,6.31,6.31,0,0,0,1.78.77,7.56,7.56,0,0,0,1.92.25A6.7,6.7,0,0,0,257,289a8.27,8.27,0,0,0,1.83-.78,4.53,4.53,0,0,0,1.39-1.25,2.85,2.85,0,0,0,.55-1.75,3.54,3.54,0,0,0-.52-1.8,12.15,12.15,0,0,0-1.35-1.85,20.18,20.18,0,0,0-1.85-1.85c-.68-.6-1.38-1.2-2.08-1.8s-1.59-1.35-2.37-2.05a28.45,28.45,0,0,1-2.13-2.12,11.39,11.39,0,0,1-1.52-2.16,4.64,4.64,0,0,1-.57-2.22,4.36,4.36,0,0,1,1.17-3.1,8.75,8.75,0,0,1,2.87-2,15.6,15.6,0,0,1,3.58-1.08,20,20,0,0,1,3.22-.32,19.44,19.44,0,0,1,4.2.45c.37.07.52.23.46.5v1.4c0,.67,0,1.34-.08,2a2.71,2.71,0,0,1-.67,1.67.71.71,0,0,1-.68.15.44.44,0,0,1-.37-.45,3.17,3.17,0,0,0-.43-1.65,4.06,4.06,0,0,0-1.1-1.2,5,5,0,0,0-1.5-.75,5.64,5.64,0,0,0-1.67-.25,5.38,5.38,0,0,0-3.16,1.05,3.87,3.87,0,0,0-1,1.25,3.64,3.64,0,0,0-.4,1.7,3.43,3.43,0,0,0,.48,1.7,8.45,8.45,0,0,0,1.25,1.67,16.36,16.36,0,0,0,1.72,1.58l1.86,1.45,2.34,1.83a16.37,16.37,0,0,1,2.16,2,11,11,0,0,1,1.55,2.2,5.33,5.33,0,0,1,.59,2.45A5.27,5.27,0,0,1,263.62,287Z" transform="translate(-26.4 -32.1)"/></g></svg>