<svg xmlns="http://www.w3.org/2000/svg" xmlns:xlink="http://www.w3.org/1999/xlink" width="110.83" height="87.584" viewBox="0 0 110.83 87.584"><defs><style>.a{fill:url(#a);}</style><linearGradient id="a" x1="0.5" x2="2.348" y2="1" gradientUnits="objectBoundingBox"><stop offset="0" stop-color="#fb3"/><stop offset="1" stop-color="#ea6c00"/></linearGradient></defs><g transform="translate(-1354.365 747.526)"><path class="a" d="M76.092,105.351v-2.019a12.032,12.032,0,0,0-2.52-7.13,13.9,13.9,0,0,0-5.129-4.521,12.3,12.3,0,0,0,5.391-5.565,21.674,21.674,0,0,0,1.035-7.136h0l.091-8.925h-.006l.006-.637a12.11,12.11,0,0,0-3.729-9c-2.544-2.579-5.55-3.87-7.463-3.87H41.262c-1.9,0-2.072.348-2.072,1.043v2.119a.58.58,0,0,0,.221.483l1.872,1.766a.975.975,0,0,1,.236.637v23.04s-.127,3.752-2.328,5.951c2.137,2.231,2.328,5.948,2.328,5.948V126.8q0,1.3.869,1.3H56.17c7.245,0,10.852-.581,13.924-1.739q6-2.171,6-8.347V105.351ZM56.615,84.981c0-7.708-.083-16.579-.083-19.48,0-.271.209-.3.519-.321a5.909,5.909,0,0,1,.961.012c.466.065,1.093.937,1.5,1.816.38.825.578,4.533.522,6.5l-.174,7.914a4.846,4.846,0,0,1-2.043,3.864,1.258,1.258,0,0,1-.613.206C56.948,85.5,56.615,85.541,56.615,84.981Zm.97,33.81h.336c-.64,0-.964.032-.958-.354V99.126c-.018-.339.206-.368.61-.315,1.889.256,2.75,1.654,2.806,4.958l.088,6.682C60.523,115.493,60.6,118.791,57.585,118.791Z" transform="translate(1315.175 -792.05)"/><path class="a" d="M455.238,152.761v-2.019a12.016,12.016,0,0,0-2.523-7.13,13.88,13.88,0,0,0-5.131-4.521,12.3,12.3,0,0,0,5.391-5.565,21.676,21.676,0,0,0,1.035-7.136h0l.091-8.925H454.1l.006-.637a12.11,12.11,0,0,0-3.729-9c-2.544-2.579-5.55-3.87-7.463-3.87H420.4c-1.9,0-2.072.348-2.072,1.043v2.119a.58.58,0,0,0,.221.483l1.872,1.766a.985.985,0,0,1,.239.637v23.04s-.127,3.752-2.328,5.948c2.137,2.231,2.328,5.948,2.328,5.948v29.268q0,1.3.87,1.3h13.782c7.245,0,10.852-.581,13.924-1.739q6-2.171,6-8.347V152.761ZM435.761,131.7c0-7.708-.029-15.341-.088-18.242,0-.522.174-.811.522-.87a3.347,3.347,0,0,1,.875-.021,3.448,3.448,0,0,1,1.583,1.845c.38.825.578,4.533.522,6.5L439,128.83a4.858,4.858,0,0,1-2.043,3.864l-.589.136C435.965,132.83,435.761,132.456,435.761,131.7Zm.97,34.5h.336q-.959,0-.958-1.129V147.178c0-.637.206-1.011.61-.958,1.889.256,2.75,1.654,2.806,4.958l.088,6.682C439.669,162.9,439.743,166.2,436.731,166.2Z" transform="translate(974.088 -851.486)"/><path class="a" d="M895.827,124.191c0-.984-.436-1.48-1.306-1.48-2.146-.056-8.15-.085-11.8-.085-.813,0-1.217.522-1.217,1.565a17.12,17.12,0,0,0,0,1.824v2.435c0,3.372.035,6.523-.038,8.68-.062,1.807-.707,2.694-1.715,2.694-1.276,0-1.577-.958-1.709-1.872-.215-1.48-.3-6.484-.3-8.108V119.466a10.418,10.418,0,0,1,2.326-5.883c-2.019-2.013-2.293-5.329-2.326-5.865v-2.567c0-4.772-.065-11.6-.05-13.278.021-2.449.168-4.536,1.786-4.527,1.9.009,1.9,2.1,1.942,4.336v8.689a1.436,1.436,0,0,0,1.653,1.477c-.292,0,4.118.059,7.018.174a30.213,30.213,0,0,0,4.347-.085,1.46,1.46,0,0,0,1.3-1.565q.084-1.388.085-4c.012-.548.044-15.68.044-15.68q0-2.091-.775-2.093h-2.175q-.7,0-1.008.987c-.133.424-.327.955-.569,1.571-2.393-2.547-7.286-3.826-11.589-3.826-5.161,0-11.342,2.346-13.894,7.044a19.04,19.04,0,0,0-2.523,9.217v14.05h-.006s-.127,3.752-2.328,5.948c2.137,2.231,2.328,5.948,2.328,5.948h.006v7.616q0,10.35,2.261,15.389c2.2,4.869,8.474,7.3,14.154,7.3,4.869,0,10.13-1.939,12.683-5.824q3.391-5.129,3.39-13.128Q895.914,126.45,895.827,124.191Z" transform="translate(569.326 -809.788)"/></g></svg>