<?xml version="1.0" standalone="no"?>
<!DOCTYPE svg PUBLIC "-//W3C//DTD SVG 20010904//EN"
 "http://www.w3.org/TR/2001/REC-SVG-20010904/DTD/svg10.dtd">
<svg version="1.0" xmlns="http://www.w3.org/2000/svg"
 width="888.000000pt" height="888.000000pt" viewBox="0 0 888.000000 888.000000"
 preserveAspectRatio="xMidYMid meet">
<metadata>
Created by potrace 1.11, written by Peter Selinger 2001-2013
</metadata>
<g transform="translate(0.000000,888.000000) scale(0.100000,-0.100000)"
fill="#000000" stroke="none">
<path d="M3107 7940 c-54 -17 -57 -23 -57 -149 l0 -117 85 -80 c46 -43 88 -90
93 -104 14 -43 8 -1915 -7 -1985 -27 -131 -82 -260 -139 -324 l-30 -34 47 -71
c47 -70 90 -167 107 -238 1 -5 3 -10 4 -13 20 -40 24 -250 26 -1330 1 -660 2
-1208 3 -1218 0 -10 11 -28 23 -40 l23 -23 690 2 c603 1 869 6 980 19 17 1 58
6 92 9 125 13 400 73 448 99 11 6 25 12 30 13 6 1 28 10 50 20 22 10 46 19 52
20 7 1 24 12 39 23 15 12 33 21 40 21 8 0 14 3 14 8 1 4 22 22 48 41 53 38
118 114 153 181 13 25 28 48 32 51 5 3 8 9 7 13 -1 3 6 30 14 59 8 29 19 78
23 108 9 70 9 1346 -1 1419 -15 114 -102 345 -141 372 -6 5 -6 8 0 8 6 0 6 3
-1 8 -5 4 -32 37 -58 74 -85 120 -210 238 -333 313 -53 32 -60 39 -48 51 7 8
16 14 19 14 6 0 91 56 120 80 44 35 153 150 181 191 16 24 32 46 35 49 10 10
62 113 65 129 2 9 13 54 25 101 12 47 24 103 26 125 2 22 6 51 9 65 15 64 24
1080 11 1165 -27 179 -94 344 -191 465 -41 52 -192 198 -245 237 -74 55 -226
139 -268 148 -10 2 -39 11 -67 19 -44 14 -172 16 -1025 15 -536 0 -988 -4
-1003 -9z m1505 -728 c42 -40 73 -105 83 -177 4 -27 9 -61 11 -75 2 -14 6
-104 9 -200 3 -96 5 -177 6 -180 1 -3 0 -9 -1 -15 -1 -5 -4 -100 -6 -210 -6
-312 -11 -447 -19 -480 -13 -55 -56 -133 -99 -180 -34 -37 -52 -48 -84 -52
-35 -5 -42 -2 -53 18 -10 19 -13 172 -15 699 -2 371 -3 716 -4 765 -1 50 2 98
5 107 9 22 73 37 105 24 14 -5 42 -25 62 -44z m5 -2680 c24 -13 65 -61 80 -92
49 -105 54 -182 56 -865 1 -317 -7 -410 -43 -492 -39 -88 -105 -126 -200 -114
-5 0 -16 13 -23 29 -12 22 -14 155 -13 784 1 733 2 758 20 771 16 12 26 12 62
1 24 -7 51 -17 61 -22z"/>
<path d="M65 6978 c-59 -12 -65 -26 -65 -154 l0 -111 84 -80 c46 -44 88 -89
93 -99 8 -16 12 -1939 4 -1939 -2 0 -4 -13 -5 -30 -9 -99 -86 -286 -146 -354
-29 -32 -29 -34 -12 -57 9 -13 20 -24 25 -24 4 0 7 -7 7 -15 0 -8 4 -15 8 -15
9 0 37 -54 30 -56 -1 -1 4 -10 13 -20 12 -16 29 -60 56 -149 24 -84 26 -165
28 -1331 1 -1275 1 -1273 43 -1289 19 -7 1538 1 1602 8 25 3 72 8 105 11 33 4
71 8 85 10 14 2 50 6 80 10 30 4 73 12 95 18 22 6 49 12 60 14 11 1 38 8 60
14 22 6 47 12 55 14 43 11 171 61 215 84 147 77 262 191 305 302 7 19 17 40
21 46 5 6 16 42 25 80 15 61 18 146 19 744 1 603 -2 723 -19 809 -25 121 -105
295 -176 384 -86 108 -119 146 -141 167 -42 40 -105 94 -129 110 -12 8 -28 21
-36 28 -7 6 -15 12 -18 12 -4 0 -25 12 -48 26 l-42 27 29 15 c42 22 136 91
187 138 132 122 225 282 253 433 3 14 7 37 10 51 19 80 23 125 30 285 7 194 9
949 2 1010 -17 146 -86 318 -180 445 -43 59 -174 192 -220 225 -16 11 -38 28
-50 37 -43 34 -58 43 -144 89 -53 28 -145 63 -198 75 -43 10 -1952 12 -2000 2z
m1492 -720 c18 -17 33 -38 33 -45 0 -7 3 -13 8 -13 10 0 42 -80 47 -121 17
-117 20 -191 19 -524 -2 -372 -8 -600 -18 -643 -10 -45 -30 -92 -39 -92 -4 0
-6 -4 -3 -9 3 -5 -4 -20 -17 -33 -12 -14 -29 -34 -38 -44 -43 -51 -111 -81
-140 -64 -10 7 -13 172 -16 809 l-3 802 22 8 c46 17 109 4 145 -31z m2 -2687
c22 -12 49 -34 58 -49 10 -15 23 -33 30 -40 7 -7 14 -20 14 -28 2 -16 5 -33 9
-36 1 -2 3 -10 5 -18 2 -8 7 -26 10 -40 16 -67 26 -1001 12 -1095 -20 -128
-50 -194 -106 -234 -33 -24 -113 -42 -132 -30 -7 4 -16 6 -20 3 -4 -2 -9 2
-11 9 -4 10 -3 1520 1 1571 1 15 7 17 45 13 24 -3 63 -15 85 -26z"/>
<path d="M7588 6745 c-1 -1 -49 -5 -106 -9 -57 -3 -106 -7 -110 -10 -4 -2 -29
-7 -56 -10 -27 -4 -52 -9 -56 -11 -4 -2 -17 -6 -31 -9 -137 -28 -314 -104
-445 -191 -203 -136 -341 -330 -434 -614 -21 -64 -41 -132 -43 -151 -3 -19 -6
-35 -7 -35 -3 0 -14 -90 -14 -122 -1 -18 -3 -33 -6 -33 -3 0 -6 -287 -7 -637
0 -449 -4 -657 -13 -703 -26 -144 -87 -281 -157 -355 -17 -18 -16 -22 8 -48
51 -55 133 -238 144 -326 2 -18 7 -43 11 -54 4 -11 8 -235 9 -496 3 -421 7
-592 19 -696 2 -16 7 -63 11 -103 3 -41 9 -83 11 -95 3 -12 7 -34 10 -50 17
-109 20 -126 45 -222 39 -155 78 -252 144 -355 45 -71 143 -172 209 -217 23
-15 43 -31 46 -34 13 -16 186 -103 258 -129 87 -32 211 -65 282 -75 25 -4 61
-10 80 -12 57 -9 341 -9 395 0 28 5 59 10 70 12 232 34 494 163 647 317 133
134 256 380 313 624 2 10 9 37 14 59 5 22 13 60 16 85 3 25 8 61 11 80 14 107
18 211 18 552 l1 377 -33 29 -32 29 -514 2 -514 2 -26 -34 -26 -34 -3 -579
c-2 -318 -6 -589 -9 -601 -13 -45 -42 -95 -62 -108 -19 -13 -66 -20 -109 -16
-29 2 -73 54 -85 101 -15 59 -22 141 -28 335 -6 216 -6 1234 0 1263 3 13 7 31
10 40 3 9 7 28 10 42 12 70 75 201 132 277 25 33 30 49 16 55 -8 3 -92 123
-92 131 0 3 -8 22 -17 43 -9 22 -17 41 -18 44 -1 3 -6 23 -13 45 -13 46 -20
84 -28 140 -3 22 -7 360 -8 750 -2 666 1 774 24 835 2 3 6 14 10 25 4 11 20
32 34 46 24 24 33 27 84 24 50 -3 60 -7 85 -37 55 -65 57 -94 60 -653 2 -353
4 -393 19 -418 30 -45 50 -49 252 -53 105 -2 272 -6 371 -9 212 -8 177 -8 300
-2 157 7 196 34 205 137 7 85 5 1665 -3 1692 -11 40 -36 49 -142 50 -123 1
-134 -6 -175 -116 -23 -61 -36 -83 -46 -79 -8 3 -14 9 -14 13 0 12 -116 93
-177 124 -53 26 -158 68 -168 66 -3 0 -18 6 -33 14 -15 8 -41 16 -57 19 -17 3
-50 10 -75 16 -47 10 -97 20 -140 27 -14 2 -70 6 -125 9 -55 4 -105 8 -112 10
-6 2 -13 2 -15 0z"/>
</g>
</svg>
